<?xml version="1.0" encoding="utf-8"?>
<!-- Generator: Adobe Illustrator 19.0.0, SVG Export Plug-In . SVG Version: 6.00 Build 0)  -->
<!DOCTYPE svg PUBLIC "-//W3C//DTD SVG 1.1//EN" "http://www.w3.org/Graphics/SVG/1.1/DTD/svg11.dtd">
<svg version="1.1" id="Layer_1" xmlns="http://www.w3.org/2000/svg" xmlns:xlink="http://www.w3.org/1999/xlink" x="0px" y="0px"
	 viewBox="-88 423.5 512 449.5" enable-background="new -88 423.5 512 449.5" xml:space="preserve">
<g>
	<path fill="currentColor" d="M419.7,836.7L187.9,435c-4.1-7.1-11.7-11.5-19.9-11.5c-8.2,0-15.8,4.4-19.9,11.5L-84.9,838.5c-4.1,7.1-4.1,15.9,0,23
		c4.1,7.1,11.7,11.5,19.9,11.5h465.9c0,0,0.1,0,0.1,0c12.7,0,23-10.3,23-23C424,845,422.4,840.4,419.7,836.7z M-25.1,827
		l193.1-334.4L361,827L-25.1,827L-25.1,827z"/>
	<path fill="currentColor" d="M144.9,595.4V698c0,12.7,10.3,23,23,23c12.7,0,23-10.3,23-23V595.4c0-12.7-10.3-23-23-23S144.9,582.7,144.9,595.4z"/>
	<path fill="currentColor" d="M167.9,741.3c-7.5,0-15,3-20.3,8.4c-5.3,5.4-8.5,12.8-8.5,20.4c0,7.5,3.1,15,8.5,20.3c5.4,5.4,12.8,8.5,20.3,8.5
		c7.6,0,15-3.1,20.4-8.5c5.3-5.4,8.5-12.8,8.5-20.3c0-7.6-3.1-15-8.5-20.4C182.9,744.4,175.5,741.3,167.9,741.3z"/>
</g>
</svg>
