<svg id="Layer_1" data-name="Layer 1" xmlns="http://www.w3.org/2000/svg" width="25" height="20.03" viewBox="0 0 25 20.03"><defs><style>.cls-1{fill:#999;}</style></defs><title>camera</title><path class="cls-1" d="M6.91,11.53A5.59,5.59,0,1,0,12.5,5.94,5.59,5.59,0,0,0,6.91,11.53Zm5.59,4.34a4.34,4.34,0,1,1,4.34-4.34,4.34,4.34,0,0,1-4.34,4.34h0Z" transform="translate(0 -0.01)"/><path class="cls-1" d="M23.82,3H17.24V0.63A0.63,0.63,0,0,0,16.62,0H8.38a0.63,0.63,0,0,0-.62.62V3H1.18A1.18,1.18,0,0,0,0,4.21V18.86A1.18,1.18,0,0,0,1.18,20H23.82A1.18,1.18,0,0,0,25,18.86V4.21A1.18,1.18,0,0,0,23.82,3Zm-7.2,1.25h7.13V18.79H1.25V4.28H8.38A0.62,0.62,0,0,0,9,3.66V1.26h7v2.4A0.63,0.63,0,0,0,16.62,4.28Z" transform="translate(0 -0.01)"/></svg>