<?xml version="1.0" encoding="utf-8"?>
<!DOCTYPE svg PUBLIC "-//W3C//DTD SVG 1.1//EN" "http://www.w3.org/Graphics/SVG/1.1/DTD/svg11.dtd">
<svg id="Layer_1" xmlns="http://www.w3.org/2000/svg" viewBox="-551.3 226 310 110">
  <path fill="currentColor" class="st0" d="M-529.3 239.5h8.3c.2 0 .2 1.1 0 1.1-4.7 0-5.1.1-5.3.2-.2.2-.3 1.8-.4 9.8 0 4.7-.1 7.2-.1 16.1 0 5.3.1 6.5.2 6.6.2.2 1.2.4 5.1.4 5 0 6.6-.4 7.7-1.5 1.1-1.1 2.2-3.7 4-11.1.1-.2 1-.2 1 0-.1 4-.2 10.1-.5 13.4 0 .3-.1.5-.7.5-4.5-.2-8.7-.1-14.7-.1-6.5 0-10.2 0-13.7.1-.2 0-.1-1.1.1-1.1 4.5-.1 5-.1 5.2-.2.2-.2.2-1 .2-4.6.1-7 .2-14.3.2-20.7 0-5.3-.1-7.1-.3-7.4-.2-.2-1-.3-5-.4-.2 0-.1-1.1.1-1.1 2.8-.1 6.5 0 8.6 0zM-505.9 274.7c-.2 0-.2-1 0-1 3.3-.1 4.2-.1 4.4-.3s.3-.9.4-2.4c.1-1.9.1-3.3.1-5.1 0-2.2-.1-7.9-.2-10.7 0-1.1-.1-1.6-.4-1.8s-.7-.2-4.4-.3c-.2 0-.2-1 0-1 3-.1 8.2-.2 9.4-.2.4 0 .6.1.6.5-.1 3.3 0 10 0 14 0 5.4.2 6.8.5 7.1.2.2 1 .3 4.1.3.3 0 .3 1.1 0 1.1-1.4-.2-13.6-.2-14.5-.2zm7-29.6c-1.8 0-3.2-1.6-3.2-3.3 0-1 .4-1.7 1-2.3.7-.7 1.5-1.1 2.7-1.1 1.6 0 3.1 1.4 3.1 3.1 0 1.8-1.9 3.6-3.6 3.6zM-483.8 272.3c-.3 0-1.2.8-3.6 3.2-.2.2-.9.1-.9-.2.1-3 .2-8.9.2-16.3 0-4.4-.1-10.1-.2-15.9-.1-2.8-.1-3.7-.3-3.9s-.6-.2-3.8-.2c-.2 0-.2-1 0-1 3.1-.1 7.5-.2 9.2-.3.4 0 .5.2.5.6 0 1.3-.2 17.2-.2 18.7l.1.1c1.6-3.3 4.2-6 7.7-6 2.7 0 5.1 1.4 7 3.2 1.9 2 3.1 4.7 3.1 8 0 4-1.8 7.3-4.2 9.6-2.2 2.1-4.6 3.4-7.5 3.4-4 0-6.5-3-7.1-3zm2-14.8c-.7 1.5-1 2.7-1 5.2 0 6.2.2 7.8.6 8.6.5 1.1 3.1 2.7 5.3 2.7 2 0 3.6-1 4.6-3.1.9-1.7 1.4-4.3 1.4-8 0-3.9-.5-6.6-1.3-8-.8-1.5-1.7-2.3-3.6-2.3-2.6-.1-4.9 2.5-6 4.9zM-438.6 268.2c-1.8 5-6.1 7.3-10 7.3s-7.4-1.5-9.7-4c-2.1-2.1-3.4-4.7-3.4-8.4 0-3.1 1.5-6.2 3.4-8.2 2.4-2.4 5.3-4 8.8-4 3.5 0 6.3 1.5 8.1 3.4 1.6 1.6 3 4.5 3.1 8 0 .3-.1.4-.4.5-9.4-.1-14 .1-17 .2 0 3.7.5 6 1.3 7.6 1.2 2.2 3 3.5 6.3 3.5 3.7 0 6.6-2.1 8.3-6.3.4-.3 1.2.1 1.2.4zm-15.6-13.5c-1 1.8-1.3 4.2-1.4 7.1l11.8-.1c-.4-6.8-2.1-9.5-6-9.5-2.2-.2-3.8 1.1-4.4 2.5zM-432.9 273.4c.2-.2.3-2.1.4-3.6 0-2.1 0-7.6-.1-10.2 0-4.4-.3-6.1-.5-6.3s-.7-.2-3.9-.3c-.2 0-.2-1.1.1-1.1 2.3 0 7.4-.2 8.6-.2.8 0 1 .1 1 .9-.1 1.5-.1 4.5-.1 6.6h.1c1.8-4.4 4-7.9 7.4-7.9 3 0 4.9 1.8 4.9 4.2 0 2.4-1.7 3.8-3.4 3.8s-2.9-1.1-2.9-2.7c0-1.9 1.5-2.7 1.5-3.2 0-.2-.3-.5-1-.5-1.8 0-3.7 2.3-5 5.2-1.1 2.2-1.5 3.8-1.5 5.7v5.3c.1 2.7.2 4.1.4 4.3.1.2 1.1.2 4.5.3.3 0 .3 1.1.1 1.1h-14.9c-.2 0-.2-1.1 0-1.1 3.8-.1 4.1-.2 4.3-.3zM-407.5 254c0 .7 2.2.8 2.2 3.1 0 1.6-1.3 2.8-3 2.8-1.6 0-3-1.3-3-3 0-1.2.5-2.1 1.4-3 1.5-1.5 3.9-2.8 7.4-2.8 3.6 0 5.8 1.1 7.4 2.6 1.5 1.5 2 3.3 2 6 0 2.9-.2 7.9-.2 11.9 0 1.4.4 1.9 1.4 1.9 1.3 0 2.4-1.3 3-4.2.1-.2.9-.1.9.2-.5 3.3-2.3 5.7-5.4 5.7-2.9 0-4.7-1.5-5.3-3.9-1.9 2.2-4.4 3.8-7.3 3.9-3.4.1-7-2.3-7-5.8 0-1.5.5-2.8 1.7-4 1.9-1.9 5.3-3.4 12.8-4 .1-.8 0-2.4 0-4.1 0-2.2-.3-3.3-1.1-4.1-.7-.7-1.8-1.1-3.6-1.1-2.6.1-4.3 1.5-4.3 1.9zm-.2 15.1c0 2.8 1 4.5 3 4.5 2.3 0 5-2.2 5.6-3.4.2-.4.3-.8.4-2.5.1-1.6.1-2.3.1-5-7.7.5-9.1 1.7-9.1 6.4zM-377.8 237.8c.5 0 .6.2.6.7-.1 6-.1 11-.1 17.3 0 5.8-.1 10.6-.1 15.3 0 1.5.2 2 .5 2.3.2.2.5.3 4 .4.2 0 .2 1.1 0 1.1-5.1-.2-8.3-.2-13.7-.2-.2 0-.1-1.1.1-1.1 3.1 0 3.6-.1 3.8-.2.2-.2.2-.5.2-1.4.1-2.8.2-8.2.2-11.8 0-7.9 0-13.2-.1-19.4 0-1.1 0-1.4-.2-1.5s-.5-.2-3.9-.4c-.2-.1-.2-1 .1-1 3-.1 5.1-.1 8.6-.1zM-355.5 272.6c.7-.7 1.4-1.8 2.3-3.8 4.8-10.4 9.7-21.1 13.2-30.4.1-.1.4-.2 1.1-.2 1 0 1.2.1 1.3.4 1.5 4.7 4 12 10.6 30.1 1 2.8 1.5 3.7 2.1 4.5.5.5 1.1.6 4.5.8.2 0 .2 1 0 1-3.3-.1-5.6-.2-7.9-.2-2.7 0-4.3-.1-7.6.1-.1 0-.2-1 0-1 2.8-.2 3.5-.3 3.8-.7.3-.2.4-.7 0-1.9-.5-1.5-1.6-4.7-2.6-7.4-1-.1-4.2-.1-8.7-.1-2.2 0-3.7 0-5.3.1-.2 0-.5 0-.6.3-1 2-1.5 3.4-2.3 5.6-.4 1-.6 1.9-.6 2.5 0 1.3.5 1.5 4.5 1.6.1 0 .1 1-.1 1-3.1-.1-8.2-.1-11.8 0-.1 0-.1-1 0-1 2.8-.3 3.4-.5 4.1-1.3zm14.1-27.1c-2.6 6.2-5.2 12-7.3 16.7 3.6.2 9.9.3 13.4.3-1.7-4.9-4.3-12.3-6.1-17 .1 0 0 0 0 0zM-314.2 273.4c.2-.2.3-2.1.4-3.6 0-2.1 0-7.6-.1-10.2 0-4.4-.3-6.1-.5-6.3s-.7-.2-3.9-.3c-.2 0-.2-1.1.1-1.1 2.3 0 7.4-.2 8.6-.2.8 0 1 .1 1 .9-.1 1.5-.1 4.5-.1 6.6h.1c1.8-4.4 4-7.9 7.4-7.9 3 0 4.9 1.8 4.9 4.2 0 2.4-1.7 3.8-3.4 3.8-1.6 0-2.9-1.1-2.9-2.7 0-1.9 1.5-2.7 1.5-3.2 0-.2-.3-.5-1-.5-1.8 0-3.7 2.3-5 5.2-1.1 2.2-1.5 3.8-1.5 5.7v5.3c.1 2.7.2 4.1.4 4.3.1.2 1.1.2 4.5.3.3 0 .3 1.1.1 1.1h-14.9c-.2 0-.2-1.1 0-1.1 3.7-.1 4.1-.2 4.3-.3zM-283.4 275.2c-2.4 0-4.2-.8-5.4-2-1.1-1.1-1.5-2.3-1.5-4.8 0-3.8.1-10.4.2-15-.4-.1-3.5-.1-4.2-.1-.3 0-.2-1.1-.1-1.1 3.5-.2 4.5-.5 5.3-1.3 1.2-1.1 2.7-4.4 3.3-7.2.1-.3 1-.3 1 0-.2 1.9-.2 6.5-.2 8.3 2.3.1 6.2.1 7.1.1.4 0 .2 1.3-.1 1.3-4.5 0-6.4.1-7.1.1-.1 2.1-.2 8.6-.2 13.3 0 4 .1 4.6.5 5.4.4.8 1.4 1.5 2.7 1.5 1.8 0 3.5-1.9 4.5-5.7.1-.2 1.1-.1 1 .2-1.1 4.4-3.4 7-6.8 7zM-256.2 272.5c-1.8 1.7-4.6 2.6-7.2 2.6-4.6 0-6.9-1.6-7.4-1.6-.3 0-.7.7-1.3 1.9-.1.2-1 .2-1-.1-.1-2.7-.4-6-.6-8.5 0-.2 1-.4 1-.1.7 2.1 1.5 4.1 2.7 5.1 1.4 1.4 3.9 2.1 6.4 2.1 2.1 0 3.6-.5 4.5-1.3.5-.6 1-1.5 1-2.8 0-1.9-1.5-3-6.6-4.3-3.9-1.1-5.7-1.8-6.9-3-1-1-1.5-2.2-1.5-3.7 0-4.4 4-7.5 8.5-7.5 3.6 0 6 1.8 6.6 1.8.3 0 .5-.5 1.3-2.4.1-.2.9-.1 1 .1-.2 2.6-.2 5.1-.1 7.7 0 .4-.9.4-1.1.1-.8-1.9-1.5-3.3-2.4-4.2-1.3-1.3-2.8-2.1-5.4-2.1-1.6 0-3 .5-3.8 1.4-.6.6-1 1.5-1 2.4 0 2.2 1.6 3.1 6.8 4.4 4 1.1 5.8 1.8 7 3.1 1.1 1.1 1.5 2.3 1.5 3.9 0 2.1-.9 3.7-2 5z"/>
  <path fill="#F15C22" class="st1" d="M-521.1 306.8c.5-1.1 1.2-2.2 1.3-2.2.3 0 2.2.3 2.3.4s.2.8.2 1c-.6 1.3-3.3 7.7-4.7 11.7-.4 1.1-.7 2.4-.7 3.2s.5 1.4 1.2 1.4c1.2 0 2.4-.7 5.2-4.2.1-.1.7.3.7.4-2.6 3.5-4.4 4.9-6.6 4.9-1.5 0-3.3-1.2-3.3-2.9 0-.8.1-1.5.3-2.4-2.1 2.9-5.1 5.4-7.4 5.4-2.3 0-5-2.5-5-6 0-2.4 1-4.9 3.8-7.8 3.1-3 6.8-5 9.5-5 1.3-.1 2.6.8 3.2 2.1zm-12.4 7.4c-1.3 2.6-1.6 4.4-1.6 5.6 0 1.6 1.2 2.6 2.6 2.6 2.4 0 6.1-3.4 7.9-7.1 1.8-3.6 2.9-6.7 2.9-7.4 0-1.2-1.2-2.5-2.9-2.5-3.8 0-6.6 4.1-8.9 8.8zM-505.1 305.2c.1 0 .2.1.2.2-.3 1-1.9 5.5-2.4 6.7 0 .1.1.3.2.2 4-5.2 6.2-7.7 8.7-7.7 1.4 0 2.3.5 3.1 1.3.8.8 1.2 1.6 1.2 2.6 0 1.6-.6 2.7-2.3 6.3-1.6 3.5-2.2 4.8-2.2 5.8 0 .9.6 1.5 1.4 1.5 1.4 0 3.1-1.4 5.1-3.7.1-.1.8.4.7.5-1.5 1.8-4.5 4.6-6.7 4.6-1.1 0-1.7-.3-2.4-1.1-.7-.7-1-1.5-1-2.5s.5-2.5 2.2-6c1.7-3.6 2.2-4.7 2.2-5.9s-.8-1.9-1.8-1.9c-1.2 0-1.9.5-3.8 2.3-3.2 3.2-5.9 7.3-6.7 9.2-.7 1.7-1.6 3.8-2.3 5.4 0 .2-2.9 0-3.2 0-.1 0-.1-.1 0-.2.6-1.4 3.9-8.7 4.5-10.4 1.7-4.4 2-6 1.9-6.1s-4.3 0-4.8-.1c-.1 0 0-.9.1-.9 2.5 0 7.9-.1 8.1-.1zM-472.3 307.6s.1.1 0 0c1.9-4.5 3.2-7.5 4.8-11.9.2-.7.1-1 0-1.1s-3.2-.2-5.1-.2c-.1 0-.1-.9 0-.9 2.5 0 6.1.1 9.2 0 .1 0 .3.1.2.3-4 9.3-6 14.2-10.3 23.9-.6 1.3-.8 2.1-.8 2.9 0 .8.4 1.4 1.2 1.4 1.2 0 2.2-.6 3.8-2.2.7-.7 1.2-1.2 1.7-1.9.1-.1.7.4.6.5-2.4 3.1-4.6 4.9-6.6 4.9s-3.6-1.4-3.6-3.1c0-.5 0-.7.1-1.3-2.3 2.9-4.6 4.5-7.3 4.5-1.5 0-3.2-.9-4.3-1.8-1-1-1.7-2.3-1.7-4.3 0-3 1.5-6 4-8.4 2.3-2.3 5.8-4.5 9.6-4.5 2.2.1 3.9 1.5 4.5 3.2zm-12.8 5.4c-1.1 2-1.7 4.2-1.7 6.2 0 2.2.9 3.6 2.9 3.6 1.5 0 3-.6 5-2.6 1.6-1.6 2.6-3 3.9-6 1.1-2.5 2-4.6 2.1-5.1-.4-2-1.7-3.6-4-3.6-3.3-.2-6.3 3.5-8.2 7.5z"/>
  <path fill="currentColor" class="st0" d="M-426.3 287.3c.1-.2.9-.1.9.1-.3 3.7-.4 6.9-.1 11.4 0 .2-.8.3-1 .1-1.5-4.1-2.9-6.4-4.4-7.8-1.5-1.5-3.6-2.5-6.6-2.5-3.1 0-5 .9-6.3 2.2-1.2 1.2-1.8 2.8-1.8 4.6 0 3.9 2.5 5 9.2 6.8 6 1.6 8.9 3.1 10.6 4.8 1.5 1.5 2.2 3.3 2.2 6 0 6.2-5.4 10.6-12.3 10.6-6.3 0-9.4-3.1-10.6-3.1-.8 0-1.6 1.1-2.5 2.6-.1.2-.9.1-.9-.1.1-4.1.1-7.4-.4-12.7 0-.2.8-.4.9-.1 2.2 5.1 3.7 7.5 5.3 9.2 1.8 1.8 4.7 3 8.1 3 2.9 0 5-.8 6.3-2s1.8-2.6 1.8-4.6c0-3.7-2.3-5.5-9.2-7.3-6-1.5-8.8-2.8-10.5-4.5-1.5-1.5-2.2-3.2-2.2-5.9 0-5.6 5.1-10.6 12.4-10.6 6 0 8.6 2.5 9.2 2.5.5 0 1.2-1.3 1.9-2.7zM-416.1 320.1c-1.9-1.9-3.4-4.5-3.4-8.1 0-3.1 1.3-6.1 3.6-8.5 2.2-2.2 5.2-4 9.2-4 5.2 0 9.3 3.1 9.3 6.3 0 2.2-1.5 3.6-3.3 3.6-1.6 0-3-1.3-3-2.7 0-.9.2-1.5.7-2 1-1 2.2-.8 2.4-1.1.5-.5-1.8-2.8-5.9-2.8-3.1 0-4.7 1.5-5.6 3.3-1 1.9-1.4 4.2-1.4 7.4 0 4 .3 6.2 1.2 7.7 1 1.8 2.4 3.3 5.6 3.3 3.4 0 6.6-2.3 8.1-6.9.1-.5 1.3.1 1.1.5-1.6 4.8-5.2 7.8-10.1 7.8-3.2-.2-6.2-1.5-8.5-3.8zM-395.5 323.1c-.2 0-.2-1 0-1 3.3-.1 4.2-.1 4.4-.3.2-.2.3-.9.4-2.4.1-1.9.1-3.3.1-5.1 0-2.2-.1-7.9-.2-10.7 0-1.1-.1-1.6-.4-1.8-.3-.2-.7-.2-4.4-.3-.2 0-.2-1 0-1 3-.1 8.2-.2 9.4-.2.4 0 .6.1.6.5-.1 3.3 0 10 0 14 0 5.4.2 6.8.5 7.1.2.2 1 .3 4.1.3.3 0 .3 1.1 0 1.1-1.4-.2-13.7-.2-14.5-.2zm7-29.7c-1.8 0-3.2-1.6-3.2-3.3 0-1 .4-1.7 1-2.3.7-.7 1.5-1.1 2.7-1.1 1.6 0 3.1 1.4 3.1 3.1 0 1.9-1.8 3.6-3.6 3.6zM-357.5 316.6c-1.8 5-6.1 7.3-10 7.3s-7.4-1.5-9.7-4c-2.1-2.1-3.4-4.7-3.4-8.4 0-3.1 1.5-6.2 3.4-8.2 2.4-2.4 5.3-4 8.8-4s6.3 1.5 8.1 3.4c1.6 1.6 3 4.5 3.1 8 0 .3-.1.4-.4.5-9.4-.1-14 .1-17 .2 0 3.7.5 6 1.3 7.6 1.2 2.2 3 3.5 6.3 3.5 3.7 0 6.6-2.1 8.3-6.3.3-.3 1.3.1 1.2.4zm-15.6-13.6c-1 1.8-1.3 4.2-1.4 7.1l11.8-.1c-.4-6.8-2.1-9.5-6-9.5-2.3-.1-3.8 1.2-4.4 2.5zM-355.7 322.1c3-.1 3.6-.1 3.9-.2.2-.2.4-1.1.4-4.5v-11.5c0-2.5-.2-3.9-.5-4.2-.2-.2-.8-.3-3.8-.4-.2 0-.2-1 .1-1 2.6 0 6.9-.1 9.2-.1.4 0 .4.2.4.6-.1 1.5-.2 4.3-.2 5.7l.2.1c2-4 4.5-7.4 8.6-7.4 4.5 0 7.2 2.9 7.2 8.4 0 2.2-.1 5-.1 7.8 0 4.9.2 6 .5 6.3.2.2.7.2 3.5.4.2 0 .2 1-.1 1-4.6-.1-8.5-.1-12.1-.1-.3 0-.2-1-.1-1 1.7-.1 2.4-.2 2.7-.4.2-.2.2-1 .2-2.4 0-1.8-.1-11.6-.1-12.9 0-3.1-1-4.8-3.3-4.8-2.8 0-5.2 3.1-6.5 5.6-.7 1.3-.8 1.9-.8 4 0 1.7.1 5.4.1 7.5.1 2 .1 2.7.3 2.9s.6.3 3.5.4c.2 0 .2 1-.1 1-3.7-.1-9.5-.1-13.1 0-.3.2-.2-.8 0-.8zM-322.4 320.1c-1.9-1.9-3.4-4.5-3.4-8.1 0-3.1 1.3-6.1 3.6-8.5 2.2-2.2 5.2-4 9.2-4 5.2 0 9.3 3.1 9.3 6.3 0 2.2-1.5 3.6-3.3 3.6-1.6 0-3-1.3-3-2.7 0-.9.2-1.5.7-2 1-1 2.2-.8 2.4-1.1.5-.5-1.8-2.8-5.9-2.8-3.1 0-4.7 1.5-5.6 3.3-1 1.9-1.4 4.2-1.4 7.4 0 4 .3 6.2 1.2 7.7 1 1.8 2.4 3.3 5.6 3.3 3.4 0 6.6-2.3 8.1-6.9.1-.5 1.3.1 1.1.5-1.6 4.8-5.2 7.8-10.1 7.8-3.2-.2-6.3-1.5-8.5-3.8zM-277.7 316.6c-1.8 5-6.1 7.3-10 7.3s-7.4-1.5-9.7-4c-2.1-2.1-3.4-4.7-3.4-8.4 0-3.1 1.5-6.2 3.4-8.2 2.4-2.4 5.3-4 8.8-4s6.3 1.5 8.1 3.4c1.6 1.6 3 4.5 3.1 8 0 .3-.1.4-.4.5-9.4-.1-14 .1-17 .2 0 3.7.5 6 1.3 7.6 1.2 2.2 3 3.5 6.3 3.5 3.7 0 6.6-2.1 8.3-6.3.3-.3 1.3.1 1.2.4zm-15.6-13.6c-1 1.8-1.3 4.2-1.4 7.1l11.8-.1c-.4-6.8-2.1-9.5-6-9.5-2.1-.1-3.7 1.2-4.4 2.5zM-256.3 320.8c-1.8 1.7-4.6 2.6-7.2 2.6-4.6 0-6.9-1.6-7.4-1.6-.3 0-.7.7-1.3 1.9-.1.2-1 .2-1-.1-.1-2.7-.4-6-.6-8.5 0-.2 1-.4 1-.1.7 2.1 1.5 4.1 2.7 5.1 1.4 1.4 3.9 2.1 6.4 2.1 2.1 0 3.6-.5 4.5-1.3.5-.6 1-1.5 1-2.8 0-1.9-1.5-3-6.6-4.3-3.9-1.1-5.7-1.8-6.9-3-1-1-1.5-2.2-1.5-3.7 0-4.4 4-7.5 8.5-7.5 3.6 0 6 1.8 6.6 1.8.3 0 .5-.5 1.3-2.4.1-.2.9-.1 1 .1-.2 2.6-.2 5.1-.1 7.7 0 .4-.9.4-1.1.1-.8-1.9-1.5-3.3-2.4-4.2-1.3-1.3-2.8-2.1-5.4-2.1-1.6 0-3 .5-3.8 1.4-.6.6-1 1.5-1 2.4 0 2.2 1.6 3.1 6.8 4.4 4 1.1 5.8 1.8 7 3.1 1.1 1.1 1.5 2.3 1.5 3.9.1 2.2-.8 3.8-2 5z"/>
</svg>
