<?xml version="1.0" encoding="utf-8"?>
<!-- Generator: Adobe Illustrator 18.1.1, SVG Export Plug-In . SVG Version: 6.00 Build 0)  -->
<!DOCTYPE svg PUBLIC "-//W3C//DTD SVG 1.1//EN" "http://www.w3.org/Graphics/SVG/1.1/DTD/svg11.dtd">
<svg version="1.1" id="Layer_1" xmlns="http://www.w3.org/2000/svg" xmlns:xlink="http://www.w3.org/1999/xlink" x="0px" y="0px"
	 viewBox="0 0 322.7 59.2" enable-background="new 0 0 322.7 59.2" xml:space="preserve">
<polygon fill="#8C8C8C" points="60,48.7 60,34.3 73.2,34.3 73.2,24.8 60,24.8 60,11.4 74.5,11.4 74.5,16.6 84.1,16.6 84.1,2 45.7,2 
	45.7,11.4 49.3,11.4 49.3,48.7 45.7,48.7 45.7,58.1 63.4,58.1 63.4,48.7 "/>
<rect x="92.9" y="2" fill="#8C8C8C" width="2.5" height="56.1"/>
<path fill="#8C8C8C" d="M294.3,8c0.6,0,1.1,0,1.6,0l-1.8,9.1c-0.5,2.5-0.8,4.1-1.1,4.9c-0.1,0.4-0.3,0.7-0.5,0.8
	c-0.2,0.1-0.4,0.2-0.6,0.2c-0.2,0-0.5-0.1-0.7-0.3c-0.2-0.2-0.4-0.4-0.6-0.8l-0.4,0.1c-0.1,0.4-0.2,0.8-0.3,1.2
	c-0.1,0.4-0.3,0.9-0.5,1.5c0.3,0.1,0.6,0.2,0.9,0.2c0.4,0,0.8-0.1,1.2-0.3c0.8-0.4,1.6-1.1,2.3-1.9c0.8-0.9,1.4-1.9,1.8-3.1
	c0.5-1.2,1-3,1.7-5.7l1.3-5.8c0.3,0,0.7,0,1.2,0c0.9,0,1.5,0,1.9,0c0.1-0.4,0.2-0.8,0.4-1.3L302,6.5c-0.3,0-0.7,0.1-1.2,0.1
	c-0.9,0.1-1.4,0.1-1.6,0.1h-0.3c0.2-1.1,0.4-2.1,0.7-3.2c0.1-0.4,0.2-0.7,0.3-0.9c0.1-0.2,0.3-0.3,0.4-0.5C300.6,2,300.8,2,301,2
	c0.3,0,0.6,0.1,0.9,0.3c0.3,0.2,0.7,0.6,1,1.1l0.4-0.1c0.1-1,0.4-2,0.7-3.1c-0.3-0.1-0.7-0.2-1-0.2c-0.5,0-0.9,0.1-1.1,0.2
	c-0.3,0.1-0.8,0.5-1.7,1.1c-0.9,0.6-1.6,1.3-2.4,1.9c-0.5,0.4-0.8,0.8-1,1.2c-0.1,0.3-0.3,0.7-0.4,1.4c-0.1,0.3-0.1,0.5-0.2,0.6
	c-0.3,0.2-0.8,0.3-1.3,0.5c-0.5,0.1-0.9,0.3-1.2,0.4L293.5,8C293.7,8,294,8,294.3,8 M283.1,10.8c0.4-1.4,0.8-2.3,1.2-2.7
	c0.5-0.5,1-0.7,1.7-0.7c0.6,0,1.1,0.2,1.5,0.7c0.4,0.4,0.6,1.2,0.6,2.1c0,1.2-0.2,2.4-0.5,3.7c-0.2,0.9-0.5,1.6-0.8,2.1
	c-0.3,0.5-0.6,0.9-0.9,1.1c-0.3,0.2-0.7,0.3-1.2,0.3c-0.7,0-1.2-0.2-1.6-0.6c-0.4-0.4-0.6-1.1-0.6-2.1
	C282.6,13.4,282.8,12.2,283.1,10.8 M280,16.6c0.2,0.6,0.6,1.1,1.2,1.4c0.6,0.3,1.3,0.5,2.3,0.5c0.8,0,1.6-0.1,2.2-0.4
	c0.7-0.2,1.3-0.6,2-1.1c0.7-0.5,1.2-0.9,1.6-1.3c0.5-0.6,0.9-1.4,1.2-2.4c0.4-1.1,0.5-2.1,0.5-3.2c0-0.6-0.1-1.1-0.2-1.5
	c-0.1-0.5-0.4-0.9-0.6-1.2c-0.3-0.3-0.7-0.6-1.3-0.8c-0.6-0.2-1.2-0.3-1.9-0.3c-0.8,0-1.6,0.2-2.4,0.5c-0.7,0.3-1.4,0.7-2,1.2
	c-0.6,0.5-1.1,0.9-1.3,1.2c-0.4,0.5-0.8,1.3-1.1,2.3c-0.3,1.1-0.5,2.1-0.5,3.1C279.7,15.3,279.8,16,280,16.6"/>
<path fill="#8C8C8C" d="M301.4,31.8l5.4,13c-1.5,0.1-3.2,0.1-5.2,0.1c-2,0-3.8,0-5.4-0.1L301.4,31.8z M290.9,58.2l5.8,0.2v-2.1
	c-2-0.1-3.2-0.2-3.6-0.4c-0.3-0.2-0.4-0.4-0.4-0.8c0-0.6,0.4-2,1.2-4.3l1.1-3H308l2.1,5.5c0.4,1,0.6,1.6,0.6,2
	c0,0.3-0.1,0.6-0.4,0.7c-0.3,0.1-1.4,0.3-3.4,0.3v2.1l8.8-0.2l7,0.2v-2.1c-0.5,0-0.9-0.1-1.1-0.1c-0.8-0.1-1.3-0.1-1.5-0.2
	c-0.2-0.1-0.4-0.2-0.5-0.3c-0.2-0.1-0.3-0.3-0.5-0.7l-1-2.3l-1.6-3.4l-11.2-26.2h-3.6l-2.2,5.7l-6.5,16.1c-1.2,3.1-2.1,5.1-2.5,6.1
	c-1,2.2-1.5,3.5-1.7,3.8c-0.2,0.3-0.4,0.6-0.6,0.8c-0.2,0.2-0.4,0.3-0.7,0.4c-0.3,0.1-1.1,0.2-2.4,0.3v2.1L290.9,58.2z M262.5,45.4
	v-5.8c0-6.6,0.1-11,0.3-13.4c1.6-0.2,3-0.3,4.3-0.3c3.4,0,6,0.3,7.7,0.9c1.7,0.6,3.1,1.6,4.2,2.9s1.9,2.9,2.4,4.7
	c0.5,1.8,0.7,3.6,0.7,5.5c0,2.1-0.2,4-0.7,5.8c-0.5,1.8-1.2,3.4-2,4.7c-0.9,1.3-1.8,2.3-2.7,3c-1,0.7-2.1,1.2-3.3,1.5
	c-1.7,0.5-3.7,0.7-5.9,0.7c-1.4,0-2.9-0.1-4.5-0.4C262.6,53.6,262.5,50.4,262.5,45.4 M260.3,58.2l7.4,0.2c3.4,0,6.3-0.4,8.6-1.1
	c2.4-0.7,4.6-2,6.7-3.7c2-1.7,3.7-3.8,4.8-6.3c1.2-2.5,1.8-5.4,1.8-8.6c0-2.5-0.4-4.8-1.2-6.9c-0.5-1.3-1.2-2.4-2.1-3.5
	c-0.9-1.1-2-2-3.3-2.8c-1.3-0.8-2.9-1.4-4.6-1.7c-1.8-0.4-4.1-0.5-7.1-0.5c-1.3,0-3,0-5.1,0.1c-3,0.1-5,0.1-6,0.1l-9.1-0.2v2
	c1.8,0.2,2.9,0.4,3.1,0.5c0.3,0.1,0.5,0.2,0.6,0.3c0.1,0.1,0.2,0.2,0.2,0.4c0.2,0.7,0.3,2.2,0.3,4.5c0.1,4.3,0.1,7.5,0.1,9.7v4.1
	c0,5-0.1,8.7-0.3,10.9c-0.5,0.4-1.1,0.8-1.7,1.1c-0.3,0.2-0.6,0.3-0.7,0.4v1.2L260.3,58.2z M240.9,23.4c-2.7,0-5.1-0.1-7.3-0.2v2.2
	c1.8,0.1,2.9,0.1,3.2,0.2c0.3,0.1,0.5,0.2,0.6,0.3c0.1,0.1,0.2,0.3,0.2,0.5c0.1,0.5,0.2,1.9,0.3,4c0,1,0.1,3.1,0.1,6.4v10.5
	c0,1.7-0.1,3.6-0.2,5.6c-0.1,1.4-0.2,2.2-0.2,2.4c0,0.2-0.1,0.3-0.2,0.4c-0.1,0.1-0.4,0.2-0.7,0.3c-0.3,0.1-1.3,0.1-3,0.2v2.2
	c2.1-0.1,4.5-0.2,7.2-0.2c3.1,0,6,0.1,8.7,0.2v-2.2c-1.6,0-2.6-0.1-3-0.2c-0.3-0.1-0.6-0.2-0.8-0.3c-0.2-0.1-0.3-0.3-0.3-0.5
	c-0.2-0.5-0.3-1.6-0.3-3.4l-0.1-4.6V37.1c0-0.3,0-2.5,0.1-6.7c0-1.2,0-2,0.1-2.5c0-0.8,0.1-1.3,0.3-1.6c0.1-0.2,0.1-0.3,0.3-0.4
	c0.1-0.1,0.4-0.2,0.7-0.3c0.3-0.1,1.3-0.1,3-0.2v-2.2C246.9,23.4,244,23.4,240.9,23.4 M200.9,25.8c0.2,0.1,0.3,0.2,0.4,0.4
	c0.2,0.4,0.3,1.7,0.3,3.8l0.1,5.3v9.3l-0.2,7.3c-0.1,1.3-0.1,2.3-0.2,3c-0.1,0.4-0.1,0.6-0.2,0.7c-0.1,0.1-0.2,0.2-0.4,0.3
	c-0.3,0.1-1.5,0.2-3.4,0.3v2.2c2.2-0.1,4.6-0.2,7.2-0.2c2.9,0,5.8,0.1,8.7,0.2v-2.2c-1.6,0-2.6-0.1-2.9-0.2
	c-0.3-0.1-0.6-0.2-0.7-0.3c-0.2-0.1-0.3-0.2-0.3-0.4c-0.1-0.3-0.2-0.9-0.3-1.8c0-0.5-0.1-2.4-0.2-5.9c-0.1-2.8-0.1-5.5-0.1-8
	c0-1.6,0.1-4.7,0.2-9.5c0.1-2.1,0.1-3.5,0.2-4.1c0.8-0.1,1.6-0.2,2.4-0.2c1.8,0,3.1,0.1,3.8,0.4c1.1,0.4,2,1.1,2.7,2.1
	c0.7,1,1.1,2.3,1.1,3.8c0,1.5-0.4,2.9-1.1,4.1c-0.7,1.2-1.6,2.1-2.6,2.6c-1,0.5-2.5,0.7-4.5,0.6l-0.3,0.8c0.5,0.4,1,0.9,1.6,1.7
	c1.1,1.5,2.4,3.4,3.9,6l5.4,8.8c0.3,0.6,0.5,1.1,0.6,1.4c1.3-0.1,2.6-0.1,4-0.1c1.2,0,3,0,5.6,0.1v-2.2c-0.8,0-1.3-0.1-1.6-0.2
	c-0.3-0.1-0.5-0.3-0.8-0.6c-0.3-0.3-1.1-1.3-2.3-2.9c-0.1-0.1-0.6-0.9-1.7-2.5l-3.9-5.8c-0.1-0.2-0.2-0.3-0.3-0.5
	c-0.1-0.2-0.4-0.6-0.9-1.4c-0.5-0.8-1-1.5-1.4-2.3c2.6-1,4.5-2.3,5.8-3.9c1.3-1.7,1.9-3.5,1.9-5.5c0-1.7-0.5-3.2-1.4-4.3
	c-0.9-1.2-2-2-3.3-2.3c-1.3-0.4-3.3-0.6-5.9-0.6c-1.4,0-3.1,0-5.1,0.1c-1.3,0.1-2.8,0.1-4.5,0.1c-2.1,0-3.6,0-4.8-0.1
	c-2.3-0.1-3.6-0.1-4-0.1v2C199.3,25.5,200.5,25.6,200.9,25.8 M168.1,32.3c0.8-2.2,2-3.9,3.7-5.1c1.7-1.1,3.8-1.7,6.2-1.7
	c2.1,0,3.9,0.4,5.2,1.1c1.3,0.7,2.4,1.8,3.4,3.1c1,1.4,1.7,3,2.2,5c0.5,1.9,0.8,4.1,0.8,6.4c0,3.4-0.5,6.3-1.4,8.7
	c-0.9,2.4-2.2,4.1-3.9,5.1c-1.7,1-3.5,1.5-5.7,1.5c-2.3,0-4.2-0.5-5.9-1.6c-1.7-1.1-3-2.9-4.1-5.4c-1.1-2.6-1.6-5.8-1.6-9.7
	C167,37,167.4,34.5,168.1,32.3 M161.6,51.1c1.5,2.7,3.7,4.7,6.4,6c2.7,1.4,5.9,2,9.7,2c3.5,0,6.6-0.6,9.3-1.7c2-0.8,3.7-2,5.3-3.6
	c1.5-1.6,2.7-3.3,3.5-5.3c1.1-2.7,1.6-5.6,1.6-8.8c0-1.9-0.2-3.6-0.6-5.1c-0.4-1.5-0.9-2.9-1.7-4.2c-0.7-1.3-1.8-2.5-3.2-3.8
	c-1.4-1.2-3-2.2-4.9-2.8c-2.5-0.9-5.2-1.3-8.3-1.3c-3.1,0-5.9,0.4-8.5,1.3c-2,0.7-3.9,1.8-5.6,3.4c-1.7,1.6-3,3.5-4,5.8
	c-0.9,2.3-1.4,4.9-1.4,8C159.3,45.2,160,48.5,161.6,51.1 M139.9,58.1c1.1,0,3,0,5.8,0.1c3.6,0.1,5.6,0.1,5.9,0.1
	c2.1,0,3.7,0,4.7-0.1c0.5-0.1,1-0.1,1.5-0.3c0-0.3,0.1-1.3,0.2-2.9l0.6-5.1c0-0.1,0-0.4,0.1-0.8h-2.1c-0.3,1.6-0.6,3.1-1,4.4
	c-0.2,0.5-0.3,0.8-0.4,0.9c-0.1,0.1-0.5,0.2-1.2,0.3c-1.9,0.3-4.1,0.4-6.6,0.4c-0.8,0-2.4-0.1-4.7-0.2c0-0.5,0-1.9,0-4.3
	c0-2.3,0-4.7,0-7.1c0-4.5,0-6.9,0-7.2c0-2.8,0-5.1,0.1-7c0.1-1.8,0.2-2.9,0.2-3.1c0.1-0.2,0.2-0.4,0.4-0.5c0.4-0.2,1.6-0.4,3.5-0.5
	v-2.2c-2.7,0.1-5.6,0.2-8.6,0.2c-2.7,0-5.1-0.1-7.3-0.2v2.2c2.2,0.1,3.5,0.3,3.8,0.5c0.2,0.1,0.3,0.3,0.4,0.5
	c0.2,0.5,0.3,2.2,0.3,5.4c0,1.2,0,4.5,0,9.8c0,3.6,0,6.7-0.1,9.2c-0.1,2.6-0.1,4.1-0.2,4.5c0,0.1-0.1,0.2-0.1,0.3
	c-0.1,0.1-0.3,0.3-0.7,0.5c-0.8,0.5-1.4,0.8-1.8,1v1.3C135.8,58.2,138.3,58.1,139.9,58.1 M126,35.3h-2.2c0,1.5-0.1,2.4-0.3,2.9
	c-0.1,0.3-0.3,0.5-0.5,0.6c-0.6,0.2-1.9,0.3-4.1,0.3c-0.8,0-2.2-0.1-4.3-0.2v-3.5c0-4.3,0.1-7.3,0.3-9c0.5,0,1.3-0.1,2.6-0.1
	c1.3,0,2.1-0.1,2.4-0.1c1.5,0,2.7,0.1,3.8,0.3c1.1,0.2,1.8,0.4,2.1,0.6c0.1,0.1,0.2,0.1,0.2,0.2c0.1,0.1,0.1,0.6,0.2,1.3
	c0.1,1.4,0.1,2.3,0.1,2.7h2c0-1.1,0.1-2.4,0.2-3.9c0.1-1.5,0.3-2.7,0.5-3.6l-0.2-0.4c-1.5-0.2-3.1-0.3-4.8-0.3L112,23.4l-8.9-0.2
	v2.1c1.6,0.1,2.6,0.2,3,0.3c0.4,0.1,0.6,0.2,0.7,0.3c0.1,0.1,0.2,0.2,0.2,0.4c0.2,0.5,0.2,1.4,0.3,2.7c0.2,4.5,0.2,6.8,0.2,7v10.4
	c0,0.9,0,2.3-0.1,4.4c-0.1,2-0.2,3.2-0.2,3.6c-0.1,0.7-0.2,1.1-0.4,1.3c-0.1,0.1-0.2,0.2-0.4,0.3c-0.3,0.1-1.4,0.2-3.4,0.2v2.1
	c3.1-0.1,5.3-0.2,6.8-0.2l9.9,0.2v-2c-2.3-0.2-3.6-0.3-3.9-0.4c-0.3-0.1-0.5-0.3-0.6-0.4c-0.2-0.3-0.3-1.2-0.4-2.8
	c-0.1-1.6-0.1-4.4-0.1-8.3v-2.8c1,0,1.6,0,2,0c2.7,0,4.6,0.1,5.8,0.3c0.5,0.1,0.8,0.3,0.9,0.5c0.2,0.4,0.4,1.7,0.4,3.8h2.2V35.3z"/>
<path fill="#8C8C8C" d="M261.5,6c-0.5-1-1-1.9-1.5-2.6c-0.3-0.5-0.6-0.9-0.8-1c-0.2-0.2-0.5-0.4-0.9-0.6c-0.4,0.1-0.8,0.2-1.2,0.3
	l-2.2,0.4v0.8c0.5,0,0.8,0,0.9,0.1c0.1,0.1,0.4,0.3,0.7,0.7c0.5,0.6,1.1,1.3,1.7,2.3c0.8,1.2,1.5,2.4,2.1,3.6c0.3,0.5,0.4,0.8,0.4,1
	v2c0,0.6,0,1.2-0.1,2c0,0.3-0.1,0.6-0.1,0.6s-0.1,0.1-0.3,0.2c-0.1,0-0.6,0.1-1.4,0.1v0.9c1.1-0.1,2.1-0.1,3.2-0.1
	c1.1,0,2.3,0,3.6,0.1v-0.9c-0.8,0-1.2,0-1.4-0.1c-0.1,0-0.3-0.1-0.3-0.2c-0.1-0.1-0.1-0.3-0.2-0.7c0-0.4-0.1-1.1-0.1-1.9V11
	c0-0.4,0-0.6,0-0.8c0.1-0.2,0.2-0.5,0.3-0.8c0.2-0.4,0.8-1.4,1.8-3c1-1.5,1.9-2.9,2.7-4V2H267c-0.1,0.2-0.3,0.6-0.7,1.3
	c-1.1,2-1.8,3.1-2,3.5L263,9C262.8,8.6,262.3,7.6,261.5,6 M244.3,16.6c0.9,0,2.1,0,3.4,0.1v-0.9c-0.8,0-1.3-0.1-1.5-0.2
	c-0.2-0.1-0.3-0.2-0.3-0.4c-0.1-0.3-0.1-1.2-0.1-2.7V6.2c0-1.7,0-2.6,0-2.9h1.5c0.8,0,1.5,0,2.1,0.1c0.2,0,0.3,0,0.3,0.1
	c0.1,0,0.1,0.2,0.1,0.5c0.1,0.5,0.1,1,0.1,1.6h0.9c0-1.5,0-2.2,0-2.3c0-0.3,0.1-0.7,0.1-1.1L250.9,2c-0.3,0-0.7,0.1-1,0.1
	c-0.6,0-1.8,0-3.5,0h-4.2c-1.7,0-2.9,0-3.5,0c-0.4,0-0.7,0-1-0.1l-0.1,0.1c0,0.4,0.1,0.7,0.1,1c0,0.2,0,1,0.1,2.4h0.9
	c0-0.6,0.1-1.2,0.2-1.6c0-0.2,0.1-0.3,0.1-0.4c0,0,0.2-0.1,0.4-0.1c0.6,0,1.2-0.1,2-0.1h1.5c0,0.2,0,1.2,0,2.9v6.3
	c0,1.5,0,2.4-0.1,2.7c-0.1,0.2-0.2,0.3-0.3,0.4c-0.2,0.1-0.7,0.1-1.5,0.2v0.9C242.2,16.6,243.3,16.6,244.3,16.6 M229.7,2.1
	c-1.1,0-2.2,0-3-0.1v0.9c0.8,0,1.2,0.1,1.3,0.1c0.1,0,0.2,0.1,0.3,0.1c0,0,0.1,0.1,0.1,0.2c0.1,0.2,0.1,0.8,0.1,1.7
	c0,0.4,0,1.3,0,2.7v4.4c0,0.7,0,1.5-0.1,2.3c0,0.6-0.1,0.9-0.1,1c0,0.1,0,0.1-0.1,0.2c-0.1,0-0.2,0.1-0.3,0.1c-0.1,0-0.5,0-1.3,0.1
	v0.9c0.9-0.1,1.9-0.1,3-0.1c1.3,0,2.5,0,3.7,0.1v-0.9c-0.7,0-1.1,0-1.3-0.1c-0.1,0-0.2-0.1-0.3-0.1c-0.1-0.1-0.1-0.1-0.1-0.2
	c-0.1-0.2-0.1-0.7-0.1-1.4l0-1.9V7.8c0-0.1,0-1.1,0-2.8c0-0.5,0-0.8,0-1c0-0.3,0.1-0.6,0.1-0.7c0-0.1,0.1-0.1,0.1-0.2
	c0.1,0,0.2-0.1,0.3-0.1c0.1,0,0.6-0.1,1.3-0.1V2C232.2,2,231,2.1,229.7,2.1 M220.4,4.1c0-0.4,0.1-0.9,0.2-1.3l-0.1-0.3
	c-0.5-0.3-1.1-0.4-1.8-0.6c-0.7-0.1-1.4-0.2-2.2-0.2c-0.7,0-1.4,0.1-2.1,0.2c-0.7,0.2-1.3,0.4-1.8,0.8c-0.5,0.4-1,0.9-1.3,1.5
	c-0.3,0.7-0.5,1.4-0.5,2.2c0,0.6,0.1,1.1,0.3,1.6c0.2,0.5,0.5,0.9,0.8,1.2c0.4,0.3,0.9,0.6,1.5,0.8c0.4,0.1,1.2,0.3,2.5,0.6
	c0.9,0.2,1.5,0.4,1.9,0.6s0.6,0.4,0.8,0.8c0.2,0.3,0.2,0.7,0.2,1.1c0,0.5-0.1,1-0.4,1.4c-0.2,0.4-0.6,0.7-1.1,1
	c-0.5,0.2-1.1,0.4-1.8,0.4c-0.8,0-1.5-0.2-2.1-0.5c-0.6-0.3-1.1-0.7-1.4-1.1c-0.1-0.8-0.1-1.4-0.1-1.9H211c0,1.6-0.1,2.9-0.3,3.7
	c0.8,0.4,1.5,0.7,2.2,0.8c0.7,0.2,1.4,0.2,2.3,0.2c1.2,0,2.2-0.2,3-0.5c0.5-0.2,1-0.5,1.5-1c0.5-0.4,0.9-0.9,1.2-1.4
	c0.4-0.7,0.6-1.5,0.6-2.4c0-0.5-0.1-1-0.2-1.4c-0.1-0.4-0.3-0.8-0.5-1c-0.2-0.3-0.5-0.5-0.8-0.7c-0.3-0.2-0.8-0.4-1.4-0.5
	c-0.2,0-0.7-0.1-1.4-0.3c-0.7-0.1-1.3-0.2-1.7-0.3c-0.5-0.1-0.9-0.3-1.2-0.5c-0.3-0.2-0.5-0.4-0.6-0.7c-0.1-0.3-0.2-0.7-0.2-1.1
	c0-0.6,0.3-1.2,0.8-1.7c0.5-0.5,1.3-0.7,2.2-0.7c0.7,0,1.3,0.1,1.8,0.4c0.5,0.2,0.9,0.5,1.1,0.8c0.1,0.3,0.1,0.9,0.1,1.7h0.9
	C220.3,5.1,220.3,4.5,220.4,4.1 M193.2,3.1c0.1,0,0.1,0.1,0.2,0.2c0.1,0.2,0.1,0.7,0.1,1.6l0.1,2.2v3.9l-0.1,3.1
	c0,0.6-0.1,1-0.1,1.2c0,0.1-0.1,0.2-0.1,0.3c0,0-0.1,0.1-0.2,0.1c-0.1,0-0.6,0.1-1.4,0.1v0.9c0.9-0.1,1.9-0.1,3-0.1
	c1.2,0,2.4,0,3.6,0.1v-0.9c-0.7,0-1.1,0-1.2-0.1c-0.1,0-0.2-0.1-0.3-0.1c-0.1,0-0.1-0.1-0.1-0.2c-0.1-0.1-0.1-0.4-0.1-0.8
	c0-0.2,0-1-0.1-2.5c0-1.2,0-2.3,0-3.3c0-0.7,0-2,0.1-4c0-0.9,0-1.5,0.1-1.7c0.3-0.1,0.7-0.1,1-0.1c0.8,0,1.3,0.1,1.6,0.2
	c0.5,0.2,0.8,0.5,1.1,0.9c0.3,0.4,0.5,1,0.5,1.6c0,0.6-0.1,1.2-0.4,1.7c-0.3,0.5-0.7,0.9-1.1,1.1c-0.4,0.2-1.1,0.3-1.9,0.3l-0.1,0.3
	c0.2,0.2,0.4,0.4,0.7,0.7c0.4,0.6,1,1.4,1.6,2.5l2.2,3.7c0.1,0.2,0.2,0.4,0.3,0.6c0.6,0,1.1,0,1.7,0c0.5,0,1.3,0,2.3,0v-0.9
	c-0.3,0-0.6,0-0.7-0.1c-0.1,0-0.2-0.1-0.3-0.3c-0.1-0.1-0.4-0.5-1-1.2c0,0-0.3-0.4-0.7-1l-1.6-2.4c0-0.1-0.1-0.1-0.1-0.2
	c0-0.1-0.2-0.3-0.4-0.6c-0.2-0.3-0.4-0.6-0.6-1c1.1-0.4,1.9-1,2.4-1.7c0.5-0.7,0.8-1.5,0.8-2.3c0-0.7-0.2-1.3-0.6-1.8
	c-0.4-0.5-0.9-0.8-1.4-1C201.3,2,200.5,2,199.4,2c-0.6,0-1.3,0-2.2,0.1c-0.5,0-1.2,0-1.9,0c-0.9,0-1.5,0-2,0c-1,0-1.5-0.1-1.7-0.1
	v0.9C192.5,2.9,193.1,3,193.2,3.1 M179.4,16.6c0.6,0,1.8,0,3.4,0l1.7,0c0.8,0,1.5,0,1.9-0.1l0.1-0.1c0-0.9,0.1-2,0.2-3.4h-0.9
	c-0.1,0.9-0.3,1.6-0.4,1.9c0,0.1-0.1,0.2-0.1,0.2c-0.1,0.1-0.5,0.2-1.2,0.2c-0.6,0-1.3,0.1-2.1,0.1c-0.8,0-1.4,0-2-0.1
	c0-0.4,0-0.8,0-1.3V9.7c0.4-0.1,1-0.1,1.7-0.1c0.8,0,1.4,0,1.9,0.1c0.2,0,0.4,0.1,0.5,0.3c0.1,0.2,0.2,0.7,0.2,1.5h0.9l-0.1-2.3
	l0.1-2.3h-0.9c0,0.6-0.1,1.1-0.1,1.3c0,0.1-0.1,0.2-0.2,0.2c-0.1,0-0.3,0.1-0.7,0.1c-1,0-1.6,0-1.7,0c-0.5,0-1,0-1.5-0.1V6.3
	c0-1.2,0-2.2,0.1-3c0.6-0.1,1.3-0.1,1.9-0.1c0.7,0,1.3,0,2,0.1c0.5,0,0.7,0.1,0.8,0.2c0.1,0,0.1,0.1,0.1,0.2c0,0.2,0.1,0.7,0.1,1.5
	h0.8c0.1-0.9,0.1-1.4,0.1-1.5l0.2-1.5l-0.1-0.1C186.1,2,186,2,185.9,2c-0.8,0-1.3,0-1.5,0L182.3,2c-1.2,0-2.2,0-3.2,0
	c-0.4,0-0.9,0-1.4,0l-2.4,0v0.8c0.8,0,1.3,0.1,1.5,0.2c0.1,0,0.1,0.1,0.2,0.2c0.1,0.2,0.1,0.7,0.1,1.4c0,1.2,0,1.9,0,2v4.7
	c0,0.5,0,1.4-0.1,2.6c0,0.7-0.1,1.1-0.1,1.4c-0.3,0.2-0.6,0.4-1,0.6v0.6C178.1,16.6,179.2,16.6,179.4,16.6 M164.2,16.8
	c0.4-1.2,1.2-3.2,2.4-6.1l1.4-3.4l0.7-1.7c0.6-1.4,1-2.2,1.2-2.4c0.1-0.1,0.5-0.2,1.2-0.2V2l-2.3,0.1L166.2,2v0.9
	c0.3,0,0.7,0,1.2,0.1c0.2,0,0.3,0,0.4,0.1c0.1,0,0.1,0.1,0.2,0.1c0,0.1,0.1,0.1,0.1,0.3c0,0.1,0,0.2,0,0.3c-0.1,0.3-0.3,0.8-0.6,1.7
	c-0.4,1.2-0.7,1.9-0.7,2l-2.3,5.8l-2.7-6.5c0-0.1-0.1-0.1-0.1-0.2c0-0.1-0.2-0.4-0.4-1c-0.5-1.1-0.7-1.8-0.7-2c0-0.1,0-0.2,0.1-0.3
	c0.1-0.1,0.2-0.1,0.3-0.2c0.3-0.1,0.7-0.1,1.3-0.1V2l-3.8,0.1c-0.4,0-1.4,0-3.1-0.1v0.9c0.7,0,1.1,0.1,1.3,0.2
	c0.1,0.1,0.3,0.4,0.6,0.9s1,2.2,2.2,5l1.5,3.6c0.5,1.3,1.1,2.7,1.7,4.2H164.2z M147.4,2.1c-1.1,0-2.2,0-3-0.1v0.9
	c0.8,0,1.2,0.1,1.3,0.1c0.1,0,0.2,0.1,0.2,0.1c0,0,0.1,0.1,0.1,0.2c0,0.2,0.1,0.8,0.1,1.7c0,0.4,0,1.3,0,2.7v4.4
	c0,0.7,0,1.5-0.1,2.3c0,0.6-0.1,0.9-0.1,1c0,0.1,0,0.1-0.1,0.2c-0.1,0-0.2,0.1-0.3,0.1c-0.1,0-0.5,0-1.3,0.1v0.9
	c0.9-0.1,1.9-0.1,3-0.1c1.3,0,2.5,0,3.7,0.1v-0.9c-0.7,0-1.1,0-1.3-0.1c-0.1,0-0.2-0.1-0.3-0.1c-0.1-0.1-0.1-0.1-0.1-0.2
	c-0.1-0.2-0.1-0.7-0.1-1.4l0-1.9V7.8c0-0.1,0-1.1,0-2.8c0-0.5,0-0.8,0-1c0-0.3,0.1-0.6,0.1-0.7c0-0.1,0.1-0.1,0.1-0.2
	c0.1,0,0.2-0.1,0.3-0.1c0.1,0,0.6-0.1,1.3-0.1V2C149.9,2,148.7,2.1,147.4,2.1 M123.2,16.7c1.2-0.1,2.1-0.1,2.8-0.1
	c0.2,0,0.9,0,2.3,0v-0.9c-0.1,0-0.2,0-0.2,0c-0.2,0-0.5,0-1-0.1c-0.2,0-0.3-0.1-0.4-0.1c-0.1-0.1-0.1-0.1-0.1-0.2
	c-0.1-0.2-0.1-0.7-0.1-1.5c0-1.2-0.1-2.3-0.1-3.4V5.3c4.2,5.1,7.4,8.9,9.6,11.4c0.6,0.1,1.2,0.2,1.8,0.3l0.1-0.1
	c-0.1-1-0.1-3.8-0.1-8.5c0-0.6,0-1.5,0-2.8c0-1.3,0.1-2.1,0.2-2.4c0-0.1,0.1-0.1,0.1-0.2c0.2-0.1,0.7-0.2,1.5-0.2V2
	c-1.1,0.1-2,0.1-2.7,0.1c-0.7,0-1.5,0-2.4-0.1v0.9c0.9,0,1.5,0.1,1.6,0.2c0.1,0.1,0.2,0.2,0.2,0.5c0.1,0.7,0.1,2.9,0.1,6.7v2.4
	c-1-1-2.2-2.4-3.7-4.2c-2.1-2.5-3.8-4.6-5.2-6.5l-1,0l-1.5,0c-0.4,0-1.1,0-2-0.1v0.9c0.7,0,1.2,0.1,1.3,0.1c0.2,0,0.3,0.1,0.3,0.2
	c0.1,0.1,0.1,0.2,0.2,0.3c0,0.2,0.1,0.5,0.1,1l0.1,3.1V11c0,0.9,0,1.7,0,2.3c-0.1,1-0.1,1.7-0.2,1.9c0,0.2-0.1,0.3-0.1,0.4
	s-0.1,0.1-0.2,0.1c-0.1,0-0.6,0.1-1.4,0.1V16.7z M104.5,3c0.1,0.1,0.2,0.2,0.3,0.3c0.1,0.1,0.1,0.4,0.1,0.7c0,0.8,0.1,1.7,0.1,2.6
	v2.7l0,2c0,1.1,0,1.8,0.1,2c0,0.4,0.2,0.8,0.4,1.3c0.2,0.4,0.6,0.8,1,1.2c0.4,0.4,1,0.6,1.7,0.8c0.9,0.3,1.9,0.4,3,0.4
	c0.9,0,1.7-0.1,2.4-0.3c0.7-0.2,1.3-0.5,1.8-0.9c0.5-0.4,0.9-0.8,1.2-1.3c0.3-0.5,0.5-1.1,0.6-1.7c0.1-0.7,0.1-1.3,0.1-2V8.4
	c0-0.7,0-1.7,0.1-3c0-1.3,0.1-2,0.1-2.1c0.1-0.2,0.1-0.3,0.2-0.3c0.2-0.1,0.6-0.2,1.2-0.2V2L116.4,2c-0.1,0-0.2,0-0.3,0
	c-0.2,0-1,0-2.3-0.1v0.9c0.8,0,1.3,0.1,1.5,0.2c0.1,0.1,0.2,0.1,0.2,0.3c0.1,0.2,0.1,0.7,0.1,1.6c0,0.4,0,1.5,0,3.4v2.1
	c0,1.5-0.1,2.5-0.4,3c-0.2,0.5-0.7,1-1.2,1.3c-0.6,0.3-1.4,0.5-2.3,0.5c-0.8,0-1.5-0.1-2.1-0.4s-1-0.6-1.2-1
	c-0.3-0.4-0.4-0.9-0.5-1.6c0-0.3,0-1.1,0-2.4l0-1.2V6.3c0-1.5,0-2.4,0.1-2.9c0-0.2,0.1-0.3,0.2-0.4c0.2-0.1,0.7-0.2,1.4-0.2V2
	l-0.4,0l-1.4,0l-1.4,0L103.1,2v0.9L104.5,3z"/>
<polygon fill="#8C8C8C" points="60,48.7 60,34.3 73.2,34.3 73.2,24.8 60,24.8 60,11.4 74.5,11.4 74.5,16.6 84.1,16.6 84.1,2 45.7,2 
	45.7,11.4 49.3,11.4 49.3,48.7 45.7,48.7 45.7,58.1 63.4,58.1 63.4,48.7 "/>
<path fill="#8C8C8C" d="M40.7,36.9V11.4h3.5V2H26.5v9.4H30v22.3c0,9.4-1.1,13.9-7.8,13.9s-7.8-4.5-7.8-13.9V11.4h3.4V2H0v9.4h3.5
	v25.5c0,5.6,0,10.1,2.6,14.2c2.9,4.6,8.3,7.6,16,7.6C35.8,58.8,40.7,51.6,40.7,36.9"/>
<g>
</g>
<g>
</g>
<g>
</g>
<g>
</g>
<g>
</g>
<g>
</g>
</svg>
