<?xml version="1.0" encoding="utf-8"?>
<!-- Generator: Adobe Illustrator 19.0.0, SVG Export Plug-In . SVG Version: 6.00 Build 0)  -->
<!DOCTYPE svg PUBLIC "-//W3C//DTD SVG 1.1//EN" "http://www.w3.org/Graphics/SVG/1.1/DTD/svg11.dtd">
<svg version="1.1" id="Layer_1" xmlns="http://www.w3.org/2000/svg" xmlns:xlink="http://www.w3.org/1999/xlink" x="0px" y="0px"
	 viewBox="0 0 194.8 35.8" enable-background="new 0 0 194.8 35.8" xml:space="preserve">
<polygon fill="#F37123" points="56.1,1.2 56.1,35.1 57.6,35.1 57.6,1.2 56.1,1.2 "/>
<path fill="#005596" d="M169.1,10c0.1,0.4,0.4,0.6,0.7,0.8c0.3,0.2,0.8,0.3,1.4,0.3c0.5,0,0.9-0.1,1.3-0.2c0.4-0.1,0.8-0.4,1.2-0.7
	c0.4-0.3,0.7-0.5,0.9-0.8c0.3-0.3,0.5-0.8,0.7-1.5c0.2-0.6,0.3-1.3,0.3-1.9c0-0.3,0-0.6-0.1-0.9c-0.1-0.3-0.2-0.5-0.4-0.7
	c-0.2-0.2-0.4-0.4-0.8-0.5c-0.3-0.1-0.7-0.2-1.2-0.2c-0.5,0-1,0.1-1.4,0.3c-0.4,0.2-0.9,0.4-1.2,0.7c-0.4,0.3-0.6,0.5-0.8,0.7
	c-0.2,0.3-0.5,0.8-0.7,1.4c-0.2,0.7-0.3,1.3-0.3,1.9C168.9,9.2,169,9.6,169.1,10L169.1,10z M170.9,6.5c0.2-0.8,0.5-1.4,0.7-1.7
	c0.3-0.3,0.6-0.4,1-0.4c0.4,0,0.7,0.1,0.9,0.4c0.2,0.3,0.4,0.7,0.4,1.3c0,0.7-0.1,1.4-0.3,2.2c-0.1,0.5-0.3,0.9-0.5,1.2
	c-0.2,0.3-0.4,0.5-0.6,0.7c-0.2,0.1-0.4,0.2-0.7,0.2c-0.4,0-0.7-0.1-1-0.4c-0.2-0.3-0.3-0.7-0.3-1.3C170.6,8.1,170.7,7.3,170.9,6.5
	L170.9,6.5z M177.7,4.8c0.3,0,0.7,0,1,0l-1.1,5.5c-0.3,1.5-0.5,2.5-0.7,3c-0.1,0.2-0.2,0.4-0.3,0.5c-0.1,0.1-0.2,0.1-0.4,0.1
	c-0.1,0-0.3-0.1-0.4-0.2c-0.1-0.1-0.2-0.3-0.3-0.5l-0.2,0c-0.1,0.3-0.1,0.5-0.2,0.7c-0.1,0.2-0.2,0.5-0.3,0.9
	c0.2,0.1,0.4,0.1,0.6,0.1c0.2,0,0.5-0.1,0.7-0.2c0.5-0.2,0.9-0.6,1.4-1.2c0.5-0.5,0.8-1.2,1.1-1.9c0.3-0.7,0.6-1.8,1-3.4l0.8-3.5
	c0.2,0,0.4,0,0.7,0c0.5,0,0.9,0,1.1,0c0-0.2,0.1-0.5,0.2-0.8l-0.1-0.1C182.2,4,182,4,181.6,4c-0.5,0-0.9,0-1,0h-0.2
	c0.1-0.6,0.3-1.3,0.4-1.9c0.1-0.2,0.1-0.4,0.2-0.5c0.1-0.1,0.2-0.2,0.3-0.3c0.1-0.1,0.2-0.1,0.4-0.1c0.2,0,0.3,0.1,0.5,0.2
	c0.2,0.1,0.4,0.3,0.6,0.7l0.2,0c0.1-0.6,0.2-1.2,0.4-1.9C183.3,0,183.1,0,182.9,0c-0.3,0-0.5,0-0.7,0.1c-0.2,0.1-0.5,0.3-1,0.7
	c-0.5,0.4-1,0.8-1.4,1.2c-0.3,0.3-0.5,0.5-0.6,0.8c-0.1,0.2-0.2,0.4-0.3,0.9c0,0.2-0.1,0.3-0.1,0.4c-0.2,0.1-0.5,0.2-0.8,0.3
	c-0.3,0.1-0.6,0.2-0.7,0.2l-0.1,0.4C177.3,4.8,177.5,4.8,177.7,4.8L177.7,4.8L177.7,4.8z"/>
<path fill="#005596" d="M76.1,21.3h-1.3c0,0.9-0.1,1.5-0.2,1.7c-0.1,0.2-0.2,0.3-0.3,0.3c-0.3,0.1-1.2,0.2-2.5,0.2
	c-0.5,0-1.3,0-2.6-0.1v-2.1c0-2.6,0.1-4.4,0.2-5.4c0.3,0,0.8,0,1.6-0.1c0.8,0,1.3,0,1.4,0c0.9,0,1.7,0.1,2.3,0.2
	c0.7,0.1,1.1,0.2,1.3,0.4c0.1,0,0.1,0.1,0.1,0.1c0,0.1,0.1,0.4,0.1,0.8c0.1,0.8,0.1,1.4,0.1,1.6h1.2c0-0.7,0.1-1.4,0.1-2.3
	c0.1-0.9,0.2-1.6,0.3-2.2l-0.1-0.2c-0.9-0.1-1.9-0.2-2.9-0.2l-7.3,0.1L62.2,14v1.3c1,0.1,1.6,0.1,1.8,0.2c0.2,0.1,0.4,0.1,0.4,0.2
	c0.1,0.1,0.1,0.1,0.1,0.2c0.1,0.3,0.1,0.9,0.2,1.7c0.1,2.7,0.1,4.1,0.1,4.2V28c0,0.5,0,1.4-0.1,2.6c-0.1,1.2-0.1,2-0.1,2.2
	c-0.1,0.4-0.1,0.7-0.2,0.8c-0.1,0.1-0.1,0.1-0.2,0.2c-0.2,0.1-0.9,0.1-2,0.1v1.2c1.9-0.1,3.2-0.1,4.1-0.1l5.9,0.1V34
	c-1.4-0.1-2.2-0.2-2.4-0.2c-0.2-0.1-0.3-0.2-0.4-0.3c-0.1-0.2-0.2-0.7-0.2-1.7c-0.1-1-0.1-2.6-0.1-5v-1.7c0.6,0,1,0,1.2,0
	c1.6,0,2.8,0.1,3.5,0.2c0.3,0.1,0.5,0.2,0.5,0.3c0.1,0.3,0.2,1,0.3,2.3h1.3C76.1,25.2,76.1,23,76.1,21.3L76.1,21.3L76.1,21.3z
	 M84.5,35.1c0.7,0,1.8,0,3.5,0.1c2.2,0.1,3.4,0.1,3.6,0.1c1.3,0,2.2,0,2.9-0.1c0.3,0,0.6-0.1,0.9-0.2c0-0.2,0.1-0.8,0.1-1.7l0.4-3.1
	c0-0.1,0-0.2,0-0.5h-1.2c-0.2,1-0.4,1.9-0.6,2.6c-0.1,0.3-0.2,0.5-0.3,0.6C93.6,33,93.4,33,93,33.1c-1.1,0.2-2.5,0.3-4,0.3
	c-0.5,0-1.5,0-2.8-0.1c0-0.3,0-1.2,0-2.6c0-1.4,0-2.8,0-4.3c0-2.7,0-4.2,0-4.4c0-1.7,0-3.1,0.1-4.2c0-1.1,0.1-1.7,0.1-1.9
	c0-0.1,0.1-0.2,0.2-0.3c0.3-0.1,0.9-0.2,2.1-0.3V14c-1.6,0.1-3.4,0.1-5.2,0.1c-1.6,0-3.1,0-4.4-0.1v1.3c1.3,0.1,2.1,0.2,2.3,0.3
	c0.1,0.1,0.2,0.2,0.2,0.3c0.1,0.3,0.2,1.4,0.2,3.3c0,0.7,0,2.7,0,5.9c0,2.2,0,4-0.1,5.6c0,1.6-0.1,2.5-0.1,2.7c0,0.1,0,0.1-0.1,0.2
	c-0.1,0.1-0.2,0.2-0.4,0.3c-0.5,0.3-0.8,0.5-1.1,0.6v0.8C82,35.1,83.5,35.1,84.5,35.1L84.5,35.1L84.5,35.1z M97.5,30.9
	c0.9,1.6,2.2,2.8,3.8,3.6c1.6,0.8,3.6,1.2,5.8,1.2c2.1,0,4-0.3,5.6-1c1.2-0.5,2.3-1.2,3.2-2.2c0.9-0.9,1.6-2,2.1-3.2
	c0.7-1.6,1-3.4,1-5.3c0-1.1-0.1-2.1-0.3-3.1c-0.2-0.9-0.6-1.8-1-2.6c-0.4-0.8-1.1-1.5-1.9-2.3c-0.9-0.7-1.8-1.3-2.9-1.7
	c-1.5-0.5-3.2-0.8-5-0.8c-1.8,0-3.5,0.3-5.1,0.8c-1.2,0.4-2.3,1.1-3.4,2.1c-1,1-1.8,2.1-2.4,3.5c-0.6,1.4-0.8,3-0.8,4.8
	C96.2,27.3,96.6,29.3,97.5,30.9L97.5,30.9z M101.5,19.5c0.5-1.4,1.2-2.4,2.3-3.1c1-0.7,2.3-1,3.8-1c1.3,0,2.3,0.2,3.1,0.7
	c0.8,0.4,1.5,1.1,2,1.9c0.6,0.8,1,1.8,1.3,3c0.3,1.2,0.5,2.5,0.5,3.9c0,2.1-0.3,3.8-0.9,5.3c-0.6,1.4-1.4,2.5-2.4,3.1
	c-1,0.6-2.1,0.9-3.4,0.9c-1.4,0-2.6-0.3-3.6-1c-1-0.6-1.8-1.7-2.5-3.3c-0.6-1.5-1-3.5-1-5.8C100.8,22.3,101,20.8,101.5,19.5
	L101.5,19.5z M121.3,15.6c0.1,0.1,0.2,0.1,0.2,0.3c0.1,0.3,0.2,1,0.2,2.3l0.1,3.2v5.6l-0.1,4.4c0,0.8-0.1,1.4-0.2,1.8
	c0,0.2-0.1,0.4-0.1,0.4c-0.1,0.1-0.1,0.1-0.3,0.2c-0.2,0.1-0.9,0.1-2,0.2v1.3c1.3-0.1,2.8-0.1,4.4-0.1c1.8,0,3.5,0,5.2,0.1v-1.3
	c-1,0-1.6,0-1.8-0.1c-0.2,0-0.3-0.1-0.4-0.2c-0.1-0.1-0.2-0.1-0.2-0.2c-0.1-0.2-0.1-0.5-0.2-1.1c0-0.3-0.1-1.5-0.1-3.5
	c0-1.7,0-3.3,0-4.8c0-1,0-2.9,0.1-5.7c0-1.3,0.1-2.1,0.1-2.5c0.5-0.1,1-0.1,1.4-0.1c1.1,0,1.8,0.1,2.3,0.2c0.7,0.2,1.2,0.7,1.7,1.3
	c0.4,0.6,0.7,1.4,0.7,2.3c0,0.9-0.2,1.7-0.6,2.5c-0.4,0.7-0.9,1.3-1.6,1.5c-0.6,0.3-1.5,0.4-2.7,0.4l-0.2,0.5c0.3,0.2,0.6,0.6,0.9,1
	c0.6,0.9,1.4,2.1,2.4,3.6l3.2,5.3c0.2,0.4,0.3,0.6,0.4,0.9c0.8,0,1.6-0.1,2.4-0.1c0.7,0,1.8,0,3.4,0.1v-1.3c-0.5,0-0.8,0-1-0.1
	c-0.2-0.1-0.3-0.2-0.5-0.4c-0.2-0.2-0.6-0.8-1.4-1.8c-0.1-0.1-0.4-0.6-1-1.5l-2.3-3.5c-0.1-0.1-0.1-0.2-0.2-0.3
	c-0.1-0.1-0.2-0.4-0.6-0.9c-0.3-0.5-0.6-0.9-0.9-1.4c1.6-0.6,2.7-1.4,3.5-2.4c0.8-1,1.1-2.1,1.1-3.3c0-1-0.3-1.9-0.8-2.6
	c-0.6-0.7-1.2-1.2-2-1.4c-0.8-0.2-2-0.3-3.6-0.3c-0.8,0-1.9,0-3.1,0.1c-0.8,0-1.7,0.1-2.7,0.1c-1.2,0-2.2,0-2.9,0
	c-1.4,0-2.2-0.1-2.4-0.1v1.2C120.3,15.4,121.1,15.5,121.3,15.6L121.3,15.6L121.3,15.6z M145.5,14.1c-1.6,0-3.1,0-4.4-0.1v1.3
	c1.1,0,1.7,0.1,1.9,0.1c0.2,0,0.3,0.1,0.4,0.2c0.1,0.1,0.1,0.2,0.1,0.3c0.1,0.3,0.1,1.1,0.2,2.4c0,0.6,0,1.9,0,3.9v6.3
	c0,1,0,2.2-0.1,3.4c-0.1,0.8-0.1,1.3-0.1,1.4c0,0.1-0.1,0.2-0.1,0.2c-0.1,0.1-0.2,0.1-0.4,0.2c-0.2,0-0.8,0.1-1.8,0.1v1.3
	c1.3-0.1,2.7-0.1,4.4-0.1c1.9,0,3.6,0,5.3,0.1v-1.3c-1,0-1.6-0.1-1.8-0.1c-0.2,0-0.4-0.1-0.5-0.2c-0.1-0.1-0.2-0.2-0.2-0.3
	c-0.1-0.3-0.2-1-0.2-2l0-2.8v-6.1c0-0.2,0-1.5,0.1-4c0-0.7,0-1.2,0-1.5c0-0.5,0.1-0.8,0.2-1c0-0.1,0.1-0.2,0.2-0.2
	c0.1-0.1,0.2-0.1,0.4-0.2c0.2,0,0.8-0.1,1.8-0.1V14C149.1,14.1,147.3,14.1,145.5,14.1L145.5,14.1L145.5,14.1z M157.2,35.1l4.5,0.1
	c2,0,3.8-0.2,5.2-0.7c1.4-0.5,2.8-1.2,4-2.2c1.2-1,2.2-2.3,2.9-3.8c0.7-1.5,1.1-3.2,1.1-5.2c0-1.5-0.2-2.9-0.7-4.2
	c-0.3-0.8-0.7-1.5-1.2-2.1c-0.5-0.7-1.2-1.2-2-1.7c-0.8-0.5-1.7-0.8-2.8-1c-1.1-0.2-2.5-0.3-4.3-0.3c-0.8,0-1.8,0-3.1,0.1
	c-1.8,0.1-3,0.1-3.6,0.1l-5.5-0.1v1.2c1.1,0.1,1.7,0.2,1.9,0.3s0.3,0.1,0.4,0.2c0.1,0.1,0.1,0.1,0.1,0.2c0.1,0.4,0.2,1.3,0.2,2.7
	c0.1,2.6,0.1,4.5,0.1,5.9V27c0,3-0.1,5.2-0.2,6.6c-0.3,0.2-0.7,0.5-1,0.7c-0.2,0.1-0.3,0.2-0.4,0.2v0.7L157.2,35.1L157.2,35.1z
	 M158.5,27.4v-3.5c0-4,0.1-6.7,0.2-8.1c0.9-0.1,1.8-0.2,2.6-0.2c2.1,0,3.6,0.2,4.6,0.5c1,0.4,1.9,0.9,2.5,1.8
	c0.7,0.8,1.1,1.7,1.4,2.8c0.3,1.1,0.4,2.2,0.4,3.3c0,1.3-0.1,2.4-0.4,3.5c-0.3,1.1-0.7,2-1.2,2.8c-0.5,0.8-1.1,1.4-1.7,1.8
	c-0.6,0.4-1.2,0.7-2,0.9c-1,0.3-2.2,0.4-3.6,0.4c-0.9,0-1.8-0.1-2.7-0.2C158.5,32.4,158.5,30.4,158.5,27.4L158.5,27.4L158.5,27.4z
	 M175.7,35.1l3.5,0.1V34c-1.2,0-1.9-0.1-2.2-0.3c-0.2-0.1-0.2-0.3-0.2-0.5c0-0.3,0.3-1.2,0.8-2.6l0.7-1.8h7.8l1.3,3.3
	c0.2,0.6,0.3,1,0.3,1.2c0,0.2-0.1,0.3-0.2,0.4c-0.2,0.1-0.8,0.2-2.1,0.2v1.2l5.3-0.1l4.2,0.1V34c-0.3,0-0.5-0.1-0.7-0.1
	c-0.5,0-0.8-0.1-0.9-0.1c-0.1,0-0.2-0.1-0.3-0.2c-0.1-0.1-0.2-0.2-0.3-0.4l-0.6-1.4l-0.9-2.1l-6.8-15.8h-2.2l-1.3,3.4l-3.9,9.8
	c-0.7,1.8-1.3,3.1-1.5,3.7c-0.6,1.3-0.9,2.1-1,2.3c-0.1,0.2-0.2,0.4-0.3,0.5c-0.1,0.1-0.2,0.2-0.4,0.2c-0.2,0-0.6,0.1-1.5,0.2v1.2
	L175.7,35.1L175.7,35.1z M182,19.2l3.2,7.8c-0.9,0-2,0-3.1,0c-1.2,0-2.3,0-3.2,0L182,19.2L182,19.2z"/>
<path fill="#005596" d="M63.1,1.8c0.1,0.1,0.1,0.1,0.2,0.2c0,0.1,0.1,0.2,0.1,0.4c0,0.5,0,1,0,1.6v1.6l0,1.2c0,0.7,0,1.1,0,1.2
	c0,0.2,0.1,0.5,0.2,0.8c0.1,0.3,0.3,0.5,0.6,0.7c0.3,0.2,0.6,0.4,1,0.5c0.6,0.2,1.2,0.3,1.8,0.3c0.6,0,1-0.1,1.5-0.2
	c0.4-0.1,0.8-0.3,1.1-0.5c0.3-0.2,0.5-0.5,0.7-0.8c0.2-0.3,0.3-0.6,0.3-1c0.1-0.4,0.1-0.8,0.1-1.2V5.1c0-0.4,0-1,0-1.8
	c0-0.8,0.1-1.2,0.1-1.3c0-0.1,0.1-0.2,0.1-0.2c0.1-0.1,0.3-0.1,0.7-0.1V1.2l-1.4,0c-0.1,0-0.1,0-0.2,0c-0.1,0-0.6,0-1.4,0v0.5
	c0.5,0,0.8,0.1,0.9,0.1c0.1,0,0.1,0.1,0.1,0.2c0,0.1,0.1,0.4,0.1,1c0,0.2,0,0.9,0,2v1.3c0,0.9-0.1,1.5-0.2,1.8
	c-0.1,0.3-0.4,0.6-0.7,0.8c-0.3,0.2-0.8,0.3-1.4,0.3c-0.5,0-0.9-0.1-1.3-0.2c-0.3-0.2-0.6-0.3-0.7-0.6c-0.2-0.2-0.3-0.6-0.3-1
	c0-0.2,0-0.7,0-1.4l0-0.7V3.8c0-0.9,0-1.5,0.1-1.7c0-0.1,0.1-0.2,0.1-0.2c0.1-0.1,0.4-0.1,0.9-0.1V1.2l-0.2,0l-0.9,0l-0.9,0l-2.1,0
	v0.5L63.1,1.8L63.1,1.8z M74.4,10.1c0.7,0,1.3,0,1.7,0c0.1,0,0.6,0,1.4,0V9.5c-0.1,0-0.1,0-0.1,0c-0.1,0-0.3,0-0.6-0.1
	c-0.1,0-0.2,0-0.2-0.1c0,0-0.1-0.1-0.1-0.1c0-0.1-0.1-0.4-0.1-0.9c0-0.7,0-1.4,0-2.1V3.2c2.5,3.1,4.4,5.4,5.8,6.9
	c0.4,0.1,0.7,0.1,1.1,0.2l0.1-0.1c-0.1-0.6-0.1-2.3-0.1-5.1c0-0.4,0-0.9,0-1.7c0-0.8,0.1-1.2,0.1-1.5c0,0,0-0.1,0.1-0.1
	c0.1-0.1,0.4-0.1,0.9-0.1V1.2c-0.7,0-1.2,0-1.6,0c-0.4,0-0.9,0-1.4,0v0.5c0.6,0,0.9,0.1,1,0.1c0.1,0,0.1,0.1,0.1,0.3
	c0.1,0.4,0.1,1.7,0.1,4v1.5c-0.6-0.6-1.3-1.4-2.2-2.5c-1.2-1.5-2.3-2.8-3.2-3.9l-0.6,0l-0.9,0c-0.3,0-0.6,0-1.2,0v0.5
	c0.4,0,0.7,0.1,0.8,0.1c0.1,0,0.2,0.1,0.2,0.1c0,0,0.1,0.1,0.1,0.2c0,0.1,0,0.3,0,0.6l0,1.8v2c0,0.6,0,1,0,1.4c0,0.6-0.1,1-0.1,1.2
	c0,0.1,0,0.2-0.1,0.2c0,0-0.1,0.1-0.1,0.1c-0.1,0-0.4,0-0.9,0.1V10.1L74.4,10.1z M89,1.2c-0.7,0-1.3,0-1.8,0v0.6
	c0.5,0,0.7,0,0.8,0.1c0.1,0,0.1,0,0.2,0.1c0,0,0,0.1,0.1,0.1c0,0.1,0.1,0.5,0.1,1c0,0.2,0,0.8,0,1.6v2.7c0,0.4,0,0.9-0.1,1.4
	c0,0.3,0,0.5,0,0.6c0,0,0,0.1-0.1,0.1c0,0-0.1,0.1-0.2,0.1c-0.1,0-0.3,0-0.8,0v0.6c0.5,0,1.1,0,1.8,0c0.8,0,1.5,0,2.2,0V9.5
	c-0.4,0-0.7,0-0.8,0c-0.1,0-0.2,0-0.2-0.1c0,0-0.1-0.1-0.1-0.1c0-0.1-0.1-0.4-0.1-0.9l0-1.2V4.7c0-0.1,0-0.6,0-1.7
	c0-0.3,0-0.5,0-0.6c0-0.2,0-0.3,0.1-0.4c0,0,0-0.1,0.1-0.1c0,0,0.1-0.1,0.2-0.1c0.1,0,0.3,0,0.8,0V1.2C90.5,1.2,89.8,1.2,89,1.2
	L89,1.2L89,1.2z M99.1,10.1c0.3-0.7,0.8-2,1.5-3.7l0.9-2l0.5-1.1c0.4-0.9,0.6-1.4,0.7-1.4c0.1-0.1,0.3-0.1,0.7-0.1V1.2l-1.4,0
	l-1.6,0v0.6c0.2,0,0.4,0,0.7,0c0.1,0,0.2,0,0.2,0c0,0,0.1,0,0.1,0.1c0,0,0,0.1,0,0.2c0,0.1,0,0.1,0,0.2c0,0.2-0.2,0.5-0.3,1
	c-0.3,0.7-0.4,1.1-0.5,1.2l-1.4,3.5L97.6,4c0,0,0-0.1,0-0.1c0,0-0.1-0.2-0.3-0.6c-0.3-0.7-0.4-1.1-0.4-1.2c0-0.1,0-0.1,0.1-0.2
	c0,0,0.1-0.1,0.2-0.1c0.2,0,0.4-0.1,0.8-0.1V1.2l-2.3,0c-0.2,0-0.8,0-1.9,0v0.6c0.4,0,0.7,0,0.8,0.1c0.1,0,0.2,0.2,0.4,0.6
	c0.2,0.3,0.6,1.3,1.3,3l0.9,2.2c0.3,0.8,0.7,1.6,1,2.5H99.1L99.1,10.1z M108.3,10c0.4,0,1.1,0,2.1,0l1,0c0.5,0,0.9,0,1.2,0l0.1-0.1
	c0-0.5,0-1.2,0.1-2.1h-0.5c-0.1,0.6-0.2,0.9-0.2,1.2c0,0.1-0.1,0.1-0.1,0.1c-0.1,0.1-0.3,0.1-0.7,0.1c-0.4,0-0.8,0-1.3,0
	c-0.5,0-0.9,0-1.2,0c0-0.2,0-0.5,0-0.8V5.8c0.3,0,0.6,0,1,0c0.5,0,0.8,0,1.1,0.1c0.1,0,0.2,0.1,0.3,0.2c0.1,0.1,0.1,0.4,0.1,0.9h0.5
	l0-1.4l0-1.4h-0.5c0,0.4,0,0.6-0.1,0.8c0,0.1-0.1,0.1-0.1,0.1c0,0-0.2,0-0.4,0c-0.6,0-1,0-1,0c-0.3,0-0.6,0-0.9,0V3.8
	c0-0.7,0-1.4,0.1-1.8c0.4,0,0.8,0,1.2,0c0.4,0,0.8,0,1.2,0.1c0.3,0,0.5,0.1,0.5,0.1c0,0,0.1,0.1,0.1,0.1c0,0.1,0,0.4,0.1,0.9h0.5
	c0-0.5,0.1-0.9,0.1-0.9l0.1-0.9l0-0.1c-0.1,0-0.2,0-0.2,0c-0.5,0-0.8,0-0.9,0l-1.3,0c-0.7,0-1.4,0-1.9,0c-0.3,0-0.5,0-0.8,0l-1.5,0
	v0.5c0.5,0,0.8,0.1,0.9,0.1c0,0,0.1,0.1,0.1,0.1c0,0.1,0.1,0.4,0.1,0.9c0,0.7,0,1.1,0,1.2v2.9c0,0.3,0,0.9-0.1,1.6
	c0,0.4,0,0.7-0.1,0.9c-0.2,0.1-0.4,0.2-0.6,0.4v0.3C107.5,10,108.2,10,108.3,10L108.3,10L108.3,10z M116.7,1.8c0,0,0.1,0.1,0.1,0.1
	c0,0.1,0.1,0.4,0.1,1l0,1.3v2.4l-0.1,1.9c0,0.3,0,0.6-0.1,0.7c0,0.1,0,0.1-0.1,0.2c0,0-0.1,0.1-0.1,0.1c-0.1,0-0.4,0.1-0.9,0.1v0.6
	c0.6,0,1.2,0,1.8,0c0.7,0,1.5,0,2.2,0V9.5c-0.4,0-0.7,0-0.7,0c-0.1,0-0.1,0-0.2-0.1c0,0-0.1-0.1-0.1-0.1c0-0.1-0.1-0.2-0.1-0.5
	c0-0.1,0-0.6,0-1.5c0-0.7,0-1.4,0-2c0-0.4,0-1.2,0-2.4c0-0.5,0-0.9,0-1c0.2,0,0.4-0.1,0.6-0.1c0.5,0,0.8,0,1,0.1
	c0.3,0.1,0.5,0.3,0.7,0.5c0.2,0.3,0.3,0.6,0.3,1c0,0.4-0.1,0.7-0.3,1c-0.2,0.3-0.4,0.5-0.7,0.6c-0.3,0.1-0.6,0.2-1.1,0.2l-0.1,0.2
	c0.1,0.1,0.3,0.2,0.4,0.4c0.3,0.4,0.6,0.9,1,1.5l1.4,2.2c0.1,0.1,0.1,0.3,0.2,0.4c0.3,0,0.7,0,1,0c0.3,0,0.8,0,1.4,0V9.5
	c-0.2,0-0.3,0-0.4-0.1c-0.1,0-0.1-0.1-0.2-0.2c-0.1-0.1-0.3-0.3-0.6-0.7c0,0-0.2-0.2-0.4-0.6l-1-1.5c0,0,0-0.1-0.1-0.1
	c0,0-0.1-0.2-0.2-0.4c-0.1-0.2-0.3-0.4-0.4-0.6c0.7-0.2,1.1-0.6,1.5-1c0.3-0.4,0.5-0.9,0.5-1.4c0-0.4-0.1-0.8-0.3-1.1
	c-0.2-0.3-0.5-0.5-0.8-0.6c-0.3-0.1-0.8-0.1-1.5-0.1c-0.3,0-0.8,0-1.3,0c-0.3,0-0.7,0-1.1,0c-0.5,0-0.9,0-1.2,0c-0.6,0-0.9,0-1,0
	v0.5C116.3,1.8,116.6,1.8,116.7,1.8L116.7,1.8L116.7,1.8z M133.1,2.5c0-0.3,0.1-0.5,0.1-0.8l-0.1-0.2c-0.3-0.2-0.7-0.3-1.1-0.3
	c-0.4-0.1-0.9-0.1-1.3-0.1c-0.4,0-0.9,0-1.3,0.1c-0.4,0.1-0.8,0.3-1.1,0.5c-0.3,0.2-0.6,0.5-0.8,0.9c-0.2,0.4-0.3,0.8-0.3,1.3
	c0,0.3,0.1,0.7,0.2,0.9c0.1,0.3,0.3,0.5,0.5,0.8c0.2,0.2,0.5,0.4,0.9,0.5c0.2,0.1,0.7,0.2,1.5,0.3c0.5,0.1,0.9,0.2,1.1,0.4
	c0.2,0.1,0.4,0.3,0.5,0.5c0.1,0.2,0.1,0.4,0.1,0.7c0,0.3-0.1,0.6-0.2,0.9s-0.4,0.4-0.7,0.6c-0.3,0.1-0.7,0.2-1.1,0.2
	c-0.5,0-0.9-0.1-1.3-0.3c-0.4-0.2-0.7-0.4-0.8-0.7c-0.1-0.5-0.1-0.8-0.1-1.1h-0.5c0,1-0.1,1.7-0.2,2.2c0.5,0.2,0.9,0.4,1.3,0.5
	c0.4,0.1,0.9,0.1,1.4,0.1c0.7,0,1.3-0.1,1.8-0.3c0.3-0.1,0.6-0.3,0.9-0.6c0.3-0.3,0.5-0.5,0.7-0.8c0.2-0.4,0.3-0.9,0.3-1.4
	c0-0.3,0-0.6-0.1-0.8c-0.1-0.2-0.2-0.5-0.3-0.6c-0.1-0.2-0.3-0.3-0.5-0.4c-0.2-0.1-0.5-0.2-0.8-0.3c-0.1,0-0.4-0.1-0.9-0.2
	c-0.4-0.1-0.8-0.1-1-0.2c-0.3-0.1-0.6-0.2-0.7-0.3c-0.2-0.1-0.3-0.2-0.4-0.4c-0.1-0.2-0.1-0.4-0.1-0.7c0-0.4,0.2-0.7,0.5-1
	c0.3-0.3,0.8-0.4,1.3-0.4c0.4,0,0.8,0.1,1.1,0.2c0.3,0.1,0.6,0.3,0.7,0.5c0,0.2,0.1,0.5,0.1,1h0.5C133,3.1,133,2.7,133.1,2.5
	L133.1,2.5z M138.7,1.2c-0.7,0-1.3,0-1.8,0v0.6c0.5,0,0.7,0,0.8,0.1c0.1,0,0.1,0,0.2,0.1c0,0,0,0.1,0.1,0.1c0,0.1,0.1,0.5,0.1,1
	c0,0.2,0,0.8,0,1.6v2.7c0,0.4,0,0.9-0.1,1.4c0,0.3,0,0.5,0,0.6c0,0,0,0.1-0.1,0.1c0,0-0.1,0.1-0.2,0.1c-0.1,0-0.3,0-0.8,0v0.6
	c0.5,0,1.1,0,1.8,0c0.8,0,1.5,0,2.2,0V9.5c-0.4,0-0.7,0-0.8,0c-0.1,0-0.2,0-0.2-0.1c0,0-0.1-0.1-0.1-0.1c0-0.1-0.1-0.4-0.1-0.9
	l0-1.2V4.7c0-0.1,0-0.6,0-1.7c0-0.3,0-0.5,0-0.6c0-0.2,0-0.3,0.1-0.4c0,0,0-0.1,0.1-0.1c0,0,0.1-0.1,0.2-0.1c0.1,0,0.3,0,0.8,0V1.2
	C140.2,1.2,139.5,1.2,138.7,1.2L138.7,1.2L138.7,1.2z M147.5,10c0.6,0,1.3,0,2.1,0.1V9.6c-0.5,0-0.8-0.1-0.9-0.1
	c-0.1-0.1-0.2-0.1-0.2-0.2c0-0.2-0.1-0.7-0.1-1.6V3.8c0-1,0-1.6,0-1.7h0.9c0.5,0,0.9,0,1.3,0.1c0.1,0,0.2,0,0.2,0
	c0,0,0.1,0.1,0.1,0.3c0,0.3,0.1,0.6,0.1,0.9h0.5c0-0.9,0-1.4,0-1.4c0-0.2,0-0.4,0.1-0.7l-0.1-0.1c-0.2,0-0.4,0-0.6,0
	c-0.4,0-1.1,0-2.1,0h-2.6c-1,0-1.7,0-2.1,0c-0.2,0-0.4,0-0.6,0l-0.1,0.1c0,0.2,0,0.4,0.1,0.6c0,0.1,0,0.6,0,1.5h0.5
	c0-0.4,0-0.7,0.1-1c0-0.1,0-0.2,0.1-0.2c0,0,0.1,0,0.2-0.1c0.3,0,0.8,0,1.2,0h0.9c0,0.1,0,0.7,0,1.7v3.8c0,0.9,0,1.5-0.1,1.6
	c0,0.1-0.1,0.2-0.2,0.3c-0.1,0.1-0.4,0.1-0.9,0.1v0.5C146.2,10,146.9,10,147.5,10L147.5,10L147.5,10z M157.9,3.6
	c-0.3-0.6-0.6-1.1-0.9-1.6c-0.2-0.3-0.4-0.5-0.5-0.6c-0.1-0.1-0.3-0.2-0.6-0.4c-0.2,0.1-0.5,0.1-0.7,0.2l-1.3,0.3V2
	c0.3,0,0.5,0,0.6,0c0.1,0,0.2,0.2,0.5,0.4c0.3,0.3,0.7,0.8,1,1.4c0.5,0.7,0.9,1.4,1.3,2.2c0.2,0.3,0.2,0.5,0.2,0.6v1.2
	c0,0.3,0,0.7,0,1.2c0,0.2,0,0.3-0.1,0.4c0,0-0.1,0.1-0.2,0.1c-0.1,0-0.4,0-0.8,0.1v0.6c0.7,0,1.3,0,1.9,0c0.7,0,1.4,0,2.2,0V9.5
	c-0.5,0-0.8,0-0.8-0.1c-0.1,0-0.2-0.1-0.2-0.1c0-0.1-0.1-0.2-0.1-0.4c0-0.2,0-0.6,0-1.2V6.7c0-0.2,0-0.4,0-0.5
	c0-0.1,0.1-0.3,0.2-0.5c0.1-0.3,0.5-0.9,1.1-1.8c0.6-0.9,1.1-1.7,1.7-2.4V1.2h-1c-0.1,0.1-0.2,0.4-0.4,0.8c-0.7,1.2-1.1,1.9-1.2,2.1
	l-0.8,1.3C158.7,5.2,158.4,4.6,157.9,3.6L157.9,3.6L157.9,3.6z"/>
<g>
	<polygon fill="#005596" points="36.2,29.4 36.2,20.7 44.2,20.7 44.2,15 36.2,15 36.2,6.9 45,6.9 45,10 50.8,10 50.8,1.2 27.6,1.2 
		27.6,6.9 29.8,6.9 29.8,29.4 27.6,29.4 27.6,35.1 38.3,35.1 38.3,29.4 36.2,29.4 	"/>
	<path fill="#005596" d="M24.6,22.3V6.9h2.1V1.2H16v5.7h2.1v13.5c0,5.7-0.7,8.4-4.7,8.4S8.7,26,8.7,20.4V6.9h2.1V1.2H0v5.7h2.1v15.4
		c0,3.4,0,6.1,1.6,8.6c1.8,2.8,5,4.6,9.7,4.6C21.6,35.5,24.6,31.2,24.6,22.3L24.6,22.3z"/>
</g>
<path fill="#005596" d="M169.1,10c0.1,0.4,0.4,0.6,0.7,0.8c0.3,0.2,0.8,0.3,1.4,0.3c0.5,0,0.9-0.1,1.3-0.2c0.4-0.1,0.8-0.4,1.2-0.7
	c0.4-0.3,0.7-0.5,0.9-0.8c0.3-0.3,0.5-0.8,0.7-1.5c0.2-0.6,0.3-1.3,0.3-1.9c0-0.3,0-0.6-0.1-0.9c-0.1-0.3-0.2-0.5-0.4-0.7
	c-0.2-0.2-0.4-0.4-0.8-0.5c-0.3-0.1-0.7-0.2-1.2-0.2c-0.5,0-1,0.1-1.4,0.3c-0.4,0.2-0.9,0.4-1.2,0.7c-0.4,0.3-0.6,0.5-0.8,0.7
	c-0.2,0.3-0.5,0.8-0.7,1.4c-0.2,0.7-0.3,1.3-0.3,1.9C168.9,9.2,169,9.6,169.1,10L169.1,10z M170.9,6.5c0.2-0.8,0.5-1.4,0.7-1.7
	c0.3-0.3,0.6-0.4,1-0.4c0.4,0,0.7,0.1,0.9,0.4c0.2,0.3,0.4,0.7,0.4,1.3c0,0.7-0.1,1.4-0.3,2.2c-0.1,0.5-0.3,0.9-0.5,1.2
	c-0.2,0.3-0.4,0.5-0.6,0.7c-0.2,0.1-0.4,0.2-0.7,0.2c-0.4,0-0.7-0.1-1-0.4c-0.2-0.3-0.3-0.7-0.3-1.3C170.6,8.1,170.7,7.3,170.9,6.5
	L170.9,6.5z M177.7,4.8c0.3,0,0.7,0,1,0l-1.1,5.5c-0.3,1.5-0.5,2.5-0.7,3c-0.1,0.2-0.2,0.4-0.3,0.5c-0.1,0.1-0.2,0.1-0.4,0.1
	c-0.1,0-0.3-0.1-0.4-0.2c-0.1-0.1-0.2-0.3-0.3-0.5l-0.2,0c-0.1,0.3-0.1,0.5-0.2,0.7c-0.1,0.2-0.2,0.5-0.3,0.9
	c0.2,0.1,0.4,0.1,0.6,0.1c0.2,0,0.5-0.1,0.7-0.2c0.5-0.2,0.9-0.6,1.4-1.2c0.5-0.5,0.8-1.2,1.1-1.9c0.3-0.7,0.6-1.8,1-3.4l0.8-3.5
	c0.2,0,0.4,0,0.7,0c0.5,0,0.9,0,1.1,0c0-0.2,0.1-0.5,0.2-0.8l-0.1-0.1C182.2,4,182,4,181.6,4c-0.5,0-0.9,0-1,0h-0.2
	c0.1-0.6,0.3-1.3,0.4-1.9c0.1-0.2,0.1-0.4,0.2-0.5c0.1-0.1,0.2-0.2,0.3-0.3c0.1-0.1,0.2-0.1,0.4-0.1c0.2,0,0.3,0.1,0.5,0.2
	c0.2,0.1,0.4,0.3,0.6,0.7l0.2,0c0.1-0.6,0.2-1.2,0.4-1.9C183.3,0,183.1,0,182.9,0c-0.3,0-0.5,0-0.7,0.1c-0.2,0.1-0.5,0.3-1,0.7
	c-0.5,0.4-1,0.8-1.4,1.2c-0.3,0.3-0.5,0.5-0.6,0.8c-0.1,0.2-0.2,0.4-0.3,0.9c0,0.2-0.1,0.3-0.1,0.4c-0.2,0.1-0.5,0.2-0.8,0.3
	c-0.3,0.1-0.6,0.2-0.7,0.2l-0.1,0.4C177.3,4.8,177.5,4.8,177.7,4.8L177.7,4.8L177.7,4.8z"/>
</svg>
