<?xml version="1.0" encoding="utf-8"?>
<svg xmlns="http://www.w3.org/2000/svg">
	<symbol id="Layer_1" viewBox="0 0 199 75">
  <path fill="#F47836" d="M42.5.2v71.2h1.1V.2h-1.1z"/>
  <g fill="currentColor">
    <path d="M27.4 21.6V15h6.1v-4.3h-6.1V4.6h6.7v2.3h4.4V.3H20.9v4.3h1.6v17h-1.6v4.3H29v-4.3h-1.6zM18.6 16.2V4.5h1.6V.3h-8.1v4.3h1.6v10.2c0 4.3-.5 6.3-3.6 6.3S6.5 19 6.5 14.8V4.5h1.6V.3H0v4.3h1.6v11.7c0 2.5 0 4.6 1.2 6.5 1.3 2.1 3.8 3.5 7.3 3.5 6.3-.1 8.5-3.3 8.5-10.1z"/>
  </g>
  <path fill="currentColor" d="M47.8 10.1v-.6h.8c.1 0 .2 0 .2-.1l.1-.1c0-.1.1-.5.1-1V2.4c0-.5 0-.8-.1-1 0-.1 0-.1-.1-.1 0 0-.1-.1-.2-.1h-.8V.5h4.4v.6c-.5 0-.8 0-.9.1-.1 0-.1.1-.2.1 0 0-.1.2-.1.5 0 .5-.1 1.1-.1 2v.8h4.6v-.9-1.4c0-.6-.1-.9-.1-1 0-.1 0-.1-.1-.1 0 0-.1-.1-.2-.1s-.4 0-.9-.1V.5h4.4v.6h-.8c-.1 0-.2 0-.2.1l-.1.1c0 .1-.1.5-.1 1V8.2c0 .5 0 .8.1 1 0 .1.1.1.1.2 0 0 .1.1.2.1h.8v.6h-4.4v-.6c.5 0 .8 0 .9-.1.1 0 .1-.1.2-.1 0 0 .1-.2.1-.5 0-.5.1-1.1.1-2V5.4H51v2.8c0 .6.1 1 .1 1 0 .1 0 .1.1.1 0 0 .1.1.2.1s.4 0 .9.1v.6h-2c-1-.1-1.8-.1-2.5 0zM65.2 9l-.3.7c-.4.2-.8.4-1.2.5-.3.1-.6.1-1 .1-.5 0-.8-.1-1.2-.2-.3-.1-.6-.2-.9-.4-.2-.2-.4-.4-.6-.7-.2-.3-.3-.6-.4-.9-.1-.3-.1-.7-.1-1.1 0-.6.1-1.1.2-1.6.1-.3.2-.6.4-.7.1-.1.3-.3.7-.5.4-.3.7-.4.8-.5.3-.1.7-.2 1.1-.2.6 0 1.1.1 1.5.4.4.3.7.6.8 1 .2.4.2.9.2 1.4v.4c-.1 0-.3.1-.5.1-.3.1-.5.1-.6.1h-3c0 .7.3 1.3.7 1.7.4.4.9.6 1.5.6.3 0 .5 0 .7-.1.3 0 .6-.1 1-.3l.2.2zm-1.7-2.8c0-.7-.1-1.2-.3-1.5-.2-.3-.5-.4-.8-.4-.4 0-.6.1-.9.4-.2.3-.3.8-.3 1.5.3 0 .7.1 1.3.1.4-.1.8-.1 1-.1zM70 9.5v.5H66.1v-.5c.4 0 .6 0 .7-.1.1 0 .1-.1.1-.1.1 0 .1-.2.1-.5v-.6-1.5-1.5-.4l-.1-.1c-.1 0-.3-.1-.8-.1v-.5c.8-.1 1.4-.2 1.6-.3l.9-.3.2.1V5c.3-.3.5-.6.7-.8.2-.3.4-.5.5-.5.2-.1.4-.2.6-.2.2 0 .3 0 .5.1v1.9l-.3.1c-.1-.2-.2-.3-.3-.3-.3-.2-.4-.3-.6-.3-.3 0-.5.1-.7.2s-.3.3-.3.5v3.4c0 .1.1.1.1.2.1 0 .2.1.5.1l.5.1zM71.2 1.1V.6c1-.1 1.9-.3 2.6-.6.1 0 .2 0 .2.1v4.6l.8-.7c.2-.2.5-.3.7-.4.2-.1.5-.1.8-.1.8 0 1.4.2 1.9.7.5.5.7 1.1.7 1.9 0 .5-.1 1-.3 1.4s-.4.8-.7 1.1c0 0-.4.3-1 .7s-1 .7-1 .7c-.3.1-.6.2-1 .2-.3 0-.5 0-.8-.1-.3-.1-.6-.2-.9-.4l-.6.5-.3-.1c.1-1.4.1-3.1.1-5s0-3.1-.1-3.6c0-.2-.1-.3-.1-.3-.2-.1-.5-.1-1-.1zM74 5.4v3.2l.5.5c.3.1.6.2.9.2.3 0 .6-.1.9-.3.2-.2.4-.5.6-.9.1-.3.1-.7.1-1.2 0-.7-.2-1.3-.5-1.6-.3-.4-.7-.6-1.2-.6-.3 0-.6.1-.8.2-.2.2-.4.3-.5.5zM85.7 9l-.3.7c-.4.2-.8.4-1.2.5-.3.1-.6.1-1 .1-.5 0-.8-.1-1.2-.2-.3-.1-.6-.2-.9-.4-.2-.2-.5-.4-.6-.7-.2-.3-.3-.6-.4-.9 0-.3-.1-.7-.1-1.1 0-.6.1-1.1.2-1.6.1-.3.2-.6.4-.7.1-.1.3-.3.7-.5.4-.3.7-.4.8-.5.3-.1.7-.2 1.1-.2.6 0 1.1.1 1.5.4.4.3.7.6.8 1 .2.4.2.9.2 1.4v.4c-.1 0-.3.1-.5.1-.3.1-.5.1-.6.1h-3c0 .7.3 1.3.7 1.7.6.4 1.1.7 1.7.7.3 0 .5 0 .7-.1.2-.1.5-.2.9-.4l.1.2zm-1.6-2.8c0-.7-.1-1.2-.3-1.5-.2-.3-.5-.4-.8-.4-.4 0-.7.1-.9.4-.2.3-.3.8-.3 1.5.3 0 .7.1 1.3.1.4-.1.7-.1 1-.1zM90.6 9.5v.5H86.7v-.5c.4 0 .6 0 .7-.1.1 0 .1-.1.1-.1 0-.1.1-.3.1-.5v-.6-1.5-1.5c0-.3 0-.5-.1-.5l-.1-.1c-.1 0-.3-.1-.8-.1v-.4c.8-.1 1.4-.2 1.6-.3l.9-.3.2.1V5c.3-.3.5-.6.7-.8.2-.3.4-.5.5-.5.2-.1.4-.2.6-.2.2 0 .3 0 .5.1v1.9l-.3.1c-.1-.2-.2-.3-.3-.3-.2-.2-.4-.3-.6-.3-.3 0-.5.1-.7.2-.2.2-.3.3-.3.5v3.4c0 .1.1.1.1.2.1 0 .2.1.5.1l.6.1zM91.9 4.9v-.4l.6-.4c.1 0 .2-.1.3-.1V3c0-.3 0-.7-.1-1.2.4-.1.7-.2.9-.3 0 0 .3-.1.9-.4l.2.1-.1.8v.8L94.4 4h.2c.6 0 1.1 0 1.4-.1l-.1.9H94.3v3.5c0 .2.1.4.2.5.3.2.5.2.8.2h.7l.1.3-.2.2-.5.5c-.2.1-.3.1-.5.2h-.4c-.5 0-.9-.1-1.3-.4-.3-.3-.5-.6-.5-1v-4h-.2c-.2 0-.4 0-.6.1zM57 24.8l-.3.7c-.6.3-1.1.5-1.5.6-.5.1-1 .2-1.7.2-1 0-1.8-.2-2.6-.5-.6-.2-1.1-.6-1.5-1-.4-.4-.7-.8-.9-1.3-.3-.7-.5-1.5-.5-2.3 0-1.4.5-2.6 1.5-3.5 1-.9 2.4-1.4 4.2-1.4.6 0 1.2 0 1.7.1s1.1.3 1.7.5v.1c-.1.2-.1.5-.2.8-.1.5-.1 1-.1 1.4h-.5c0-.5 0-.9-.1-1.2-.3-.3-.6-.6-1-.7-.4-.2-.9-.2-1.5-.2-1.1 0-1.9.3-2.6 1-.6.7-1 1.6-1 2.8 0 .7.1 1.4.3 1.9.2.5.5 1 .9 1.4.4.4.7.6 1.1.8.5.2 1.1.3 1.8.3.5 0 .9-.1 1.3-.2s.9-.3 1.4-.5l.1.2zM57.8 22.8c0-.8.1-1.4.4-1.9.3-.5.7-.9 1.2-1.1.5-.3 1.1-.4 1.8-.4 1.1 0 1.9.3 2.4.8.5.6.8 1.4.8 2.4 0 .6-.1 1.1-.2 1.6-.2.5-.4.8-.6 1.1-.3.3-.6.5-.8.6-.5.2-1.1.4-1.7.4-1 0-1.8-.3-2.4-.9-.6-.6-.9-1.4-.9-2.6zm1.9-.3c0 1.2.2 2.1.5 2.6.2.3.6.5 1 .5s.7-.1.9-.4c.3-.3.4-1 .4-2 0-.7-.1-1.3-.2-1.8s-.3-.8-.5-1c-.2-.2-.5-.3-.8-.3-.3 0-.5.1-.7.2-.2.1-.4.4-.5.7 0 .4-.1.9-.1 1.5zM69.2 25.5v.5H65.3v-.5c.4 0 .7 0 .8-.1.1 0 .1 0 .2-.1 0 0 .1-.1.1-.2s.1-.6.1-1.3V19.6v-2c0-.3 0-.5-.1-.6 0 0 0-.1-.1-.1s-.1-.1-.3-.1h-.6v-.5c.6-.1 1-.1 1.4-.2.3-.1.8-.2 1.4-.4l.1.1-.1 1.4v8.1s0 .1.1.1c0 0 .1.1.2.1h.7zM73.7 25.5v.5H69.8v-.5c.4 0 .7 0 .8-.1.1 0 .1 0 .2-.1 0 0 .1-.1.1-.2s.1-.6.1-1.3V19.6v-2c0-.3 0-.5-.1-.6 0 0 0-.1-.1-.1s-.1-.1-.3-.1h-.6v-.5c.6-.1 1-.1 1.4-.2.3-.1.8-.2 1.4-.4l.1.1-.1 1.4v8.1s0 .1.1.1c0 0 .1.1.2.1h.7zM80.3 25l-.3.7c-.4.2-.8.4-1.2.5-.3.1-.6.1-1 .1-.5 0-.8-.1-1.2-.2-.3-.1-.6-.2-.9-.4-.2-.2-.5-.4-.6-.7-.2-.3-.3-.6-.4-.9-.1-.3-.1-.7-.1-1.1 0-.6.1-1.1.2-1.6.1-.3.2-.6.4-.7.1-.1.3-.3.7-.5.4-.3.7-.4.8-.5.3-.1.7-.2 1.1-.2.6 0 1.1.1 1.5.4.4.3.7.6.8 1 .2.4.2.9.2 1.4v.4c-.1 0-.3.1-.5.1-.3.1-.5.1-.6.1h-3c0 .7.3 1.3.7 1.7.4.4.9.6 1.5.6.3 0 .5 0 .7-.1.2-.1.5-.2.9-.4l.3.3zm-1.6-2.8c0-.7-.1-1.2-.3-1.5-.2-.3-.5-.4-.8-.4-.4 0-.6.1-.9.4-.2.3-.3.8-.3 1.5.3 0 .7.1 1.3.1.4-.1.7-.1 1-.1zM82.2 24.5l1-.7c-.3-.1-.6-.3-.8-.4-.2-.2-.4-.4-.5-.6-.1-.3-.2-.6-.2-.9 0-.4.1-.8.3-1.2.2-.4.6-.7 1-.9.5-.2 1-.3 1.7-.3.4 0 .8 0 1.2.1.4.1.7.2.9.4h1.6l-.1.8h-1.1c.1.2.1.4.1.7 0 .5-.1.9-.4 1.3-.3.4-.6.7-1.1.9-.5.2-1 .3-1.5.3h-.6l-.3.3c-.1.1-.1.2-.1.3 0 .1 0 .2.1.2.1.1.1.1.3.1h2.8c.5 0 .9.1 1.1.2.3.1.5.3.6.5.1.2.2.5.2.9 0 .6-.1 1.1-.4 1.5-.3.5-.7.8-1.2 1.1-.7.4-1.5.6-2.4.6-.7 0-1.3-.1-1.8-.3-.5-.2-.8-.4-1-.7-.2-.3-.3-.6-.3-.9 0-.2 0-.4.1-.5.1-.2.1-.3.2-.3.1-.1.2-.2.5-.3.4-.2.7-.4.7-.4-.2 0-.5-.1-.7-.3-.2-.2-.3-.4-.3-.6 0-.1 0-.2.1-.4.1-.3.2-.4.3-.5zm1.4 1.7c-.4.2-.6.5-.7.7-.1.2-.2.4-.2.7 0 .4.2.8.5 1 .3.3.8.4 1.5.4s1.3-.2 1.6-.5c.4-.3.6-.8.6-1.3 0-.2 0-.4-.1-.6l-.3-.3c-.1-.1-.3-.1-.6-.1h-2.3zm-.3-4.7c0 .6.1 1.1.3 1.3.2.3.5.4.9.4s.7-.2.9-.5c.1-.2.2-.6.2-1 0-.6-.1-1.1-.3-1.3-.2-.3-.5-.4-.9-.4-.3 0-.6.1-.8.3-.2.3-.3.7-.3 1.2zM94.8 25l-.3.7c-.4.2-.8.4-1.2.5-.3.1-.6.1-1 .1-.5 0-.8-.1-1.2-.2-.3-.1-.6-.2-.9-.4-.2-.2-.5-.4-.6-.7-.2-.3-.3-.6-.4-.9-.1-.3-.1-.7-.1-1.1 0-.6.1-1.1.2-1.6.1-.3.2-.6.4-.7.1-.1.3-.3.7-.5.4-.3.7-.4.8-.5.3-.1.7-.2 1.1-.2.6 0 1.1.1 1.5.4.4.3.7.6.8 1 .2.4.2.9.2 1.4v.4c-.1 0-.3.1-.5.1-.3.1-.5.1-.6.1h-3c0 .7.3 1.3.7 1.7.4.4.9.6 1.5.6.3 0 .5 0 .7-.1.2-.1.5-.2.9-.4l.3.3zm-1.6-2.8c0-.7-.1-1.2-.3-1.5-.2-.3-.5-.4-.8-.4-.4 0-.6.1-.9.4-.2.3-.3.8-.3 1.5.3 0 .7.1 1.3.1.4-.1.7-.1 1-.1zM99.3 22.8c0-.8.1-1.4.4-1.9.3-.5.7-.9 1.2-1.1.5-.3 1.1-.4 1.8-.4 1.1 0 1.9.3 2.4.8.5.6.8 1.4.8 2.4 0 .6-.1 1.1-.2 1.6-.2.5-.4.8-.6 1.1-.3.3-.6.5-.8.6-.5.2-1.1.4-1.7.4-1 0-1.8-.3-2.4-.9-.7-.6-.9-1.4-.9-2.6zm1.9-.3c0 1.2.2 2.1.5 2.6.2.3.6.5 1 .5s.7-.1.9-.4c.3-.3.4-1 .4-2 0-.7-.1-1.3-.2-1.8s-.3-.8-.5-1c-.2-.2-.5-.3-.8-.3-.3 0-.5.1-.7.2-.2.1-.4.4-.5.7-.1.4-.1.9-.1 1.5zM106.8 26.1v-.5c.5 0 .9-.1 1-.2.1-.1.1-.1.1-.3 0-.2.1-1 .1-2.2v-2.1h-1.1v-.3c.6-.3.9-.5.9-.5.1 0 .1-.1.1-.2V19c0-.3.1-.5.1-.7 0-.1.1-.3.2-.4l1-1 .8-.7c.1-.1.3-.2.5-.3.2-.1.4-.1.6-.1.2 0 .5 0 .7.1-.1.5-.1.9-.1 1.4l-.3.1c-.1-.1-.3-.2-.4-.3-.1 0-.3-.1-.5-.1-.3 0-.5.1-.6.1-.1.1-.2.2-.2.3-.1.2-.1.6-.1 1.4V20h1.8l.1.1c0 .1 0 .2-.1.2l-.1.6h-1.7v3.5c0 .4 0 .7.1.8 0 .1.1.1.1.2 0 0 .1.1.2.1 0 0 .3 0 .9.1v.5h-2.3c-.2-.1-.8-.1-1.8 0zM115.8 26.1v-.4c.3-.1.5-.3.7-.4 0-.2 0-.5.1-.9 0-.8.1-1.4.1-1.7v-3.1-1.3c0-.5 0-.8-.1-.9l-.1-.1c-.1-.1-.5-.1-1-.1v-.5h7.2v.1l-.1 1c0 .1 0 .4-.1 1h-.5c0-.5 0-.9-.1-1 0-.1 0-.1-.1-.1s-.2-.1-.5-.1c-.5-.1-.9-.1-1.3-.1h-1.2c-.1.5-.1 1.2-.1 2v1.4h2.5l.1-.1c.1-.2.1-.5.1-.9h.6v3h-.6c0-.5 0-.9-.1-1-.1-.1-.2-.1-.3-.2-.3-.1-.7-.1-1.2-.1h-1.1v3.7h2.7c.4 0 .7-.1.8-.1l.1-.1c.1-.2.2-.6.3-1.2h.6c-.1.9-.2 1.6-.2 2.2l-.1.1h-4.5c-.4-.2-1.2-.2-2.6-.1zM131.7 25.6v.5H129l-.1-.1c0-.1 0-.5.1-1.2v-1.6c0-.8 0-1.3-.1-1.6-.1-.3-.2-.5-.4-.6-.2-.2-.4-.2-.8-.2-.3 0-.6.1-.8.2-.2.2-.3.3-.4.5V24.9c0 .2 0 .4.1.4l.1.1c.1 0 .2.1.3.1.1 0 .2 0 .6.1v.5h-3.7v-.5c.4 0 .6 0 .7-.1.1 0 .1-.1.1-.1 0-.1.1-.3.1-.5v-.6-1.5-1.5c0-.3 0-.5-.1-.5l-.1-.1c-.1 0-.3-.1-.8-.1v-.5c.8-.1 1.4-.2 1.6-.3l.9-.3.2.1v1.1l1.2-1c.2-.1.3-.1.4-.1h.4c.5 0 .9.1 1.1.2.2.1.4.3.6.5.2.2.3.4.4.6.1.2.1.6.1 1v3.3c0 .2.1.3.1.4.1.1.2.1.4.1.2-.2.3-.2.5-.1zM133.2 24.5l1-.7c-.3-.1-.6-.3-.8-.4-.2-.2-.4-.4-.5-.6-.1-.3-.2-.6-.2-.9 0-.4.1-.8.3-1.2.2-.4.6-.7 1-.9.5-.2 1-.3 1.7-.3.4 0 .8 0 1.2.1.4.1.7.2.9.4h1.6l-.1.8h-1.1c.1.2.1.4.1.7 0 .5-.1.9-.4 1.3-.3.4-.6.7-1.1.9-.5.2-1 .3-1.5.3h-.6l-.3.3c-.1.1-.1.2-.1.3 0 .1 0 .2.1.2.1.1.1.1.3.1h2.8c.5 0 .9.1 1.1.2.3.1.5.3.6.5.1.2.2.5.2.9 0 .6-.1 1.1-.4 1.5-.3.5-.7.8-1.2 1.1-.7.4-1.5.6-2.4.6-.7 0-1.3-.1-1.8-.3-.5-.2-.8-.4-1-.7-.2-.3-.3-.6-.3-.9 0-.2 0-.4.1-.5.1-.2.1-.3.2-.3.1-.1.2-.2.5-.3.4-.2.7-.4.7-.4-.2 0-.5-.1-.7-.3-.2-.2-.3-.4-.3-.6 0-.1 0-.2.1-.4.1-.3.2-.4.3-.5zm1.4 1.7c-.4.2-.6.5-.7.7-.1.2-.2.4-.2.7 0 .4.2.8.5 1 .3.3.8.4 1.5.4s1.3-.2 1.6-.5c.4-.3.6-.8.6-1.3 0-.2 0-.4-.1-.6l-.3-.3c-.1-.1-.3-.1-.6-.1h-2.3zm-.3-4.7c0 .6.1 1.1.3 1.3.2.3.5.4.9.4s.7-.2.9-.5c.1-.2.2-.6.2-1 0-.6-.1-1.1-.3-1.3-.2-.3-.5-.4-.9-.4-.3 0-.6.1-.8.3-.2.3-.3.7-.3 1.2zM139.9 26.1v-.5c.5 0 .8-.1.9-.1.1 0 .1-.1.1-.2 0-.3.1-.9.1-1.9 0-1.4 0-2.2-.1-2.4 0-.1 0-.2-.1-.2-.1-.1-.4-.1-.9-.1V20c.7-.1 1.2-.1 1.6-.2.4-.1.7-.2 1.1-.4l.2.1c-.1.7-.1 1.4-.1 2v2.3c0 .8 0 1.3.1 1.4 0 .1.1.1.1.2.1.1.4.1.9.1v.5h-2.1c-.7 0-1.3 0-1.8.1zm1.9-9.9c.3 0 .5.1.7.3.2.2.3.5.3.7 0 .3-.1.5-.3.7-.2.2-.4.3-.7.3-.3 0-.5-.1-.7-.3-.2-.2-.3-.5-.3-.7 0-.3.1-.5.3-.7.2-.2.4-.3.7-.3zM152.3 25.6v.5h-2.7l-.1-.1c0-.1 0-.5.1-1.2v-1.6c0-.8 0-1.3-.1-1.6-.1-.3-.2-.5-.4-.6-.2-.2-.4-.2-.8-.2-.3 0-.6.1-.8.2-.2.2-.3.3-.4.5V24.9c0 .2 0 .4.1.4l.1.1c.1 0 .2.1.3.1.1 0 .2 0 .6.1v.5h-3.7v-.5c.4 0 .6 0 .7-.1.1 0 .1-.1.1-.1 0-.1.1-.3.1-.5v-.6-1.5-1.5c0-.3 0-.5-.1-.5l-.1-.1c-.1 0-.3-.1-.8-.1v-.5c.8-.1 1.4-.2 1.6-.3l.9-.3.2.1v1.1l1.2-1c.2-.1.3-.1.4-.1h.4c.5 0 .9.1 1.1.2.2.1.4.3.6.5.2.2.3.4.4.6.1.2.1.6.1 1v3.3c0 .2.1.3.1.4.1.1.2.1.4.1.1-.2.3-.2.5-.1zM158.7 25l-.3.7c-.4.2-.8.4-1.2.5-.3.1-.6.1-1 .1-.5 0-.8-.1-1.2-.2-.3-.1-.6-.2-.9-.4-.2-.2-.5-.4-.6-.7-.2-.3-.3-.6-.4-.9-.1-.3-.1-.7-.1-1.1 0-.6.1-1.1.2-1.6.1-.3.2-.6.4-.7.1-.1.3-.3.7-.5s.7-.4.8-.5c.3-.1.7-.2 1.1-.2.6 0 1.1.1 1.5.4.4.3.7.6.8 1 .2.4.2.9.2 1.4v.4c-.1 0-.3.1-.5.1-.3.1-.5.1-.6.1h-3c0 .7.3 1.3.7 1.7.4.4.9.6 1.5.6.3 0 .5 0 .7-.1.2-.1.5-.2.9-.4l.3.3zm-1.6-2.8c0-.7-.1-1.2-.3-1.5-.2-.3-.5-.4-.8-.4-.4 0-.6.1-.9.4-.2.3-.3.8-.3 1.5.3 0 .7.1 1.3.1.4-.1.7-.1 1-.1zM165.6 25l-.3.7c-.4.2-.8.4-1.2.5-.3.1-.6.1-1 .1-.5 0-.8-.1-1.2-.2-.3-.1-.6-.2-.9-.4-.2-.2-.5-.4-.6-.7-.2-.3-.3-.6-.4-.9-.1-.3-.1-.7-.1-1.1 0-.6.1-1.1.2-1.6.1-.3.2-.6.4-.7.1-.1.3-.3.7-.5s.7-.4.8-.5c.3-.1.7-.2 1.1-.2.6 0 1.1.1 1.5.4.4.3.7.6.8 1 .2.4.2.9.2 1.4v.4c-.1 0-.3.1-.5.1-.3.1-.5.1-.6.1h-3c0 .7.3 1.3.7 1.7.4.4.9.6 1.5.6.3 0 .5 0 .7-.1.2-.1.5-.2.9-.4l.3.3zm-1.6-2.8c0-.7-.1-1.2-.3-1.5-.2-.3-.5-.4-.8-.4-.4 0-.6.1-.9.4-.2.3-.3.8-.3 1.5.3 0 .7.1 1.3.1.4-.1.7-.1 1-.1zM170.5 25.5v.5H166.6v-.5c.4 0 .6 0 .7-.1.1 0 .1-.1.1-.1 0-.1.1-.3.1-.5v-.6-1.5-1.5c0-.3 0-.5-.1-.5l-.1-.1c-.1 0-.3-.1-.8-.1V20c.8-.1 1.4-.2 1.6-.3l.9-.3.2.1v1.4c.3-.3.5-.6.7-.8.2-.3.4-.5.5-.5.2-.1.4-.2.6-.2.2 0 .3 0 .5.1v1.9l-.3.1c-.1-.2-.2-.3-.3-.3-.2-.1-.4-.1-.6-.1-.3 0-.5.1-.7.2-.2.2-.3.3-.3.5v3.4c0 .1.1.1.1.2.1 0 .2.1.5.1h.6zM171.9 26.1v-.5c.5 0 .8-.1.9-.1.1 0 .1-.1.1-.2 0-.3.1-.9.1-1.9 0-1.4 0-2.2-.1-2.4 0-.1 0-.2-.1-.2-.1-.1-.4-.1-.9-.1V20c.7-.1 1.2-.1 1.6-.2.4-.1.7-.2 1.1-.4l.2.1c-.1.7-.1 1.4-.1 2v2.3c0 .8 0 1.3.1 1.4 0 .1.1.1.1.2.1.1.4.1.9.1v.5h-2.1c-.7 0-1.3 0-1.8.1zm1.9-9.9c.3 0 .5.1.7.3.2.2.3.5.3.7 0 .3-.1.5-.3.7-.2.2-.4.3-.7.3-.3 0-.5-.1-.7-.3-.2-.2-.3-.5-.3-.7 0-.3.1-.5.3-.7.1-.2.4-.3.7-.3zM184.2 25.6v.5h-2.7l-.1-.1c0-.1 0-.5.1-1.2v-1.6c0-.8 0-1.3-.1-1.6-.1-.3-.2-.5-.4-.6-.2-.2-.4-.2-.8-.2-.3 0-.6.1-.8.2-.2.2-.3.3-.4.5V24.9c0 .2 0 .4.1.4l.1.1c.1 0 .2.1.3.1.1 0 .2 0 .6.1v.5h-3.7v-.5c.4 0 .6 0 .7-.1.1 0 .1-.1.1-.1 0-.1.1-.3.1-.5v-.6-1.5-1.5c0-.3 0-.5-.1-.5l-.1-.1c-.1 0-.3-.1-.8-.1v-.5c.8-.1 1.4-.2 1.6-.3l.9-.3.2.1v1.1l1.2-1c.2-.1.3-.1.4-.1h.4c.5 0 .9.1 1.1.2.2.1.4.3.6.5.2.2.3.4.4.6.1.2.1.6.1 1v3.3c0 .2.1.3.1.4.1.1.2.1.4.1.2-.2.3-.2.5-.1zM185.7 24.5l1-.7c-.3-.1-.6-.3-.8-.4-.2-.2-.4-.4-.5-.6-.1-.3-.2-.6-.2-.9 0-.4.1-.8.3-1.2.2-.4.6-.7 1-.9.5-.2 1-.3 1.7-.3.4 0 .8 0 1.2.1.4.1.7.2.9.4h1.6l-.1.8h-1.1c.1.2.1.4.1.7 0 .5-.1.9-.4 1.3-.3.4-.6.7-1.1.9-.5.2-1 .3-1.5.3h-.6l-.3.3c-.1.1-.1.2-.1.3 0 .1 0 .2.1.2.1.1.1.1.3.1h2.8c.5 0 .9.1 1.1.2.3.1.5.3.6.5.1.2.2.5.2.9 0 .6-.1 1.1-.4 1.5-.3.5-.7.8-1.2 1.1-.7.4-1.5.6-2.4.6-.7 0-1.3-.1-1.8-.3-.5-.2-.8-.4-1-.7-.2-.3-.3-.6-.3-.9 0-.2 0-.4.1-.5.1-.2.1-.3.2-.3.1-.1.2-.2.5-.3.4-.2.7-.4.7-.4-.2 0-.5-.1-.7-.3-.2-.2-.3-.4-.3-.6 0-.1 0-.2.1-.4.2-.3.2-.4.3-.5zm1.4 1.7c-.4.2-.6.5-.7.7-.1.2-.2.4-.2.7 0 .4.2.8.5 1 .3.3.8.4 1.5.4s1.3-.2 1.6-.5c.4-.3.6-.8.6-1.3 0-.2 0-.4-.1-.6l-.3-.3c-.1-.1-.3-.1-.6-.1h-2.3zm-.2-4.7c0 .6.1 1.1.3 1.3.2.3.5.4.9.4s.7-.2.9-.5c.1-.2.2-.6.2-1 0-.6-.1-1.1-.3-1.3-.2-.3-.5-.4-.9-.4-.3 0-.6.1-.8.3-.2.3-.3.7-.3 1.2zM47 44v-.3c.1 0 .2.1.3.1.1 0 .2 0 .3-.1.1 0 .2-.1.2-.2.1-.2.2-.5.3-.9.1-.3.2-1.3.5-2.9l.4-2.3c.1-.9.2-1.4.2-1.6v-.2s-.1-.1-.2-.1h-.7v-.3h2.6v.3c-.3 0-.5 0-.6.1-.1 0-.1 0-.1.1 0 0-.1.1-.1.2-.1.3-.2 1.1-.4 2.2-.3 1.7-.4 2.6-.4 2.9-.1.6-.1 1-.2 1.2-.1.4-.2.8-.3 1-.1.3-.3.5-.4.6-.2.2-.3.3-.5.3-.1.1-.3.1-.4.1-.3-.1-.4-.1-.5-.2zM51.1 41.6c0-.2.1-.3.2-.5.1-.1.3-.2.4-.2.1 0 .2 0 .3.1.1.1.1.2.1.3 0 .2-.1.4-.2.5-.1.1-.3.2-.4.2-.1 0-.2 0-.3-.1s-.1-.1-.1-.3zM61.7 41l-.1.4c-.3.2-.6.4-.8.5-.2.1-.5.2-.8.3-.3.1-.6.1-1 .1-.9 0-1.7-.3-2.2-.8-.5-.5-.8-1.3-.8-2.2 0-.7.1-1.3.4-1.9.2-.5.5-.9.9-1.2.4-.4.8-.6 1.3-.8.5-.2.9-.3 1.4-.3.4 0 .7 0 1 .1.3.1.7.2 1 .3-.1.2-.1.3-.1.5s-.1.6-.1 1h-.3v-.5-.3c-.2-.2-.4-.3-.6-.4-.3-.1-.7-.2-1.1-.2-.5 0-.9.1-1.2.2-.3.1-.6.4-.9.7-.2.3-.4.7-.6 1.1-.1.4-.1.9-.1 1.4 0 .5.1.9.2 1.2.1.3.3.6.5.8.2.2.4.3.6.5.3.2.7.2 1.2.2.4 0 .7-.1 1.1-.2.3-.1.7-.3 1.1-.6v.1zM62.9 42.2c.1-.6.2-1.1.3-1.4.2-.7.3-1.3.4-1.9 0-.3.1-.5.1-.7V38h-.1c-.1 0-.4.2-.8.5l-.1-.2c.4-.4.8-.6 1.2-.8.2-.1.4-.2.5-.2.1 0 .1 0 .1.1 0 0 .1.1.1.2s0 .2-.1.5c-.1.4-.2.9-.3 1.4.3-.6.7-1.1 1-1.5.2-.3.4-.4.5-.5.1-.1.2-.1.3-.1.1 0 .1 0 .2.1-.1.3-.1.6-.2 1.1h-.1c-.1-.1-.2-.2-.3-.2-.1 0-.2 0-.4.1s-.4.4-.7.7c-.2.3-.4.8-.6 1.3-.1.3-.2.8-.4 1.6-.3 0-.5 0-.6.1zM70.2 41l.1.2-.7.6c-.2.2-.4.3-.5.3H69c-.1 0-.1 0-.2-.1s-.1-.1-.1-.2c0-.3.1-.9.3-1.7-.3.3-.5.6-.6.8-.3.3-.5.6-.8.8-.3.2-.5.4-.7.5h-.2c-.1 0-.2 0-.2-.1-.1-.1-.1-.4-.1-.7 0-.4.1-.9.2-1.5.2-.6.3-1 .6-1.5.1-.2.3-.4.5-.5.3-.2.6-.4.9-.5.2-.1.4-.1.6-.1h.4c.1 0 .3.1.5.1l.3-.2.1.1c-.2.7-.4 1.4-.6 2-.1.4-.2.7-.3.9-.1.3-.1.6-.2.9V41.4h.1c.1 0 .1 0 .2-.1 0 .1.2-.1.5-.3zm-.8-3c-.1-.1-.3-.1-.4-.1h-.4c-.3 0-.5 0-.7.1-.1 0-.1.2-.2.3-.2.3-.3.7-.4 1.2-.2.7-.3 1.2-.3 1.8v.2s0 .1.1.1h.1c.1 0 .2 0 .3-.1.3-.2.5-.4.8-.7.3-.3.5-.7.7-1.1.2-.6.3-1.1.4-1.7zM70.6 43.9l.5-.3h.1v.2c0 .2.1.4.2.5.1.1.3.2.5.2.1 0 .2 0 .4-.1l.3-.3c.1-.2.3-.4.5-.8s.4-.9.6-1.6l.4-1.4c-.2.4-.5.7-.7.9-.4.5-.7.7-.8.8-.1.1-.3.1-.3.1-.1 0-.2-.1-.3-.2-.1-.2-.2-.4-.2-.7 0-.1 0-.4.1-.8.1-.7.1-1.3.1-1.9V38c0-.1 0-.1-.1-.1h-.1c-.1 0-.3.1-.6.4-.1 0-.1.1-.1.1l-.1-.2c.4-.3.7-.6 1.1-.8.2-.1.3-.2.4-.2.1 0 .2 0 .2.1.1.1.1.2.1.5 0 .2 0 .7-.1 1.3-.1.8-.1 1.4-.1 1.7 0 .2 0 .3.1.3l.1.1h.2c.1-.1.3-.2.4-.4.2-.2.3-.4.5-.6.3-.4.5-.8.6-1.3.1-.3.3-.8.4-1.6.2 0 .4-.1.7-.2l.1.1c-.1.2-.2.4-.3.7-.2.4-.4 1.1-.6 2-.2.7-.4 1.3-.5 1.6-.2.6-.4 1.1-.6 1.5-.2.4-.5.7-.8 1-.2.2-.5.4-.7.5-.2.1-.4.1-.7.1-.1 0-.3 0-.4-.1l-.3-.3c-.1-.1-.1-.3-.1-.4-.2.2-.2.1-.1.1zM78.3 40.9l.1.2c-.3.2-.6.5-.9.7-.3.2-.5.3-.6.4h-.2c-.1 0-.2 0-.2-.1-.1-.1-.1-.2-.1-.4v-.3c0-.1 0-.2.1-.4l.2-1c.1-.4.2-1 .4-1.8h-.8v-.1c.3-.1.4-.2.5-.2.1 0 .2-.1.3-.2.1-.3.1-.4.1-.6 0-.1.1-.5.2-1.1l.4-.2.3-.2.1.1c-.2.6-.2.9-.2.9 0 .1-.1.5-.2 1.2h.4c.3 0 .6 0 .7-.1l-.1.5h-1.1c-.1.3-.2.7-.3 1.4-.1.7-.2 1.1-.2 1.4v.3c0 .1 0 .1.1.2l.1.1h.1c.1 0 .2-.1.4-.2l.4-.5zM79.1 40.7c0-.4 0-.8.1-1.1.1-.4.2-.7.4-.9.1-.3.3-.5.6-.7.2-.2.5-.4.7-.5.3-.1.5-.2.8-.2.2 0 .5.1.7.2.2.1.4.3.5.5.1.2.2.5.2.9 0 .5-.1 1-.3 1.5-.2.4-.3.7-.5 1-.2.2-.5.5-.8.6-.3.2-.6.3-1 .3s-.7-.1-.9-.4c-.3-.3-.5-.7-.5-1.2zm.8-.1c0 .3 0 .6.1.7.1.2.2.3.3.4.1.1.3.1.5.1s.4-.1.6-.2c.2-.1.3-.3.5-.6s.3-.6.3-1c.1-.4.1-.8.1-1.1 0-.4-.1-.7-.2-.9-.2-.2-.4-.3-.7-.3-.5 0-.8.3-1.1.8-.3.6-.4 1.3-.4 2.1zM84.1 42.1c.1-.8.3-1.6.5-2.6.2-.7.2-1.2.2-1.4V38h-.1-.1c-.1 0-.2.1-.3.1l-.4.3-.1-.2.5-.3.6-.3c.2-.1.3-.2.4-.2h.1c.1 0 .1 0 .2.1 0 .1.1.1.1.2v.2c0 .1-.1.4-.2.8l-.2.9c.3-.5.6-.9 1-1.2.4-.4.8-.6 1.2-.8.3-.1.5-.2.7-.2.1 0 .2 0 .2.1.1.1.1.1.1.2 0 .2-.1.8-.3 1.6-.3 1.2-.5 1.8-.5 2v.1h.1s.1 0 .2-.1c.2-.1.4-.3.6-.4l.1.2c-.3.2-.5.4-.7.5-.3.2-.6.3-.7.4h-.2c-.1 0-.2 0-.2-.1-.1-.1-.1-.2-.1-.3v-.4c0-.2.2-.8.4-1.5.2-.9.4-1.5.4-1.7v-.2l-.1-.1c-.1 0-.2 0-.4.1-.3.1-.5.3-.8.6-.3.3-.5.6-.7.9-.2.3-.3.7-.5 1.2 0 .2-.1.6-.2 1.1-.4.4-.6.5-.8.5zM91.5 42.1v-.3c.4 0 .6 0 .7-.1l.1-.1c.1-.1.1-.5.3-1.2 0-.2.2-1.1.5-2.6.2-1.2.3-1.9.3-2.1 0-.1 0-.2-.1-.2-.1-.1-.4-.1-.8-.1v-.3H95.5c.5 0 .8.1 1 .2.2.1.4.3.6.5.1.2.2.5.2.8 0 .3-.1.6-.2.9-.1.3-.3.6-.5.8-.2.2-.4.4-.7.5-.3.2-.6.2-1 .2-.2 0-.3 0-.5-.1-.1 0-.3-.1-.4-.2v-.3c.2.1.5.2.7.2.3 0 .5-.1.8-.2.3-.2.5-.4.6-.7.2-.3.2-.6.2-1 0-.3 0-.5-.1-.7-.1-.2-.3-.4-.5-.5s-.5-.2-.8-.2c-.2 0-.5 0-.7.1l-.3 1.8-.5 2.5c-.1.8-.2 1.2-.2 1.3v.2c0 .1 0 .2.1.2 0 0 .1.1.2.1s.4 0 .7.1v.3H93c-.1.1-.6.1-1.5.2zM98.1 42.2c.1-.6.2-1.1.3-1.4.2-.7.3-1.3.4-1.9 0-.3.1-.5.1-.7V38h-.1c-.1 0-.4.2-.8.5l-.1-.2c.4-.4.8-.6 1.2-.8.2-.1.4-.2.5-.2.1 0 .1 0 .1.1 0 0 .1.1.1.2s0 .2-.1.5c-.1.4-.2.9-.3 1.4.3-.6.7-1.1 1-1.5.2-.3.4-.4.5-.5.1-.1.2-.1.3-.1.1 0 .1 0 .2.1-.1.3-.1.6-.2 1.1h-.1c-.1-.1-.2-.2-.3-.2-.1 0-.2 0-.4.1s-.4.4-.7.7c-.2.3-.4.8-.6 1.3-.1.3-.2.8-.4 1.6-.2 0-.4 0-.6.1zM101.9 38.4l-.1-.2c.3-.2.7-.5 1.2-.7.2-.1.4-.2.5-.2.1 0 .1 0 .2.1 0 0 .1.1.1.2s0 .2-.1.4c-.5 1.9-.7 2.9-.7 3.3v.2l.1.1c.1 0 .1 0 .2-.1.3-.1.5-.3.8-.6.3-.3.6-.7.9-1 .2-.2.3-.5.4-.9.1-.3.2-.8.3-1.4.1 0 .2-.1.5-.2l.1.1-.2.9-.3 1.5c-.1.5-.2.9-.2 1.1v.5l.1.1s.1 0 .2-.1c.1 0 .3-.2.6-.4l.1.2c-.6.4-.9.7-1.2.9-.2.1-.3.1-.4.1-.1 0-.1 0-.2-.1s-.1-.1-.1-.3v-.2c0-.2.1-.5.2-.9l.2-.9c-.4.5-.6.8-.6.8l-.9.9c-.3.3-.6.5-.9.6-.1 0-.2.1-.3.1-.1 0-.2 0-.3-.1-.1-.1-.1-.2-.1-.4 0-.3.1-.6.2-1.1.2-.8.3-1.4.4-1.8.1-.3.1-.5.1-.6v-.1h-.1c0-.2-.3-.1-.7.2zM107.5 38.4l-.1-.2c.6-.4 1-.6 1.2-.7.2-.1.3-.1.5-.1.1 0 .1 0 .1.1s.1.2.1.3v.2c0 .2-.1.6-.3 1.1-.4 1.3-.5 2.1-.5 2.3v.1h.1c.1 0 .1 0 .2-.1.1 0 .3-.2.5-.4l.1.2c-.5.4-.9.7-1.2.8-.1.1-.2.1-.3.1-.1 0-.2 0-.2-.1-.1-.1-.1-.2-.1-.3v-.3c0-.1.1-.4.2-.7.4-1.4.6-2.2.6-2.5v-.1h-.1-.1c-.1 0-.3.1-.7.3zm1.2-2.7c0-.2.1-.3.2-.5.1-.1.2-.2.4-.2.1 0 .2 0 .3.1.1.1.1.2.1.3 0 .2 0 .3-.1.5-.1.1-.2.2-.4.2-.1 0-.2 0-.3-.1-.2-.1-.2-.2-.2-.3zM112.4 40.9l.1.2c-.3.2-.6.5-.9.7-.3.2-.5.3-.6.4h-.2c-.1 0-.2 0-.2-.1-.1-.1-.1-.2-.1-.4v-.3c0-.1 0-.2.1-.4l.2-1c.1-.4.2-1 .3-1.8h-.8v-.1c.3-.1.4-.2.5-.2.1 0 .2-.1.3-.2.1-.3.1-.4.1-.6 0-.1.1-.5.2-1.1l.4-.2.3-.2.1.1c-.1.5-.2.8-.2.8 0 .1-.1.5-.2 1.2h.4c.3 0 .6 0 .7-.1l-.1.5h-1.1c-.1.3-.2.7-.3 1.4-.1.7-.2 1.1-.2 1.4v.3c0 .1 0 .1.1.2l.1.1h.1c.1 0 .2-.1.4-.2l.5-.4zM115.8 40.9l.1.2c-.3.2-.6.5-.9.7-.3.2-.5.3-.6.4h-.2c-.1 0-.2 0-.2-.1-.1-.1-.1-.2-.1-.4v-.3c0-.1 0-.2.1-.4l.2-1c.1-.4.2-1 .3-1.8h-.8v-.1c.3-.1.4-.2.5-.2.1 0 .2-.1.3-.2.1-.3.1-.4.1-.6 0-.1.1-.5.2-1.1l.4-.2.3-.2.1.1c-.1.5-.2.8-.2.8 0 .1-.1.5-.2 1.2h.4c.3 0 .6 0 .7-.1l-.1.5h-1.1c-.1.3-.2.7-.3 1.4-.1.7-.2 1.1-.2 1.4v.3c0 .1 0 .1.1.2l.1.1h.1c.1 0 .2-.1.4-.2l.5-.4zM119 42.1v-.3c.3 0 .5-.1.6-.1l.1-.1c.1-.1.2-.7.4-1.7.3-1.6.5-2.6.6-3 .1-.6.2-1 .2-1.2 0-.1 0-.1-.1-.2 0 0-.1-.1-.2-.1h-.7v-.3h4.5c0 .2-.1.4-.1.6 0 .2 0 .5-.1.9h-.2c0-.1 0-.3-.1-.6v-.3c-.3-.1-.9-.2-1.5-.2h-.7c-.1.3-.1.7-.2 1.1-.2 1.1-.3 1.7-.3 1.9h1.6c.1 0 .4 0 .9-.1v.1l-.1.3c0 .1-.1.2-.1.2H121c-.2 1.4-.4 2.1-.4 2.3 0 .1 0 .2.1.2 0 0 .1.1.2.1s.3 0 .7.1v.3H120l-1 .1zM128.5 41l.1.2-.7.6c-.2.2-.4.3-.5.3h-.1c-.1 0-.1 0-.2-.1s-.1-.1-.1-.2c0-.3.1-.9.3-1.7-.3.3-.5.6-.6.8-.3.3-.5.6-.8.8-.3.2-.5.4-.7.5h-.2c-.1 0-.2 0-.2-.1-.1-.1-.1-.4-.1-.7 0-.4.1-.9.2-1.5.2-.6.3-1 .6-1.5.1-.2.3-.4.5-.5.3-.2.6-.4.9-.5.2-.1.4-.1.6-.1h.4c.1 0 .3.1.5.1l.3-.2.1.1c-.2.7-.4 1.4-.6 2-.1.4-.2.7-.3.9-.1.3-.1.6-.2.9V41.4h.1c.1 0 .1 0 .2-.1 0 .1.2-.1.5-.3zm-.7-3c-.1-.1-.3-.1-.4-.1h-.4c-.3 0-.5 0-.7.1-.1 0-.1.2-.2.3-.2.3-.3.7-.4 1.2-.2.7-.3 1.2-.3 1.8v.2s0 .1.1.1h.1c.1 0 .2 0 .3-.1.3-.2.5-.4.8-.7.3-.3.5-.7.7-1.1.1-.6.3-1.1.4-1.7zM129.5 42.1l.2-1.1c.1-.4.2-.8.2-1.2.1-.5.2-.9.3-1.3v-.4-.2l-.1-.1s-.1 0-.2.1l-.6.3-.1-.2c.1-.1.4-.3.6-.5.3-.2.5-.3.7-.4h.2s.1 0 .2.1c0 0 .1.1.1.2v.3s-.1.5-.3 1.4c.3-.4.6-.8.8-1 .4-.4.7-.6 1.1-.8.2-.1.5-.2.7-.2.1 0 .1 0 .2.1 0 0 .1.1.1.2s0 .3-.1.5c0 .1-.1.6-.3 1.3.3-.5.7-.8 1-1.1.3-.3.7-.5 1.1-.7.3-.1.5-.2.6-.2.1 0 .1 0 .2.1 0 0 .1.1.1.2s0 .2-.1.5-.2.9-.4 1.7c-.2.9-.4 1.5-.4 1.6v.1l.1.1h.1c.1 0 .2-.1.3-.2l.4-.3.1.2c-.1.1-.4.3-.6.5-.3.2-.5.3-.7.4h-.2c-.1 0-.1 0-.2-.1s-.1-.2-.1-.3v-.3c0-.1.1-.2.1-.5.1-.3.2-.7.3-1.4.1-.5.2-.9.3-1.1.1-.2.1-.4.1-.4v-.1h-.1c-.1 0-.2.1-.4.2s-.4.3-.7.5c-.3.2-.5.5-.6.7-.2.3-.3.6-.4.9-.1.4-.3.9-.5 1.7-.2 0-.4.1-.6.1l-.1-.1c.1-.5.3-1.1.4-1.8.1-.6.3-1.2.3-1.5.1-.3.1-.5.1-.6v-.2h-.1c-.1 0-.2 0-.3.1-.2.1-.4.3-.7.5-.2.2-.4.5-.6.8-.2.3-.3.6-.4 1-.1.4-.2.9-.4 1.6-.3.2-.5.3-.7.3zM137.2 38.4l-.1-.2c.6-.4 1-.6 1.2-.7.2-.1.3-.1.5-.1.1 0 .1 0 .1.1s.1.2.1.3v.2c0 .2-.1.6-.3 1.1-.4 1.3-.5 2.1-.5 2.3v.1h.1c.1 0 .1 0 .2-.1.1 0 .3-.2.5-.4l.1.2c-.5.4-.9.7-1.2.8-.1.1-.2.1-.3.1-.1 0-.2 0-.2-.1-.1-.1-.1-.2-.1-.3v-.3c0-.1.1-.4.2-.7.4-1.4.6-2.2.6-2.5v-.1h-.1-.1c-.1 0-.3.1-.7.3zm1.2-2.7c0-.2.1-.3.2-.5.1-.1.2-.2.4-.2.1 0 .2 0 .3.1.1.1.1.2.1.3 0 .2 0 .3-.1.5-.1.1-.2.2-.4.2-.1 0-.2 0-.3-.1-.1-.1-.2-.2-.2-.3zM141.7 41l.1.2c-.1.1-.3.2-.6.5-.3.2-.6.4-.8.5-.1 0-.2.1-.3.1-.1 0-.2 0-.2-.1-.1-.1-.1-.2-.1-.3v-.4c0-.2.2-.9.5-2.1.2-.9.3-1.5.4-1.7.1-.7.2-1.2.3-1.6v-.3c0-.1 0-.2-.1-.2 0 0-.1-.1-.3-.1h-.4v-.2c.3 0 .6-.1.8-.1.2-.1.5-.1.7-.3l.1.1c-.1.3-.3 1.4-.7 3.3-.3 1.6-.5 2.5-.6 2.9v.4l.1.1h.1c.1 0 .2-.1.4-.2l.6-.5zM142.2 43.9l.5-.3h.1v.2c0 .2.1.4.2.5.1.1.3.2.5.2.1 0 .2 0 .4-.1l.3-.3c.1-.2.3-.4.5-.8s.4-.9.6-1.6l.4-1.4c-.2.4-.5.7-.7.9-.4.5-.7.7-.8.8-.1.1-.3.1-.3.1-.1 0-.2-.1-.3-.2-.1-.2-.2-.4-.2-.7 0-.1 0-.4.1-.8.1-.7.1-1.3.1-1.9V38c0-.1 0-.1-.1-.1h-.1c-.1 0-.3.1-.6.4-.1 0-.1.1-.1.1l-.1-.2c.4-.3.7-.6 1.1-.8.2-.1.3-.2.4-.2.1 0 .2 0 .2.1.1.1.1.2.1.5 0 .2 0 .7-.1 1.3-.1.8-.1 1.4-.1 1.7 0 .2 0 .3.1.3l.1.1h.2c.1-.1.3-.2.4-.4.2-.2.3-.4.5-.6.3-.4.5-.8.6-1.3.1-.3.3-.8.4-1.6.2 0 .4-.1.7-.2l.1.1c-.1.2-.2.4-.3.7-.2.4-.4 1.1-.6 2-.2.7-.4 1.3-.5 1.6-.2.6-.4 1.1-.6 1.5s-.5.7-.8 1c-.2.2-.5.4-.7.5-.2.1-.4.1-.7.1-.1 0-.3 0-.4-.1l-.3-.3c-.1-.1-.1-.3-.1-.4-.1.2-.1.1-.1.1zM150.2 42.1v-.2c.3-.1.4-.2.4-.2l.1-.1c.1-.1.1-.6.3-1.3.3-1.7.4-2.7.5-2.9.2-1 .3-1.5.3-1.7 0-.1 0-.2-.1-.2s-.3-.1-.9-.1v-.3h3.3c.7 0 1.2.1 1.6.2.3.1.6.3.8.5.2.2.4.4.5.6.2.4.3.8.3 1.4 0 .6-.1 1.1-.3 1.6-.2.5-.5 1-.8 1.3-.4.4-.7.7-1.2.9-.3.2-.6.3-1 .4-.3.1-.7.1-1.2.1h-2.6zm1.4-.6c.6.1 1.2.2 1.7.2.4 0 .8-.1 1.1-.2.2-.1.4-.2.6-.4l.6-.6c.2-.3.4-.7.6-1.2.1-.5.2-1 .2-1.4 0-.5-.1-.9-.3-1.3-.2-.3-.5-.6-.8-.8-.3-.2-.9-.2-1.6-.2h-1.1l-.3 1.9c-.1.7-.3 1.7-.5 3 0 .3-.1.5-.1.6-.1.1-.1.2-.1.4zM160.8 41l.1.2c-.4.3-.7.6-1.1.8-.4.2-.7.3-.9.3-.2 0-.3 0-.5-.1s-.3-.2-.4-.4c-.1-.2-.2-.4-.2-.8s.1-.8.2-1.2c.1-.4.2-.8.4-1 .1-.2.3-.4.5-.6l.9-.6c.2-.1.5-.2.7-.2.2 0 .4.1.6.2.2.1.2.3.2.5s0 .3-.1.5-.2.3-.3.4c-.2.2-.4.3-.7.5-.3.1-.6.3-1 .4l-.6.2c-.1.3-.1.6-.1.8 0 .3.1.6.2.7.1.2.3.2.5.2s.4 0 .6-.1c.3-.2.6-.4 1-.7zm-2.2-1.3c.4-.1.8-.2 1.1-.3.3-.1.5-.3.7-.5.1-.2.2-.4.2-.6 0-.2 0-.3-.1-.4-.1-.1-.2-.1-.3-.1-.2 0-.4.1-.6.2-.2.1-.3.3-.5.5-.2.1-.3.5-.5 1.2zM161.5 44.8c.1-.8.2-1.4.3-1.9.2-1.3.4-2.4.5-3.1.1-.5.2-.9.2-1.5v-.2-.1h-.1-.1s-.1 0-.1.1c-.1 0-.2.1-.3.2l-.4.2-.1-.2c.4-.3.7-.6 1.1-.8.2-.1.4-.2.5-.2.1 0 .1 0 .2.1 0 0 .1.1.1.2v.2c0 .1 0 .2-.1.4 0 .3-.1.5-.1.5-.1.3-.1.5-.1.6.3-.5.6-.8.9-1.1.3-.3.6-.5.9-.6.2-.1.4-.1.6-.1.1 0 .2 0 .3.1.1.1.1.2.2.4s.1.4.1.7c0 .4-.1.9-.3 1.4-.1.4-.3.8-.5 1-.2.3-.4.5-.8.7-.3.2-.6.4-.9.5-.1 0-.2.1-.3.1h-.2c-.1 0-.2-.1-.4-.1 0 .3-.1.7-.2 1.2l-.2 1.4c-.3-.2-.6-.2-.7-.1zm1.2-3.3c.3.2.6.2.8.2.2 0 .4-.1.6-.2.2-.1.3-.3.5-.5.2-.4.4-.8.5-1.3.1-.5.2-.9.2-1.2 0-.3 0-.5-.1-.6-.1-.1-.1-.1-.3-.1-.2 0-.3 0-.5.1s-.4.2-.5.4c-.2.2-.4.5-.6.8-.2.3-.3.7-.4 1.1 0 .2-.1.6-.2 1.3zM170.4 41l.1.2-.7.6c-.2.2-.4.3-.5.3h-.1c-.1 0-.1 0-.2-.1s-.1-.1-.1-.2c0-.3.1-.9.3-1.7-.3.3-.5.6-.6.8-.3.3-.5.6-.8.8-.3.2-.5.4-.7.5h-.2c-.1 0-.2 0-.2-.1-.1-.1-.1-.4-.1-.7 0-.4.1-.9.2-1.5.2-.6.3-1 .6-1.5.1-.2.3-.4.5-.5.3-.2.6-.4.9-.5.2-.1.4-.1.6-.1h.4c.1 0 .3.1.5.1l.3-.2.1.1c-.2.7-.4 1.4-.6 2-.1.4-.2.7-.3.9-.1.3-.1.6-.2.9V41.4h.1c.1 0 .1 0 .2-.1.1.1.3-.1.5-.3zm-.7-3c-.1-.1-.3-.1-.4-.1h-.4c-.3 0-.5 0-.7.1-.1 0-.1.2-.2.3-.2.3-.3.7-.4 1.2-.2.7-.3 1.2-.3 1.8v.2s0 .1.1.1h.1c.1 0 .2 0 .3-.1.3-.2.5-.4.8-.7.3-.3.5-.7.7-1.1.1-.6.3-1.1.4-1.7zM171.5 42.2c.1-.6.2-1.1.3-1.4.2-.7.3-1.3.4-1.9 0-.3.1-.5.1-.7V38h-.1c-.1 0-.4.2-.8.5l-.1-.2c.4-.4.8-.6 1.2-.8.2-.1.4-.2.5-.2.1 0 .1 0 .1.1 0 0 .1.1.1.2s0 .2-.1.5c-.1.4-.2.9-.3 1.4.3-.6.7-1.1 1-1.5.2-.3.4-.4.5-.5.1-.1.2-.1.3-.1.1 0 .1 0 .2.1-.1.3-.1.6-.2 1.1h-.1c-.1-.1-.2-.2-.3-.2-.1 0-.2 0-.4.1s-.4.4-.7.7c-.2.3-.4.8-.6 1.3-.1.3-.2.8-.4 1.6-.3 0-.5 0-.6.1zM177.4 40.9l.1.2c-.3.2-.6.5-.9.7-.3.2-.5.3-.6.4h-.2c-.1 0-.2 0-.2-.1-.1-.1-.1-.2-.1-.4v-.3c0-.1 0-.2.1-.4l.2-1c.1-.4.2-1 .3-1.8h-.8v-.1c.3-.1.4-.2.5-.2.1 0 .2-.1.3-.2.1-.3.1-.4.1-.6 0-.1.1-.5.2-1.1l.4-.2.3-.2.1.1c-.1.5-.2.8-.2.8 0 .1-.1.5-.2 1.2h.4c.3 0 .6 0 .7-.1l-.1.5h-1.1c-.1.3-.2.7-.3 1.4-.1.7-.2 1.1-.2 1.4v.3c0 .1 0 .1.1.2l.1.1h.1c.1 0 .2-.1.4-.2l.5-.4zM178.7 42.1l.2-1.1c.1-.4.2-.8.2-1.2.1-.5.2-.9.3-1.3v-.4-.2l-.1-.1s-.1 0-.2.1l-.6.3-.1-.2c.1-.1.4-.3.6-.5.3-.2.5-.3.7-.4h.2c.1 0 .1 0 .2.1 0 0 .1.1.1.2v.3s-.1.5-.3 1.4c.3-.4.6-.8.8-1 .4-.4.7-.6 1.1-.8.2-.1.5-.2.7-.2.1 0 .1 0 .2.1 0 0 .1.1.1.2s0 .3-.1.5c0 .1-.1.6-.3 1.3.3-.5.7-.8 1-1.1.3-.3.7-.5 1.1-.7.3-.1.5-.2.6-.2.1 0 .1 0 .2.1 0 0 .1.1.1.2s0 .2-.1.5-.2.9-.4 1.7c-.2.9-.4 1.5-.4 1.6v.1l.1.1h.1c.1 0 .2-.1.3-.2l.4-.3.1.2c-.1.1-.4.3-.6.5-.3.2-.5.3-.7.4h-.2c-.1 0-.1 0-.2-.1s-.1-.2-.1-.3v-.3c0-.1.1-.2.1-.5s.2-.7.3-1.4c.1-.5.2-.9.3-1.1.1-.2.1-.4.1-.4v-.1h-.1c-.1 0-.2.1-.4.2s-.4.3-.7.5c-.3.2-.5.5-.6.7-.2.3-.3.6-.4.9-.1.4-.3.9-.5 1.7-.2 0-.4.1-.6.1l-.1-.1c.1-.5.3-1.1.4-1.8.1-.6.3-1.2.3-1.5.1-.3.1-.5.1-.6v-.2h-.1c-.1 0-.2 0-.3.1-.2.1-.4.3-.7.5-.2.2-.4.5-.6.8-.2.3-.3.6-.4 1-.1.4-.2.9-.4 1.6-.3.2-.5.3-.7.3zM189.2 41l.1.2c-.4.3-.7.6-1.1.8-.4.2-.7.3-.9.3-.2 0-.3 0-.5-.1s-.3-.2-.4-.4c-.1-.2-.2-.4-.2-.8s.1-.8.2-1.2c.1-.4.2-.8.4-1 .1-.2.3-.4.5-.6l.9-.6c.2-.1.5-.2.7-.2.2 0 .4.1.6.2.2.1.2.3.2.5s0 .3-.1.5-.2.3-.3.4c-.2.2-.4.3-.7.5-.3.1-.6.3-1 .4l-.6.2c-.1.3-.1.6-.1.8 0 .3.1.6.2.7.1.2.3.2.5.2s.4 0 .6-.1c.2-.2.5-.4 1-.7zm-2.3-1.3c.4-.1.8-.2 1.1-.3.3-.1.5-.3.7-.5.1-.2.2-.4.2-.6 0-.2 0-.3-.1-.4-.1-.1-.2-.1-.3-.1-.2 0-.4.1-.6.2-.2.1-.3.3-.5.5-.1.1-.3.5-.5 1.2zM190.5 42.1c.1-.8.3-1.6.5-2.6.2-.7.2-1.2.2-1.4V38h-.1-.1c-.1 0-.2.1-.3.1l-.4.3-.1-.2.5-.3.6-.3c.2-.1.3-.2.4-.2h.1c.1 0 .1 0 .2.1 0 .1.1.1.1.2v.2c0 .1-.1.4-.2.8l-.2.9c.3-.5.6-.9 1-1.2.4-.4.8-.6 1.2-.8.3-.1.5-.2.7-.2.1 0 .2 0 .2.1.1.1.1.1.1.2 0 .2-.1.8-.3 1.6-.3 1.2-.5 1.8-.5 2v.1h.1s.1 0 .2-.1c.2-.1.4-.3.6-.4l.1.2c-.3.2-.5.4-.7.5-.3.2-.6.3-.7.4h-.2c-.1 0-.2 0-.2-.1-.1-.1-.1-.2-.1-.3v-.4c0-.2.2-.8.4-1.5.2-.9.4-1.5.4-1.7v-.2l-.1-.1c-.1 0-.2 0-.4.1-.3.1-.5.3-.8.6-.3.3-.5.6-.7.9-.2.3-.3.7-.5 1.2 0 .2-.1.6-.2 1.1-.4.4-.7.5-.8.5zM198 40.9l.1.2c-.3.2-.6.5-.9.7-.3.2-.5.3-.6.4h-.2c-.1 0-.2 0-.2-.1-.1-.1-.1-.2-.1-.4v-.3c0-.1 0-.2.1-.4l.2-1c.1-.4.2-1 .3-1.8h-.8v-.1c.3-.1.4-.2.5-.2.1 0 .2-.1.3-.2.1-.3.1-.4.1-.6 0-.1.1-.5.2-1.1l.4-.2.3-.2.1.1c-.1.5-.2.8-.2.8 0 .1-.1.5-.2 1.2h.4c.3 0 .6 0 .7-.1l-.1.5h-1.1c-.1.3-.2.7-.3 1.4-.1.7-.2 1.1-.2 1.4v.3c0 .1 0 .1.1.2l.1.1h.1c.1 0 .2-.1.4-.2l.5-.4zM47.5 52.7c0-.4 0-.8.1-1.1.1-.4.2-.7.4-.9.1-.3.3-.5.6-.7.2-.2.5-.4.7-.5.3-.1.5-.2.8-.2.2 0 .5.1.7.2.2.1.4.3.5.5.1.2.2.5.2.9 0 .5-.1 1-.3 1.5-.2.4-.3.7-.5 1-.2.2-.5.5-.8.6-.3.2-.6.3-1 .3s-.7-.1-.9-.4c-.4-.3-.5-.7-.5-1.2zm.7-.1c0 .3 0 .6.1.7.1.2.2.3.3.4.1.1.3.1.5.1s.4-.1.6-.2c.2-.1.3-.3.5-.6s.3-.6.3-1c.1-.4.1-.8.1-1.1 0-.4-.1-.7-.2-.9-.1-.2-.4-.3-.7-.3-.5 0-.8.3-1.1.8-.2.6-.4 1.3-.4 2.1zM52.1 50.3v-.2c.4-.1.7-.3.9-.4.2-.8.3-1.2.3-1.3 0-.2.1-.3.2-.4l.6-.6c.3-.3.6-.4.7-.5.1-.1.3-.1.4-.1.2 0 .4 0 .6.1-.1.4-.2.6-.3.8h-.1l-.3-.3c-.1-.1-.3-.1-.4-.1-.2 0-.3 0-.4.1l-.3.3c-.1.1-.1.4-.2.7-.1.5-.2.9-.2 1.2h.7c.1 0 .2 0 .3-.1v.1c-.1.2-.1.4-.2.6h-1l-.3 2.8c-.2 1-.4 1.6-.5 2-.2.4-.4.7-.6 1-.3.3-.5.5-.8.6-.2.1-.3.1-.5.1-.1 0-.2 0-.3-.1.1-.3.2-.6.2-.8h.1c.1.2.3.3.5.3.1 0 .2 0 .3-.1l.3-.3c.1-.1.2-.4.3-.8.2-.6.3-1.4.5-2.3l.4-2.4h-.4c-.2.1-.3.1-.5.1zM57.4 54.1v-.2l.4-.1s.1 0 .2-.1c0-.2.1-.4.1-.6.1-.8.3-1.6.5-2.6.2-.9.3-1.7.4-2.2v-.4c0-.1 0-.2-.1-.2l-.1-.1h-.7v-.3h2.7c.6 0 1 .1 1.3.2.4.2.6.6.6 1.1 0 .3-.1.6-.2.9-.2.3-.4.5-.7.7-.2.1-.5.3-.8.4.5.1.8.1.9.2.2.1.4.2.5.4.1.2.2.4.2.7 0 .3-.1.5-.2.7-.1.2-.3.5-.4.6-.2.2-.4.4-.7.5-.3.2-.5.3-.7.3-.2 0-.5.1-.8.1h-1.5c-.4-.1-.6-.1-.9 0zm1.3-.5c.3.1.7.1 1.1.1.4 0 .7-.1 1-.2.2-.1.4-.4.6-.6.1-.3.2-.6.2-.9 0-.5-.1-.8-.4-1-.3-.2-.7-.3-1.3-.3h-.7c0 .2-.1.4-.1.7l-.3 1.6c0 .2-.1.4-.1.6zm.6-3.3h.5c.3 0 .6 0 .8-.1l.6-.3c.2-.1.3-.3.4-.6.1-.2.2-.5.2-.8 0-.3-.1-.6-.3-.8-.2-.2-.5-.3-1-.3-.2 0-.4 0-.7.1-.2.8-.4 1.7-.5 2.8zM63.6 50.4l-.1-.2c.6-.4 1-.6 1.2-.7.2-.1.3-.1.5-.1.1 0 .1 0 .1.1s.1.2.1.3v.2c0 .2-.1.6-.3 1.1-.4 1.3-.5 2.1-.5 2.3v.1h.1c.1 0 .1 0 .2-.1.1 0 .3-.2.5-.4l.1.2c-.5.4-.9.7-1.2.8-.1.1-.2.1-.3.1-.1 0-.2 0-.2-.1-.1-.1-.1-.2-.1-.3v-.3c0-.1.1-.4.2-.7.4-1.4.6-2.2.6-2.5v-.1h-.1-.1c-.1 0-.3.1-.7.3zm1.2-2.7c0-.2.1-.3.2-.5.1-.1.2-.2.4-.2.1 0 .2 0 .3.1.1.1.1.2.1.3 0 .2 0 .3-.1.5-.1.1-.2.2-.4.2-.1 0-.2 0-.3-.1-.2-.1-.2-.2-.2-.3zM66.1 52.7c0-.4 0-.8.1-1.1.1-.4.2-.7.4-.9.1-.3.3-.5.6-.7.2-.2.5-.4.7-.5.3-.1.5-.2.8-.2.2 0 .5.1.7.2.2.1.4.3.5.5.1.2.2.5.2.9 0 .5-.1 1-.3 1.5-.2.4-.3.7-.5 1-.2.2-.5.5-.8.6-.3.2-.6.3-1 .3s-.7-.1-.9-.4c-.4-.3-.5-.7-.5-1.2zm.8-.1c0 .3 0 .6.1.7.1.2.2.3.3.4.1.1.3.1.5.1s.4-.1.6-.2c.2-.1.3-.3.5-.6s.3-.6.3-1c.1-.4.1-.8.1-1.1 0-.4-.1-.7-.2-.9-.1-.2-.4-.3-.7-.3-.5 0-.8.3-1.1.8-.3.6-.4 1.3-.4 2.1zM70.9 54.1l.2-1.1c.1-.4.2-.8.2-1.2.1-.5.2-.9.3-1.3v-.4-.2l-.1-.1s-.1 0-.2.1l-.6.3-.1-.2c.1-.1.4-.3.6-.5.3-.2.5-.3.7-.4h.2c.1 0 .1 0 .2.1 0 0 .1.1.1.2v.3s-.1.5-.3 1.4c.3-.4.6-.8.8-1 .4-.4.7-.6 1.1-.8.2-.1.5-.2.7-.2.1 0 .1 0 .2.1 0 0 .1.1.1.2s0 .3-.1.5c0 .1-.1.6-.3 1.3.3-.5.7-.8 1-1.1.3-.3.7-.5 1.1-.7.3-.1.5-.2.6-.2.1 0 .1 0 .2.1 0 0 .1.1.1.2s0 .2-.1.5-.2.9-.4 1.7c-.2.9-.4 1.5-.4 1.6v.1l.1.1h.1c.1 0 .2-.1.3-.2l.4-.3.1.2c-.1.1-.4.3-.6.5-.3.2-.5.3-.7.4h-.2c-.1 0-.1 0-.2-.1s-.1-.2-.1-.3v-.3c0-.1.1-.2.1-.5.1-.3.2-.7.3-1.4.1-.5.2-.9.3-1.1.1-.2.1-.4.1-.4v-.1h-.1c-.1 0-.2.1-.4.2s-.4.3-.7.5c-.3.2-.5.5-.6.7-.2.3-.3.6-.4.9-.1.4-.3.9-.5 1.7-.2 0-.4.1-.6.1l-.1-.1c.1-.5.3-1.1.4-1.8.1-.6.3-1.2.3-1.5.1-.3.1-.5.1-.6v-.2H74c-.1 0-.2 0-.3.1-.2.1-.4.3-.7.5-.2.2-.4.5-.6.8-.2.3-.3.6-.4 1-.1.4-.2.9-.4 1.6-.3.2-.5.3-.7.3zM81.4 53l.1.2c-.4.3-.7.6-1.1.8-.4.2-.7.3-.9.3-.2 0-.3 0-.5-.1s-.3-.2-.4-.4c-.1-.2-.2-.4-.2-.8s.1-.8.2-1.2c.1-.4.2-.8.4-1 .1-.2.3-.4.5-.6l.9-.6c.2-.1.5-.2.7-.2.2 0 .4.1.6.2.2.1.2.3.2.5s0 .3-.1.5-.2.3-.3.4c-.2.2-.4.3-.7.5-.3.1-.6.3-1 .4l-.6.2c-.1.3-.1.6-.1.8 0 .3.1.6.2.7.1.2.3.2.5.2s.4 0 .6-.1c.2-.2.6-.4 1-.7zm-2.2-1.3c.4-.1.8-.2 1.1-.3.3-.1.5-.3.7-.5.1-.2.2-.4.2-.6 0-.2 0-.3-.1-.4-.1-.1-.2-.1-.3-.1-.2 0-.4.1-.6.2-.2.1-.3.3-.5.5-.2.1-.4.5-.5 1.2zM86.5 53l.1.2c-.2.2-.4.3-.7.5-.3.2-.5.3-.7.4-.1 0-.2.1-.2.1-.1 0-.1 0-.2-.1 0-.1-.1-.2-.1-.3v-.3c0-.1.1-.6.3-1.4-.2.4-.5.8-.9 1.2-.3.4-.7.6-1 .8-.2.1-.4.2-.5.2-.1 0-.2-.1-.3-.3-.1-.2-.1-.4-.1-.7 0-.4.1-.8.2-1.3s.3-.9.4-1.2c.1-.3.3-.5.5-.6.3-.3.6-.5.9-.6.2-.1.4-.1.6-.1.2 0 .4 0 .8.1l.3-1.2c.1-.3.1-.4.1-.5 0-.1 0-.2-.1-.2 0 0-.1-.1-.2-.1h-.5v-.2c.4-.1.7-.1.9-.2.2-.1.4-.1.6-.3l.1.1c-.1.2-.1.6-.3 1.3-.1.4-.3 1.4-.6 3.1-.2.8-.3 1.4-.3 1.7v.5l.1.1c.1 0 .1 0 .2-.1l.6-.6zm-1-3c-.3-.2-.6-.2-.9-.2-.2 0-.4 0-.6.1-.1 0-.2.1-.3.2-.1.1-.2.3-.3.7s-.2.7-.3 1c-.1.4-.1.8-.1 1.2v.3s0 .1.1.1h.1c.1 0 .2 0 .3-.1.3-.1.5-.3.7-.5.2-.2.4-.5.6-.7.2-.3.3-.6.4-.9.1-.2.2-.6.3-1.2zM87.4 50.4l-.1-.2c.6-.4 1-.6 1.2-.7.2-.1.3-.1.5-.1.1 0 .1 0 .1.1s.1.2.1.3v.2c0 .2-.1.6-.3 1.1-.4 1.3-.5 2.1-.5 2.3v.1h.1c.1 0 .1 0 .2-.1.1 0 .3-.2.5-.4l.1.2c-.5.4-.9.7-1.2.8-.1.1-.2.1-.3.1-.1 0-.2 0-.2-.1-.1-.1-.1-.2-.1-.3v-.3c0-.1.1-.4.2-.7.4-1.4.6-2.2.6-2.5v-.1h-.1-.1s-.3.1-.7.3zm1.3-2.7c0-.2.1-.3.2-.5.1-.1.2-.2.4-.2.1 0 .2 0 .3.1.1.1.1.2.1.3 0 .2 0 .3-.1.5-.1.1-.2.2-.4.2-.1 0-.2 0-.3-.1-.2-.1-.2-.2-.2-.3zM93.3 52.9l.1.2c-.3.3-.6.5-.8.6-.3.2-.5.3-.7.4-.2.1-.3.1-.5.1s-.4 0-.6-.1c-.2-.1-.3-.3-.4-.5-.1-.2-.2-.5-.2-.8 0-.4 0-.7.1-1.1.1-.4.2-.7.4-.9.2-.3.3-.4.5-.6.3-.3.7-.5 1.1-.7.2-.1.4-.1.7-.1.2 0 .3 0 .5.1.1 0 .3.1.4.2-.1.4-.2.8-.2 1.3h-.2v-.5c0-.1 0-.2-.1-.2 0-.1-.1-.1-.3-.2-.1-.1-.3-.1-.5-.1-.3 0-.6.1-.8.2-.2.2-.4.5-.5 1-.2.6-.3 1.1-.3 1.5 0 .3.1.6.2.8.2.3.4.4.7.4.1 0 .3 0 .4-.1.2 0 .3-.1.5-.2 0-.3.2-.5.5-.7zM97.8 53l.1.2-.7.6c-.2.2-.4.3-.5.3h-.1c-.1 0-.1 0-.2-.1s-.1-.1-.1-.2c0-.3.1-.9.3-1.7-.3.3-.5.6-.6.8-.3.3-.5.6-.8.8-.3.2-.5.4-.7.5h-.2c-.1 0-.2 0-.2-.1-.1-.1-.1-.4-.1-.7 0-.4.1-.9.2-1.5.2-.6.3-1 .6-1.5.1-.2.3-.4.5-.5.3-.2.6-.4.9-.5.2-.1.4-.1.6-.1h.4c.1 0 .3.1.5.1l.3-.2.1.1c-.2.7-.4 1.4-.6 2-.1.4-.2.7-.3.9-.1.3-.1.6-.2.9V53.4h.1c.1 0 .1 0 .2-.1.1.1.3-.1.5-.3zm-.7-3c-.1-.1-.3-.1-.4-.1h-.4c-.3 0-.5 0-.7.1-.1 0-.1.2-.2.3-.2.3-.3.7-.4 1.2-.2.7-.3 1.2-.3 1.8v.2s0 .1.1.1h.1c.1 0 .2 0 .3-.1.3-.2.5-.4.8-.7.3-.3.5-.7.7-1.1.1-.6.3-1.1.4-1.7zM100.5 53l.1.2c-.1.1-.3.2-.6.5-.3.2-.6.4-.8.5-.1 0-.2.1-.3.1-.1 0-.2 0-.2-.1-.1-.1-.1-.2-.1-.3v-.4c0-.2.2-.9.5-2.1.2-.9.3-1.5.4-1.7.1-.7.2-1.2.3-1.6v-.3c0-.1 0-.2-.1-.2 0 0-.1-.1-.3-.1H99v-.2c.3 0 .6-.1.8-.1.2-.1.5-.1.7-.3l.1.1c-.1.3-.3 1.4-.7 3.3-.3 1.6-.5 2.5-.6 2.9v.4l.1.1h.1c.1 0 .2-.1.4-.2l.6-.5zM103.9 54.1v-.3l.5-.2c.1-.2.1-.5.2-1 0-.2.2-.9.4-2.1.2-1.2.4-2.1.4-2.6v-.2c0-.1 0-.2-.1-.2s-.3-.1-.8-.1v-.3h4.5c-.1.3-.1.8-.2 1.5h-.2c0-.5-.1-.8-.1-.8v-.1s-.1 0-.1-.1c-.1 0-.2 0-.4-.1h-1.9c-.1.6-.3 1.5-.5 2.7h.9c.4 0 1 0 1.6-.1l-.2.5h-2.5l-.4 2.3c0 .2-.1.4-.1.6.5 0 .9.1 1.3.1.8 0 1.3 0 1.5-.1.1 0 .1-.1.2-.1 0-.1.1-.4.3-1h.3c-.1.3-.1.5-.1.7 0 0 0 .3-.1.9H105c-.2 0-.7 0-1.1.1zM110.3 54.1c.1-.8.3-1.6.5-2.6.2-.7.2-1.2.2-1.4V50h-.1-.1c-.1 0-.2.1-.3.1l-.4.3-.1-.2.5-.3.6-.3c.2-.1.3-.2.4-.2h.1c.1 0 .1 0 .2.1 0 .1.1.1.1.2v.2c0 .1-.1.4-.2.8l-.2.9c.3-.5.6-.9 1-1.2.4-.4.8-.6 1.2-.8.3-.1.5-.2.7-.2.1 0 .2 0 .2.1.1.1.1.1.1.2 0 .2-.1.8-.3 1.6-.3 1.2-.5 1.8-.5 2v.1h.1s.1 0 .2-.1c.2-.1.4-.3.6-.4l.1.2c-.3.2-.5.4-.7.5-.3.2-.6.3-.7.4h-.2c-.1 0-.2 0-.2-.1-.1-.1-.1-.2-.1-.3v-.4c0-.2.2-.8.4-1.5.2-.9.4-1.5.4-1.7v-.2l-.1-.1c-.1 0-.2 0-.4.1-.3.1-.5.3-.8.6-.3.3-.5.6-.7.9-.2.3-.3.7-.5 1.2 0 .2-.1.6-.2 1.1-.4.4-.6.5-.8.5zM117 53.9l-.2-.2v-.1c0-.1 0-.1.1-.2l.6-.6h-.2c-.4 0-.7-.1-.9-.3-.2-.2-.3-.5-.3-.9s.1-.7.3-1.1c.2-.3.5-.6.8-.8.4-.2.7-.3 1.1-.3.3 0 .6.1.8.2.2.1.3.2.4.4h.9l-.1.5H119.7v.3c0 .2 0 .4-.1.6-.1.2-.1.3-.2.5-.1.1-.2.3-.3.4-.1.1-.3.2-.5.3-.2.1-.4.2-.6.2-.2.2-.3.3-.3.4 0 .1 0 .2.1.3.1.1.4.4.9.8.3.2.5.4.5.6.1.2.1.3.1.5s-.1.4-.2.7c-.2.2-.4.4-.8.6-.4.2-.9.3-1.4.3-.6 0-1-.1-1.3-.3-.3-.2-.4-.5-.4-.8 0-.2.1-.4.2-.6.1-.2.3-.4.6-.6.1-.5.5-.7 1-.8zm.1.2c-.3.1-.6.2-.8.3-.2.2-.4.3-.5.5-.1.2-.2.4-.2.6 0 .3.1.5.3.7.2.2.6.3 1 .3.5 0 .9-.1 1.2-.3.2-.2.3-.4.3-.6 0-.1 0-.3-.1-.4-.1-.1-.2-.3-.3-.4l-.9-.7zm-.5-2.8c0 .4.1.6.3.8.2.2.4.3.7.3.2 0 .5-.1.6-.2.2-.1.3-.4.4-.7.1-.3.1-.6.1-.9 0-.3-.1-.6-.2-.8-.2-.2-.4-.3-.6-.3-.4 0-.7.2-.9.5-.3.5-.4.9-.4 1.3zM120.7 50.4l-.1-.2c.6-.4 1-.6 1.2-.7.2-.1.3-.1.5-.1.1 0 .1 0 .1.1s.1.2.1.3v.2c0 .2-.1.6-.3 1.1-.4 1.3-.5 2.1-.5 2.3v.1h.1c.1 0 .1 0 .2-.1.1 0 .3-.2.5-.4l.1.2c-.5.4-.9.7-1.2.8-.1.1-.2.1-.3.1-.1 0-.2 0-.2-.1-.1-.1-.1-.2-.1-.3v-.3c0-.1.1-.4.2-.7.4-1.4.6-2.2.6-2.5v-.1h-.1-.1c-.1 0-.3.1-.7.3zm1.2-2.7c0-.2.1-.3.2-.5.1-.1.2-.2.4-.2.1 0 .2 0 .3.1.1.1.1.2.1.3 0 .2 0 .3-.1.5-.1.1-.2.2-.4.2-.1 0-.2 0-.3-.1-.1-.1-.2-.2-.2-.3zM123.7 54.1c.1-.8.3-1.6.5-2.6.2-.7.2-1.2.2-1.4V50h-.1-.1c-.1 0-.2.1-.3.1l-.4.3-.1-.2.5-.3.6-.3c.2-.1.3-.2.4-.2h.1c.1 0 .1 0 .2.1 0 .1.1.1.1.2v.2c0 .1-.1.4-.2.8l-.2.9c.3-.5.6-.9 1-1.2.4-.4.8-.6 1.2-.8.3-.1.5-.2.7-.2.1 0 .2 0 .2.1.1.1.1.1.1.2 0 .2-.1.8-.3 1.6-.3 1.2-.5 1.8-.5 2v.1h.1s.1 0 .2-.1c.2-.1.4-.3.6-.4l.1.2c-.3.2-.5.4-.7.5-.3.2-.6.3-.7.4h-.2c-.1 0-.2 0-.2-.1-.1-.1-.1-.2-.1-.3v-.4c0-.2.2-.8.4-1.5.2-.9.4-1.5.4-1.7v-.2l-.1-.1c-.1 0-.2 0-.4.1-.3.1-.5.3-.8.6-.3.3-.5.6-.7.9-.2.3-.3.7-.5 1.2 0 .2-.1.6-.2 1.1-.4.4-.6.5-.8.5zM131.9 53l.1.2c-.4.3-.7.6-1.1.8-.4.2-.7.3-.9.3-.2 0-.3 0-.5-.1s-.3-.2-.4-.4c-.1-.2-.2-.4-.2-.8s.1-.8.2-1.2c.1-.4.2-.8.4-1 .1-.2.3-.4.5-.6l.9-.6c.2-.1.5-.2.7-.2.2 0 .4.1.6.2.2.1.2.3.2.5s0 .3-.1.5-.2.3-.3.4c-.2.2-.4.3-.7.5-.3.1-.6.3-1 .4l-.6.2c-.1.3-.1.6-.1.8 0 .3.1.6.2.7.1.2.3.2.5.2s.4 0 .6-.1c.2-.2.5-.4 1-.7zm-2.3-1.3c.4-.1.8-.2 1.1-.3.3-.1.5-.3.7-.5.1-.2.2-.4.2-.6 0-.2 0-.3-.1-.4-.1-.1-.2-.1-.3-.1-.2 0-.4.1-.6.2-.2.1-.3.3-.5.5-.2.1-.3.5-.5 1.2zM135.7 53l.1.2c-.4.3-.7.6-1.1.8-.4.2-.7.3-.9.3-.2 0-.3 0-.5-.1s-.3-.2-.4-.4c-.1-.2-.2-.4-.2-.8s.1-.8.2-1.2c.1-.4.2-.8.4-1 .1-.2.3-.4.5-.6l.9-.6c.2-.1.5-.2.7-.2.2 0 .4.1.6.2.2.1.2.3.2.5s0 .3-.1.5-.2.3-.3.4c-.2.2-.4.3-.7.5-.3.1-.6.3-1 .4l-.6.2c-.1.3-.1.6-.1.8 0 .3.1.6.2.7.1.2.3.2.5.2s.4 0 .6-.1c.3-.2.6-.4 1-.7zm-2.2-1.3c.4-.1.8-.2 1.1-.3.3-.1.5-.3.7-.5.1-.2.2-.4.2-.6 0-.2 0-.3-.1-.4-.1-.1-.2-.1-.3-.1-.2 0-.4.1-.6.2-.2.1-.3.3-.5.5-.2.1-.3.5-.5 1.2zM136.9 54.2c.1-.6.2-1.1.3-1.4.2-.7.3-1.3.4-1.9 0-.3.1-.5.1-.7V50h-.1c-.1 0-.4.2-.8.5l-.1-.2c.4-.4.8-.6 1.2-.8.2-.1.4-.2.5-.2.1 0 .1 0 .1.1s.1.1.1.2 0 .2-.1.5c-.1.4-.2.9-.3 1.4.3-.6.7-1.1 1-1.5.2-.3.4-.4.5-.5.1-.1.2-.1.3-.1.1 0 .1 0 .2.1-.1.3-.1.6-.2 1.1h-.1c-.1-.1-.2-.2-.3-.2-.1 0-.2 0-.4.1s-.4.4-.7.7c-.2.3-.4.8-.6 1.3-.1.3-.2.8-.4 1.6-.2 0-.4 0-.6.1zM140.7 50.4l-.1-.2c.6-.4 1-.6 1.2-.7.2-.1.3-.1.5-.1.1 0 .1 0 .1.1s.1.2.1.3v.2c0 .2-.1.6-.3 1.1-.4 1.3-.5 2.1-.5 2.3v.1h.1c.1 0 .1 0 .2-.1.1 0 .3-.2.5-.4l.1.2c-.5.4-.9.7-1.2.8-.1.1-.2.1-.3.1-.1 0-.2 0-.2-.1-.1-.1-.1-.2-.1-.3v-.3c0-.1.1-.4.2-.7.4-1.4.6-2.2.6-2.5v-.1h-.1-.1c-.1 0-.3.1-.7.3zm1.2-2.7c0-.2.1-.3.2-.5.1-.1.2-.2.4-.2.1 0 .2 0 .3.1.1.1.1.2.1.3 0 .2 0 .3-.1.5-.1.1-.2.2-.4.2-.1 0-.2 0-.3-.1-.1-.1-.2-.2-.2-.3zM143.7 54.1c.1-.8.3-1.6.5-2.6.2-.7.2-1.2.2-1.4V50h-.1-.1c-.1 0-.2.1-.3.1l-.4.3-.1-.2.5-.3.6-.3c.2-.1.3-.2.4-.2h.1c.1 0 .1 0 .2.1 0 .1.1.1.1.2v.2c0 .1-.1.4-.2.8l-.2.9c.3-.5.6-.9 1-1.2.4-.4.8-.6 1.2-.8.3-.1.5-.2.7-.2.1 0 .2 0 .2.1.1.1.1.1.1.2 0 .2-.1.8-.3 1.6-.3 1.2-.5 1.8-.5 2v.1h.1s.1 0 .2-.1c.2-.1.4-.3.6-.4l.1.2c-.3.2-.5.4-.7.5-.3.2-.6.3-.7.4h-.2c-.1 0-.2 0-.2-.1-.1-.1-.1-.2-.1-.3v-.4c0-.2.2-.8.4-1.5.2-.9.4-1.5.4-1.7v-.2l-.1-.1c-.1 0-.2 0-.4.1-.3.1-.5.3-.8.6-.3.3-.5.6-.7.9-.2.3-.3.7-.5 1.2 0 .2-.1.6-.2 1.1-.4.4-.6.5-.8.5zM150.3 53.9l-.2-.2v-.1c0-.1 0-.1.1-.2l.6-.6h-.2c-.4 0-.7-.1-.9-.3-.2-.2-.3-.5-.3-.9s.1-.7.3-1.1c.2-.3.5-.6.8-.8.4-.2.7-.3 1.1-.3.3 0 .6.1.8.2.2.1.3.2.4.4h.9l-.1.5H153v.3c0 .2 0 .4-.1.6-.1.2-.1.3-.2.5-.1.1-.2.3-.3.4-.1.1-.3.2-.5.3-.2.1-.4.2-.6.2-.2.2-.3.3-.3.4 0 .1 0 .2.1.3.1.1.4.4.9.8.3.2.5.4.5.6.1.2.1.3.1.5s-.1.4-.2.7c-.2.2-.4.4-.8.6-.4.2-.9.3-1.4.3-.6 0-1-.1-1.3-.3-.3-.2-.4-.5-.4-.8 0-.2.1-.4.2-.6.1-.2.3-.4.6-.6.2-.5.6-.7 1-.8zm.2.2c-.3.1-.6.2-.8.3-.2.2-.4.3-.5.5-.1.2-.2.4-.2.6 0 .3.1.5.3.7.2.2.6.3 1 .3.5 0 .9-.1 1.2-.3.2-.2.3-.4.3-.6 0-.1 0-.3-.1-.4-.1-.1-.2-.3-.3-.4l-.9-.7zm-.5-2.8c0 .4.1.6.3.8.2.2.4.3.7.3.2 0 .5-.1.6-.2.2-.1.3-.4.4-.7.1-.3.1-.6.1-.9 0-.3-.1-.6-.2-.8-.2-.2-.4-.3-.6-.3-.4 0-.7.2-.9.5-.3.5-.4.9-.4 1.3zM47.6 64.2v-.4h3.3v.4c-.4 0-.6 0-.7.1-.1 0-.1.1-.1.2-.1.2-.1.7-.1 1.5v3c0 .3.1.6.3.8.1.2.3.4.6.5.3.1.6.2 1.1.2.5 0 .9-.1 1.2-.3.3-.2.5-.4.6-.7.1-.3.2-.8.2-1.6V67v-1.7c0-.5 0-.7-.1-.8 0-.1-.1-.1-.1-.1-.1-.1-.4-.1-.8-.1v-.4h2.5v.4c-.3 0-.5 0-.6.1 0 0-.1.1-.1.2s-.1.4-.1 1.1v2.8c0 .3 0 .7-.1 1 0 .3-.1.6-.3.9-.1.2-.3.5-.6.7-.3.2-.6.3-.9.4-.4.1-.8.2-1.2.2-.5 0-1.1-.1-1.5-.2-.3-.1-.6-.3-.8-.4-.2-.2-.4-.4-.5-.6-.1-.2-.2-.4-.2-.6v-3.4-1.4c0-.2 0-.3-.1-.3l-.1-.1-.8-.5zM56.3 70.8c.4 0 .7 0 .7-.1 0 0 .1 0 .1-.1 0 0 0-.1.1-.2 0-.1 0-.5.1-1v-4.5-.5c0-.1 0-.1-.1-.2 0 0-.1-.1-.2-.1s-.3 0-.7-.1v-.5h2.3c.7 1 1.6 2.1 2.7 3.3.8.9 1.4 1.6 1.9 2.1V68c0-1.9 0-3.1-.1-3.4 0-.1 0-.2-.1-.3-.1-.1-.4-.1-.8-.1v-.5H64.8v.5c-.4 0-.7 0-.8.1l-.1.1c-.1.2-.1.6-.1 1.2V67c0 2.4 0 3.8.1 4.3h-.1c-.3-.1-.6-.1-.9-.1-1.3-1.2-2.9-3.2-5-5.8v4.4c0 .4 0 .7.1.8 0 0 0 .1.1.1 0 0 .1 0 .2.1h.6v.4H56.3v-.4zM68.9 63.8v.5h-.6c-.1 0-.1 0-.1.1 0 0 0 .1-.1.1 0 .1 0 .2-.1.3v5.1c0 .4 0 .6.1.7 0 0 0 .1.1.1 0 0 .1 0 .2.1h.6v.5h-3.4v-.5h.6c.1 0 .1 0 .2-.1 0 0 0-.1.1-.1v-.5V66.7v-1.4c0-.5 0-.7-.1-.9 0 0 0-.1-.1-.1 0 0-.1 0-.1-.1h-.7v-.5h1.6c.6.1 1.3.1 1.8.1zM73.3 71.3c-.3-.8-.6-1.5-.9-2.1l-.8-1.8c-.6-1.4-1-2.3-1.1-2.6-.1-.3-.2-.4-.3-.5-.1-.1-.3-.1-.7-.1v-.5H73v.5c-.3 0-.5 0-.7.1-.1 0-.1 0-.2.1v.1c0 .1.1.4.4 1 .1.3.2.5.2.5v.1l1.4 3.3 1.2-3c0-.1.2-.4.4-1 .2-.4.3-.7.3-.9v-.1-.1s0-.1-.1-.1h-.8v-.5H77.7v.5c-.3 0-.5.1-.6.1-.1.1-.3.5-.6 1.2l-.4.9-.7 1.7c-.6 1.5-1 2.5-1.3 3.1h-.8zM78.5 71.3V71c.2-.1.4-.2.5-.3 0-.2 0-.4.1-.7v-3.7-1c0-.4 0-.7-.1-.7 0 0 0-.1-.1-.1s-.4-.1-.8-.1V64h5.6v.1l-.1.8c0 .1 0 .3-.1.8h-.4v-.8s0-.1-.1-.1c0 0-.2-.1-.4-.1-.4 0-.7-.1-1-.1h-1c0 .4-.1.9-.1 1.6v1.1h2l.1-.1c0-.1.1-.4.1-.7h.4v2.4h-.4c0-.4 0-.7-.1-.8 0-.1-.1-.1-.2-.1-.3 0-.6-.1-1-.1h-.9v2.9h2.1c.3 0 .5-.1.6-.1l.1-.1c.1-.2.1-.5.2-1h.4c.1.5.1 1.1.1 1.6l-.1.1h-3.7c0-.1-.6-.1-1.7 0zM85 64.2v-.4h4c.6 0 1 0 1.3.1.3.1.5.2.7.5.2.3.3.6.3.9 0 .4-.1.8-.4 1.2-.3.4-.7.6-1.2.8.1.2.2.3.3.5.1.2.2.3.2.3s0 .1.1.1l.8 1.2c.2.3.3.5.4.5.3.4.4.6.5.6.1.1.1.1.2.1h.3v.5h-2.1c0-.1-.1-.2-.1-.3L89 69.1c-.3-.5-.6-1-.8-1.3-.1-.2-.2-.3-.3-.4l.1-.2c.4 0 .8 0 1-.1.2-.1.4-.3.6-.5s.2-.6.2-.9c0-.3-.1-.6-.2-.8-.2-.2-.4-.4-.6-.5-.2-.1-.4-.1-.8-.1h-.5V70.2c0 .2 0 .3.1.4 0 0 0 .1.1.1 0 0 .1 0 .2.1h.6v.5h-3.5v-.5c.4 0 .6 0 .7-.1 0 0 .1 0 .1-.1v-.2c0-.1 0-.4.1-.6v-4.7c0-.4 0-.7-.1-.8 0 0 0-.1-.1-.1-.2.1-.5 0-.9 0zM98 65.7h-.5c0-.4 0-.7-.1-.9-.1-.2-.3-.3-.6-.4-.3-.1-.6-.2-.9-.2-.5 0-.9.1-1.1.4-.3.2-.4.5-.4.9 0 .2 0 .4.1.6.1.1.2.3.3.3.1.1.3.2.6.2.2 0 .5.1.9.2s.6.1.7.1c.3.1.5.2.7.3.2.1.3.2.4.4.1.1.2.3.3.5.1.2.1.4.1.7 0 .5-.1.9-.3 1.2-.1.3-.3.5-.6.7s-.5.4-.8.5c-.4.2-.9.3-1.5.3-.4 0-.8 0-1.2-.1-.3-.1-.7-.2-1.1-.4.1-.4.2-1 .2-1.9h.5c0 .3 0 .6.1 1 .1.2.4.4.7.6.3.2.7.3 1.1.3.3 0 .6-.1.9-.2.3-.1.5-.3.6-.5.1-.2.2-.5.2-.7 0-.2 0-.4-.1-.6-.1-.2-.2-.3-.4-.4-.2-.1-.5-.2-.9-.3-.6-.1-1.1-.2-1.3-.3-.3-.1-.6-.2-.7-.4-.2-.2-.3-.4-.4-.6-.1-.2-.1-.5-.1-.8 0-.4.1-.8.3-1.1.2-.3.4-.6.7-.8.3-.2.6-.3.9-.4.3-.1.7-.1 1.1-.1.4 0 .7 0 1.1.1.4.1.7.2.9.3v.1c-.1.2-.1.5-.1.7-.2.1-.2.3-.3.7zM102.9 63.8v.5h-.6c-.1 0-.1 0-.1.1 0 0 0 .1-.1.1 0 .1 0 .2-.1.3v5.1c0 .4 0 .6.1.7 0 0 0 .1.1.1 0 0 .1 0 .2.1h.6v.5h-3.4v-.5h.6c.1 0 .1 0 .2-.1 0 0 0-.1.1-.1v-.5V66.7v-1.4c0-.5 0-.7-.1-.9 0 0 0-.1-.1-.1 0 0-.1 0-.1-.1h-.7v-.5h1.6c.6.1 1.3.1 1.8.1zM105.2 71.3v-.4c.4 0 .7 0 .8-.1.1 0 .1-.1.2-.2 0-.2.1-.6.1-1.4V66v-1.5h-2s0 .1-.1.2c0 .3-.1.5-.1.8h-.4v-1.2c0-.2 0-.3-.1-.5v-.1h6.8l.1.1c0 .2-.1.4-.1.6v1.2h-.4c0-.3 0-.5-.1-.8 0-.1 0-.2-.1-.2h-2.1v4.7c0 .8 0 1.2.1 1.4 0 .1.1.2.2.2s.3.1.8.1v.4H107c-.5-.2-1.1-.2-1.8-.1zM115 67.3l.7-1.1c.1-.2.5-.8 1-1.8.2-.3.3-.6.4-.7h.9v.3c-.4.6-.9 1.3-1.4 2.1-.5.8-.8 1.3-.9 1.5-.1.2-.1.3-.2.4v2.3c0 .2.1.3.1.4 0 0 .1.1.2.1h.7v.5H113v-.5h.7c.1 0 .1 0 .1-.1 0 0 0-.1.1-.3v-2c0-.1-.1-.3-.2-.5-.3-.6-.7-1.2-1.1-1.8-.3-.5-.6-.9-.9-1.2-.2-.2-.3-.3-.4-.3h-.5V64l1.1-.2c.2 0 .4-.1.6-.1.2.1.4.2.5.3.1.1.2.3.4.5.3.4.5.8.8 1.3.4.8.7 1.3.8 1.5zM120.8 69.7c0-.4.1-.9.2-1.4.1-.5.3-.8.5-1 .1-.1.3-.3.6-.5s.6-.4.9-.5c.3-.1.7-.2 1-.2.3 0 .6 0 .8.1.3.1.4.2.6.4.1.1.2.3.3.5.1.2.1.4.1.7 0 .5-.1.9-.2 1.4-.2.5-.3.8-.5 1.1-.1.2-.4.4-.7.6-.3.2-.6.4-.9.5-.3.1-.6.2-1 .2s-.8-.1-1-.2c-.2-.2-.4-.4-.5-.6-.1-.5-.2-.7-.2-1.1zm1.3 0c0 .4.1.8.2.9.2.2.4.3.7.3.2 0 .4 0 .5-.1.1-.1.3-.3.4-.5.1-.2.2-.5.3-.9.2-.6.2-1.1.2-1.6 0-.4-.1-.8-.3-.9-.2-.2-.4-.3-.7-.3-.3 0-.5.1-.7.3-.2.2-.4.6-.5 1.2 0 .6-.1 1.1-.1 1.6zM126.9 66.8v-.3c.1 0 .3-.1.5-.2s.4-.1.6-.2c0-.1 0-.1.1-.3.1-.3.1-.5.2-.6.1-.2.2-.4.4-.6.3-.3.7-.6 1-.8.4-.3.6-.4.8-.5.1-.1.3-.1.5-.1.1 0 .3 0 .4.1-.1.5-.2.9-.3 1.4h-.2c-.2-.2-.3-.4-.4-.5-.1-.1-.3-.1-.4-.1-.1 0-.2 0-.3.1l-.2.2c0 .1-.1.2-.1.4-.1.5-.2 1-.3 1.4H130c.2 0 .4 0 .5-.1l.1.1c-.1.2-.1.4-.2.6h-1.3l-.6 2.6c-.3 1.2-.5 2-.7 2.5-.2.5-.5 1-.8 1.4-.3.4-.7.7-1 .9-.2.1-.4.1-.5.1-.1 0-.3 0-.4-.1.1-.3.2-.5.2-.6 0-.2.1-.3.1-.5h.2c.1.2.2.3.2.4.1.1.2.1.3.1.1 0 .2 0 .3-.1.1-.1.2-.2.2-.4.1-.3.3-1.1.5-2.2l.8-4h-.7c-.1-.1-.2-.1-.3-.1zM138.7 68.7h-.5c0-.4 0-.7-.1-.8 0 0-.1-.1-.2-.1-.3 0-.7-.1-1.3-.1h-.4v2.4c0 .3 0 .5.1.6l.1.1c.1 0 .3.1.8.1v.4h-3.5v-.4h.7s.1 0 .1-.1c0 0 .1-.1.1-.3v-.8-3.1-1.5c0-.3 0-.5-.1-.6 0 0 0-.1-.1-.1 0 0-.1 0-.2-.1-.1 0-.3 0-.6-.1v-.5h4.5c.4 0 .7 0 1 .1v.1c0 .2-.1.5-.1.8v.8h-.4v-.6-.3-.1c-.1 0-.2-.1-.4-.1s-.5-.1-.8-.1h-1.1c0 .4-.1 1-.1 1.9v.7h.9c.5 0 .8 0 .9-.1l.1-.1c0-.1.1-.3.1-.6h.5v2.6zM140.3 71.3V71c.1 0 .2-.1.4-.2.1 0 .1-.1.1-.1v-.1-1-2-2.1c0-.7 0-1.1-.1-1.2 0 0 0-.1-.1-.1-.1-.1-.4-.1-.8-.1v-.5h3.5v.5c-.4 0-.7.1-.7.1l-.1.1s0 .3-.1.7v5.5h1c.5 0 1 0 1.4-.1.1 0 .2 0 .3-.1 0 0 .1-.1.1-.2.1-.3.1-.6.2-.9h.4v.2l-.1 1.1v.6c-.1 0-.2 0-.3.1h-3.5c-.3 0-.9 0-1.6.1zM146.4 67.6c0-.7.1-1.2.3-1.7.2-.5.5-.9.9-1.2.4-.3.8-.6 1.2-.7.6-.2 1.2-.3 1.8-.3.7 0 1.2.1 1.8.3.4.1.7.3 1 .6.3.3.5.5.7.8.2.3.3.6.4.9.1.3.1.7.1 1.1 0 .7-.1 1.3-.3 1.9-.2.4-.4.8-.8 1.1-.3.3-.7.6-1.1.8-.6.2-1.2.4-2 .4s-1.5-.1-2.1-.4c-.6-.3-1-.7-1.4-1.3-.3-.7-.5-1.5-.5-2.3zm1.7-.3c0 .8.1 1.5.3 2.1.2.5.5.9.9 1.2s.8.3 1.3.3.9-.1 1.2-.3c.4-.2.6-.6.8-1.1.2-.5.3-1.1.3-1.9 0-.5-.1-1-.2-1.4-.1-.4-.3-.8-.5-1.1-.2-.3-.4-.5-.7-.7-.3-.2-.6-.2-1.1-.2-.5 0-1 .1-1.3.4-.4.2-.6.6-.8 1.1-.1.5-.2 1-.2 1.6zM154.8 64.2v-.4h4c.6 0 1 0 1.3.1.3.1.5.2.7.5.2.3.3.6.3.9 0 .4-.1.8-.4 1.2-.3.4-.7.6-1.2.8.1.2.2.3.3.5.1.2.2.3.2.3s0 .1.1.1l.8 1.2c.2.3.3.5.4.5.3.4.4.6.5.6.1.1.1.1.2.1h.3v.5h-2.1c0-.1-.1-.2-.1-.3l-1.1-1.9c-.3-.5-.6-1-.8-1.3-.1-.2-.2-.3-.3-.4l.1-.2c.4 0 .8 0 1-.1.2-.1.4-.3.6-.5.2-.3.2-.6.2-.9 0-.3-.1-.6-.2-.8-.2-.2-.4-.4-.6-.5-.2-.1-.4-.1-.8-.1h-.5V70c0 .2 0 .3.1.4 0 0 0 .1.1.1 0 0 .1 0 .2.1h.6v.5h-3.5v-.5c.4 0 .6 0 .7-.1 0 0 .1 0 .1-.1v-.2c0-.1 0-.4.1-.6v-4.7c0-.4 0-.7-.1-.8 0 0 0-.1-.1-.1-.4.3-.7.2-1.1.2zM166.2 63.8v.5h-.6c-.1 0-.1 0-.1.1 0 0 0 .1-.1.1 0 .1 0 .2-.1.3v5.1c0 .4 0 .6.1.7 0 0 0 .1.1.1 0 0 .1 0 .2.1h.6v.5h-3.4v-.5h.6c.1 0 .1 0 .2-.1 0 0 0-.1.1-.1v-.5V66.7v-1.4c0-.5 0-.7-.1-.9 0 0 0-.1-.1-.1 0 0-.1 0-.1-.1h-.7v-.5h1.6c.6.1 1.3.1 1.8.1zM167.3 71.3V71s.1 0 .1-.1c.1-.1.3-.2.4-.2 0-.5.1-1.3.1-2.3v-.9-2.1c0-.5 0-.8-.1-1v-.1s-.1 0-.1-.1c-.1 0-.3 0-.7-.1v-.4H171.3c.6 0 1.1 0 1.5.1.4.1.7.2 1 .4.3.2.5.4.7.6.2.2.3.5.4.8.2.5.3.9.3 1.5 0 .7-.1 1.3-.4 1.8-.3.5-.6 1-1 1.3-.4.4-.9.6-1.4.8-.5.2-1.1.2-1.9.2h-1.6l-1.6.1zm2.1-.7c.3.1.7.1 1 .1.5 0 .9 0 1.3-.2.3-.1.5-.2.7-.3.2-.1.4-.4.6-.6.2-.3.3-.6.4-1 .1-.4.2-.8.2-1.3 0-.4-.1-.8-.2-1.2-.1-.4-.3-.7-.5-1-.2-.3-.5-.5-.9-.6-.4-.1-.9-.2-1.6-.2-.3 0-.6 0-.9.1 0 .5-.1 1.5-.1 2.9v3.3zM174.7 71.3v-.4c.3 0 .5 0 .5-.1.1 0 .1 0 .1-.1 0 0 .1-.1.1-.2s.2-.3.4-.8c.1-.2.3-.7.5-1.3l1.4-3.5.5-1.2h.8l2.4 5.6.3.7.2.5c0 .1.1.1.1.1l.1.1h.5v.4h-3.4v-.4c.4 0 .7 0 .7-.1.1 0 .1-.1.1-.2s0-.2-.1-.4l-.5-1.2h-2.8l-.2.6c-.2.5-.3.8-.3.9 0 .1 0 .1.1.2.1 0 .3.1.8.1v.4h-1.2l-1.1.3zm2.4-2.9h2.2l-1.1-2.8-1.1 2.8zM107.4.4h.6c.2.5.3.9.5 1.3.7 1.8 1.1 2.9 1.3 3.3l.8 2 .8-3.1c.3-1.2.5-2 .5-2.2v-.2c0-.1 0-.2-.1-.2 0-.1-.1-.1-.2-.1 0 0-.3 0-.9-.1V.5h3.1v.6h-.2c-.3 0-.5 0-.5.1-.1 0-.1.1-.2.2s-.2.6-.5 1.4c-.3.8-.6 2.2-1.1 4.1-.5 1.9-.8 3-.8 3.3h-1l-.7-2-1.8-4.8c-.2.4-.9 2.1-2.1 4.9l-.7 1.8h-1l-1.6-7.3c-.2-.8-.3-1.3-.4-1.4 0-.1-.1-.2-.2-.2-.1-.1-.3-.1-.7-.1V.5h4.1v.6h-.7c-.1 0-.2.1-.3.1-.1.1-.1.1-.1.2v.2c0 .1.1.3.1.8.2.9.3 1.5.4 1.9l.6 2.8c0-.1.2-.6.6-1.4l.9-2 1.1-2.6c.2-.2.3-.5.4-.7zM119.2 9l-.3.7c-.4.2-.8.4-1.2.5-.3.1-.6.1-1 .1-.5 0-.8-.1-1.2-.2-.3-.1-.6-.2-.9-.4-.2-.2-.5-.4-.6-.7-.2-.3-.3-.6-.4-.9-.1-.3-.1-.7-.1-1.1 0-.6.1-1.1.2-1.6.1-.3.2-.6.4-.7.1-.1.3-.3.7-.5.4-.3.7-.4.8-.5.3-.1.7-.2 1.1-.2.6 0 1.1.1 1.5.4.4.3.7.6.8 1 .2.4.2.9.2 1.4v.4c-.1 0-.3.1-.5.1-.3.1-.5.1-.6.1h-3c0 .7.3 1.3.7 1.7.4.4.9.6 1.5.6.3 0 .5 0 .7-.1.2-.1.5-.2.9-.4l.3.3zm-1.7-2.8c0-.7-.1-1.2-.3-1.5-.2-.3-.5-.4-.8-.4-.4 0-.6.1-.9.4-.2.3-.3.8-.3 1.5.3 0 .7.1 1.3.1.4-.1.8-.1 1-.1zM124 9.5v.5H120.1v-.5c.4 0 .6 0 .7-.1.1 0 .1-.1.1-.1 0-.1.1-.3.1-.5v-.6-1.5-1.5c0-.3 0-.5-.1-.5l-.1-.1c-.1 0-.3-.1-.8-.1v-.4c.8-.1 1.4-.2 1.6-.3l.9-.3.2.1V5c.3-.3.5-.6.7-.8.2-.3.4-.5.5-.5.2-.1.4-.2.6-.2.2 0 .3 0 .5.1v1.9l-.3.1c-.1-.2-.2-.3-.3-.3-.2-.1-.4-.1-.6-.1-.3 0-.5.1-.7.2-.2.2-.3.3-.3.5v3.4c0 .1.1.1.1.2.1 0 .2.1.5.1l.6-.1zM125.3 4.9v-.4l.6-.4c.1-.1.2-.1.3-.2V3c0-.3 0-.7-.1-1.2.4-.1.7-.2.9-.3 0 0 .3-.1.9-.4l.2.1-.1.8v.8l-.1 1.2h.2c.6 0 1.1 0 1.4-.1l-.1.9H127.8v3.5c0 .2.1.4.2.5.1.1.3.2.6.2h.4c.1 0 .2 0 .4-.1l.1.3-.2.2-.5.5c-.2.1-.3.1-.5.2h-.4c-.5 0-.9-.1-1.3-.4-.3-.3-.5-.6-.5-1V4.8h-.1c-.2 0-.5 0-.7.1zM137.7 9.5v.5H135l-.1-.1.1-1.4V6.3c0-.6-.1-1.1-.3-1.3-.2-.2-.5-.4-.9-.4-.3 0-.5.1-.7.2s-.4.3-.5.6c0 .1-.1.3-.1.6v3.3c0 .1 0 .1.1.1l.1.1c.1 0 .2.1.3.1h.5v.5h-3.8v-.6c.4 0 .6 0 .7-.1.1 0 .1 0 .2-.1l.1-.1c0-.1.1-.6.1-1.3V3.8c0-.7 0-1.4-.1-2 0-.3 0-.5-.1-.5 0 0 0-.1-.1-.1 0 0-.1-.1-.3-.1h-.6V.6c.6-.1 1.1-.1 1.4-.2.3-.1.7-.2 1.2-.4l.2.1-.1 1.6v3l1.2-1c.3-.1.6-.2 1-.2s.7.1 1 .2c.3.1.5.3.7.5.2.2.3.4.3.6.1.2.1.5.1.9v3.7c0 .1.1.2.2.2.2-.1.5-.1.9-.1zM144.3 9l-.3.7c-.4.2-.8.4-1.2.5-.3.1-.6.1-1 .1-.5 0-.8-.1-1.2-.2-.3-.1-.6-.2-.9-.4-.2-.2-.5-.4-.6-.7-.2-.3-.3-.6-.4-.9-.1-.3-.1-.7-.1-1.1 0-.6.1-1.1.2-1.6.1-.3.2-.6.4-.7.1-.1.3-.3.7-.5.4-.3.7-.4.8-.5.3-.1.7-.2 1.1-.2.6 0 1.1.1 1.5.4.4.3.7.6.8 1 .2.4.2.9.2 1.4v.4c-.1 0-.3.1-.5.1-.3.1-.5.1-.6.1h-3c0 .7.3 1.3.7 1.7.4.4.9.6 1.5.6.3 0 .5 0 .7-.1.2-.1.5-.2.9-.4l.3.3zm-1.7-2.8c0-.7-.1-1.2-.3-1.5-.2-.3-.5-.4-.8-.4-.4 0-.6.1-.9.4-.2.3-.3.8-.3 1.5.3 0 .7.1 1.3.1.4-.1.8-.1 1-.1zM145.3 10.1v-.5c.5 0 .8-.1.9-.1.1 0 .1-.1.1-.2 0-.3.1-.9.1-1.9 0-1.4 0-2.2-.1-2.4 0-.1 0-.2-.1-.2-.1-.1-.4-.1-.9-.1V4c.7-.1 1.2-.1 1.6-.2.4-.1.7-.2 1.1-.4l.2.1c-.1.7-.1 1.4-.1 2v2.3c0 .8 0 1.3.1 1.4 0 .1.1.1.1.2.1.1.4.1.9.1v.5h-2.1c-.8 0-1.3 0-1.8.1zm1.8-9.9c.3 0 .5.1.7.3.2.2.3.5.3.7 0 .3-.1.5-.3.7-.2.2-.4.3-.7.3-.3 0-.5-.1-.7-.3-.2-.2-.3-.5-.3-.7 0-.3.1-.5.3-.7.2-.2.4-.3.7-.3zM149.7 10.1v-.6c.4 0 .6 0 .7-.1.1 0 .1-.1.1-.1 0-.1.1-.3.1-.5v-.6-1.5-1.5c0-.3 0-.5-.1-.5l-.1-.1c-.1 0-.3-.1-.8-.1v-.4c.8-.1 1.4-.2 1.6-.3l.9-.3.2.1v1.1l1.2-1c.1-.1.3-.1.4-.1h.4c.5 0 1 .1 1.2.3.3.2.5.5.7.9l1.2-1c.1-.1.3-.1.4-.1h.4c.5 0 .8.1 1.1.2.2.1.5.3.6.5.2.2.3.4.3.6.1.2.1.6.1 1v3.3c0 .2.1.3.1.4.1.1.2.1.4.1h.4v.5h-2.7l-.1-.1.1-1.2V6.9c0-.8 0-1.3-.1-1.5-.1-.2-.2-.4-.4-.5-.2-.1-.4-.2-.6-.2-.3 0-.5.1-.7.2-.2.1-.3.3-.4.4 0 .1-.1.4-.1.7v3.3c0 .1.1.1.1.1s.1 0 .3.1c.3 0 .4.1.6.1v.5h-3.7v-.6h.3c.2 0 .3 0 .4-.1.1 0 .1-.1.1-.2V6.3c0-.5 0-.8-.1-1-.1-.2-.2-.4-.3-.5-.2-.1-.4-.2-.7-.2-.3 0-.6.1-.8.2-.2.2-.3.3-.4.5V9c0 .2 0 .3.1.3 0 0 .1.1.2.1s.3 0 .6.1v.5h-1.8c-.3 0-.9 0-1.4.1z"/>
</symbol>
</svg>
