<?xml version="1.0" encoding="utf-8"?>
<svg xmlns="http://www.w3.org/2000/svg">

<symbol id="Layer_1" viewBox="0 0 193.8 76">
  <path fill="#F47836" d="M43.1 1.2v71.2h1.2V1.2h-1.2z"/>
  <g fill="currentColor">
    <path d="M28.1 22.6V16h6v-4.3h-6V5.6h6.6v2.3h4.4V1.3H21.5v4.3h1.7v17h-1.7v4.3h8.1v-4.3h-1.5zM19.3 17.2V5.5h1.6V1.3h-8.1v4.3h1.6v10.2c0 4.3-.5 6.3-3.6 6.3S7.2 20 7.2 15.8V5.5h1.6V1.3H.6v4.3h1.6v11.7c0 2.5 0 4.6 1.2 6.5 1.3 2.1 3.8 3.5 7.3 3.5 6.3-.1 8.6-3.3 8.6-10.1z"/>
  </g>
  <path fill="currentColor" d="M48.4 11.1v-.6h.8c.1 0 .2 0 .2-.1l.1-.1c0-.1.1-.5.1-1V3.4c0-.5 0-.8-.1-1 0-.1 0-.1-.1-.1 0 0-.1-.1-.2-.1h-.8v-.7h4.4v.6c-.5 0-.8 0-.9.1-.1 0-.1.1-.2.1 0 0-.1.2-.1.5 0 .5-.1 1.1-.1 2v.8h4.6v-.9-1.4c0-.6-.1-.9-.1-1 0-.1 0-.1-.1-.1 0 0-.1-.1-.2-.1s-.4 0-.9-.1v-.5h4.4v.6h-.8c-.1 0-.2 0-.2.1l-.1.1c0 .1-.1.5-.1 1V9.2c0 .5 0 .8.1 1 0 .1.1.1.1.2 0 0 .1.1.2.1h.8v.6h-4.4v-.6c.5 0 .8 0 .9-.1.1 0 .1-.1.2-.1 0 0 .1-.2.1-.5 0-.5.1-1.1.1-2V6.4h-4.5v2.8c0 .6.1 1 .1 1 0 .1 0 .1.1.1 0 0 .1.1.2.1s.4 0 .9.1v.6h-2c-1-.1-1.8-.1-2.5 0zM65.8 10l-.3.7c-.4.2-.8.4-1.2.5-.3.1-.6.1-1 .1-.5 0-.8-.1-1.2-.2-.3-.1-.6-.2-.9-.4-.2-.2-.5-.4-.6-.7-.2-.3-.3-.6-.4-.9-.1-.3-.1-.7-.1-1.1 0-.6.1-1.1.2-1.6.1-.3.2-.6.4-.7.1-.1.3-.3.7-.5.4-.3.7-.4.8-.5.3-.1.7-.2 1.1-.2.6 0 1.1.1 1.5.4.4.3.7.6.8 1 .2.4.2.9.2 1.4v.4c-.1 0-.3.1-.5.1-.3.1-.5.1-.6.1h-3c0 .7.3 1.3.7 1.7.4.4.9.6 1.5.6.3 0 .5 0 .7-.1.2-.1.5-.2.9-.4l.3.3zm-1.6-2.8c0-.7-.1-1.2-.3-1.5-.2-.3-.5-.4-.8-.4-.4 0-.6.1-.9.4-.2.3-.3.8-.3 1.5.3 0 .7.1 1.3.1.4-.1.7-.1 1-.1zM70.6 10.5v.5H66.7v-.5c.4 0 .6 0 .7-.1.1 0 .1-.1.1-.1 0-.1.1-.3.1-.5v-.6-1.5-1.5c0-.3 0-.5-.1-.5l-.1-.1c-.1 0-.3-.1-.8-.1v-.4c.8-.1 1.4-.2 1.6-.3l.9-.3.2.1V6c.3-.3.5-.6.7-.8.2-.3.4-.5.5-.5.2-.1.4-.2.6-.2.2 0 .3 0 .5.1v1.9l-.3.1c-.1-.2-.2-.3-.3-.3-.1-.2-.3-.3-.5-.3-.3 0-.5.1-.7.2s-.3.3-.3.5v3.4c0 .1.1.1.1.2.1 0 .2.1.5.1l.5.1zM71.9 2.1v-.5c1-.1 1.9-.3 2.6-.6.1 0 .1.1.2.1 0 1.9-.1 3-.1 3.3v1.3l.8-.7c.2-.2.5-.3.7-.4.2-.1.5-.1.8-.1.8 0 1.4.2 1.9.7.5.5.7 1.1.7 1.9 0 .5-.1 1-.3 1.4-.2.5-.4.9-.7 1.2 0 0-.4.3-1 .7s-1 .7-1 .7c-.3.1-.6.2-1 .2-.3 0-.5 0-.8-.1-.3-.1-.6-.2-.9-.4l-.6.5-.3-.1c.1-1.4.1-3.1.1-5s0-3.1-.1-3.6c0-.2-.1-.3-.1-.3-.1-.2-.4-.2-.9-.2zm2.7 4.3v3.2l.5.5c.3.1.6.2.9.2.3 0 .6-.1.9-.3.2-.2.4-.5.6-.9.1-.4.2-.8.2-1.3 0-.7-.2-1.3-.5-1.6-.3-.4-.7-.6-1.2-.6-.3 0-.6.1-.8.2-.3.3-.5.4-.6.6zM86.4 10l-.3.7c-.4.2-.8.4-1.2.5-.3.1-.6.1-1 .1-.5 0-.8-.1-1.2-.2-.3-.1-.6-.2-.9-.4-.2-.2-.5-.4-.6-.7-.2-.3-.3-.6-.4-.9-.1-.3-.1-.7-.1-1.1 0-.6.1-1.1.2-1.6.1-.3.2-.6.4-.7.1-.1.3-.3.7-.5.4-.3.7-.4.8-.5.3-.1.7-.2 1.1-.2.6 0 1.1.1 1.5.4.4.3.7.6.8 1 .2.4.2.9.2 1.4v.4c-.1 0-.3.1-.5.1-.3.1-.5.1-.6.1h-3c0 .7.3 1.3.7 1.7.4.4.9.6 1.5.6.3 0 .5 0 .7-.1.2-.1.5-.2.9-.4l.3.3zm-1.7-2.8c0-.7-.1-1.2-.3-1.5-.2-.3-.5-.4-.8-.4-.4 0-.7.1-.9.4-.2.3-.3.8-.3 1.5.3 0 .7.1 1.3.1.4-.1.8-.1 1-.1zM91.2 10.5v.5H87.3v-.5c.4 0 .6 0 .7-.1.1 0 .1-.1.1-.1 0-.1.1-.3.1-.5v-.6-1.5-1.5c0-.3 0-.5-.1-.5l-.1-.1c-.1 0-.3-.1-.8-.1v-.4c.8-.1 1.4-.2 1.6-.3l.9-.3h.3v1.4c.3-.3.5-.6.7-.8.2-.3.4-.5.5-.5.2-.1.4-.2.6-.2.2 0 .3 0 .5.1v1.9l-.3.1c-.1-.2-.2-.3-.3-.3-.2-.1-.4-.2-.6-.2-.3 0-.5.1-.7.2-.2.2-.3.3-.3.5v3.4c0 .1.1.1.1.2.1 0 .2.1.5.1l.5.1zM92.5 5.9v-.4l.6-.4c.1 0 .2-.1.3-.1V4c0-.3 0-.7-.1-1.2.4-.1.7-.2.9-.3 0 0 .3-.1.9-.4l.2.1-.1.8v.8L95.1 5h.2c.6 0 1.1 0 1.4-.1l-.1.9H95v3.5c0 .2.1.4.2.5.1.1.3.2.6.2h.4c.1 0 .2 0 .4-.1l.1.3-.2.2-.5.5c-.2.1-.3.1-.5.2h-.4c-.5 0-.9-.1-1.3-.4-.3-.3-.5-.6-.5-1V5.8h-.2c-.1 0-.4 0-.6.1zM57.7 25.8l-.3.7c-.6.3-1.1.5-1.5.6-.5.1-1 .2-1.7.2-1 0-1.8-.2-2.6-.5-.6-.2-1.1-.6-1.5-1-.4-.4-.7-.8-.9-1.3-.3-.7-.5-1.5-.5-2.3 0-1.4.5-2.6 1.5-3.5 1-.9 2.4-1.4 4.2-1.4.6 0 1.2 0 1.7.1s1.1.3 1.7.5v.1c-.1.2-.1.5-.2.8-.1.5-.1 1-.1 1.4H57c0-.5 0-.9-.1-1.2-.3-.3-.6-.6-1-.7-.4-.2-.9-.2-1.5-.2-1.1 0-1.9.3-2.6 1-.6.7-1 1.6-1 2.8 0 .7.1 1.4.3 1.9s.5 1 .9 1.4c.4.4.7.6 1.1.8.5.2 1.1.3 1.8.3.5 0 .9-.1 1.3-.2s.9-.3 1.4-.5l.1.2zM58.5 23.8c0-.8.1-1.4.4-1.9.3-.5.7-.9 1.2-1.1.5-.3 1.1-.4 1.8-.4 1.1 0 1.9.3 2.4.8.5.6.8 1.4.8 2.4 0 .6-.1 1.1-.2 1.6-.2.5-.4.8-.6 1.1-.3.3-.6.5-.8.6-.5.2-1.1.4-1.7.4-1 0-1.8-.3-2.4-.9-.6-.6-.9-1.4-.9-2.6zm1.9-.3c0 1.2.2 2.1.5 2.6.2.3.6.5 1 .5s.7-.1.9-.4c.3-.3.4-1 .4-2 0-.7-.1-1.3-.2-1.8s-.3-.8-.5-1c-.2-.2-.5-.3-.8-.3-.3 0-.5.1-.7.2-.2.1-.4.4-.5.7-.1.4-.1.9-.1 1.5zM69.8 26.5v.5H65.9v-.5c.4 0 .7 0 .8-.1.1 0 .1 0 .2-.1 0 0 .1-.1.1-.2s.1-.6.1-1.3V20.6v-2c0-.3 0-.5-.1-.6 0 0 0-.1-.1-.1s-.1-.1-.3-.1H66v-.5c.6-.1 1-.1 1.4-.2.3-.1.8-.2 1.4-.4l.1.1-.1 1.4v8.1s0 .1.1.1c0 0 .1.1.2.1h.7zM74.3 26.5v.5H70.4v-.5c.4 0 .7 0 .8-.1.1 0 .1 0 .2-.1 0 0 .1-.1.1-.2s.1-.6.1-1.3V20.6v-2c0-.3 0-.5-.1-.6 0 0 0-.1-.1-.1s-.1-.1-.3-.1h-.6v-.5c.6-.1 1-.1 1.4-.2.3-.1.8-.2 1.4-.4l.1.1-.1 1.4v8.1s0 .1.1.1c0 0 .1.1.2.1h.7zM80.9 26l-.3.7c-.4.2-.8.4-1.2.5-.3.1-.6.1-1 .1-.5 0-.8-.1-1.2-.2-.3-.1-.6-.2-.9-.4-.2-.2-.5-.4-.6-.7-.2-.3-.3-.6-.4-.9-.1-.3-.1-.7-.1-1.1 0-.6.1-1.1.2-1.6.1-.3.2-.6.4-.7.1-.1.3-.3.7-.5.4-.3.7-.4.8-.5.3-.1.7-.2 1.1-.2.6 0 1.1.1 1.5.4.4.3.7.6.8 1 .2.4.2.9.2 1.4v.4c-.1 0-.3.1-.5.1-.3.1-.5.1-.6.1H77c0 .7.3 1.3.7 1.7.4.4.9.6 1.5.6.3 0 .5 0 .7-.1.2-.1.5-.2.9-.4l.1.3zm-1.6-2.8c0-.7-.1-1.2-.3-1.5-.2-.3-.5-.4-.8-.4-.4 0-.6.1-.9.4-.2.3-.3.8-.3 1.5.3 0 .7.1 1.3.1.4-.1.7-.1 1-.1zM82.8 25.5l1-.7c-.3-.1-.6-.3-.8-.4-.2-.2-.4-.4-.5-.6-.1-.3-.2-.6-.2-.9 0-.4.1-.8.3-1.2.2-.4.6-.7 1-.9.5-.2 1-.3 1.7-.3.4 0 .8 0 1.2.1.4.1.7.2.9.4H89v.8h-1.1c.1.2.1.4.1.7 0 .5-.1.9-.4 1.3-.3.4-.6.7-1.1.9-.5.2-1 .3-1.5.3h-.6l-.3.3c-.1 0-.1.1-.1.2s0 .2.1.2c.1.1.1.1.3.1h2.8c.5 0 .9.1 1.1.2.3.1.5.3.6.5.1.2.2.5.2.9 0 .6-.1 1.1-.4 1.5-.3.5-.7.8-1.2 1.1-.7.4-1.5.6-2.4.6-.7 0-1.3-.1-1.8-.3-.5-.2-.8-.4-1-.7-.2-.3-.3-.6-.3-.9 0-.2 0-.4.1-.5.1-.2.1-.3.2-.3.1-.1.2-.2.5-.3.4-.2.7-.4.7-.4-.2 0-.5-.1-.7-.3-.2-.2-.3-.4-.3-.6 0-.1 0-.2.1-.4s.1-.3.2-.4zm1.4 1.7c-.4.2-.6.5-.7.7-.1.2-.2.4-.2.7 0 .4.2.8.5 1 .3.3.8.4 1.5.4s1.3-.2 1.6-.5c.4-.3.6-.8.6-1.3 0-.2 0-.4-.1-.6l-.3-.3c-.1-.1-.3-.1-.6-.1h-2.3zm-.2-4.7c0 .6.1 1.1.3 1.3.2.3.5.4.9.4s.7-.2.9-.5c.1-.2.2-.6.2-1 0-.6-.1-1.1-.3-1.3-.2-.3-.5-.4-.9-.4-.3 0-.6.1-.8.3-.2.3-.3.7-.3 1.2zM95.4 26l-.3.7c-.4.2-.8.4-1.2.5-.3.1-.6.1-1 .1-.5 0-.8-.1-1.2-.2-.3-.1-.6-.2-.9-.4-.2-.2-.5-.4-.6-.7-.2-.3-.3-.6-.4-.9-.1-.3-.1-.7-.1-1.1 0-.6.1-1.1.2-1.6.1-.3.2-.6.4-.7.1-.1.3-.3.7-.5.4-.3.7-.4.8-.5.3-.1.7-.2 1.1-.2.6 0 1.1.1 1.5.4.4.3.7.6.8 1 .2.4.2.9.2 1.4v.4c-.1 0-.3.1-.5.1-.3.1-.5.1-.6.1h-3c0 .7.3 1.3.7 1.7.4.4.9.6 1.5.6.3 0 .5 0 .7-.1.2-.1.5-.2.9-.4l.3.3zm-1.6-2.8c0-.7-.1-1.2-.3-1.5-.2-.3-.5-.4-.8-.4-.4 0-.6.1-.9.4-.2.3-.3.8-.3 1.5.3 0 .7.1 1.3.1.4-.1.7-.1 1-.1zM99.9 23.8c0-.8.1-1.4.4-1.9.3-.5.7-.9 1.2-1.1.5-.3 1.1-.4 1.8-.4 1.1 0 1.9.3 2.4.8.5.6.8 1.4.8 2.4 0 .6-.1 1.1-.2 1.6-.2.5-.4.8-.6 1.1-.3.3-.6.5-.8.6-.5.2-1.1.4-1.7.4-1 0-1.8-.3-2.4-.9-.6-.6-.9-1.4-.9-2.6zm1.9-.3c0 1.2.2 2.1.5 2.6.2.3.6.5 1 .5s.7-.1.9-.4c.3-.3.4-1 .4-2 0-.7-.1-1.3-.2-1.8s-.3-.8-.5-1c-.2-.2-.5-.3-.8-.3-.3 0-.5.1-.7.2-.2.1-.4.4-.5.7-.1.4-.1.9-.1 1.5zM107.4 27.1v-.5c.5 0 .9-.1 1-.2.1-.1.1-.1.1-.3 0-.2.1-1 .1-2.2v-2.1h-1.1v-.3c.6-.3.9-.5.9-.5.1 0 .1-.1.1-.2V20c0-.3.1-.5.1-.7 0-.1.1-.3.2-.4l1-1 .8-.7c.1-.1.3-.2.5-.3.2-.1.4-.1.6-.1.2 0 .5 0 .7.1-.1.5-.1.9-.1 1.4l-.3.1c-.1-.1-.3-.2-.4-.3-.1 0-.3-.1-.5-.1-.3 0-.5.1-.6.1-.1.1-.2.2-.2.3-.1.2-.1.6-.1 1.4V21h1.8l.1.1c0 .1 0 .2-.1.2l-.1.6h-1.7v3.5c0 .4 0 .7.1.8 0 .1.1.1.1.2 0 0 .1.1.2.1 0 0 .3 0 .9.1v.5h-2.3c-.2-.1-.8-.1-1.8 0zM116.5 27.1v-.4c.3-.1.5-.3.7-.4 0-.2 0-.5.1-.9 0-.8.1-1.4.1-1.7v-3.1-1.3c0-.5 0-.8-.1-.9l-.1-.1c-.1-.1-.5-.1-1-.1v-.5h7.2v.1l-.1 1c0 .1 0 .4-.1 1h-.5c0-.5 0-.9-.1-1 0-.1 0-.1-.1-.1s-.2-.1-.5-.1c-.5-.1-.9-.1-1.3-.1h-1.2c-.1.5-.1 1.2-.1 2v1.4h2.5l.1-.1c.1-.2.1-.5.1-.9h.6v3h-.6c0-.5 0-.9-.1-1-.1-.1-.2-.1-.3-.2-.3-.1-.7-.1-1.2-.1h-1.1v3.7h2.7c.4 0 .7-.1.8-.1l.1-.1c.1-.2.2-.6.3-1.2h.6c-.1.9-.2 1.6-.2 2.2l-.1.1h-4.5c-.5-.2-1.2-.2-2.6-.1zM132.3 26.6v.5h-2.7l-.1-.1c0-.1 0-.5.1-1.2v-1.6c0-.8 0-1.3-.1-1.6-.1-.3-.2-.5-.4-.6-.2-.2-.4-.2-.8-.2-.3 0-.6.1-.8.2-.2.2-.3.3-.4.5V25.9c0 .2 0 .4.1.4l.1.1c.1 0 .2.1.3.1.1 0 .2 0 .6.1v.5h-3.7v-.5c.4 0 .6 0 .7-.1.1 0 .1-.1.1-.1 0-.1.1-.3.1-.5v-.6-1.5-1.5c0-.3 0-.5-.1-.5l-.1-.1c-.1 0-.3-.1-.8-.1v-.5c.8-.1 1.4-.2 1.6-.3l.9-.3.2.1v1.1l1.2-1c.2-.1.3-.1.4-.1h.4c.5 0 .9.1 1.1.2.2.1.4.3.6.5.2.2.3.4.4.6.1.2.1.6.1 1v3.3c0 .2.1.3.1.4.1.1.2.1.4.1.2-.2.3-.2.5-.1zM133.8 25.5l1-.7c-.3-.1-.6-.3-.8-.4-.2-.2-.4-.4-.5-.6-.1-.3-.2-.6-.2-.9 0-.4.1-.8.3-1.2.2-.4.6-.7 1-.9.5-.2 1-.3 1.7-.3.4 0 .8 0 1.2.1.4.1.7.2.9.4h1.6l-.1.8h-1.1c.1.2.1.4.1.7 0 .5-.1.9-.4 1.3-.3.4-.6.7-1.1.9-.5.2-1 .3-1.5.3h-.6l-.3.3c-.1.1-.1.2-.1.3 0 .1 0 .2.1.2.1.1.1.1.3.1h2.8c.5 0 .9.1 1.1.2.3.1.5.3.6.5.1.2.2.5.2.9 0 .6-.1 1.1-.4 1.5-.3.5-.7.8-1.2 1.1-.7.4-1.5.6-2.4.6-.7 0-1.3-.1-1.8-.3-.5-.2-.8-.4-1-.7-.2-.3-.3-.6-.3-.9 0-.2 0-.4.1-.5.1-.2.1-.3.2-.3.1-.1.2-.2.5-.3.4-.2.7-.4.7-.4-.2 0-.5-.1-.7-.3-.2-.2-.3-.4-.3-.6 0-.1 0-.2.1-.4.2-.3.2-.4.3-.5zm1.4 1.7c-.4.2-.6.5-.7.7-.1.2-.2.4-.2.7 0 .4.2.8.5 1 .3.3.8.4 1.5.4s1.3-.2 1.6-.5c.4-.3.6-.8.6-1.3 0-.2 0-.4-.1-.6l-.3-.3c-.1-.1-.3-.1-.6-.1h-2.3zm-.2-4.7c0 .6.1 1.1.3 1.3.2.3.5.4.9.4s.7-.2.9-.5c.1-.2.2-.6.2-1 0-.6-.1-1.1-.3-1.3-.2-.3-.5-.4-.9-.4-.3 0-.6.1-.8.3-.2.3-.3.7-.3 1.2zM140.6 27.1v-.5c.5 0 .8-.1.9-.1.1 0 .1-.1.1-.2 0-.3.1-.9.1-1.9 0-1.4 0-2.2-.1-2.4 0-.1 0-.2-.1-.2-.1-.1-.4-.1-.9-.1V21c.7-.1 1.2-.1 1.6-.2.4-.1.7-.2 1.1-.4l.2.1c-.1.7-.1 1.4-.1 2v2.3c0 .8 0 1.3.1 1.4 0 .1.1.1.1.2.1.1.4.1.9.1v.5h-2.1c-.8 0-1.3 0-1.8.1zm1.8-9.9c.3 0 .5.1.7.3.2.2.3.5.3.7 0 .3-.1.5-.3.7-.2.2-.4.3-.7.3-.3 0-.5-.1-.7-.3-.2-.2-.3-.5-.3-.7 0-.3.1-.5.3-.7.2-.2.4-.3.7-.3zM152.9 26.6v.5h-2.7l-.1-.1c0-.1 0-.5.1-1.2v-1.6c0-.8 0-1.3-.1-1.6-.1-.3-.2-.5-.4-.6-.2-.2-.4-.2-.8-.2-.3 0-.6.1-.8.2-.2.2-.3.3-.4.5V25.9c0 .2 0 .4.1.4l.1.1c.1 0 .2.1.3.1.1 0 .2 0 .6.1v.5h-3.7v-.5c.4 0 .6 0 .7-.1.1 0 .1-.1.1-.1 0-.1.1-.3.1-.5v-.6-1.5-1.5c0-.3 0-.5-.1-.5l-.1-.1c-.1 0-.3-.1-.8-.1v-.5c.8-.1 1.4-.2 1.6-.3l.9-.3.2.1v1.1l1.2-1c.2-.1.3-.1.4-.1h.4c.5 0 .9.1 1.1.2.2.1.4.3.6.5.2.2.3.4.4.6.1.2.1.6.1 1v3.3c0 .2.1.3.1.4.1.1.2.1.4.1.2-.2.3-.2.5-.1zM159.4 26l-.3.7c-.4.2-.8.4-1.2.5-.3.1-.6.1-1 .1-.5 0-.8-.1-1.2-.2-.3-.1-.6-.2-.9-.4-.2-.2-.5-.4-.6-.7-.2-.3-.3-.6-.4-.9-.1-.3-.1-.7-.1-1.1 0-.6.1-1.1.2-1.6.1-.3.2-.6.4-.7.1-.1.3-.3.7-.5.4-.3.7-.4.8-.5.3-.1.7-.2 1.1-.2.6 0 1.1.1 1.5.4.4.3.7.6.8 1 .2.4.2.9.2 1.4v.4c-.1 0-.3.1-.5.1-.3.1-.5.1-.6.1h-3c0 .7.3 1.3.7 1.7.4.4.9.6 1.5.6.3 0 .5 0 .7-.1.2-.1.5-.2.9-.4l.3.3zm-1.7-2.8c0-.7-.1-1.2-.3-1.5-.2-.3-.5-.4-.8-.4-.4 0-.6.1-.9.4-.2.3-.3.8-.3 1.5.3 0 .7.1 1.3.1.4-.1.8-.1 1-.1zM166.2 26l-.3.7c-.4.2-.8.4-1.2.5-.3.1-.6.1-1 .1-.5 0-.8-.1-1.2-.2-.3-.1-.6-.2-.9-.4-.2-.2-.5-.4-.6-.7-.2-.3-.3-.6-.4-.9-.1-.3-.1-.7-.1-1.1 0-.6.1-1.1.2-1.6.1-.3.2-.6.4-.7.1-.1.3-.3.7-.5s.7-.4.8-.5c.3-.1.7-.2 1.1-.2.6 0 1.1.1 1.5.4.4.3.7.6.8 1 .2.4.2.9.2 1.4v.4c-.1 0-.3.1-.5.1-.3.1-.5.1-.6.1h-3c0 .7.3 1.3.7 1.7.4.4.9.6 1.5.6.3 0 .5 0 .7-.1.2-.1.5-.2.9-.4l.3.3zm-1.6-2.8c0-.7-.1-1.2-.3-1.5-.2-.3-.5-.4-.8-.4-.4 0-.6.1-.9.4-.2.3-.3.8-.3 1.5.3 0 .7.1 1.3.1.4-.1.7-.1 1-.1zM171.1 26.5v.5H167.2v-.5c.4 0 .6 0 .7-.1.1 0 .1-.1.1-.1 0-.1.1-.3.1-.5v-.6-1.5-1.5c0-.3 0-.5-.1-.5l-.1-.1c-.1 0-.3-.1-.8-.1V21c.8-.1 1.4-.2 1.6-.3l.9-.3.2.1v1.4c.3-.3.5-.6.7-.8.2-.3.4-.5.5-.5.2-.1.4-.2.6-.2.2 0 .3 0 .5.1v1.9l-.3.1c-.1-.2-.2-.3-.3-.3-.2-.1-.4-.1-.6-.1-.3 0-.5.1-.7.2-.2.2-.3.3-.3.5v3.4c0 .1.1.1.1.2.1 0 .2.1.5.1h.6zM172.5 27.1v-.5c.5 0 .8-.1.9-.1.1 0 .1-.1.1-.2 0-.3.1-.9.1-1.9 0-1.4 0-2.2-.1-2.4 0-.1 0-.2-.1-.2-.1-.1-.4-.1-.9-.1V21c.7-.1 1.2-.1 1.6-.2.4-.1.7-.2 1.1-.4l.2.1c-.1.7-.1 1.4-.1 2v2.3c0 .8 0 1.3.1 1.4 0 .1.1.1.1.2.1.1.4.1.9.1v.5h-2.1c-.7 0-1.3 0-1.8.1zm1.9-9.9c.3 0 .5.1.7.3.2.2.3.5.3.7 0 .3-.1.5-.3.7-.2.2-.4.3-.7.3-.3 0-.5-.1-.7-.3-.2-.2-.3-.5-.3-.7 0-.3.1-.5.3-.7.2-.2.4-.3.7-.3zM184.8 26.6v.5h-2.7l-.1-.1c0-.1 0-.5.1-1.2v-1.6c0-.8 0-1.3-.1-1.6-.1-.3-.2-.5-.4-.6-.2-.2-.4-.2-.8-.2-.3 0-.6.1-.8.2-.2.2-.3.3-.4.5V25.9c0 .2 0 .4.1.4l.1.1c.1 0 .2.1.3.1.1 0 .2 0 .6.1v.5H177v-.5c.4 0 .6 0 .7-.1.1 0 .1-.1.1-.1 0-.1.1-.3.1-.5v-.6-1.5-1.5c0-.3 0-.5-.1-.5l-.1-.1c-.1 0-.3-.1-.8-.1v-.5c.8-.1 1.4-.2 1.6-.3l.9-.3.2.1v1.1l1.2-1c.2-.1.3-.1.4-.1h.4c.5 0 .9.1 1.1.2.2.1.4.3.6.5.2.2.3.4.4.6.1.2.1.6.1 1v3.3c0 .2.1.3.1.4.1.1.2.1.4.1.2-.2.4-.2.5-.1zM186.3 25.5l1-.7c-.3-.1-.6-.3-.8-.4-.2-.2-.4-.4-.5-.6-.1-.3-.2-.6-.2-.9 0-.4.1-.8.3-1.2.2-.4.6-.7 1-.9.5-.2 1-.3 1.7-.3.4 0 .8 0 1.2.1.4.1.7.2.9.4h1.6l-.1.8h-1.1c.1.2.1.4.1.7 0 .5-.1.9-.4 1.3-.3.4-.6.7-1.1.9-.5.2-1 .3-1.5.3h-.6l-.3.3c-.1.1-.1.2-.1.3 0 .1 0 .2.1.2.1.1.1.1.3.1h2.8c.5 0 .9.1 1.1.2.3.1.5.3.6.5.1.2.2.5.2.9 0 .6-.1 1.1-.4 1.5-.3.5-.7.8-1.2 1.1-.7.4-1.5.6-2.4.6-.7 0-1.3-.1-1.8-.3-.5-.2-.8-.4-1-.7-.2-.3-.3-.6-.3-.9 0-.2 0-.4.1-.5.1-.2.1-.3.2-.3.1-.1.2-.2.5-.3.4-.2.7-.4.7-.4-.2 0-.5-.1-.7-.3-.2-.2-.3-.4-.3-.6 0-.1 0-.2.1-.4.2-.3.3-.4.3-.5zm1.5 1.7c-.4.2-.6.5-.7.7-.1.2-.2.4-.2.7 0 .4.2.8.5 1 .3.3.8.4 1.5.4s1.3-.2 1.6-.5c.4-.3.6-.8.6-1.3 0-.2 0-.4-.1-.6l-.3-.3c-.1-.1-.3-.1-.6-.1h-2.3zm-.3-4.7c0 .6.1 1.1.3 1.3.2.3.5.4.9.4s.7-.2.9-.5c.1-.2.2-.6.2-1 0-.6-.1-1.1-.3-1.3-.2-.3-.5-.4-.9-.4-.3 0-.6.1-.8.3-.2.3-.3.7-.3 1.2zM48.4 42.8c.1-.3.1-.5.2-.7 0-.2.1-.5.1-.8h.3v1c.2.2.4.3.6.3.2.1.5.1.8.1.6 0 1-.2 1.3-.5.3-.3.4-.7.4-1.1 0-.2 0-.3-.1-.4-.1-.1-.1-.2-.2-.3-.1-.1-.2-.1-.3-.2-.1 0-.4-.1-.7-.2-.5-.1-.8-.2-1-.3-.2-.1-.4-.3-.5-.5-.1-.2-.2-.5-.2-.8 0-.6.3-1.2.8-1.6.5-.5 1.1-.7 1.9-.7.3 0 .5 0 .7.1.2.1.4.1.6.2 0 .2-.1.4-.1.5 0 .2-.1.4-.1.8h-.3v-.8c-.1-.1-.3-.3-.5-.3s-.4-.1-.6-.1c-.3 0-.6.1-.8.2-.2.1-.4.3-.6.6-.1.2-.2.5-.2.8 0 .2 0 .4.1.6.1.2.2.3.4.4.2.1.5.2.9.3.4.1.7.2.8.2.2.1.4.2.5.3.1.1.2.3.3.4.1.2.1.3.1.5 0 .3-.1.6-.2.8-.1.2-.3.5-.5.7-.2.2-.4.4-.7.6-.2.1-.5.3-.7.3-.3.1-.5.1-.8.1-.3 0-.6 0-.8-.1-.4-.1-.6-.2-.9-.4zM57 41.9l.1.2c-.3.3-.6.5-.8.6-.3.2-.5.3-.7.4-.2.1-.3.1-.5.1s-.4 0-.6-.1c-.2-.1-.3-.3-.4-.5-.1-.2-.2-.5-.2-.8 0-.4 0-.7.1-1.1.1-.4.2-.7.4-.9.2-.3.3-.4.5-.6.3-.3.7-.5 1.1-.7.2-.1.4-.1.7-.1.2 0 .3 0 .5.1.1 0 .3.1.4.2-.1.4-.2.8-.2 1.3H57v-.5c0-.1 0-.2-.1-.2 0-.1-.1-.1-.3-.2-.1-.1-.3-.1-.5-.1-.3 0-.6.1-.8.2-.2.2-.4.5-.5 1-.2.6-.3 1.1-.3 1.5 0 .3.1.6.2.8.2.3.4.4.7.4.1 0 .3 0 .4-.1.2 0 .3-.1.5-.2.2-.3.4-.5.7-.7zM57.8 43.2c.2-1 .3-1.8.5-2.4.2-.8.3-1.6.5-2.3.1-.7.2-1.3.3-1.7v-.1-.1l-.1-.1h-.6v-.2c.7-.1 1.1-.3 1.4-.4l.1.1c-.1.2-.1.4-.1.6l-.4 2-.4 1.7c.3-.3.5-.6.6-.7.3-.3.5-.5.8-.7.3-.2.5-.3.8-.4.2-.1.3-.1.4-.1.1 0 .1 0 .2.1s.1.1.1.2v.2c0 .1-.1.4-.2.9-.2.8-.4 1.5-.5 2.1-.1.3-.1.4-.1.5v.1h.1c.1 0 .4-.2.8-.5l.1.2c-.2.1-.4.3-.7.5-.3.2-.5.3-.7.4h-.2c-.1 0-.1 0-.2-.1 0-.1-.1-.2-.1-.3 0-.1 0-.3.1-.6l.4-1.6c.1-.5.2-1 .3-1.2v-.2-.1h-.1c-.1 0-.2 0-.3.1-.3.1-.6.4-.9.7-.3.3-.6.6-.7 1-.2.3-.3.7-.4 1.1l-.2 1.1-.5.1s-.1 0-.1.1zM62.7 41.7c0-.4 0-.8.1-1.1.1-.4.2-.7.4-.9.1-.3.3-.5.6-.7.2-.2.5-.4.7-.5.3-.1.5-.2.8-.2.2 0 .5.1.7.2.2.1.4.3.5.5.1.2.2.5.2.9 0 .5-.1 1-.3 1.5-.2.4-.3.7-.5 1-.2.2-.5.5-.8.6-.3.2-.6.3-1 .3s-.7-.1-.9-.4c-.3-.3-.5-.7-.5-1.2zm.8-.1c0 .3 0 .6.1.7.1.2.2.3.3.4.1.1.3.1.5.1s.4-.1.6-.2c.2-.1.3-.3.5-.6s.3-.6.3-1c.1-.4.1-.8.1-1.1 0-.4-.1-.7-.2-.9-.1-.2-.4-.3-.7-.3-.5 0-.8.3-1.1.8-.3.6-.4 1.3-.4 2.1zM67.2 41.7c0-.4 0-.8.1-1.1.1-.4.2-.7.4-.9.1-.3.3-.5.6-.7.2-.2.5-.4.7-.5.3-.1.5-.2.8-.2.2 0 .5.1.7.2.2.1.4.3.5.5.1.2.2.5.2.9 0 .5-.1 1-.3 1.5-.2.4-.3.7-.5 1-.2.2-.5.5-.8.6-.3.2-.6.3-1 .3s-.7-.1-.9-.4c-.4-.3-.5-.7-.5-1.2zm.8-.1c0 .3 0 .6.1.7.1.2.2.3.3.4.1.1.3.1.5.1s.4-.1.6-.2c.2-.1.3-.3.5-.6s.3-.6.3-1c.1-.4.1-.8.1-1.1 0-.4-.1-.7-.2-.9-.1-.2-.4-.3-.7-.3-.5 0-.8.3-1.1.8-.3.6-.4 1.3-.4 2.1zM73.6 42l.1.2c-.1.1-.3.2-.6.5-.3.2-.6.4-.8.5-.1 0-.2.1-.3.1-.1 0-.2 0-.2-.1-.1-.1-.1-.2-.1-.3v-.4c0-.2.2-.9.5-2.1.2-.9.3-1.5.4-1.7.1-.7.2-1.2.3-1.6v-.3c0-.1 0-.2-.1-.2 0 0-.1-.1-.3-.1h-.4v-.2c.3 0 .6-.1.8-.1.2-.1.5-.1.7-.3l.1.1c-.1.3-.3 1.4-.7 3.3-.3 1.6-.5 2.5-.6 2.9v.4l.1.1h.1c.1 0 .2-.1.4-.2l.6-.5zM76.9 41.7c0-.4 0-.8.1-1.1.1-.4.2-.7.4-.9.1-.3.3-.5.6-.7.2-.2.5-.4.7-.5.3-.1.5-.2.8-.2.2 0 .5.1.7.2.2.1.4.3.5.5.1.2.2.5.2.9 0 .5-.1 1-.3 1.5-.2.4-.3.7-.5 1-.2.2-.5.5-.8.6-.3.2-.6.3-1 .3s-.7-.1-.9-.4c-.4-.3-.5-.7-.5-1.2zm.8-.1c0 .3 0 .6.1.7.1.2.2.3.3.4.1.1.3.1.5.1s.4-.1.6-.2c.2-.1.3-.3.5-.6s.3-.6.3-1c.1-.4.1-.8.1-1.1 0-.4-.1-.7-.2-.9-.1-.2-.4-.3-.7-.3-.5 0-.8.3-1.1.8-.3.6-.4 1.3-.4 2.1zM81.5 39.3v-.2c.4-.1.7-.3.9-.4.2-.8.3-1.2.3-1.3 0-.2.1-.3.2-.4l.6-.6c.3-.3.6-.4.7-.5.1-.1.3-.1.4-.1.2 0 .4 0 .6.1-.1.4-.2.6-.3.8h-.1l-.3-.3c-.1-.1-.3-.1-.4-.1-.2 0-.3 0-.4.1l-.3.3c-.1.1-.1.4-.2.7-.1.5-.2.9-.2 1.2h.7c.1 0 .2 0 .3-.1v.1c-.1.2-.1.4-.2.6h-1l-.3 2.8c-.2 1-.4 1.6-.5 2-.2.4-.4.7-.6 1-.3.3-.5.5-.8.6-.2.1-.3.1-.5.1-.1 0-.2 0-.3-.1.1-.3.2-.6.2-.8h.1c.1.2.3.3.5.3.1 0 .2 0 .3-.1.1 0 .1 0 .2-.2.1-.1.2-.4.3-.8.2-.6.3-1.4.5-2.3l.4-2.4h-.8zM86.9 42.8c.1-.3.1-.5.2-.7 0-.2.1-.5.1-.8h.3v1c.2.2.4.3.6.3.2.1.5.1.8.1.6 0 1-.2 1.3-.5.3-.3.4-.7.4-1.1 0-.2 0-.3-.1-.4-.1-.1-.1-.2-.2-.3-.1-.1-.2-.1-.3-.2-.1 0-.4-.1-.7-.2-.5-.1-.8-.2-1-.3-.2-.1-.4-.3-.5-.5-.1-.2-.2-.5-.2-.8 0-.6.3-1.2.8-1.6.5-.5 1.1-.7 1.9-.7.3 0 .5 0 .7.1.2.1.4.1.6.2 0 .2-.1.4-.1.5 0 .2-.1.4-.1.8H91v-.8c-.1-.1-.3-.3-.5-.3s-.4-.1-.6-.1c-.3 0-.6.1-.8.2-.2.1-.4.3-.6.6-.1.2-.2.5-.2.8 0 .2 0 .4.1.6.1.2.2.3.4.4.2.1.5.2.9.3.4.1.7.2.8.2.2.1.4.2.5.3.1.1.2.3.3.4.1.2.1.3.1.5 0 .3-.1.6-.2.8-.1.2-.3.5-.5.7-.2.2-.4.4-.7.6-.2.1-.5.3-.7.3-.3.1-.5.1-.8.1-.3 0-.6 0-.8-.1-.3-.1-.5-.2-.8-.4zM92.5 39.4l-.1-.2c.3-.2.7-.5 1.2-.7.2-.1.4-.2.5-.2.1 0 .1 0 .2.1 0 0 .1.1.1.2s0 .2-.1.4c-.5 1.9-.7 2.9-.7 3.3v.2l.1.1c.1 0 .1 0 .2-.1.3-.1.5-.3.8-.6.3-.3.6-.7.9-1 .2-.2.3-.5.4-.9.1-.3.2-.8.3-1.4.1 0 .2-.1.5-.2l.1.1-.2.9-.3 1.5c-.1.5-.2.9-.2 1.1v.5l.1.1s.1 0 .2-.1c.1 0 .3-.2.6-.4l.1.2c-.6.4-.9.7-1.2.9-.2.1-.3.1-.4.1-.1 0-.1 0-.2-.1s-.1-.1-.1-.3v-.2c0-.2.1-.5.2-.9l.2-.9c-.4.5-.6.8-.6.8l-.9.9c-.3.3-.6.5-.9.6-.1 0-.2.1-.3.1-.1 0-.2 0-.3-.1-.1-.1-.1-.2-.1-.4 0-.3.1-.6.2-1.1.2-.8.3-1.4.4-1.8.1-.3.1-.5.1-.6v-.1h-.1c-.1-.2-.3-.1-.7.2zM97.7 43c.1-.3.1-.6.2-.8 0-.2 0-.4.1-.6h.2v.8c.2.1.3.2.4.3.2.1.4.1.5.1.2 0 .4 0 .6-.1.2-.1.3-.2.4-.4.1-.2.1-.4.1-.6 0-.1 0-.3-.1-.4-.1-.1-.1-.2-.2-.2s-.3-.1-.6-.1c-.4-.1-.7-.1-.8-.2-.1-.1-.3-.2-.4-.3-.1-.2-.1-.3-.1-.5s0-.4.1-.5c.1-.2.2-.3.3-.4.1-.1.3-.3.5-.4s.4-.2.5-.2c.1 0 .3-.1.5-.1s.4 0 .5.1c.2 0 .3.1.5.2 0 .2-.1.3-.1.4 0 .1 0 .3-.1.7h-.2v-.6c-.1-.1-.2-.2-.4-.3-.2-.1-.3-.1-.5-.1-.3 0-.6.1-.7.3-.2.2-.3.4-.3.6 0 .2.1.4.2.5.1.1.4.2.7.3.4.1.6.1.8.2.2.1.3.2.4.3.1.1.1.3.1.5s-.1.5-.2.7c-.1.2-.3.4-.5.6-.2.2-.4.3-.7.5-.2.1-.5.2-.8.2-.2 0-.3 0-.5-.1 0-.3-.2-.3-.4-.4zM104.1 41.9l.1.2c-.3.2-.6.5-.9.7-.3.2-.5.3-.6.4h-.2c-.1 0-.2 0-.2-.1-.1-.1-.1-.2-.1-.4v-.3c0-.1 0-.2.1-.4l.2-1c.1-.4.2-1 .3-1.8h-.8v-.1c.3-.1.4-.2.5-.2.1 0 .2-.1.3-.2.1-.3.1-.4.1-.6 0-.1.1-.5.2-1.1l.4-.2.3-.2.1.1c-.1.5-.2.8-.2.8 0 .1-.1.5-.2 1.2h.4c.3 0 .6 0 .7-.1l-.1.5h-1.1c-.1.3-.2.7-.3 1.4-.1.7-.2 1.1-.2 1.4v.3c0 .1 0 .1.1.2l.1.1h.1c.1 0 .2-.1.4-.2l.5-.4zM108.8 42l.1.2-.7.6c-.2.2-.4.3-.5.3h-.1c-.1 0-.1 0-.2-.1s-.1-.1-.1-.2c0-.3.1-.9.3-1.7-.3.3-.5.6-.6.8-.3.3-.5.6-.8.8-.3.2-.5.4-.7.5h-.2c-.1 0-.2 0-.2-.1-.1-.1-.1-.4-.1-.7 0-.4.1-.9.2-1.5.2-.6.3-1 .6-1.5.1-.2.3-.4.5-.5.3-.2.6-.4.9-.5.2-.1.4-.1.6-.1h.4c.1 0 .3.1.5.1l.3-.2.1.1c-.2.7-.4 1.4-.6 2-.1.4-.2.7-.3.9-.1.3-.1.6-.2.9V42.4h.1c.1 0 .1 0 .2-.1 0 .1.2-.1.5-.3zm-.8-3c-.1-.1-.3-.1-.4-.1h-.4c-.3 0-.5 0-.7.1-.1 0-.1.2-.2.3-.2.3-.3.7-.4 1.2-.2.7-.3 1.2-.3 1.8v.2s0 .1.1.1h.1c.1 0 .2 0 .3-.1.3-.2.5-.4.8-.7.3-.3.5-.7.7-1.1.2-.6.3-1.1.4-1.7zM109.7 39.4l-.1-.2c.6-.4 1-.6 1.2-.7.2-.1.3-.1.5-.1.1 0 .1 0 .1.1s.1.2.1.3v.2c0 .2-.1.6-.3 1.1-.4 1.3-.5 2.1-.5 2.3v.1h.1c.1 0 .1 0 .2-.1.1 0 .3-.2.5-.4l.1.2c-.5.4-.9.7-1.2.8-.1.1-.2.1-.3.1-.1 0-.2 0-.2-.1-.1-.1-.1-.2-.1-.3v-.3c0-.1.1-.4.2-.7.4-1.4.6-2.2.6-2.5v-.1h-.1-.1c-.1 0-.3.1-.7.3zm1.2-2.7c0-.2.1-.3.2-.5.1-.1.2-.2.4-.2.1 0 .2 0 .3.1.1.1.1.2.1.3 0 .2 0 .3-.1.5-.1.1-.2.2-.4.2-.1 0-.2 0-.3-.1-.2-.1-.2-.2-.2-.3zM112.7 43.1c.1-.8.3-1.6.5-2.6.2-.7.2-1.2.2-1.4V39h-.1-.1c-.1 0-.2.1-.3.1l-.4.3-.1-.2.5-.3.6-.3c.2-.1.3-.2.4-.2h.1c.1 0 .1 0 .2.1 0 .1.1.1.1.2v.2c0 .1-.1.4-.2.8l-.2.9c.3-.5.6-.9 1-1.2.4-.4.8-.6 1.2-.8.3-.1.5-.2.7-.2.1 0 .2 0 .2.1.1.1.1.1.1.2 0 .2-.1.8-.3 1.6-.3 1.2-.5 1.8-.5 2v.1h.1s.1 0 .2-.1c.2-.1.4-.3.6-.4l.1.2c-.3.2-.5.4-.7.5-.3.2-.6.3-.7.4h-.2c-.1 0-.2 0-.2-.1-.1-.1-.1-.2-.1-.3v-.4c0-.2.2-.8.4-1.5.2-.9.4-1.5.4-1.7v-.2l-.1-.1c-.1 0-.2 0-.4.1-.3.1-.5.3-.8.6-.3.3-.5.6-.7.9-.2.3-.3.7-.5 1.2 0 .2-.1.6-.2 1.1-.4.4-.6.5-.8.5zM121.5 42l.1.2-.7.6c-.2.2-.4.3-.5.3h-.1c-.1 0-.1 0-.2-.1s-.1-.1-.1-.2c0-.3.1-.9.3-1.7-.3.3-.5.6-.6.8-.3.3-.5.6-.8.8-.3.2-.5.4-.7.5h-.2c-.1 0-.2 0-.2-.1-.1-.1-.1-.4-.1-.7 0-.4.1-.9.2-1.5.2-.6.3-1 .6-1.5.1-.2.3-.4.5-.5.3-.2.6-.4.9-.5.2-.1.4-.1.6-.1h.4c.1 0 .3.1.5.1l.3-.2.1.1c-.2.7-.4 1.4-.6 2-.1.4-.2.7-.3.9-.1.3-.1.6-.2.9V42.4h.1c.1 0 .1 0 .2-.1.1.1.3-.1.5-.3zm-.7-3c-.1-.1-.3-.1-.4-.1h-.4c-.3 0-.5 0-.7.1-.1 0-.1.2-.2.3-.2.3-.3.7-.4 1.2-.2.7-.3 1.2-.3 1.8v.2s0 .1.1.1h.1c.1 0 .2 0 .3-.1.3-.2.5-.4.8-.7.3-.3.5-.7.7-1.1.1-.6.3-1.1.4-1.7zM123.4 39.8c.2-.3.4-.5.5-.6.2-.2.4-.4.6-.5l.6-.3c.2-.1.4-.1.6-.1.1 0 .2.1.3.2.1.2.2.5.2.9 0 .5-.1 1.1-.4 1.7-.2.5-.4.8-.7 1.1-.3.3-.6.5-.9.7-.3.2-.7.3-.9.3-.3 0-.5-.1-.7-.3-.2-.2-.3-.4-.3-.6v-.2c0-.1 0-.2.1-.6.1-.5.4-1.8.8-3.8.1-.6.2-1 .2-1.1 0-.1 0-.1-.1-.2-.1 0-.3-.1-.7-.1v-.2c.5-.1.8-.1 1-.2.2-.1.4-.1.6-.2l.1.1c0 .2-.1.4-.2.7l-.7 3.3zM123 42c0 .2.1.4.2.5.1.1.3.2.5.2.3 0 .5-.1.7-.3.3-.2.5-.7.7-1.2.2-.6.3-1.1.3-1.6 0-.3 0-.5-.1-.6 0-.1-.1-.1-.3-.1-.2 0-.3 0-.4.1-.1.1-.3.1-.5.3-.2.1-.3.3-.5.5-.1.2-.3.4-.3.6-.1.2-.2.5-.3.9.1.3 0 .6 0 .7zM128.8 42l.1.2c-.1.1-.3.2-.6.5-.3.2-.6.4-.8.5-.1 0-.2.1-.3.1-.1 0-.2 0-.2-.1-.1-.1-.1-.2-.1-.3v-.4c0-.2.2-.9.5-2.1.2-.9.3-1.5.4-1.7.1-.7.2-1.2.3-1.6v-.3c0-.1 0-.2-.1-.2 0 0-.1-.1-.3-.1h-.4v-.2c.3 0 .6-.1.8-.1.2-.1.5-.1.7-.3l.1.1c-.1.3-.3 1.4-.7 3.3-.3 1.6-.5 2.5-.6 2.9v.4l.1.1h.1c.1 0 .2-.1.4-.2l.6-.5zM132.7 42l.1.2c-.4.3-.7.6-1.1.8-.4.2-.7.3-.9.3-.2 0-.3 0-.5-.1s-.3-.2-.4-.4c-.1-.2-.2-.4-.2-.8s.1-.8.2-1.2c.1-.4.2-.8.4-1 .1-.2.3-.4.5-.6l.9-.6c.2-.1.5-.2.7-.2.2 0 .4.1.6.2.2.1.2.3.2.5s0 .3-.1.5-.2.3-.3.4c-.2.2-.4.3-.7.5-.3.1-.6.3-1 .4l-.6.2c-.1.3-.1.6-.1.8 0 .3.1.6.2.7.1.2.3.2.5.2s.4 0 .6-.1c.2-.2.5-.4 1-.7zm-2.3-1.3c.4-.1.8-.2 1.1-.3.3-.1.5-.3.7-.5.1-.2.2-.4.2-.6 0-.2 0-.3-.1-.4-.1-.1-.2-.1-.3-.1-.2 0-.4.1-.6.2-.2.1-.3.3-.5.5-.1.1-.3.5-.5 1.2zM135.9 43.1v-.3c.4 0 .6 0 .6-.1l.1-.1c0-.1.1-.5.3-1.3.1-.8.3-1.9.5-3.2.1-.7.2-1.1.2-1.3 0-.1 0-.2-.1-.2 0 0-.1-.1-.2-.1h-.6v-.3h2.5v.3c-.4 0-.6 0-.6.1 0 0-.1 0-.1.1 0 0-.1.1-.1.2-.1.5-.2 1.2-.4 2.3l-.4 2.3c-.1.6-.2 1-.2 1.2 0 .1 0 .1.1.2s.4.1.8.1v.3h-1.2c-.3-.3-.7-.3-1.2-.2zM139.8 43.1c.1-.8.3-1.6.5-2.6.2-.7.2-1.2.2-1.4V39h-.1-.1c-.1 0-.2.1-.3.1l-.4.3-.1-.2.5-.3.6-.3c.2-.1.3-.2.4-.2h.1c.1 0 .1 0 .2.1 0 .1.1.1.1.2v.2c0 .1-.1.4-.2.8l-.2.9c.3-.5.6-.9 1-1.2.4-.4.8-.6 1.2-.8.3-.1.5-.2.7-.2.1 0 .2 0 .2.1.1.1.1.1.1.2 0 .2-.1.8-.3 1.6-.3 1.2-.5 1.8-.5 2v.1h.1s.1 0 .2-.1c.2-.1.4-.3.6-.4l.1.2c-.3.2-.5.4-.7.5-.3.2-.6.3-.7.4h-.2c-.1 0-.2 0-.2-.1-.1-.1-.1-.2-.1-.3v-.4c0-.2.2-.8.4-1.5.2-.9.4-1.5.4-1.7v-.2l-.1-.1c-.1 0-.2 0-.4.1-.3.1-.5.3-.8.6-.3.3-.5.6-.7.9-.2.3-.3.7-.5 1.2 0 .2-.1.6-.2 1.1-.4.4-.6.5-.8.5z"/>
  <path fill="currentColor" d="M145.1 39.3v-.2c.4-.1.7-.3.9-.4.2-.8.3-1.2.3-1.3 0-.2.1-.3.2-.4l.6-.6c.3-.3.6-.4.7-.5.1-.1.3-.1.4-.1.2 0 .4 0 .6.1-.1.4-.2.6-.3.8h-.1l-.3-.3c-.1-.1-.3-.1-.4-.1-.2 0-.3 0-.4.1l-.3.3c-.1.1-.1.4-.2.7-.1.5-.2.9-.2 1.2h.7c.1 0 .2 0 .3-.1v.1c-.1.2-.1.4-.2.6h-1L146 42c-.2 1-.4 1.6-.5 2-.2.4-.4.7-.6 1-.3.3-.5.5-.8.6-.2.1-.3.1-.5.1-.1 0-.2 0-.3-.1.1-.3.2-.6.2-.8h.1c.1.2.3.3.5.3.1 0 .2 0 .3-.1l.3-.3c.1-.1.2-.4.3-.8.2-.6.3-1.4.5-2.3l.4-2.4h-.4c-.1.1-.3.1-.4.1zM148 43.2c.1-.6.2-1.1.3-1.4.2-.7.3-1.3.4-1.9 0-.3.1-.5.1-.7V39h-.1c-.1 0-.4.2-.8.5l-.1-.2c.4-.4.8-.6 1.2-.8.2-.1.4-.2.5-.2.1 0 .1 0 .1.1 0 0 .1.1.1.2s0 .2-.1.5c-.1.4-.2.9-.3 1.4.3-.6.7-1.1 1-1.5.2-.3.4-.4.5-.5.1-.1.2-.1.3-.1.1 0 .1 0 .2.1-.1.3-.1.6-.2 1.1h-.1c-.1-.1-.2-.2-.3-.2-.1 0-.2 0-.4.1s-.4.4-.7.7c-.2.3-.4.8-.6 1.3-.1.3-.2.8-.4 1.6-.2 0-.4 0-.6.1zM155.3 42l.1.2-.7.6c-.2.2-.4.3-.5.3h-.1c-.1 0-.1 0-.2-.1s-.1-.1-.1-.2c0-.3.1-.9.3-1.7-.3.3-.5.6-.6.8-.3.3-.5.6-.8.8-.3.2-.5.4-.7.5h-.2c-.1 0-.2 0-.2-.1-.1-.1-.1-.4-.1-.7 0-.4.1-.9.2-1.5.2-.6.3-1 .6-1.5.1-.2.3-.4.5-.5.3-.2.6-.4.9-.5.2-.1.4-.1.6-.1h.4c.1 0 .3.1.5.1l.3-.2.1.1c-.2.7-.4 1.4-.6 2-.1.4-.2.7-.3.9-.1.3-.1.6-.2.9V42.4h.1c.1 0 .1 0 .2-.1.1.1.3-.1.5-.3zm-.7-3c-.1-.1-.3-.1-.4-.1h-.4c-.3 0-.5 0-.7.1-.1 0-.1.2-.2.3-.2.3-.3.7-.4 1.2-.2.7-.3 1.2-.3 1.8v.2s0 .1.1.1h.1c.1 0 .2 0 .3-.1.3-.2.5-.4.8-.7.3-.3.5-.7.7-1.1.1-.6.3-1.1.4-1.7zM155.9 43c.1-.3.1-.6.2-.8 0-.2 0-.4.1-.6h.2v.8c.2.1.3.2.4.3.2.1.4.1.5.1.2 0 .4 0 .6-.1.2-.1.3-.2.4-.4.1-.2.1-.4.1-.6 0-.1 0-.3-.1-.4-.1-.1-.1-.2-.2-.2s-.3-.1-.6-.1c-.4-.1-.7-.1-.8-.2-.1-.1-.3-.2-.4-.3-.1-.2-.1-.3-.1-.5s0-.4.1-.5c.1-.2.2-.3.3-.4.1-.1.3-.3.5-.4s.4-.2.5-.2c.1 0 .3-.1.5-.1s.4 0 .5.1c.2 0 .3.1.5.2 0 .2-.1.3-.1.4 0 .1 0 .3-.1.7h-.2v-.6c-.1-.1-.2-.2-.4-.3-.2-.1-.3-.1-.5-.1-.3 0-.6.1-.7.3-.2.2-.3.4-.3.6 0 .2.1.4.2.5.1.1.4.2.7.3.4.1.6.1.8.2.2.1.3.2.4.3.1.1.1.3.1.5s-.1.5-.2.7c-.1.2-.3.4-.5.6-.2.2-.4.3-.7.5-.2.1-.5.2-.8.2-.2 0-.3 0-.5-.1 0-.3-.2-.3-.4-.4zM162.3 41.9l.1.2c-.3.2-.6.5-.9.7-.3.2-.5.3-.6.4h-.2c-.1 0-.2 0-.2-.1-.1-.1-.1-.2-.1-.4v-.3c0-.1 0-.2.1-.4l.2-1c.1-.4.2-1 .3-1.8h-.8v-.1c.3-.1.4-.2.5-.2.1 0 .2-.1.3-.2.1-.3.1-.4.1-.6 0-.1.1-.5.2-1.1l.4-.2.3-.2.1.1c-.1.5-.2.8-.2.8 0 .1-.1.5-.2 1.2h.4c.3 0 .6 0 .7-.1l-.1.5h-1.1c-.1.3-.2.7-.3 1.4-.1.7-.2 1.1-.2 1.4v.3c0 .1 0 .1.1.2l.1.1h.1c.1 0 .2-.1.4-.2l.5-.4zM163.6 43.2c.1-.6.2-1.1.3-1.4.2-.7.3-1.3.4-1.9 0-.3.1-.5.1-.7V39h-.1c-.1 0-.4.2-.8.5l-.1-.2c.4-.4.8-.6 1.2-.8.2-.1.4-.2.5-.2.1 0 .1 0 .1.1s.1.1.1.2 0 .2-.1.5c-.1.4-.2.9-.3 1.4.3-.6.7-1.1 1-1.5.2-.3.4-.4.5-.5.1-.1.2-.1.3-.1.1 0 .1 0 .2.1-.1.3-.1.6-.2 1.1h-.1c-.1-.1-.2-.2-.3-.2-.1 0-.2 0-.4.1s-.4.4-.7.7c-.2.3-.4.8-.6 1.3-.1.3-.2.8-.4 1.6-.2 0-.5 0-.6.1zM167.4 39.4l-.1-.2c.3-.2.7-.5 1.2-.7.2-.1.4-.2.5-.2.1 0 .1 0 .2.1 0 0 .1.1.1.2s0 .2-.1.4c-.5 1.9-.7 2.9-.7 3.3v.2l.1.1c.1 0 .1 0 .2-.1.3-.1.5-.3.8-.6.3-.3.6-.7.9-1 .2-.2.3-.5.4-.9.1-.3.2-.8.3-1.4.1 0 .2-.1.5-.2l.1.1-.2.9-.3 1.5c-.1.5-.2.9-.2 1.1v.5l.1.1s.1 0 .2-.1c.1 0 .3-.2.6-.4l.1.2c-.6.4-.9.7-1.2.9-.2.1-.3.1-.4.1-.1 0-.1 0-.2-.1s-.1-.1-.1-.3v-.2c0-.2.1-.5.2-.9l.2-.9c-.4.5-.6.8-.6.8l-.9.9c-.3.3-.6.5-.9.6-.1 0-.2.1-.3.1-.1 0-.2 0-.3-.1-.1-.1-.1-.2-.1-.4 0-.3.1-.6.2-1.1.2-.8.3-1.4.4-1.8.1-.3.1-.5.1-.6v-.1h-.1c-.1-.2-.3-.1-.7.2zM176 41.9l.1.2c-.3.3-.6.5-.8.6-.3.2-.5.3-.7.4-.2.1-.3.1-.5.1s-.4 0-.6-.1c-.2-.1-.3-.3-.4-.5-.1-.2-.2-.5-.2-.8 0-.4 0-.7.1-1.1.1-.4.2-.7.4-.9.2-.3.3-.4.5-.6.3-.3.7-.5 1.1-.7.2-.1.4-.1.7-.1.2 0 .3 0 .5.1.1 0 .3.1.4.2-.1.4-.2.8-.2 1.3h-.2v-.5c0-.1 0-.2-.1-.2 0-.1-.1-.1-.3-.2-.1-.1-.3-.1-.5-.1-.3 0-.6.1-.8.2-.2.2-.4.5-.5 1-.2.6-.3 1.1-.3 1.5 0 .3.1.6.2.8.2.3.4.4.7.4.1 0 .3 0 .4-.1.2 0 .3-.1.5-.2 0-.3.2-.5.5-.7zM179.2 41.9l.1.2c-.3.2-.6.5-.9.7-.3.2-.5.3-.6.4h-.2c-.1 0-.2 0-.2-.1-.1-.1-.1-.2-.1-.4v-.3c0-.1 0-.2.1-.4l.2-1c.1-.4.2-1 .3-1.8h-.8v-.1c.3-.1.4-.2.5-.2.1 0 .2-.1.3-.2.1-.3.1-.4.1-.6 0-.1.1-.5.2-1.1l.4-.2.3-.2.1.1c-.1.5-.2.8-.2.8 0 .1-.1.5-.2 1.2h.4c.3 0 .6 0 .7-.1l-.1.5h-1.1c-.1.3-.2.7-.3 1.4-.1.7-.2 1.1-.2 1.4v.3c0 .1 0 .1.1.2l.1.1h.1c.1 0 .2-.1.4-.2l.5-.4zM180.3 39.4l-.1-.2c.3-.2.7-.5 1.2-.7.2-.1.4-.2.5-.2.1 0 .1 0 .2.1 0 0 .1.1.1.2s0 .2-.1.4c-.5 1.9-.7 2.9-.7 3.3v.2l.1.1c.1 0 .1 0 .2-.1.3-.1.5-.3.8-.6.3-.3.6-.7.9-1 .2-.2.3-.5.4-.9.1-.3.2-.8.3-1.4.1 0 .2-.1.5-.2l.1.1-.2.9-.3 1.5c-.1.5-.2.9-.2 1.1v.5l.1.1s.1 0 .2-.1c.1 0 .3-.2.6-.4l.1.2c-.6.4-.9.7-1.2.9-.2.1-.3.1-.4.1-.1 0-.1 0-.2-.1s-.1-.1-.1-.3v-.2c0-.2.1-.5.2-.9l.2-.9c-.4.5-.6.8-.6.8l-.9.9c-.3.3-.6.5-.9.6-.1 0-.2.1-.3.1-.1 0-.2 0-.3-.1-.1-.1-.1-.2-.1-.4 0-.3.1-.6.2-1.1.2-.8.3-1.4.4-1.8.1-.3.1-.5.1-.6v-.1h-.1c0-.2-.3-.1-.7.2zM186 43.2c.1-.6.2-1.1.3-1.4.2-.7.3-1.3.4-1.9 0-.3.1-.5.1-.7V39h-.1c-.1 0-.4.2-.8.5l-.1-.2c.4-.4.8-.6 1.2-.8.2-.1.4-.2.5-.2.1 0 .1 0 .1.1s.1.1.1.2 0 .2-.1.5c-.1.4-.2.9-.3 1.4.3-.6.7-1.1 1-1.5.2-.3.4-.4.5-.5.1-.1.2-.1.3-.1.1 0 .1 0 .2.1-.1.3-.1.6-.2 1.1h-.1c-.1-.1-.2-.2-.3-.2-.1 0-.2 0-.4.1s-.4.4-.7.7c-.2.3-.4.8-.6 1.3-.1.3-.2.8-.4 1.6-.2 0-.4 0-.6.1zM192.4 42l.1.2c-.4.3-.7.6-1.1.8-.4.2-.7.3-.9.3-.2 0-.3 0-.5-.1s-.3-.2-.4-.4c-.1-.2-.2-.4-.2-.8s.1-.8.2-1.2c.1-.4.2-.8.4-1 .1-.2.3-.4.5-.6l.9-.6c.2-.1.5-.2.7-.2.2 0 .4.1.6.2.2.1.2.3.2.5s0 .3-.1.5-.2.3-.3.4c-.2.2-.4.3-.7.5-.3.1-.6.3-1 .4l-.6.2c-.1.3-.1.6-.1.8 0 .3.1.6.2.7.1.2.3.2.5.2s.4 0 .6-.1c.3-.2.6-.4 1-.7zm-2.2-1.3c.4-.1.8-.2 1.1-.3.3-.1.5-.3.7-.5.1-.2.2-.4.2-.6 0-.2 0-.3-.1-.4-.1-.1-.2-.1-.3-.1-.2 0-.4.1-.6.2-.2.1-.3.3-.5.5-.2.1-.3.5-.5 1.2zM55 49.8c.2.1.3.1.4.3.1.1.1.3.1.5s0 .4-.1.6c-.1.2-.2.3-.4.4-.2.1-.4.2-.7.3-.1 0-.4.1-.8.1.2.1.4.2.5.3.1.1.2.3.2.5 0 .3-.1.6-.3.9-.3.4-.7.7-1.2 1.1-.6.3-1.2.5-1.9.5s-1.3-.2-1.7-.5c-.4-.3-.7-.8-.7-1.4 0-.6.2-1 .6-1.4.3-.3.8-.5 1.5-.8-.2-.1-.3-.2-.4-.3-.1-.1-.2-.2-.2-.3-.1-.1-.1-.3-.1-.5 0-.3.1-.6.4-.9.2-.3.6-.6 1.1-.8.3-.1.6-.2.9-.2.2 0 .4 0 .5.1.2 0 .3.1.4.2 0 .2-.1.4-.1.5-.1.3-.1.5-.1.6h-.2V49c-.1-.1-.2-.2-.4-.2-.1-.1-.3-.1-.5-.1s-.4.1-.6.2c-.2.1-.4.2-.5.4-.1.2-.2.4-.2.6 0 .3.1.5.3.7.2.2.5.3.9.3h.2l-.2.5h-.4c-.4 0-.8.1-1.1.2-.3.2-.5.4-.7.6-.2.3-.2.6-.2.8 0 .3.1.5.2.7.1.2.2.4.4.5.2.1.3.2.5.3.2.1.5.1.9.1.7 0 1.3-.2 1.7-.5s.6-.7.6-1.2c0-.3-.1-.5-.2-.6-.2-.2-.4-.2-.6-.2-.1 0-.2 0-.3.1-.1 0-.2.1-.2.1-.1 0-.1.1-.1.1 0 .1-.1.1-.1.2l-.2.4h-.2l.1-1 .2-.2c.1-.1.2-.1.3-.1.1 0 .3-.1.6-.1.1 0 .4-.1.7-.1.5-.1.9-.1 1.1-.2.2-.1.4-.2.5-.3.1-.1.1-.3.1-.4 0-.1 0-.2-.1-.3 0-.1-.1-.1-.3-.2l.1-.3zM58.6 55.1v-.3l.6-.2c.1-.2.1-.5.2-1 0-.2.2-.9.4-2.1.2-1.2.4-2.1.4-2.6v-.2c0-.1 0-.2-.1-.2s-.3-.1-.8-.1v-.3h4.5c-.1.3-.1.8-.2 1.5h-.2c0-.5-.1-.8-.1-.8v-.1s-.1 0-.1-.1c-.1 0-.2 0-.4-.1h-1.9c-.1.6-.3 1.5-.5 2.7h.9c.4 0 1 0 1.6-.1l-.2.5h-2.5l-.1 2.4c0 .2-.1.4-.1.6.5 0 .9.1 1.3.1.8 0 1.3 0 1.5-.1.1 0 .1-.1.2-.1 0-.1.1-.4.3-1h.3c-.1.3-.1.5-.1.7 0 0 0 .3-.1.9h-3.3c-.7-.1-1.2-.1-1.5 0zM65 55.1c.1-.8.3-1.6.5-2.6.2-.7.2-1.2.2-1.4V51h-.1-.1c-.1 0-.2.1-.3.1l-.4.3-.1-.2.5-.3.6-.3c.2-.1.3-.2.4-.2h.1c.1 0 .1 0 .2.1 0 .1.1.1.1.2v.2c0 .1-.1.4-.2.8l-.4.9c.3-.5.6-.9 1-1.2.4-.4.8-.6 1.2-.8.3-.1.5-.2.7-.2.1 0 .2 0 .2.1.1.1.1.1.1.2 0 .2-.1.8-.3 1.6-.3 1.2-.5 1.8-.5 2v.1h.1s.1 0 .2-.1c.2-.1.4-.3.6-.4l.1.2c-.3.2-.5.4-.7.5-.3.2-.6.3-.7.4h-.2c-.1 0-.2 0-.2-.1-.1-.1-.1-.2-.1-.3v-.4c0-.2.2-.8.4-1.5.2-.9.4-1.5.4-1.7v-.2l-.1-.1c-.1 0-.2 0-.4.1-.3.1-.5.3-.8.6-.3.3-.5.6-.7.9-.2.3-.3.7-.5 1.2 0 .2-.1.6-.2 1.1-.2.4-.4.5-.6.5zM70.1 51.6l.4-1.2c.1 0 .3-.1.4-.1h.4c.4 0 .7.1.8.1.2 0 .4 0 .5-.1l.1.1c-.3.4-.5.6-.5.7-.2.3-.3.6-.5.8-.1.3-.2.5-.3.8-.1.3-.1.5-.1.7 0 .4.1.6.2.8.1.2.3.3.6.3s.5-.1.7-.3c.3-.3.6-.7.8-1.3.2-.6.3-1 .3-1.4 0-.2 0-.4-.1-.5-.1-.1-.2-.1-.3-.1-.1 0-.2 0-.3.1l-.1-.2.2-.2.3-.3h.2c.1 0 .2 0 .4.1l.3.3c.1.1.1.3.1.5 0 .3-.1.6-.2 1-.1.3-.3.7-.5 1-.2.3-.4.7-.6.9-.3.3-.6.6-.9.8-.3.2-.5.2-.7.2-.2 0-.4-.1-.5-.2s-.3-.3-.4-.5c-.1-.2-.1-.4-.1-.7 0-.5.1-.9.3-1.4.2-.5.6-1 1.2-1.6h-.9c-.2 0-.4 0-.6.1-.1.1-.2.3-.3.6l-.3.2zM75.3 51.4l-.1-.2c.6-.4 1-.6 1.2-.7.2-.1.3-.1.5-.1.1 0 .1 0 .1.1s.1.2.1.3v.2c0 .2-.1.6-.3 1.1-.4 1.3-.5 2.1-.5 2.3v.1h.1c.1 0 .1 0 .2-.1.1 0 .3-.2.5-.4l.1.2c-.5.4-.9.7-1.2.8-.1.1-.2.1-.3.1-.1 0-.2 0-.2-.1-.1-.1-.1-.2-.1-.3v-.3c0-.1.1-.4.2-.7.4-1.4.6-2.2.6-2.5v-.1h-.1-.1c-.1 0-.3.1-.7.3zm1.3-2.7c0-.2.1-.3.2-.5.1-.1.2-.2.4-.2.1 0 .2 0 .3.1.1.1.1.2.1.3 0 .2 0 .3-.1.5-.1.1-.2.2-.4.2-.1 0-.2 0-.3-.1-.2-.1-.2-.2-.2-.3zM78.2 55.2c.1-.6.2-1.1.3-1.4.2-.7.3-1.3.4-1.9 0-.3.1-.5.1-.7V51h-.1c-.1 0-.4.2-.8.5l-.1-.2c.4-.4.8-.6 1.2-.8.2-.1.4-.2.5-.2.1 0 .1 0 .1.1 0 0 .1.1.1.2s0 .2-.1.5c-.1.4-.2.9-.3 1.4.3-.6.7-1.1 1-1.5.2-.3.4-.4.5-.5.1-.1.2-.1.3-.1.1 0 .1 0 .2.1-.1.3-.1.6-.2 1.1h-.1c-.1-.1-.2-.2-.3-.2-.1 0-.2 0-.4.1s-.4.4-.7.7c-.2.3-.4.8-.6 1.3-.1.3-.2.8-.4 1.6-.2 0-.4 0-.6.1zM81.5 53.7c0-.4 0-.8.1-1.1.1-.4.2-.7.4-.9.1-.3.3-.5.6-.7.2-.2.5-.4.7-.5.3-.1.5-.2.8-.2.2 0 .5.1.7.2.2.1.4.3.5.5.1.2.2.5.2.9 0 .5-.1 1-.3 1.5-.2.4-.3.7-.5 1-.2.2-.5.5-.8.6-.3.2-.6.3-1 .3s-.7-.1-.9-.4c-.3-.3-.5-.7-.5-1.2zm.8-.1c0 .3 0 .6.1.7.1.2.2.3.3.4.1.1.3.1.5.1s.4-.1.6-.2c.2-.1.3-.3.5-.6s.3-.6.3-1c.1-.4.1-.8.1-1.1 0-.4-.1-.7-.2-.9-.2-.2-.4-.3-.7-.3-.5 0-.8.3-1.1.8-.3.6-.4 1.3-.4 2.1zM86.5 55.1c.1-.8.3-1.6.5-2.6.2-.7.2-1.2.2-1.4V51h-.1-.1c-.1 0-.2.1-.3.1l-.4.3-.1-.2.5-.3.6-.3c.2-.1.3-.2.4-.2h.1c.1 0 .1 0 .2.1 0 .1.1.1.1.2v.2c0 .1-.1.4-.2.8l-.2.9c.3-.5.6-.9 1-1.2.4-.4.8-.6 1.2-.8.3-.1.5-.2.7-.2.1 0 .2 0 .2.1.1.1.1.1.1.2 0 .2-.1.8-.3 1.6-.3 1.2-.5 1.8-.5 2v.1h.1s.1 0 .2-.1c.2-.1.4-.3.6-.4l.1.2c-.3.2-.5.4-.7.5-.3.2-.6.3-.7.4h-.2c-.1 0-.2 0-.2-.1-.2.1-.3 0-.3-.1v-.4c0-.2.2-.8.4-1.5.2-.9.4-1.5.4-1.7V51l-.1-.1c-.1 0-.2 0-.4.1-.3.1-.5.3-.8.6-.3.3-.5.6-.7.9-.2.3-.3.7-.5 1.2 0 .2-.1.6-.2 1.1-.2.2-.4.3-.6.3zM92 55.1l.2-1.1c.1-.4.2-.8.2-1.2.1-.5.2-.9.3-1.3v-.4-.2l-.1-.1s-.1 0-.2.1l-.6.3-.1-.2c.1-.1.4-.3.6-.5.3-.2.5-.3.7-.4h.2s.1 0 .2.1c0 0 .1.1.1.2v.3s-.1.5-.3 1.4c.3-.4.6-.8.8-1 .4-.4.7-.6 1.1-.8.2-.1.5-.2.7-.2.1 0 .1 0 .2.1 0 0 .1.1.1.2s0 .3-.1.5c0 .1-.1.6-.3 1.3.3-.5.7-.8 1-1.1.3-.3.7-.5 1.1-.7.3-.1.5-.2.6-.2.1 0 .1 0 .2.1 0 0 .1.1.1.2s0 .2-.1.5-.2.9-.4 1.7c-.2.9-.4 1.5-.4 1.6v.1l.1.1h.1c.1 0 .2-.1.3-.2l.4-.3.1.2c-.1.1-.4.3-.6.5-.3.2-.5.3-.7.4h-.2c-.1 0-.1 0-.2-.1s-.1-.2-.1-.3v-.3c0-.1.1-.2.1-.5.1-.3.2-.7.3-1.4.1-.5.2-.9.3-1.1.1-.2.1-.4.1-.4v-.1h-.1c-.1 0-.2.1-.4.2s-.4.3-.7.5c-.3.2-.5.5-.6.7-.2.3-.3.6-.4.9-.1.4-.3.9-.5 1.7-.2 0-.4.1-.6.1l-.1-.1c.1-.5.3-1.1.4-1.8.1-.6.3-1.2.3-1.5.1-.3.1-.5.1-.6v-.2h-.1c-.1 0-.2 0-.3.1-.2.1-.4.3-.7.5-.2.2-.4.5-.6.8-.2.3-.3.6-.4 1-.1.4-.2.9-.4 1.6-.4.2-.6.3-.7.3zM102.4 54l.1.2c-.4.3-.7.6-1.1.8-.4.2-.7.3-.9.3-.2 0-.3 0-.5-.1s-.3-.2-.4-.4c-.1-.2-.2-.4-.2-.8s.1-.8.2-1.2c.1-.4.2-.8.4-1 .1-.2.3-.4.5-.6l.9-.6c.2-.1.5-.2.7-.2.2 0 .4.1.6.2.2.1.2.3.2.5s0 .3-.1.5-.2.3-.3.4c-.2.2-.4.3-.7.5-.3.1-.6.3-1 .4l-.6.2c-.1.3-.1.6-.1.8 0 .3.1.6.2.7.1.2.3.2.5.2s.4 0 .6-.1c.3-.2.6-.4 1-.7zm-2.2-1.3c.4-.1.8-.2 1.1-.3.3-.1.5-.3.7-.5.1-.2.2-.4.2-.6 0-.2 0-.3-.1-.4-.1-.1-.2-.1-.3-.1-.2 0-.4.1-.6.2-.2.1-.3.3-.5.5-.2.1-.3.5-.5 1.2zM103.7 55.1c.1-.8.3-1.6.5-2.6.2-.7.2-1.2.2-1.4V51h-.1-.1c-.1 0-.2.1-.3.1l-.4.3-.1-.2.5-.3.6-.3c.2-.1.3-.2.4-.2h.1c.1 0 .1 0 .2.1 0 .1.1.1.1.2v.2c0 .1-.1.4-.2.8l-.2.9c.3-.5.6-.9 1-1.2.4-.4.8-.6 1.2-.8.3-.1.5-.2.7-.2.1 0 .2 0 .2.1.1.1.1.1.1.2 0 .2-.1.8-.3 1.6-.3 1.2-.5 1.8-.5 2v.1h.1s.1 0 .2-.1c.2-.1.4-.3.6-.4l.1.2c-.3.2-.5.4-.7.5-.3.2-.6.3-.7.4h-.2c-.1 0-.2 0-.2-.1-.1-.1-.1-.2-.1-.3v-.4c0-.2.2-.8.4-1.5.2-.9.4-1.5.4-1.7v-.2l-.1-.1c-.1 0-.2 0-.4.1-.3.1-.5.3-.8.6-.3.3-.5.6-.7.9-.2.3-.3.7-.5 1.2 0 .2-.1.6-.2 1.1-.4.4-.6.5-.8.5zM111.2 53.9l.1.2c-.3.2-.6.5-.9.7-.3.2-.5.3-.6.4h-.2c-.1 0-.2 0-.2-.1-.1-.1-.1-.2-.1-.4v-.3c0-.1 0-.2.1-.4l.2-1c.1-.4.2-1 .3-1.8h-.8v-.1c.3-.1.4-.2.5-.2.1 0 .2-.1.3-.2.1-.3.1-.4.1-.6 0-.1.1-.5.2-1.1l.4-.2.3-.2.1.1c-.1.5-.2.8-.2.8 0 .1-.1.5-.2 1.2h.4c.3 0 .6 0 .7-.1l-.1.5h-1.1c-.1.3-.2.7-.3 1.4-.1.7-.2 1.1-.2 1.4v.3c0 .1 0 .1.1.2l.1.1h.1c.1 0 .2-.1.4-.2l.5-.4zM48.2 65.2v-.4h3.3v.4c-.4 0-.6 0-.7.1-.1 0-.1.1-.1.2-.1.2-.1.7-.1 1.5v3c0 .3.1.6.3.8.1.2.3.4.6.5.3.1.6.2 1.1.2.5 0 .9-.1 1.2-.3.3-.2.5-.4.6-.7.1-.3.2-.8.2-1.6V68v-1.7c0-.5 0-.7-.1-.8 0-.1-.1-.1-.1-.1-.1-.1-.4-.1-.8-.1v-.4h2.5v.4c-.3 0-.5 0-.6.1 0 0-.1.1-.1.2s-.1.4-.1 1.1v2.8c0 .3 0 .7-.1 1 0 .3-.1.6-.3.9-.1.2-.3.5-.6.7-.3.2-.6.3-.9.4-.4.1-.8.2-1.2.2-.5 0-1.1-.1-1.5-.2-.3-.1-.6-.3-.8-.4-.2-.2-.4-.4-.5-.6-.1-.2-.2-.4-.2-.6v-3.4-1.4c0-.2 0-.3-.1-.3l-.1-.1-.8-.5zM56.9 71.8c.4 0 .7 0 .7-.1 0 0 .1 0 .1-.1 0 0 0-.1.1-.2 0-.1 0-.5.1-1v-4.5-.5c0-.1 0-.1-.1-.2 0 0-.1-.1-.2-.1s-.3 0-.7-.1v-.5h2.3c.7 1 1.6 2.1 2.7 3.3.8.9 1.4 1.6 1.9 2.1V69c0-1.9 0-3.1-.1-3.4 0-.1 0-.2-.1-.3-.1-.1-.4-.1-.8-.1v-.5H65.4v.5c-.4 0-.7 0-.8.1l-.1.1c-.1.2-.1.6-.1 1.2V68c0 2.4 0 3.8.1 4.3h-.1c-.3-.1-.6-.1-.9-.1-1.2-1.3-2.8-3.2-4.9-5.8v4.4c0 .4 0 .7.1.8 0 0 0 .1.1.1 0 0 .1 0 .2.1h.6v.4H57v-.4zM69.6 64.8v.5H69c-.1 0-.1 0-.1.1 0 0 0 .1-.1.1 0 .1 0 .2-.1.3v5.1c0 .4 0 .6.1.7 0 0 0 .1.1.1 0 0 .1 0 .2.1h.6v.5h-3.4v-.5h.6c.1 0 .1 0 .2-.1 0 0 0-.1.1-.1v-.5V67.7v-1.4c0-.5 0-.7-.1-.9 0 0 0-.1-.1-.1 0 0-.1 0-.1-.1h-.7v-.5h1.6c.6.1 1.2.1 1.8.1zM73.9 72.3c-.3-.8-.6-1.5-.9-2.1l-.8-1.8c-.6-1.4-1-2.3-1.1-2.6-.1-.3-.2-.4-.3-.5-.1-.1-.3-.1-.7-.1v-.5h3.5v.5c-.3 0-.5 0-.7.1-.1 0-.1 0-.2.1v.1c0 .1.1.4.4 1 .1.3.2.5.2.5v.1l1.4 3.3 1.2-3c0-.1.2-.4.4-1 .2-.4.3-.7.3-.9v-.1-.1s0-.1-.1-.1h-.8v-.5H78.3v.5c-.3 0-.5.1-.6.1-.1.1-.3.5-.6 1.2l-.4.9-.7 1.8c-.6 1.5-1 2.5-1.3 3.1h-.8zM79.1 72.3V72c.2-.1.4-.2.5-.3 0-.2 0-.4.1-.7v-3.7-1c0-.4 0-.7-.1-.7 0 0 0-.1-.1-.1s-.4-.1-.8-.1V65h5.6v.1l-.1.8c0 .1 0 .3-.1.8h-.4v-.8s0-.1-.1-.1c0 0-.2-.1-.4-.1-.4 0-.7-.1-1-.1h-1c0 .4-.1.9-.1 1.6v1.1h2l.1-.1c0-.1.1-.4.1-.7h.4v2.4h-.4c0-.4 0-.7-.1-.8 0-.1-.1-.1-.2-.1-.3 0-.6-.1-1-.1h-.9v2.9h2.1c.3 0 .5-.1.6-.1l.1-.1c.1-.2.1-.5.2-1h.4c-.1.7-.1 1.3-.1 1.8l-.1.1h-3.7c.2-.3-.4-.3-1.5-.2zM85.6 65.2v-.4h4c.6 0 1 0 1.3.1.3.1.5.2.7.5.2.3.3.6.3.9 0 .4-.1.8-.4 1.2-.3.4-.7.6-1.2.8.1.2.2.3.3.5.1.2.2.3.2.3s0 .1.1.1l.8 1.2c.1.4.3.6.3.6.3.4.4.6.5.6.1.1.1.1.2.1h.3v.5h-2.1c0-.1-.1-.2-.1-.3L89.7 70c-.3-.5-.6-1-.8-1.3-.1-.2-.2-.3-.3-.4l.1-.2c.4 0 .8 0 1-.1.2-.1.4-.3.6-.5s.2-.6.2-.9c0-.3-.1-.6-.2-.8-.2-.2-.4-.4-.6-.5-.2-.1-.4-.1-.8-.1h-.5V71.1c0 .2 0 .3.1.4 0 0 0 .1.1.1 0 0 .1 0 .2.1h.6v.5h-3.5v-.5c.4 0 .6 0 .7-.1 0 0 .1 0 .1-.1v-.2c0-.1 0-.4.1-.6V66c0-.4 0-.7-.1-.8 0 0 0-.1-.1-.1-.3.2-.5.1-1 .1zM98.7 66.7h-.5c0-.4 0-.7-.1-.9-.1-.2-.3-.3-.6-.4-.3-.1-.6-.2-.9-.2-.5 0-.9.1-1.1.4-.3.2-.4.5-.4.9 0 .2 0 .4.1.6.1.1.2.3.3.3.1.1.3.2.6.2.2 0 .5.1.9.2s.6.1.7.1c.3.1.5.2.7.3.2.1.3.2.4.4.1.1.2.3.3.5.1.2.1.4.1.7 0 .5-.1.9-.3 1.2-.1.3-.3.5-.6.7s-.5.4-.8.5c-.4.2-.9.3-1.5.3-.4 0-.8 0-1.2-.1-.3-.1-.7-.2-1.1-.4.1-.4.2-1 .2-1.9h.5c0 .3 0 .6.1 1 .1.2.4.4.7.6.3.2.7.3 1.1.3.3 0 .6-.1.9-.2.3-.1.5-.3.6-.5.1-.2.2-.5.2-.7 0-.2 0-.4-.1-.6-.1-.2-.2-.3-.4-.4-.2-.1-.5-.2-.9-.3-.6-.1-1.1-.2-1.3-.3-.3-.1-.6-.2-.7-.4-.2-.2-.3-.4-.4-.6-.1-.2-.1-.5-.1-.8 0-.4.1-.8.3-1.1.2-.3.4-.6.7-.8.3-.2.6-.3.9-.4.3-.1.7-.1 1.1-.1.4 0 .7 0 1.1.1.4.1.7.2.9.3v.1c-.1.2-.1.5-.1.7-.3.1-.3.3-.3.7zM103.6 64.8v.5h-.6c-.1 0-.1 0-.1.1 0 0 0 .1-.1.1 0 .1 0 .2-.1.3v5.1c0 .4 0 .6.1.7 0 0 0 .1.1.1 0 0 .1 0 .2.1h.6v.5h-3.4v-.5h.6c.1 0 .1 0 .2-.1 0 0 0-.1.1-.1v-.5V67.7v-1.4c0-.5 0-.7-.1-.9 0 0 0-.1-.1-.1 0 0-.1 0-.1-.1h-.7v-.5h1.6c.6.1 1.2.1 1.8.1zM105.9 72.3v-.4c.4 0 .7 0 .8-.1.1 0 .1-.1.2-.2 0-.2.1-.6.1-1.4V67v-1.5h-2s0 .1-.1.2c0 .3-.1.5-.1.8h-.4v-1.2c0-.2 0-.3-.1-.5v-.1h6.8l.1.1c0 .2-.1.4-.1.6v1.2h-.4c0-.3 0-.5-.1-.8 0-.1 0-.2-.1-.2h-2.1v4.7c0 .8 0 1.2.1 1.4 0 .1.1.2.2.2s.3.1.8.1v.4h-1.8c-.6-.2-1.2-.2-1.8-.1zM115.6 68.3l.7-1.1c.1-.2.5-.8 1-1.8.2-.3.3-.6.4-.7h.9v.3c-.4.6-.9 1.3-1.4 2.1-.5.8-.8 1.3-.9 1.5-.1.2-.1.3-.2.4v2.3c0 .2.1.3.1.4 0 0 .1.1.2.1h.7v.5h-3.5v-.5h.7c.1 0 .1 0 .1-.1 0 0 0-.1.1-.3v-2c0-.1-.1-.3-.2-.5-.3-.6-.7-1.2-1.1-1.8-.3-.5-.6-.9-.9-1.2-.2-.2-.3-.3-.4-.3h-.5V65l1.1-.2c.2 0 .4-.1.6-.1.2.1.4.2.5.3.1.1.2.3.4.5.3.4.5.8.8 1.3.5.8.7 1.3.8 1.5zM121.4 70.7c0-.4.1-.9.2-1.4.1-.5.3-.8.5-1 .1-.1.3-.3.6-.5s.6-.4.9-.5c.3-.1.7-.2 1-.2.3 0 .6 0 .8.1.3.1.4.2.6.4.1.1.2.3.3.5.1.2.1.4.1.7 0 .5-.1.9-.2 1.4-.2.5-.3.8-.5 1.1-.1.2-.4.4-.7.6-.3.2-.6.4-.9.5-.3.1-.6.2-1 .2s-.8-.1-1-.2c-.2-.2-.4-.4-.5-.6-.1-.5-.2-.7-.2-1.1zm1.3 0c0 .4.1.8.2.9.2.2.4.3.7.3.2 0 .4 0 .5-.1.1-.1.3-.3.4-.5.1-.2.2-.5.3-.9.2-.6.2-1.1.2-1.6 0-.4-.1-.8-.3-.9-.2-.2-.4-.3-.7-.3-.3 0-.5.1-.7.3-.2.2-.4.6-.5 1.2 0 .6-.1 1.1-.1 1.6zM127.6 67.8v-.3c.1 0 .3-.1.5-.2s.4-.1.6-.2c0-.1 0-.1.1-.3.1-.3.1-.5.2-.6.1-.2.2-.4.4-.6.3-.3.7-.6 1-.8.4-.3.6-.4.8-.5.1-.1.3-.1.5-.1.1 0 .3 0 .4.1-.1.5-.2.9-.3 1.4h-.2c-.2-.2-.3-.4-.4-.5-.1-.1-.3-.1-.4-.1-.1 0-.2 0-.3.1l-.2.2c0 .1-.1.2-.1.4-.1.5-.2 1-.3 1.4H130.7c.2 0 .4 0 .5-.1l.1.1c-.1.2-.1.4-.2.6h-1.3l-.6 2.6c-.3 1.2-.5 2-.7 2.5-.2.5-.5 1-.8 1.4-.3.4-.7.7-1 .9-.2.1-.4.1-.5.1-.1 0-.3 0-.4-.1.1-.3.2-.5.2-.6 0-.2.1-.3.1-.5h.2c.1.2.2.3.2.4.1.1.2.1.3.1.1 0 .2 0 .3-.1.1-.1.2-.2.2-.4.1-.3.3-1.1.5-2.2l.8-4h-.7c-.2-.1-.3-.1-.3-.1zM139.3 69.7h-.5c0-.4 0-.7-.1-.8 0 0-.1-.1-.2-.1-.3 0-.7-.1-1.3-.1h-.4v2.4c0 .3 0 .5.1.6l.1.1c.1 0 .3.1.8.1v.4h-3.5v-.4h.7s.1 0 .1-.1c0 0 .1-.1.1-.3v-.8-3.1-1.5c0-.3 0-.5-.1-.6 0 0 0-.1-.1-.1 0 0-.1 0-.2-.1-.1 0-.3 0-.6-.1v-.5h4.5c.4 0 .7 0 1 .1v.1c0 .2-.1.5-.1.8v.8h-.4v-.6-.3-.1c-.1 0-.2-.1-.4-.1s-.5-.1-.8-.1h-1.1c0 .4-.1 1-.1 1.9v.7h.9c.5 0 .8 0 .9-.1l.1-.1c0-.1.1-.3.1-.6h.5v2.6zM140.9 72.3V72c.1 0 .2-.1.4-.2.1 0 .1-.1.1-.1v-.1-1-2-2.1c0-.7 0-1.1-.1-1.2 0 0 0-.1-.1-.1-.1-.1-.4-.1-.8-.1v-.5h3.5v.5c-.4 0-.7.1-.7.1l-.1.1s0 .3-.1.7v5.5h1c.5 0 1 0 1.4-.1.1 0 .2 0 .3-.1 0 0 .1-.1.1-.2.1-.3.1-.6.2-.9h.4v.2l-.1 1.1v.6c-.1 0-.2 0-.3.1h-3.5c-.3 0-.8 0-1.6.1zM147.1 68.6c0-.7.1-1.2.3-1.7.2-.5.5-.9.9-1.2.4-.3.8-.6 1.2-.7.6-.2 1.2-.3 1.8-.3.7 0 1.2.1 1.8.3.4.1.7.3 1 .6.3.3.5.5.7.8.2.3.3.6.4.9.1.3.1.7.1 1.1 0 .7-.1 1.3-.3 1.9-.2.4-.4.8-.8 1.1-.3.3-.7.6-1.1.8-.6.2-1.2.4-2 .4s-1.5-.1-2.1-.4c-.6-.3-1-.7-1.4-1.3-.4-.7-.5-1.5-.5-2.3zm1.6-.3c0 .8.1 1.5.3 2.1.2.5.5.9.9 1.2s.8.3 1.3.3.9-.1 1.2-.3c.4-.2.6-.6.8-1.1.2-.5.3-1.1.3-1.9 0-.5-.1-1-.2-1.4-.1-.4-.3-.8-.5-1.1s-.4-.5-.7-.7c-.3-.2-.6-.2-1.1-.2-.5 0-1 .1-1.3.4-.4.2-.6.6-.8 1.1-.1.5-.2 1-.2 1.6zM155.4 65.2v-.4h4c.6 0 1 0 1.3.1.3.1.5.2.7.5.2.3.3.6.3.9 0 .4-.1.8-.4 1.2-.3.4-.7.6-1.2.8.1.2.2.3.3.5.1.2.2.3.2.3s0 .1.1.1l.8 1.2c.2.3.3.5.4.5.3.4.4.6.5.6.1.1.1.1.2.1h.3v.5h-2.1c0-.1-.1-.2-.1-.3l-1.1-1.9c-.3-.5-.6-1-.8-1.3-.1-.2-.2-.3-.3-.4l.1-.2c.4 0 .8 0 1-.1.2-.1.4-.3.6-.5s.2-.6.2-.9c0-.3-.1-.6-.2-.8-.2-.2-.4-.4-.6-.5-.2-.1-.4-.1-.8-.1h-.5V71c0 .2 0 .3.1.4 0 0 0 .1.1.1 0 0 .1 0 .2.1h.6v.5h-3.5v-.5c.4 0 .6 0 .7-.1 0 0 .1 0 .1-.1v-.2c0-.1 0-.4.1-.6v-4.7c0-.4 0-.7-.1-.8 0 0 0-.1-.1-.1-.4.3-.6.2-1.1.2zM166.9 64.8v.5h-.6c-.1 0-.1 0-.1.1 0 0 0 .1-.1.1 0 .1 0 .2-.1.3v5.1c0 .4 0 .6.1.7 0 0 0 .1.1.1 0 0 .1 0 .2.1h.6v.5h-3.4v-.5h.6c.1 0 .1 0 .2-.1 0 0 0-.1.1-.1v-.5V67.7v-1.4c0-.5 0-.7-.1-.9 0 0 0-.1-.1-.1 0 0-.1 0-.1-.1h-.7v-.5h1.6c.6.1 1.2.1 1.8.1zM167.9 72.3V72s.1 0 .1-.1c.1-.1.3-.2.4-.2 0-.5.1-1.3.1-2.3v-.9-2.1c0-.5 0-.8-.1-1v-.1s-.1 0-.1-.1c-.1 0-.3 0-.7-.1v-.4H171.9c.6 0 1.1 0 1.5.1.4.1.7.2 1 .4.3.2.5.4.7.6.2.2.3.5.4.8.2.5.3.9.3 1.5 0 .7-.1 1.3-.4 1.8-.3.5-.6 1-1 1.3-.4.4-.9.6-1.4.8-.5.2-1.1.2-1.9.2h-1.6l-1.6.1zm2.2-.7c.3.1.7.1 1 .1.5 0 .9 0 1.3-.2.3-.1.5-.2.7-.3.2-.1.4-.4.6-.6.2-.3.3-.6.4-1 .1-.4.2-.8.2-1.3 0-.4-.1-.8-.2-1.2-.1-.4-.3-.7-.5-1-.2-.3-.5-.5-.9-.6-.4-.1-.9-.2-1.6-.2-.3 0-.6 0-.9.1 0 .5-.1 1.5-.1 2.9v1.2c-.1 1.1-.1 1.8 0 2.1zM175.3 72.3v-.4c.3 0 .5 0 .5-.1.1 0 .1 0 .1-.1 0 0 .1-.1.1-.2s.2-.3.4-.8c.1-.2.3-.7.5-1.3l1.4-3.5.5-1.2h.8l2.4 5.6.3.7.2.5c0 .1.1.1.1.1l.1.1h.5v.4h-3.4v-.4c.4 0 .7 0 .7-.1.1 0 .1-.1.1-.2s0-.2-.1-.4l-.5-1.2h-2.8l-.2.6c-.2.5-.3.8-.3.9 0 .1 0 .1.1.2.1 0 .3.1.8.1v.4h-1.2l-1.1.3zm2.4-2.9h2.2l-1.1-2.8-1.1 2.8zM108 1.4h.6c.2.5.3.9.5 1.3.7 1.8 1.1 2.9 1.3 3.3l.8 2 .8-3.1c.3-1.2.5-2 .5-2.2v-.2c0-.1 0-.2-.1-.2 0-.1-.1-.1-.2-.1 0 0-.3 0-.9-.1v-.6h3.1v.6h-.2c-.3 0-.5 0-.5.1-.1 0-.1.1-.2.2s-.2.6-.5 1.4c-.3.8-.6 2.2-1.1 4.1-.5 1.9-.8 3-.8 3.3h-1l-.7-2-1.9-4.7c-.2.4-.9 2.1-2.1 4.9l-.7 1.8h-1l-1.6-7.3c-.2-.8-.3-1.3-.4-1.4 0-.1-.1-.2-.2-.2-.1-.1-.3-.1-.7-.1v-.7h4.1v.6h-.7c-.1 0-.2.1-.3.1-.1.1-.1.1-.1.2v.2c0 .1.1.3.1.8.2.9.3 1.5.4 1.9l.6 2.8c0-.1.2-.6.6-1.4l.9-2 1.1-2.6c.3-.2.4-.5.5-.7zM119.8 10l-.3.7c-.4.2-.8.4-1.2.5-.3.1-.6.1-1 .1-.5 0-.8-.1-1.2-.2-.3-.1-.6-.2-.9-.4-.2-.2-.5-.4-.6-.7-.2-.3-.3-.6-.4-.9-.1-.3-.1-.7-.1-1.1 0-.6.1-1.1.2-1.6.1-.3.2-.6.4-.7.1-.1.3-.3.7-.5.4-.3.7-.4.8-.5.3-.1.7-.2 1.1-.2.6 0 1.1.1 1.5.4.4.3.7.6.8 1 .2.4.2.9.2 1.4v.4c-.1 0-.3.1-.5.1-.3.1-.5.1-.6.1h-3c0 .7.3 1.3.7 1.7.4.4.9.6 1.5.6.3 0 .5 0 .7-.1.2-.1.5-.2.9-.4l.3.3zm-1.6-2.8c0-.7-.1-1.2-.3-1.5-.2-.3-.5-.4-.8-.4-.4 0-.6.1-.9.4-.2.3-.3.8-.3 1.5.3 0 .7.1 1.3.1.4-.1.7-.1 1-.1zM124.7 10.5v.5H120.8v-.5c.4 0 .6 0 .7-.1.1 0 .1-.1.1-.1 0-.1.1-.3.1-.5v-.6-1.5-1.5c0-.3 0-.5-.1-.5l-.1-.1c-.1 0-.3-.1-.8-.1v-.4c.8-.1 1.4-.2 1.6-.3l.9-.3.2.1V6c.3-.3.5-.6.7-.8.2-.3.4-.5.5-.5.2-.1.4-.2.6-.2.2 0 .3 0 .5.1v1.9l-.3.1c-.1-.2-.2-.3-.3-.3-.2-.1-.4-.1-.6-.1-.3 0-.5.1-.7.2-.2.2-.3.3-.3.5v3.4c0 .1.1.1.1.2.1 0 .2.1.5.1l.6-.1zM125.9 5.9v-.4l.6-.4c.1-.1.2-.1.3-.2V4c0-.3 0-.7-.1-1.2.4-.1.7-.2.9-.3 0 0 .3-.1.9-.4l.2.1-.1.8v.8l-.1 1.2h.2c.6 0 1.1 0 1.4-.1l-.1.9H128.4v3.5c0 .2.1.4.2.5.1.1.3.2.6.2h.4c.1 0 .2 0 .4-.1l.1.3-.2.2-.5.5c-.2.1-.3.1-.5.2h-.4c-.5 0-.9-.1-1.3-.4-.3-.3-.5-.6-.5-1V5.8h-.2c-.1 0-.3 0-.6.1zM138.3 10.5v.5h-2.7l-.1-.1.1-1.4V7.3c0-.6-.1-1.1-.3-1.3-.2-.2-.5-.4-.9-.4-.3 0-.5.1-.7.2-.2.1-.4.3-.5.6 0 .1-.1.3-.1.6v3.3c0 .1 0 .1.1.1l.1.1c.1 0 .2.1.3.1h.5v.5h-3.8v-.5c.4 0 .6 0 .7-.1.1 0 .1 0 .2-.1l.1-.1c0-.1.1-.6.1-1.3V4.8c0-.7 0-1.4-.1-2 0-.3 0-.5-.1-.5 0 0 0-.1-.1-.1 0 0-.1-.1-.3-.1h-.6v-.5c.6-.1 1.1-.1 1.4-.2.3-.1.7-.2 1.2-.4l.2.1-.1 1.6v3l1.2-1c.3-.1.6-.2 1-.2s.7.1 1 .2c.3.1.5.3.7.5.2.2.3.4.3.6.1.2.1.5.1.9v3.7c0 .1.1.2.2.2.3-.1.5-.1.9-.1zM144.9 10l-.3.7c-.4.2-.8.4-1.2.5-.3.1-.6.1-1 .1-.5 0-.8-.1-1.2-.2-.3-.1-.6-.2-.9-.4-.2-.2-.5-.4-.6-.7-.2-.3-.3-.6-.4-.9-.1-.3-.1-.7-.1-1.1 0-.6.1-1.1.2-1.6.1-.3.2-.6.4-.7.1-.1.3-.3.7-.5.4-.3.7-.4.8-.5.3-.1.7-.2 1.1-.2.6 0 1.1.1 1.5.4.4.3.7.6.8 1 .2.4.2.9.2 1.4v.4c-.1 0-.3.1-.5.1-.3.1-.5.1-.6.1H141c0 .7.3 1.3.7 1.7.4.4.9.6 1.5.6.3 0 .5 0 .7-.1.2-.1.5-.2.9-.4l.1.3zm-1.6-2.8c0-.7-.1-1.2-.3-1.5-.2-.3-.5-.4-.8-.4-.4 0-.6.1-.9.4-.2.3-.3.8-.3 1.5.3 0 .7.1 1.3.1.4-.1.7-.1 1-.1zM145.9 11.1v-.5c.5 0 .8-.1.9-.1.1 0 .1-.1.1-.2 0-.3.1-.9.1-1.9 0-1.4 0-2.2-.1-2.4 0-.1 0-.2-.1-.2-.1-.1-.4-.1-.9-.1V5c.7-.1 1.2-.1 1.6-.2.4-.1.7-.2 1.1-.4l.2.1c-.1.7-.1 1.4-.1 2v2.3c0 .8 0 1.3.1 1.4 0 .1.1.1.1.2.1.1.4.1.9.1v.5h-2.1c-.7 0-1.3 0-1.8.1zm1.9-9.9c.3 0 .5.1.7.3.2.2.3.5.3.7 0 .3-.1.5-.3.7-.2.2-.4.3-.7.3-.3 0-.5-.1-.7-.3-.2-.2-.3-.5-.3-.7 0-.3.1-.5.3-.7.1-.2.4-.3.7-.3zM150.4 11.1v-.5c.4 0 .6 0 .7-.1.1 0 .1-.1.1-.1 0-.1.1-.3.1-.5v-.6-1.6-1.5c0-.3 0-.5-.1-.5l-.1-.1c-.1 0-.3-.1-.8-.1v-.4c.8-.1 1.4-.2 1.6-.3l.9-.3.2.1v1.1l1.2-1c.1-.1.3-.1.4-.1h.4c.5 0 1 .1 1.2.3.3.2.5.5.7.9l1.2-1c.1-.1.3-.1.4-.1h.4c.5 0 .8.1 1.1.2.2.1.5.3.6.5.2.2.3.4.3.6.1.2.1.6.1 1v3.3c0 .2.1.3.1.4.1.1.2.1.4.1h.4v.5h-2.7l-.1-.1.1-1.2V7.9c0-.8 0-1.3-.1-1.5-.1-.2-.2-.4-.4-.5-.2-.1-.4-.2-.6-.2-.3 0-.5.1-.7.2-.2.1-.3.3-.4.4 0 .1-.1.4-.1.7v3.3c0 .1.1.1.1.1s.1 0 .3.1c.3 0 .4.1.6.1v.5h-3.7v-.5h.3c.2 0 .3 0 .4-.1.1 0 .1-.1.1-.2V7.4c0-.5 0-.8-.1-1-.1-.2-.2-.4-.3-.5-.2-.1-.4-.2-.7-.2-.3 0-.6.1-.8.2-.2.2-.3.3-.4.5V10.1c0 .2 0 .3.1.3 0 0 .1.1.2.1s.3 0 .6.1v.5h-1.8c-.4-.1-1-.1-1.4 0z"/>
</symbol>
</svg>
