<?xml version="1.0" encoding="utf-8"?>
<!-- Generator: Adobe Illustrator 19.0.0, SVG Export Plug-In . SVG Version: 6.00 Build 0)  -->
<!DOCTYPE svg PUBLIC "-//W3C//DTD SVG 1.1//EN" "http://www.w3.org/Graphics/SVG/1.1/DTD/svg11.dtd">
<svg version="1.1" id="Layer_1" xmlns="http://www.w3.org/2000/svg" xmlns:xlink="http://www.w3.org/1999/xlink" x="0px" y="0px"
	 viewBox="0 0 149 149" enable-background="new 0 0 149 149" xml:space="preserve">
<g>
	<polyline fill="none" stroke="currentColor" stroke-width="2" stroke-miterlimit="10" points="25.6,107.4 20.7,132 46,127.8 	"/>
	<polyline fill="none" stroke="currentColor" stroke-width="2" stroke-miterlimit="10" points="125.8,47.7 46.1,127.4 43.8,119.4
		35.9,117.2 34.5,110.2 25.7,107 105.4,27.3 	"/>

		<rect x="105" y="28.8" transform="matrix(0.7071 0.7071 -0.7071 0.7071 58.8971 -74.6103)" fill="none" stroke="currentColor" stroke-width="2" stroke-miterlimit="10" width="29.1" height="9.9"/>
	<path fill="none" stroke="currentColor" stroke-width="2" stroke-miterlimit="10" d="M113.3,19.8l5.3-5.3c2.1-2.1,5.6-1.9,7.9,0.4
		L138.6,27c2.3,2.3,2.5,5.8,0.4,7.9l-5.3,5.3"/>
	<line fill="none" stroke="currentColor" stroke-width="2" stroke-miterlimit="10" x1="110.9" y1="33.3" x2="33.9" y2="110.3"/>
	<line fill="none" stroke="currentColor" stroke-width="2" stroke-miterlimit="10" x1="119.4" y1="41.7" x2="42.3" y2="118.8"/>
	<line fill="none" stroke="currentColor" stroke-width="2" stroke-miterlimit="10" x1="22.8" y1="124.2" x2="29.2" y2="130.5"/>
</g>
<path fill="none" stroke="currentColor" stroke-width="2" stroke-linecap="round" stroke-miterlimit="10" d="M7.3,104.2
	C3.2,95.2,1,85.1,1,74.5C1,33.9,33.9,1,74.5,1c7.6,0,15,1.2,21.9,3.3"/>
<path fill="none" stroke="currentColor" stroke-width="2" stroke-linecap="round" stroke-miterlimit="10" d="M146.7,60.9
	c0.8,4.4,1.3,9,1.3,13.6c0,40.6-32.9,73.5-73.5,73.5c-6.4,0-12.7-0.8-18.7-2.4"/>
</svg>
