<?xml version="1.0" encoding="utf-8"?>
<!-- Generator: Adobe Illustrator 19.0.0, SVG Export Plug-In . SVG Version: 6.00 Build 0)  -->
<!DOCTYPE svg PUBLIC "-//W3C//DTD SVG 1.1//EN" "http://www.w3.org/Graphics/SVG/1.1/DTD/svg11.dtd">
<svg version="1.1" id="Layer_3" xmlns="http://www.w3.org/2000/svg" xmlns:xlink="http://www.w3.org/1999/xlink" x="0px" y="0px"
	 viewBox="0 0 86 86" enable-background="new 0 0 86 86" xml:space="preserve">
<path fill="currentColor" d="M69,43c0,14.4-11.6,26-26,26c-14.4,0-26-11.6-26-26c0-1.7,0.2-3.4,0.5-5H0v34.6C0,80,6,86,13.4,86h59.1C80,86,86,80,86,72.6
	V38H68.5C68.8,39.6,69,41.3,69,43z M72.6,0H13.4C6,0,0,6,0,13.4V28h21.8c4.7-6.7,12.5-11,21.2-11c8.8,0,16.5,4.3,21.2,11H86V13.4
	C86,6,80,0,72.6,0z M79.1,16.6c0,1.3-1.1,2.4-2.4,2.4h-7.2c-1.3,0-2.4-1.1-2.4-2.4V9.4c0-1.3,1.1-2.4,2.4-2.4h7.2
	c1.3,0,2.4,1.1,2.4,2.4V16.6z M59,43c0-8.8-7.2-16-16-16c-8.8,0-16,7.2-16,16s7.2,16,16,16C51.8,59,59,51.8,59,43z"/>
</svg>
