<svg xmlns="http://www.w3.org/2000/svg" viewBox="0 0 253.8 241"><title>linkedin</title><g id="Layer_2" data-name="Layer 2"><g id="Layer_1-2" data-name="Layer 1"><path d="M191.16,74.56c-28.9,0-41.8,15.81-49,26.89V102h-.36a5.26,5.26,0,0,1,.36-.51V78.39H87.73c.72,15.24,0,162.61,0,162.61h54.4V150.16c0-4.84.35-9.69,1.8-13.17,3.93-9.71,12.86-19.78,27.92-19.78,19.66,0,27.55,14.91,27.55,36.78v87h54.4V147.76C253.8,97.8,226.95,74.56,191.16,74.56Z"/><rect x="3.22" y="78.39" width="54.42" height="162.61"/><path d="M30.77,0C12.17,0,0,12.14,0,28.08c0,15.61,11.82,28.1,30.07,28.1h.37c19,0,30.75-12.47,30.75-28.1C60.85,12.14,49.4,0,30.77,0Z"/></g></g></svg>