<?xml version="1.0" encoding="utf-8"?>
<!DOCTYPE svg PUBLIC "-//W3C//DTD SVG 1.1//EN" "http://www.w3.org/Graphics/SVG/1.1/DTD/svg11.dtd">
<svg version="1.1" id="Layer_1" xmlns="http://www.w3.org/2000/svg" xmlns:xlink="http://www.w3.org/1999/xlink" x="0px" y="0px" 
	 viewBox="0 0 2048 312" enable-background="new 0 0 255 38.85" xml:space="preserve">
<g>
	<path fill="currentColor" id="Unit_Text_Text" data-name="Unit Text Text" class="cls-1" d="M605.89 93.468a58.758 58.758 0 0 1-28.2 7.43q-15.87 0-25.317-7.357-17.745-13.775-17.744-39.526 0-19.042 9.953-30.15t27.48-11.108q17.023 0 26.04 10.17a99.33 99.33 0 0 1 .793 12.118l.722.794h4.255l.65-.72a119.86 119.86 0 0 1 3.03-23.3l-.94-1.083a96.446 96.446 0 0 0-34.55-6.42q-27.842 0-43.926 14.5Q512.41 32.88 512.41 56.538a58.842 58.842 0 0 0 6.42 27.193q13.85 27.122 51.5 27.122a69.49 69.49 0 0 0 34.044-8.367l3.318-7.358zm88.918-10.53h-4.4l-.72.792-1.732 8.944a12.783 12.783 0 0 1-1.37 4.326 2.348 2.348 0 0 1-1.155.793q-4.76 1.66-25.82 1.66h-9.81q-.36-8.873-.36-18.322V38q0-17.166.937-22.36a3.144 3.144 0 0 1 2.453-2.67 79.523 79.523 0 0 1 8.44-.72l.72-.65V6.626l-.72-.65q-7.72.434-22.578.434-14.354 0-21.783-.434l-.722.65v4.9l.72.72a79.523 79.523 0 0 1 8.44.72 3.146 3.146 0 0 1 2.453 2.67q.937 5.193.94 22.36v36.57l-.218 16.157q-.145 8.3-.793 9.593-.434.865-5.772 4.255l-.36.867v2.02l.72.72q5.41-.432 18.538-.432l52.44.433.72-.72a160.753 160.753 0 0 1 1.587-23.8zm116.9 19.907l-.65-.793a21 21 0 0 1-6.852-.866q-1.8-.648-4.04-5.77L761.944 5.47H751.7q-4.257 11.036-6.347 16.518l-18.826 47.1q-11.034 27.555-12.727 30.08t-9.124 2.956l-.794.72v4.69l.722.65q11.683-.434 14.642-.434 3.822 0 17.167.433l.72-.72v-4.618l-.72-.72q-5.482-.29-7.358-.578-3.39-.5-3.39-3.246 0-2.523 3.607-12.55l3.174-8.8q11.106-.143 16.734-.143 10.386 0 20.34.144l5.84 15.22q2.018 5.266 2.02 6.78 0 2.6-3.968 2.813l-6.275.36-.72.794v4.545l.648.72q11.4-.432 24.668-.432 3.317 0 19.33.433l.65-.72v-4.618zm-60.584-33.973q-9.45 0-15.364-.216l14.787-37.8 15.436 37.8q-5.7.216-14.86.216zm141.934-9.737a21.76 21.76 0 0 0-10.964-8.367 41.83 41.83 0 0 0-7.862-2.092q-6.924-1.226-8.44-1.443-14.5-2.308-18.392-4.833-5.988-3.895-5.987-12.19a16.168 16.168 0 0 1 5.265-12.478q5.626-5.12 15.292-5.12a31.91 31.91 0 0 1 12.33 2.452q5.553 2.38 7.79 5.77a87.56 87.56 0 0 1 .72 11.252l.723.72h4.544l.793-.72a124.9 124.9 0 0 1 2.092-20.63l-.5-1.73q-10.386-5.41-27.265-5.41-18.755 0-29.285 9.233-9.952 8.8-9.953 23.585 0 14.21 9.16 20.99 6.057 4.473 25.316 7.43 8.51 1.3 12.335 3.245 7.717 3.968 7.718 13.2a21.738 21.738 0 0 1-2.813 10.6q-5.48 9.954-19.763 9.954a32.45 32.45 0 0 1-14.57-3.463q-6.708-3.316-9.305-7.933a86.553 86.553 0 0 1-.865-10.675v-1.656l-.65-.72h-4.616l-.72.72q0 15.292-2.02 23.587l.864 1.587a68.543 68.543 0 0 0 29.717 6.925q12.19 0 20.99-3.607a35.42 35.42 0 0 0 15.508-11.9 34.164 34.164 0 0 0 6.78-20.99q0-9.16-3.967-15.29zm98.782 43.494l-.72-.722a79.147 79.147 0 0 1-8.44-.722 3.14 3.14 0 0 1-2.452-2.67q-.94-5.192-.938-22.36V38q0-17.166.938-22.36a3.143 3.143 0 0 1 2.452-2.67 79.523 79.523 0 0 1 8.44-.72l.72-.72v-4.9l-.72-.65q-6.925.433-22.145.433-15.293 0-22.215-.433l-.722.65v4.9l.722.72a79.587 79.587 0 0 1 8.44.72 3.146 3.146 0 0 1 2.45 2.67q.937 5.193.94 22.36v38.157q0 17.167-.94 22.36a3.143 3.143 0 0 1-2.45 2.67 79.21 79.21 0 0 1-8.44.72l-.722.722v4.832l.65.72q7.21-.432 22.215-.432 15.075 0 22.288.433l.65-.72v-4.834zm99.95-96.943q-6.345.722-31.01.72h-29.21q-26.76 0-31.02-.72l-.648.72a84.846 84.846 0 0 1 .868 10.748l.14 12.334.79.72h4.55l.72-.72c.1-2.693.31-5.314.65-7.863a14.666 14.666 0 0 1 1.08-4.616 3.194 3.194 0 0 1 1.59-1.08q2.16-.794 15.07-.794h10.32q.21 2.236.21 20.052v40.97q0 17.167-.93 22.36a3.143 3.143 0 0 1-2.46 2.67 78.966 78.966 0 0 1-8.43.72l-.73.722v4.905l.65.65q6.78-.434 22.22-.434 15.075 0 22.21.434l.73-.72v-4.834l-.73-.72a78.966 78.966 0 0 1-8.43-.723 3.143 3.143 0 0 1-2.46-2.67q-.93-5.192-.93-22.36v-40.97q0-17.527.14-20.05h9.67q12.1 0 13.56.215c2.5.337 4.03 1.467 4.61 3.39.29 1.058.55 4.665.8 10.82l.79.648h4.54l.72-.72.15-12.047a74.66 74.66 0 0 1 .94-11.036z"/>
	<path fill="currentColor" id="Parent_Unit_Text" data-name="Parent Unit Text" class="cls-1" d="M592.86 196.677l-.574-.573q-11.23.345-15.182.344-5.273 0-10.255-.344l-.574.573v3.84l.573.572q5.726.343 7.045.858a3.363 3.363 0 0 1 2.006 1.776 25.838 25.838 0 0 1 .688 6.7q.114 5.5.115 20.51v11.917a87.048 87.048 0 0 1-.516 9.512 28.327 28.327 0 0 1-1.6 7.448 13.9 13.9 0 0 1-3.667 4.755q-5.615 4.928-15.64 4.927-15.3 0-19.193-9.625-1.948-4.87-1.948-26.526v-11.8q0-13.634.744-17.76a2.494 2.494 0 0 1 1.948-2.12 62.87 62.87 0 0 1 6.7-.572l.573-.573v-3.84l-.573-.572q-5.214.345-17.59.344-12.146 0-17.645-.344l-.572.573v3.84l.572.572a62.9 62.9 0 0 1 6.7.573 2.5 2.5 0 0 1 1.947 2.12q.744 4.125.745 17.76v14.782q0 21.027 1.374 26.01a19.77 19.77 0 0 0 9.282 12.032q8.42 4.984 23.432 4.984 16.442 0 25.323-9.625 6.7-7.275 6.7-24.292v-17.643q0-9.4.173-14.38a59.188 59.188 0 0 1 .687-8.71q.86-3.608 7.62-3.608l.573-.574v-3.84zm96.407-.057l-.573-.516q-5.9.345-13.292.344-5.787 0-12.2-.344l-.573.516v3.9l.572.573a62.838 62.838 0 0 1 6.7.573 2.5 2.5 0 0 1 1.948 2.12q.744 4.124.745 17.76v33.515q-27.843-31.45-48.47-58.952-5.1.345-12.832.344-4.927 0-10.37-.344l-.573.516v3.9l.573.573a62.838 62.838 0 0 1 6.7.573 2.5 2.5 0 0 1 1.948 2.12q.745 4.124.746 17.76v30.307q0 13.637-.745 17.76a2.5 2.5 0 0 1-1.947 2.12 62.838 62.838 0 0 1-6.7.573l-.573.573v3.9l.573.516q6.647-.346 13.235-.345 5.67 0 12.26.344l.573-.517v-3.9l-.572-.573a62.87 62.87 0 0 1-6.7-.573 2.5 2.5 0 0 1-1.948-2.12q-.746-4.124-.745-17.76V214.38q37.068 45.663 52.422 62.907 3.322.458 9.8 1.547l.745-.516q-.745-7.79-.745-33.516v-23.26q0-13.635.745-17.76a2.5 2.5 0 0 1 1.948-2.12 62.87 62.87 0 0 1 6.7-.573l.63-.574v-3.9zm44.8 76.255l-.567-.575a62.87 62.87 0 0 1-6.7-.573 2.5 2.5 0 0 1-1.948-2.12q-.746-4.124-.745-17.76v-30.305q0-13.635.745-17.76a2.5 2.5 0 0 1 1.948-2.12 62.87 62.87 0 0 1 6.7-.573l.573-.574v-3.9l-.573-.516q-5.5.345-17.588.344-12.147 0-17.646-.344l-.573.516v3.9l.573.573a62.87 62.87 0 0 1 6.7.572 2.5 2.5 0 0 1 1.948 2.12q.744 4.124.745 17.76v30.307q0 13.636-.746 17.76a2.5 2.5 0 0 1-1.948 2.12 62.87 62.87 0 0 1-6.7.572l-.573.573v3.84l.516.572q5.726-.345 17.644-.344 11.974 0 17.7.344l.515-.573v-3.84zm94.016-76.14l-.63-.63q-7.22.344-12.2.343-6.99 0-13.463-.344l-.63.573v3.9l.573.573a44.666 44.666 0 0 1 7.677.63q1.258.4 1.26 2.292 0 1.776-3.9 12.432-2.693 7.39-3.437 9.224l-12.72 31.912-14.5-35.808-2.692-6.817q-3.723-9.4-3.722-10.886a2.076 2.076 0 0 1 .974-1.95q1.832-.973 7.62-1.03l.515-.573v-3.838l-.573-.632q-9.4.345-20.854.344-9.168 0-15.182-.344l-.63.63v3.782l.572.63q5.728.116 6.99 1.318 1.66 1.49 5.844 11.458l26.3 63.766h8.71q3.436-9.8 13.348-33.86l7.677-18.677 4.067-9.682a100.565 100.565 0 0 1 4.927-10.77 6.7 6.7 0 0 1 2.377-2.608 19.1 19.1 0 0 1 5.13-.945l.572-.573v-3.838zm68.005 60.5h-3.5l-.573.63-1.375 7.1a10.157 10.157 0 0 1-1.088 3.437 1.874 1.874 0 0 1-.917.63q-3.782 1.32-20.51 1.318h-7.785q-.288-7.047-.286-14.552v-17.47q3.61-.285 7.79-.286 3.955 0 7.45.286 4.64.4 5.556 1.633t.917 7.82l.573.574h3.84l.57-.515q-.23-6.877-.228-12.663 0-5.328.23-11.745l-.573-.572h-3.554l-.572.572q-.288 6.7-1.2 7.735-.687.8-5.958.86l-7.505.057q-2.807 0-7.332-.287v-11.86q0-10.655.63-16.67 5.1-.4 10.083-.4 4.183 0 9.712.457t6.16 1.26q.86 1.09.915 8.88l.573.574h3.323l.573-.63.4-5.33q.173-2.117.516-5.155l.745-6.36-.63-.458q-30.2.345-40.964.344-12.09 0-17.875-.345l-.573.516v3.9l.573.574a62.87 62.87 0 0 1 6.7.573 2.5 2.5 0 0 1 1.948 2.12q.744 4.124.745 17.76v29.047l-.17 12.833q-.116 6.53-.63 7.62-.344.687-4.585 3.38l-.286.688v1.6l.572.573q4.3-.345 14.724-.344l41.65.344.574-.573a127.857 127.857 0 0 1 1.26-18.907zm87.083 15.812l-.572-.573a6.672 6.672 0 0 1-3.666-.86q-2.578-1.66-10.37-13.692l-8.823-13.578q-3.21-4.926-6.074-9.74 17.534-6.53 17.534-22.114a19.272 19.272 0 0 0-1.03-6.646 13.6 13.6 0 0 0-8.365-8.135q-4.64-1.777-14.553-1.778-4.3 0-12.948.344-4.355.172-11.343.172-12.03 0-17.645-.344l-.573.516v3.9l.573.573a62.87 62.87 0 0 1 6.7.573 2.5 2.5 0 0 1 1.948 2.12q.744 4.124.745 17.76v30.307q0 13.637-.745 17.76a2.5 2.5 0 0 1-1.948 2.12 62.87 62.87 0 0 1-6.7.573l-.573.573v3.9l.573.515q5.328-.345 17.646-.344 11.917 0 17.647.345l.515-.573v-3.84l-.573-.572a62.87 62.87 0 0 1-6.7-.573 2.5 2.5 0 0 1-1.95-2.12q-.745-4.124-.744-17.76v-29.97q0-13.522.573-19.137a32.115 32.115 0 0 1 5.5-.458q6.587 0 10.025 1.6 7.22 3.38 7.22 13.063a17.93 17.93 0 0 1-2.464 9.567 15.286 15.286 0 0 1-5.385 5.615q-3.21 1.776-8.823 1.776-.63 0-1.948-.057l-.63 1.947a16.032 16.032 0 0 1 3.38 3.5l6.36 9.683 14.204 23.714a16.014 16.014 0 0 1 2.177 4.584q6.36-.345 9.28-.344 1.948 0 9.8.286 1.777.057 2.178.058l.573-.573v-3.666zm64.058-34.72a17.325 17.325 0 0 0-8.71-6.645 33.134 33.134 0 0 0-6.25-1.66c-3.66-.65-5.9-1.032-6.7-1.147q-11.52-1.833-14.61-3.838-4.755-3.095-4.76-9.683a12.84 12.84 0 0 1 4.19-9.91q4.47-4.07 12.14-4.07a25.35 25.35 0 0 1 9.8 1.95 13.584 13.584 0 0 1 6.19 4.582 70.237 70.237 0 0 1 .57 8.938l.57.573h3.61l.63-.573a99.865 99.865 0 0 1 1.66-16.385l-.4-1.376q-8.25-4.3-21.65-4.3-14.895 0-23.26 7.333-7.912 6.99-7.91 18.734 0 11.288 7.276 16.673 4.806 3.553 20.114 5.9 6.75 1.032 9.79 2.578 6.135 3.152 6.13 10.486a17.264 17.264 0 0 1-2.23 8.422q-4.35 7.905-15.7 7.906a25.76 25.76 0 0 1-11.57-2.75q-5.325-2.634-7.393-6.3a68.653 68.653 0 0 1-.688-8.48v-1.317l-.515-.573h-3.667l-.573.573q0 12.147-1.6 18.734l.687 1.262a54.455 54.455 0 0 0 23.6 5.5 43.833 43.833 0 0 0 16.67-2.865 28.118 28.118 0 0 0 12.32-9.453 27.136 27.136 0 0 0 5.39-16.672 21.93 21.93 0 0 0-3.15-12.146zm50.3 34.548l-.58-.573a62.862 62.862 0 0 1-6.7-.573 2.493 2.493 0 0 1-1.95-2.12q-.735-4.125-.74-17.76V221.54q0-13.635.74-17.76a2.5 2.5 0 0 1 1.95-2.12 62.862 62.862 0 0 1 6.7-.573l.58-.574v-3.9l-.58-.516c-3.66.23-9.53.344-17.58.344q-12.15 0-17.65-.344l-.57.516v3.9l.57.573a62.545 62.545 0 0 1 6.7.572 2.5 2.5 0 0 1 1.95 2.12q.75 4.124.75 17.76v30.307q0 13.636-.75 17.76a2.493 2.493 0 0 1-1.95 2.12 62.545 62.545 0 0 1-6.7.572l-.57.573v3.84l.51.572q5.73-.345 17.65-.344 11.97 0 17.7.344l.52-.573v-3.84zm79.98-77q-5.04.573-24.64.573h-23.2q-21.255 0-24.64-.573l-.51.573a65.5 65.5 0 0 1 .68 8.537l.12 9.8.63.573h3.61l.57-.573q.12-3.207.52-6.244a11.38 11.38 0 0 1 .86-3.666 2.53 2.53 0 0 1 1.26-.86q1.71-.63 11.97-.63h8.19q.18 1.778.18 15.927v32.543q0 13.637-.75 17.76a2.493 2.493 0 0 1-1.95 2.12 62.545 62.545 0 0 1-6.7.573l-.57.573v3.9l.51.515q5.385-.345 17.65-.344 11.97 0 17.64.345l.58-.573v-3.84l-.58-.572a62.862 62.862 0 0 1-6.7-.573 2.493 2.493 0 0 1-1.95-2.12q-.735-4.124-.74-17.76v-32.55q0-13.92.11-15.927h7.68q9.63 0 10.77.172 2.985.4 3.67 2.693a64.693 64.693 0 0 1 .63 8.594l.63.514h3.61l.57-.573.11-9.566a59.43 59.43 0 0 1 .75-8.766zm80.2.917l-.57-.573h-8.36c-1.19 2.215-2.12 3.952-2.81 5.212l-6.36 11.4q-9.51 16.443-12.89 21.885l-7.51-15.01q-8.19-16.443-13.06-21.2a19.817 19.817 0 0 0-5.33-3.724q-3.945 1.146-17.93 3.895l-.57.63v3.21l.63.63a14.85 14.85 0 0 1 4.3.372 16.023 16.023 0 0 1 3.55 3.065q5.445 5.558 14.61 21.083 8.985 15.24 8.99 17.417v6.76q0 16.788-1.03 18.677a2.082 2.082 0 0 1-1.32 1.03 46 46 0 0 1-7.04.746l-.58.573v3.9l.52.517q5.385-.345 17.65-.344 11.97 0 17.64.344l.57-.573v-3.84l-.57-.572a46.378 46.378 0 0 1-7.05-.745 2.064 2.064 0 0 1-1.31-1.03q-1.035-1.89-1.03-18.678v-5.673a20.35 20.35 0 0 1 .34-4.3q.63-2.807 6.7-12.89 10.77-17.875 19.82-30.193v-2zm31.78 72.99a14.175 14.175 0 0 0 5.44 6.932q3.9 2.693 10.89 2.692a28.766 28.766 0 0 0 13.09-2.893 66.99 66.99 0 0 0 11-6.96q5.235-4.068 8.39-12.863a50.86 50.86 0 0 0 3.15-17.216q0-9.28-5.1-13.922t-13.23-4.64a32.973 32.973 0 0 0-15.36 3.867 36.815 36.815 0 0 0-11.83 9.28 32.23 32.23 0 0 0-6.18 13.464 62.976 62.976 0 0 0-1.81 13.377 25.732 25.732 0 0 0 1.552 8.88zm14.52-27.014q2.55-9.825 5.9-13.205a10.624 10.624 0 0 1 7.77-3.38 9.585 9.585 0 0 1 7.1 2.98q2.925 2.978 2.92 10.483a70.85 70.85 0 0 1-1.4 13.234 53.577 53.577 0 0 1-3.67 12.175q-2.265 4.9-4.93 6.79a10.173 10.173 0 0 1-6.04 1.89c-3.28 0-5.81-1.05-7.56-3.15s-2.64-5.482-2.64-10.142a71.124 71.124 0 0 1 2.552-17.675zm49-13.434c1.53-.077 3.29-.115 5.27-.115q1.95 0 5.22.114l-4.47 23.432-4.24 22.172q-2.07 10.884-3.53 16.557t-2.43 7.047a6.36 6.36 0 0 1-2.09 1.976 4.853 4.853 0 0 1-2.32.6q-3.5 0-5.73-5.214l-1.83.344a71.508 71.508 0 0 1-3.79 12.72 10.645 10.645 0 0 0 4.36 1.03 11.69 11.69 0 0 0 4.93-1.2 35.132 35.132 0 0 0 9.28-7.133 47.114 47.114 0 0 0 8.5-11.687q3.36-6.5 6.85-19.107 2.64-9.4 5.39-21.655l4.46-19.88c.92-.077 2.96-.115 6.14-.115q5.895 0 7.9.115l.63-.573a41.553 41.553 0 0 1 1.66-5.443l-.57-.918a56.213 56.213 0 0 1-6.85.63q-5.235.288-6.38.287h-1.32q.975-5.616 2.4-11.517a53.54 53.54 0 0 1 2.21-7.59 6.63 6.63 0 0 1 2.18-2.694 5.073 5.073 0 0 1 3-1q4.425 0 8.83 6.76l1.72-.4a104.954 104.954 0 0 1 3.26-14.84 13.883 13.883 0 0 0-5.15-.973 12.8 12.8 0 0 0-4.62.8 33.06 33.06 0 0 0-6.24 3.752q-4.155 2.95-9.02 7.075a57.175 57.175 0 0 0-6.71 6.36 16.348 16.348 0 0 0-2.58 4.1 45.664 45.664 0 0 0-1.71 6.1 30.22 30.22 0 0 1-.75 3.15 46.682 46.682 0 0 1-6.01 2.12q-3.9 1.148-5.22 1.6l-.63.63-.4 2.063zm130.93-33.23q-30.765.345-38.61.344-12.15 0-17.65-.344l-.57.516v3.9l.57.573a63.205 63.205 0 0 1 6.71.573 2.5 2.5 0 0 1 1.94 2.12q.75 4.182.75 17.76v30.307q0 13.578-.75 17.76a2.5 2.5 0 0 1-1.94 2.12 63.205 63.205 0 0 1-6.71.573l-.57.573v3.9l.57.515q8.715-.4 13.64-.344l23.03.345.63-.573v-3.84l-.57-.572q-7.8-.457-8.2-.573a2.5 2.5 0 0 1-1.94-2.12q-.75-4.18-.75-17.76v-13.643q3.09-.173 7.05-.172 3.27 0 6.64.286 4.935.4 5.91 2.407.51 1.03.51 7.046l.57.574h3.84l.58-.515q-.24-6.877-.23-12.663c0-3.552.07-7.466.23-11.745l-.58-.572h-3.55l-.57.572q-.18 6.188-1.03 7.563a2.4 2.4 0 0 1-2.07.86q-7.9.287-10.82.23l-6.48-.173v-7.735q0-15.124.63-20.968c3.36-.23 5.83-.345 7.39-.345q14.67 0 15.99 1.776c.53.727.84 3.667.91 8.824l.58.573h3.32l.57-.63.35-4.584q.285-3.552.51-5.73l.75-6.53zm73.98 61.13h-3.5l-.57.63-1.37 7.1a10.334 10.334 0 0 1-1.09 3.438 1.874 1.874 0 0 1-.92.63q-3.78 1.32-20.51 1.318h-7.79q-.285-7.047-.29-14.552v-34.26q0-13.635.75-17.76a2.5 2.5 0 0 1 1.94-2.12 63.205 63.205 0 0 1 6.71-.573l.57-.516v-3.95l-.57-.516q-6.135.345-17.93.344c-7.61 0-13.37-.114-17.31-.344l-.57.516v3.9l.57.573a63.205 63.205 0 0 1 6.71.573 2.5 2.5 0 0 1 1.94 2.12q.75 4.124.75 17.76v29.047l-.17 12.833q-.12 6.59-.63 7.62-.345.687-4.59 3.38l-.28.688v1.6l.57.573q4.305-.345 14.72-.344l41.66.344.57-.573a127.857 127.857 0 0 1 1.26-18.907zm86.05-51.963q-11.115-10.484-31.11-10.483-13.98 0-23.55 4.812-21.015 10.6-21.02 38.155 0 19.652 11.17 30.68t30.77 11.03q20.73 0 32.71-11.69 12.315-12.03 12.32-33.17 0-18.678-11.29-29.334zm-9.34 51.506q-5.61 16.1-21.94 16.1-13.47 0-20.22-10.6-6.54-10.254-6.54-27.958a51.023 51.023 0 0 1 2.87-17.59q5.55-15.3 22.57-15.3 12.9 0 19.57 9.77t6.67 26.383a57.9 57.9 0 0 1-2.98 19.193zm102.24 16.27l-.57-.572a6.645 6.645 0 0 1-3.66-.86q-2.58-1.66-10.37-13.692l-8.83-13.578q-3.21-4.926-6.07-9.74 17.535-6.53 17.53-22.114a19.226 19.226 0 0 0-1.03-6.646 13.588 13.588 0 0 0-8.36-8.135q-4.65-1.777-14.56-1.778-4.29 0-12.94.344-4.365.172-11.35.172-12.03 0-17.64-.344l-.58.516v3.9l.58.573a62.862 62.862 0 0 1 6.7.573 2.5 2.5 0 0 1 1.95 2.12q.735 4.124.74 17.76v30.307q0 13.637-.74 17.76a2.493 2.493 0 0 1-1.95 2.12 62.862 62.862 0 0 1-6.7.573l-.58.573v3.9l.58.515q5.325-.345 17.64-.344 11.925 0 17.65.345l.51-.573v-3.84l-.57-.572a62.545 62.545 0 0 1-6.7-.573 2.493 2.493 0 0 1-1.95-2.12q-.75-4.124-.75-17.76v-29.97q0-13.522.58-19.137a32.055 32.055 0 0 1 5.5-.458q6.585 0 10.02 1.6 7.23 3.38 7.22 13.063a17.938 17.938 0 0 1-2.46 9.567 15.254 15.254 0 0 1-5.39 5.615q-3.21 1.776-8.82 1.776-.63 0-1.95-.057l-.63 1.947a16.01 16.01 0 0 1 3.38 3.5l6.36 9.683 14.21 23.718a16.193 16.193 0 0 1 2.18 4.584q6.36-.345 9.28-.344 1.95 0 9.79.286c1.19.038 1.91.058 2.18.058l.57-.573v-3.667zm36.82-.17l-.57-.574a63.205 63.205 0 0 1-6.71-.573 2.5 2.5 0 0 1-1.94-2.12q-.75-4.125-.75-17.76V221.54q0-13.635.75-17.76a2.5 2.5 0 0 1 1.94-2.12 63.205 63.205 0 0 1 6.71-.573l.57-.574v-3.9l-.57-.516q-5.5.345-17.59.344-12.15 0-17.65-.344l-.57.516v3.9l.57.573a63.205 63.205 0 0 1 6.71.572 2.5 2.5 0 0 1 1.94 2.12q.75 4.124.75 17.76v30.307q0 13.636-.75 17.76a2.5 2.5 0 0 1-1.94 2.12 63.205 63.205 0 0 1-6.71.572l-.57.573v3.84l.52.572c3.81-.23 9.7-.344 17.64-.344q11.97 0 17.7.344l.52-.573v-3.84zM1865.41 211a29.1 29.1 0 0 0-13.63-11.687q-7.965-3.38-22.86-3.38-5.385 0-10.71.17-10.725.346-24.07.345-5.49 0-11.57-.344l-.57.516v3.9l.57.573a62.545 62.545 0 0 1 6.7.573 2.5 2.5 0 0 1 1.95 2.12q.75 4.124.75 17.76v29.047l-.18 12.833q-.105 6.59-.63 7.62-.33.687-4.58 3.38l-.29.688v1.6l.58.573q5.385-.46 13.63-.344l20.23.344q12.6.228 22.05-3.5a42.464 42.464 0 0 0 15.01-9.682q12.675-12.776 12.67-32.2 0-12.72-5.05-20.912zm-16.84 44.4q-4.185 8.652-11.29 12.26-6.585 3.324-17.99 3.324a65.382 65.382 0 0 1-10.31-.8 100.525 100.525 0 0 1-.46-11.114l-.11-25.037q0-24.635.57-31.052a67.572 67.572 0 0 1 10.2-.743q10.26 0 15.98 1.718a21.67 21.67 0 0 1 10.03 6.3q7.68 8.538 7.68 24.407a47.263 47.263 0 0 1-4.3 20.74zm106.93 17.646l-.52-.63a16.668 16.668 0 0 1-5.44-.688q-1.425-.514-3.21-4.583l-30.36-71.445h-8.14q-3.375 8.766-5.04 13.12l-14.95 37.412q-8.775 21.885-10.11 23.89-1.35 2.007-7.25 2.35l-.63.572v3.724l.57.516q9.285-.345 11.63-.344 3.045 0 13.64.344l.57-.573v-3.666l-.57-.573c-2.91-.15-4.85-.304-5.85-.457-1.79-.267-2.69-1.126-2.69-2.578q0-2.005 2.87-9.97l2.52-6.99q8.82-.113 13.29-.113 8.25 0 16.15.114l4.64 12.09a21.175 21.175 0 0 1 1.61 5.384q0 2.063-3.15 2.235l-4.99.286-.57.63v3.61l.52.574q9.045-.345 19.59-.344 2.64 0 15.35.344l.52-.573v-3.666zm-48.12-26.984q-7.515 0-12.21-.172l11.75-30.02 12.26 30.02q-4.53.17-11.8.172z"/>
	<path fill="currentColor" id="Logo" class="cls-1" d="M0 3h87v47H70v76c0 13.146 2 68 2 68s1.67 32.994 33 33c11.766-.66 37 0 40-35 1.5-6 1-37 1-37V50h-17V3h88v47s-11.386.05-17 0v87c0 12.512 1.935 31.57-1 42l-1 28h-1l-1 11h-1l-1 8h-1v3h-1v3h-1v3h-1v3h-1l-1 4h-1l-1 4-2 1-1 4-3 2v2l-5 4-5 6h-2l-2 3h-2l-1 2-4 1v1l-4 1v1l-5 1v1h-3v1l-7 1v1h-5v1h-7v1h-11v1h-16v-1H90v-1h-6v-1h-4v-1h-4v-1h-3v-1h-3v-1h-3v-1h-2v-1l-9-3-1-2h-2v-1l-3-1-1-2h-2l-4-5-9-8v-2l-3-2v-2l-2-1-1-4h-1v-2h-1l-2-6h-1v-3c-6.544-16.423-6-39.79-6-63V50H0V3zm412 0v72h-48V50h-70v65h65v46c-5.076 1.86-14.28 1-21 1h-44v70h17v46c-6.836 2.5-19.374 1-28 1h-59v-47h17V50h-18V3h189z"/>
	<path id="Bar" fill="#F47836" class="cls-2" d="M454 3h13v279h-13V3z"/>
</g>
</svg>
