<?xml version="1.0" encoding="utf-8"?>
<!-- Generator: Adobe Illustrator 18.0.0, SVG Export Plug-In . SVG Version: 6.00 Build 0)  -->
<!DOCTYPE svg PUBLIC "-//W3C//DTD SVG 1.1//EN" "http://www.w3.org/Graphics/SVG/1.1/DTD/svg11.dtd">
<svg version="1.1" id="Layer_1" xmlns="http://www.w3.org/2000/svg" xmlns:xlink="http://www.w3.org/1999/xlink" x="0px" y="0px"
	 viewBox="0 0 192 46.3" enable-background="new 0 0 192 46.3" xml:space="preserve">
<polygon fill="#F47836" points="42.5,0.3 42.5,43.4 43.6,43.4 43.6,0.3 42.5,0.3 "/>
<g>
	<polygon fill="currentColor" points="27.4,21.6 27.4,15 33.5,15 33.5,10.7 27.4,10.7 27.4,4.6 34.1,4.6 34.1,6.9 38.5,6.9 38.5,0.3 
		20.9,0.3 20.9,4.6 22.5,4.6 22.5,21.6 20.9,21.6 20.9,25.9 29,25.9 29,21.6 27.4,21.6 	"/>
	<path fill="currentColor" d="M18.6,16.2V4.6h1.6V0.3h-8.1v4.3h1.6v10.2c0,4.3-0.5,6.3-3.6,6.3s-3.6-2.1-3.6-6.3V4.6h1.6V0.3H0v4.3h1.6
		v11.7c0,2.5,0,4.6,1.2,6.5c1.3,2.1,3.8,3.5,7.3,3.5C16.4,26.2,18.6,23,18.6,16.2L18.6,16.2z"/>
</g>
<g>
	<path fill="currentColor" d="M47.8,10.1V9.5c0.4,0,0.7,0,0.8,0c0.1,0,0.2,0,0.2-0.1s0.1-0.1,0.1-0.1c0-0.1,0.1-0.5,0.1-1l0-1.4V3.7
		l0-1.3c0-0.5,0-0.8-0.1-1c0-0.1,0-0.1-0.1-0.1c0,0-0.1-0.1-0.2-0.1c-0.1,0-0.4,0-0.8,0V0.5c0.7,0,1.5,0,2.4,0c0.7,0,1.4,0,2,0v0.6
		c-0.5,0-0.8,0-0.9,0.1c-0.1,0-0.1,0.1-0.2,0.1c0,0-0.1,0.2-0.1,0.5c0,0.5-0.1,1.1-0.1,2v0.8c0.3,0,1,0,2.1,0c1.3,0,2.1,0,2.5,0V3.7
		c0-0.7,0-1.2,0-1.4c0-0.6-0.1-0.9-0.1-1c0-0.1,0-0.1-0.1-0.1c0,0-0.1-0.1-0.2-0.1c-0.1,0-0.4,0-0.9-0.1V0.5c0.6,0,1.2,0,2,0
		c0.8,0,1.6,0,2.4,0v0.6c-0.4,0-0.7,0-0.8,0c-0.1,0-0.2,0-0.2,0.1c0,0-0.1,0.1-0.1,0.1c0,0.1-0.1,0.5-0.1,1l0,1.4v3.2l0,1.3
		c0,0.5,0,0.8,0.1,1c0,0.1,0.1,0.1,0.1,0.2c0,0,0.1,0.1,0.2,0.1c0.1,0,0.4,0,0.8,0v0.6c-0.7,0-1.5,0-2.4,0c-0.7,0-1.4,0-2,0V9.5
		c0.5,0,0.8,0,0.9-0.1c0.1,0,0.1-0.1,0.2-0.1c0,0,0.1-0.2,0.1-0.5c0-0.5,0.1-1.1,0.1-2V5.4c-0.2,0-0.9,0-2,0c-1.1,0-1.8,0-2.1,0
		c-0.1,0-0.3,0-0.4,0v1.4c0,0.7,0,1.2,0,1.4c0,0.6,0.1,1,0.1,1c0,0.1,0,0.1,0.1,0.1c0,0,0.1,0.1,0.2,0.1c0.1,0,0.4,0,0.9,0.1v0.6
		c-0.6,0-1.2,0-2,0C49.3,10,48.5,10,47.8,10.1z"/>
	<path fill="currentColor" d="M65.2,9l-0.3,0.7c-0.4,0.2-0.8,0.4-1.2,0.5c-0.3,0.1-0.6,0.1-1,0.1c-0.5,0-0.8-0.1-1.2-0.2
		c-0.3-0.1-0.6-0.2-0.9-0.4c-0.2-0.2-0.5-0.4-0.6-0.7c-0.2-0.3-0.3-0.6-0.4-0.9c-0.1-0.3-0.1-0.7-0.1-1.1c0-0.6,0.1-1.1,0.2-1.6
		c0.1-0.3,0.2-0.6,0.4-0.7c0.1-0.1,0.3-0.3,0.7-0.5c0.4-0.3,0.7-0.4,0.8-0.5c0.3-0.1,0.7-0.2,1.1-0.2c0.6,0,1.1,0.1,1.5,0.4
		c0.4,0.3,0.7,0.6,0.8,1c0.2,0.4,0.2,0.9,0.2,1.4c0,0.1,0,0.3,0,0.4c-0.1,0-0.3,0.1-0.5,0.1c-0.3,0.1-0.5,0.1-0.6,0.1
		c-0.3,0-0.8,0-1.4,0c-0.6,0-0.9,0-0.9,0c-0.1,0-0.1,0-0.2,0h-0.5c0,0.7,0.3,1.3,0.7,1.7c0.4,0.4,0.9,0.6,1.5,0.6
		c0.3,0,0.5,0,0.7-0.1C64.3,9.1,64.6,9,65,8.8L65.2,9z M63.5,6.2c0-0.7-0.1-1.2-0.3-1.5c-0.2-0.3-0.5-0.4-0.8-0.4
		c-0.4,0-0.6,0.1-0.9,0.4c-0.2,0.3-0.3,0.8-0.3,1.5c0.3,0,0.7,0.1,1.3,0.1C62.9,6.2,63.3,6.2,63.5,6.2z"/>
	<path fill="currentColor" d="M70,9.5v0.5c-0.5,0-1.1,0-1.7,0c-0.7,0-1.4,0-2.2,0V9.5c0.4,0,0.6,0,0.7-0.1c0.1,0,0.1-0.1,0.1-0.1
		C67,9.3,67,9.1,67,8.9l0-0.6c0-0.1,0-0.3,0-0.6V6.7c0-0.4,0-0.9,0-1.5C67,5,67,4.8,67,4.8c0,0-0.1-0.1-0.1-0.1
		c-0.1,0-0.3-0.1-0.8-0.1V4.1c0.8-0.1,1.4-0.2,1.6-0.3c0.3-0.1,0.6-0.2,0.9-0.3l0.2,0.1l0,1.4c0.3-0.3,0.5-0.6,0.7-0.8
		c0.2-0.3,0.4-0.5,0.5-0.5c0.2-0.1,0.4-0.2,0.6-0.2c0.2,0,0.3,0,0.5,0.1l0,1c0,0.5,0,0.8,0,0.9l-0.3,0.1c-0.1-0.2-0.2-0.3-0.3-0.3
		C70.2,5.1,70.1,5,69.9,5c-0.3,0-0.5,0.1-0.7,0.2s-0.3,0.3-0.3,0.5c0,0.1,0,0.5,0,1.2v0.7l0,0.9c0,0.4,0,0.6,0,0.6
		c0,0.1,0.1,0.1,0.1,0.2c0.1,0,0.2,0.1,0.5,0.1L70,9.5z"/>
	<path fill="currentColor" d="M71.2,1.1V0.6c1-0.1,1.9-0.3,2.6-0.6C73.9,0,74,0.1,74,0.1C74,2,74,3.1,74,3.4v1.3L74.8,4
		c0.2-0.2,0.5-0.3,0.7-0.4c0.2-0.1,0.5-0.1,0.8-0.1c0.8,0,1.4,0.2,1.9,0.7c0.5,0.5,0.7,1.1,0.7,1.9c0,0.5-0.1,1-0.3,1.4
		c-0.2,0.5-0.4,0.8-0.7,1.1c0,0-0.4,0.3-1,0.7c-0.6,0.4-1,0.7-1,0.7c-0.3,0.1-0.6,0.2-1,0.2c-0.3,0-0.5,0-0.8-0.1
		c-0.3-0.1-0.6-0.2-0.9-0.4l-0.6,0.5l-0.3-0.1c0.1-1.4,0.1-3.1,0.1-5c0-1.9,0-3.1-0.1-3.6c0-0.2-0.1-0.3-0.1-0.3
		C72,1.2,71.7,1.1,71.2,1.1z M74,5.4c0,0.4,0,0.8,0,1.4c0,0.8,0,1.4,0,1.8c0.2,0.2,0.4,0.4,0.5,0.5c0.3,0.1,0.6,0.2,0.9,0.2
		c0.3,0,0.6-0.1,0.9-0.3c0.2-0.2,0.4-0.5,0.6-0.9C77,7.8,77,7.4,77,6.9c0-0.7-0.2-1.3-0.5-1.6c-0.3-0.4-0.7-0.6-1.2-0.6
		c-0.3,0-0.6,0.1-0.8,0.2C74.3,5.1,74.1,5.2,74,5.4z"/>
	<path fill="currentColor" d="M85.7,9l-0.3,0.7c-0.4,0.2-0.8,0.4-1.2,0.5c-0.3,0.1-0.6,0.1-1,0.1c-0.5,0-0.8-0.1-1.2-0.2
		c-0.3-0.1-0.6-0.2-0.9-0.4c-0.2-0.2-0.5-0.4-0.6-0.7c-0.2-0.3-0.3-0.6-0.4-0.9C80.1,7.8,80,7.4,80,7c0-0.6,0.1-1.1,0.2-1.6
		c0.1-0.3,0.2-0.6,0.4-0.7c0.1-0.1,0.3-0.3,0.7-0.5c0.4-0.3,0.7-0.4,0.8-0.5c0.3-0.1,0.7-0.2,1.1-0.2c0.6,0,1.1,0.1,1.5,0.4
		c0.4,0.3,0.7,0.6,0.8,1c0.2,0.4,0.2,0.9,0.2,1.4c0,0.1,0,0.3,0,0.4c-0.1,0-0.3,0.1-0.5,0.1c-0.3,0.1-0.5,0.1-0.6,0.1
		c-0.3,0-0.8,0-1.4,0c-0.6,0-0.9,0-0.9,0c-0.1,0-0.1,0-0.2,0h-0.5c0,0.7,0.3,1.3,0.7,1.7c0.4,0.4,0.9,0.6,1.5,0.6
		c0.3,0,0.5,0,0.7-0.1c0.2-0.1,0.5-0.2,0.9-0.4L85.7,9z M84.1,6.2c0-0.7-0.1-1.2-0.3-1.5c-0.2-0.3-0.5-0.4-0.8-0.4
		c-0.4,0-0.7,0.1-0.9,0.4c-0.2,0.3-0.3,0.8-0.3,1.5c0.3,0,0.7,0.1,1.3,0.1C83.5,6.2,83.8,6.2,84.1,6.2z"/>
	<path fill="currentColor" d="M90.6,9.5v0.5c-0.5,0-1.1,0-1.7,0c-0.7,0-1.4,0-2.2,0V9.5c0.4,0,0.6,0,0.7-0.1c0.1,0,0.1-0.1,0.1-0.1
		c0-0.1,0.1-0.2,0.1-0.5l0-0.6c0-0.1,0-0.3,0-0.6V6.7c0-0.4,0-0.9,0-1.5c0-0.3,0-0.5-0.1-0.5c0,0-0.1-0.1-0.1-0.1
		c-0.1,0-0.3-0.1-0.8-0.1V4.1c0.8-0.1,1.4-0.2,1.6-0.3c0.3-0.1,0.6-0.2,0.9-0.3l0.2,0.1l0,1.4c0.3-0.3,0.5-0.6,0.7-0.8
		c0.2-0.3,0.4-0.5,0.5-0.5c0.2-0.1,0.4-0.2,0.6-0.2c0.2,0,0.3,0,0.5,0.1l0,1c0,0.5,0,0.8,0,0.9l-0.3,0.1c-0.1-0.2-0.2-0.3-0.3-0.3
		C90.8,5.1,90.6,5,90.4,5c-0.3,0-0.5,0.1-0.7,0.2c-0.2,0.2-0.3,0.3-0.3,0.5c0,0.1,0,0.5,0,1.2v0.7l0,0.9c0,0.4,0,0.6,0,0.6
		c0,0.1,0.1,0.1,0.1,0.2c0.1,0,0.2,0.1,0.5,0.1L90.6,9.5z"/>
	<path fill="currentColor" d="M91.9,4.9V4.6l0.6-0.4C92.6,4.1,92.7,4,92.8,4V3c0-0.3,0-0.7-0.1-1.2c0.4-0.1,0.7-0.2,0.9-0.3
		c0,0,0.3-0.1,0.9-0.4l0.2,0.1L94.6,2l0,0.8L94.4,4h0.2c0.6,0,1.1,0,1.4-0.1l-0.1,0.9c-0.1,0-0.1,0-0.2,0l-0.7,0h-0.7v2.3
		c0,0.7,0,1.1,0,1.2c0,0.2,0.1,0.4,0.2,0.5C94.8,9,95,9,95.3,9c0.2,0,0.3,0,0.4,0C95.7,9,95.9,9,96,9l0.1,0.3l-0.2,0.2
		c-0.2,0.2-0.4,0.4-0.5,0.5c-0.2,0.1-0.3,0.1-0.5,0.2c-0.1,0-0.3,0-0.4,0c-0.5,0-0.9-0.1-1.3-0.4c-0.3-0.3-0.5-0.6-0.5-1l0-2.3V4.8
		h-0.2C92.3,4.8,92.1,4.8,91.9,4.9z"/>
	<path fill="currentColor" d="M106.8,0.4h0.6c0.2,0.5,0.3,0.9,0.5,1.3c0.7,1.8,1.1,2.9,1.3,3.3l0.8,2l0.8-3.1c0.3-1.2,0.5-2,0.5-2.2
		c0-0.1,0-0.1,0-0.2c0-0.1,0-0.2-0.1-0.2c0-0.1-0.1-0.1-0.2-0.1c0,0-0.3,0-0.9-0.1V0.5c0.8,0,1.3,0,1.5,0l1.6,0v0.6
		c-0.1,0-0.1,0-0.2,0c-0.3,0-0.5,0-0.5,0.1c-0.1,0-0.1,0.1-0.2,0.2c-0.1,0.1-0.2,0.6-0.5,1.4c-0.3,0.8-0.6,2.2-1.1,4.1
		c-0.5,1.9-0.8,3-0.8,3.3h-1l-0.7-2l-1.9-4.7c-0.2,0.4-0.9,2.1-2.1,4.9l-0.7,1.8h-1L101,2.8c-0.2-0.8-0.3-1.3-0.4-1.4
		c0-0.1-0.1-0.2-0.2-0.2c-0.1-0.1-0.3-0.1-0.7-0.1V0.5l1.9,0l2.2,0v0.6c-0.4,0-0.6,0-0.7,0c-0.1,0-0.2,0.1-0.3,0.1
		c-0.1,0.1-0.1,0.1-0.1,0.2c0,0.1,0,0.1,0,0.2c0,0.1,0.1,0.3,0.1,0.8c0.2,0.9,0.3,1.5,0.4,1.9l0.6,2.8c0-0.1,0.2-0.6,0.6-1.4l0.9-2
		l1.1-2.6C106.6,0.9,106.7,0.6,106.8,0.4z"/>
	<path fill="currentColor" d="M119.6,9l-0.3,0.7c-0.4,0.2-0.8,0.4-1.2,0.5c-0.3,0.1-0.6,0.1-1,0.1c-0.5,0-0.8-0.1-1.2-0.2
		c-0.3-0.1-0.6-0.2-0.9-0.4c-0.2-0.2-0.5-0.4-0.6-0.7c-0.2-0.3-0.3-0.6-0.4-0.9c-0.1-0.3-0.1-0.7-0.1-1.1c0-0.6,0.1-1.1,0.2-1.6
		c0.1-0.3,0.2-0.6,0.4-0.7c0.1-0.1,0.3-0.3,0.7-0.5c0.4-0.3,0.7-0.4,0.8-0.5c0.3-0.1,0.7-0.2,1.1-0.2c0.6,0,1.1,0.1,1.5,0.4
		s0.7,0.6,0.8,1c0.2,0.4,0.2,0.9,0.2,1.4c0,0.1,0,0.3,0,0.4c-0.1,0-0.3,0.1-0.5,0.1c-0.3,0.1-0.5,0.1-0.6,0.1c-0.3,0-0.8,0-1.4,0
		c-0.6,0-0.9,0-0.9,0c-0.1,0-0.1,0-0.2,0h-0.5c0,0.7,0.3,1.3,0.7,1.7c0.4,0.4,0.9,0.6,1.5,0.6c0.3,0,0.5,0,0.7-0.1
		c0.2-0.1,0.5-0.2,0.9-0.4L119.6,9z M118,6.2c0-0.7-0.1-1.2-0.3-1.5c-0.2-0.3-0.5-0.4-0.8-0.4c-0.4,0-0.6,0.1-0.9,0.4
		c-0.2,0.3-0.3,0.8-0.3,1.5c0.3,0,0.7,0.1,1.3,0.1C117.4,6.2,117.7,6.2,118,6.2z"/>
	<path fill="currentColor" d="M124.5,9.5v0.5c-0.5,0-1.1,0-1.7,0c-0.7,0-1.4,0-2.2,0V9.5c0.4,0,0.6,0,0.7-0.1c0.1,0,0.1-0.1,0.1-0.1
		c0-0.1,0.1-0.2,0.1-0.5l0-0.6c0-0.1,0-0.3,0-0.6V6.7c0-0.4,0-0.9,0-1.5c0-0.3,0-0.5-0.1-0.5c0,0-0.1-0.1-0.1-0.1
		c-0.1,0-0.3-0.1-0.8-0.1V4.1c0.8-0.1,1.4-0.2,1.6-0.3c0.3-0.1,0.6-0.2,0.9-0.3l0.2,0.1l0,1.4c0.3-0.3,0.5-0.6,0.7-0.8
		c0.2-0.3,0.4-0.5,0.5-0.5c0.2-0.1,0.4-0.2,0.6-0.2c0.2,0,0.3,0,0.5,0.1l0,1c0,0.5,0,0.8,0,0.9l-0.3,0.1c-0.1-0.2-0.2-0.3-0.3-0.3
		c-0.2-0.1-0.4-0.1-0.6-0.1c-0.3,0-0.5,0.1-0.7,0.2c-0.2,0.2-0.3,0.3-0.3,0.5c0,0.1,0,0.5,0,1.2v0.7l0,0.9c0,0.4,0,0.6,0,0.6
		c0,0.1,0.1,0.1,0.1,0.2c0.1,0,0.2,0.1,0.5,0.1L124.5,9.5z"/>
	<path fill="currentColor" d="M125.8,4.9V4.6l0.6-0.4c0.1-0.1,0.2-0.1,0.3-0.2V3c0-0.3,0-0.7-0.1-1.2c0.4-0.1,0.7-0.2,0.9-0.3
		c0,0,0.3-0.1,0.9-0.4l0.2,0.1L128.5,2l0,0.8L128.4,4h0.2c0.6,0,1.1,0,1.4-0.1l-0.1,0.9c-0.1,0-0.1,0-0.2,0l-0.7,0h-0.7v2.3
		c0,0.7,0,1.1,0,1.2c0,0.2,0.1,0.4,0.2,0.5c0.1,0.1,0.3,0.2,0.6,0.2c0.2,0,0.3,0,0.4,0c0.1,0,0.2,0,0.4-0.1l0.1,0.3l-0.2,0.2
		c-0.2,0.2-0.4,0.4-0.5,0.5c-0.2,0.1-0.3,0.1-0.5,0.2c-0.1,0-0.3,0-0.4,0c-0.5,0-0.9-0.1-1.3-0.4c-0.3-0.3-0.5-0.6-0.5-1l0-2.3V4.8
		h-0.2C126.2,4.8,126,4.8,125.8,4.9z"/>
	<path fill="currentColor" d="M138.2,9.5v0.5c-0.7,0-1.1,0-1.3,0c-0.1,0-0.6,0-1.4,0l-0.1-0.1l0.1-1.4c0-0.3,0-0.5,0-0.9V6.3
		c0-0.6-0.1-1.1-0.3-1.3c-0.2-0.2-0.5-0.4-0.9-0.4c-0.3,0-0.5,0.1-0.7,0.2c-0.2,0.1-0.4,0.3-0.5,0.6c0,0.1-0.1,0.3-0.1,0.6v0.9
		c0,0.4,0,0.8,0,1.4c0,0.6,0,0.9,0,1c0,0.1,0,0.1,0.1,0.1c0,0,0.1,0.1,0.1,0.1c0.1,0,0.2,0.1,0.3,0.1l0.5,0v0.5c-1.2,0-1.9,0-2.1,0
		l-1.7,0V9.5c0.4,0,0.6,0,0.7-0.1c0.1,0,0.1,0,0.2-0.1c0,0,0.1-0.1,0.1-0.1c0-0.1,0.1-0.6,0.1-1.3c0-0.7,0-1.4,0-1.9V3.8
		c0-0.7,0-1.4-0.1-2c0-0.3,0-0.5-0.1-0.5c0,0,0-0.1-0.1-0.1c0,0-0.1-0.1-0.3-0.1c-0.1,0-0.3,0-0.6,0V0.6c0.6-0.1,1.1-0.1,1.4-0.2
		c0.3-0.1,0.7-0.2,1.2-0.4l0.2,0.1L133,1.7c0,0.8,0,1.6,0,2.3v0.7l1.2-1c0.3-0.1,0.6-0.2,1-0.2c0.4,0,0.7,0.1,1,0.2
		c0.3,0.1,0.5,0.3,0.7,0.5c0.2,0.2,0.3,0.4,0.3,0.6c0.1,0.2,0.1,0.5,0.1,0.9c0,0.1,0,0.5,0,1.1c0,0.4,0,0.8,0,1.1c0,0.8,0,1.3,0,1.5
		c0,0.1,0.1,0.2,0.2,0.2C137.5,9.5,137.8,9.5,138.2,9.5z"/>
	<path fill="currentColor" d="M144.7,9l-0.3,0.7c-0.4,0.2-0.8,0.4-1.2,0.5c-0.3,0.1-0.6,0.1-1,0.1c-0.5,0-0.8-0.1-1.2-0.2
		c-0.3-0.1-0.6-0.2-0.9-0.4c-0.2-0.2-0.5-0.4-0.6-0.7c-0.2-0.3-0.3-0.6-0.4-0.9C139.1,7.8,139,7.4,139,7c0-0.6,0.1-1.1,0.2-1.6
		c0.1-0.3,0.2-0.6,0.4-0.7c0.1-0.1,0.3-0.3,0.7-0.5c0.4-0.3,0.7-0.4,0.8-0.5c0.3-0.1,0.7-0.2,1.1-0.2c0.6,0,1.1,0.1,1.5,0.4
		c0.4,0.3,0.7,0.6,0.8,1c0.2,0.4,0.2,0.9,0.2,1.4c0,0.1,0,0.3,0,0.4c-0.1,0-0.3,0.1-0.5,0.1c-0.3,0.1-0.5,0.1-0.6,0.1
		c-0.3,0-0.8,0-1.4,0c-0.6,0-0.9,0-0.9,0c-0.1,0-0.1,0-0.2,0h-0.5c0,0.7,0.3,1.3,0.7,1.7c0.4,0.4,0.9,0.6,1.5,0.6
		c0.3,0,0.5,0,0.7-0.1c0.2-0.1,0.5-0.2,0.9-0.4L144.7,9z M143.1,6.2c0-0.7-0.1-1.2-0.3-1.5c-0.2-0.3-0.5-0.4-0.8-0.4
		c-0.4,0-0.6,0.1-0.9,0.4c-0.2,0.3-0.3,0.8-0.3,1.5c0.3,0,0.7,0.1,1.3,0.1C142.5,6.2,142.8,6.2,143.1,6.2z"/>
	<path fill="currentColor" d="M145.7,10.1V9.6c0.5,0,0.8-0.1,0.9-0.1c0.1,0,0.1-0.1,0.1-0.2c0-0.3,0.1-0.9,0.1-1.9c0-1.4,0-2.2-0.1-2.4
		c0-0.1,0-0.2-0.1-0.2c-0.1-0.1-0.4-0.1-0.9-0.1V4c0.7-0.1,1.2-0.1,1.6-0.2c0.4-0.1,0.7-0.2,1.1-0.4l0.2,0.1c-0.1,0.7-0.1,1.4-0.1,2
		v2.3c0,0.8,0,1.3,0.1,1.4c0,0.1,0.1,0.1,0.1,0.2c0.1,0.1,0.4,0.1,0.9,0.1v0.5c-0.6,0-1.4,0-2.1,0C146.8,10,146.2,10.1,145.7,10.1z
		 M147.6,0.2c0.3,0,0.5,0.1,0.7,0.3c0.2,0.2,0.3,0.5,0.3,0.7c0,0.3-0.1,0.5-0.3,0.7c-0.2,0.2-0.4,0.3-0.7,0.3
		c-0.3,0-0.5-0.1-0.7-0.3c-0.2-0.2-0.3-0.5-0.3-0.7c0-0.3,0.1-0.5,0.3-0.7C147.1,0.3,147.3,0.2,147.6,0.2z"/>
	<path fill="currentColor" d="M150.2,10.1V9.5c0.4,0,0.6,0,0.7-0.1c0.1,0,0.1-0.1,0.1-0.1c0-0.1,0.1-0.2,0.1-0.5l0-0.6c0-0.1,0-0.3,0-0.6
		V6.7c0-0.4,0-0.9,0-1.5c0-0.3,0-0.5-0.1-0.5c0,0-0.1-0.1-0.1-0.1c-0.1,0-0.3-0.1-0.8-0.1V4.1c0.8-0.1,1.4-0.2,1.6-0.3
		c0.3-0.1,0.6-0.2,0.9-0.3l0.2,0.1v1.1l1.2-1c0.1-0.1,0.3-0.1,0.4-0.1c0.1,0,0.2,0,0.4,0c0.5,0,1,0.1,1.2,0.3
		c0.3,0.2,0.5,0.5,0.7,0.9l1.2-1c0.1-0.1,0.3-0.1,0.4-0.1c0.1,0,0.2,0,0.4,0c0.5,0,0.8,0.1,1.1,0.2c0.2,0.1,0.5,0.3,0.6,0.5
		c0.2,0.2,0.3,0.4,0.3,0.6c0.1,0.2,0.1,0.6,0.1,1c0,0.5,0,0.8,0,1c0,0.1,0,0.1,0,0.2v0.7c0,0.7,0,1.2,0,1.4c0,0.2,0.1,0.3,0.1,0.4
		c0.1,0.1,0.2,0.1,0.4,0.1c0.1,0,0.2,0,0.4,0v0.5c-0.6,0-1.1,0-1.5,0c-0.5,0-0.9,0-1.2,0l-0.1-0.1l0.1-1.2c0-0.5,0-0.9,0-1.3V6.9
		c0-0.8,0-1.3-0.1-1.5c-0.1-0.2-0.2-0.4-0.4-0.5c-0.2-0.1-0.4-0.2-0.6-0.2c-0.3,0-0.5,0.1-0.7,0.2c-0.2,0.1-0.3,0.3-0.4,0.4
		c0,0.1-0.1,0.4-0.1,0.7v1.7l0,0.7l0,0.6c0,0.2,0,0.3,0,0.3c0,0.1,0.1,0.1,0.1,0.1c0,0,0.1,0,0.3,0.1c0.3,0,0.4,0.1,0.6,0.1v0.5
		c-0.4,0-1,0-1.8,0c-0.8,0-1.5,0-1.9,0V9.5c0.1,0,0.2,0,0.3,0c0.2,0,0.3,0,0.4-0.1c0.1,0,0.1-0.1,0.1-0.2c0-0.1,0-0.3,0-0.7l0-1.2
		v-1c0-0.5,0-0.8-0.1-1c-0.1-0.2-0.2-0.4-0.3-0.5c-0.2-0.1-0.4-0.2-0.7-0.2c-0.3,0-0.6,0.1-0.8,0.2c-0.2,0.2-0.3,0.3-0.4,0.5
		c0,0.1,0,0.4,0,1.1v1.2c0,0.6,0,1.1,0,1.4c0,0.2,0,0.3,0.1,0.3c0,0,0.1,0.1,0.2,0.1c0.1,0,0.3,0,0.6,0.1v0.5c-0.5,0-1.1,0-1.8,0
		C151.3,10,150.7,10.1,150.2,10.1z"/>
	<path fill="currentColor" d="M57,24.8l-0.3,0.7c-0.6,0.3-1.1,0.5-1.5,0.6c-0.5,0.1-1,0.2-1.7,0.2c-1,0-1.8-0.2-2.6-0.5
		c-0.6-0.2-1.1-0.6-1.5-1c-0.4-0.4-0.7-0.8-0.9-1.3c-0.3-0.7-0.5-1.5-0.5-2.3c0-1.4,0.5-2.6,1.5-3.5c1-0.9,2.4-1.4,4.2-1.4
		c0.6,0,1.2,0,1.7,0.1c0.5,0.1,1.1,0.3,1.7,0.5l0,0.1c-0.1,0.2-0.1,0.5-0.2,0.8c-0.1,0.5-0.1,1-0.1,1.4h-0.5c0-0.5,0-0.9-0.1-1.2
		c-0.3-0.3-0.6-0.6-1-0.7c-0.4-0.2-0.9-0.2-1.5-0.2c-1.1,0-1.9,0.3-2.6,1c-0.6,0.7-1,1.6-1,2.8c0,0.7,0.1,1.4,0.3,1.9
		c0.2,0.5,0.5,1,0.9,1.4c0.4,0.4,0.7,0.6,1.1,0.8c0.5,0.2,1.1,0.3,1.8,0.3c0.5,0,0.9-0.1,1.3-0.2c0.4-0.1,0.9-0.3,1.4-0.5L57,24.8z"
		/>
	<path fill="currentColor" d="M57.8,22.8c0-0.8,0.1-1.4,0.4-1.9c0.3-0.5,0.7-0.9,1.2-1.1c0.5-0.3,1.1-0.4,1.8-0.4c1.1,0,1.9,0.3,2.4,0.8
		c0.5,0.6,0.8,1.4,0.8,2.4c0,0.6-0.1,1.1-0.2,1.6c-0.2,0.5-0.4,0.8-0.6,1.1c-0.3,0.3-0.6,0.5-0.8,0.6c-0.5,0.2-1.1,0.4-1.7,0.4
		c-1,0-1.8-0.3-2.4-0.9C58.1,24.8,57.8,24,57.8,22.8z M59.7,22.5c0,1.2,0.2,2.1,0.5,2.6c0.2,0.3,0.6,0.5,1,0.5
		c0.4,0,0.7-0.1,0.9-0.4c0.3-0.3,0.4-1,0.4-2c0-0.7-0.1-1.3-0.2-1.8c-0.1-0.5-0.3-0.8-0.5-1c-0.2-0.2-0.5-0.3-0.8-0.3
		c-0.3,0-0.5,0.1-0.7,0.2c-0.2,0.1-0.4,0.4-0.5,0.7C59.8,21.4,59.7,21.9,59.7,22.5z"/>
	<path fill="currentColor" d="M69.2,25.5v0.5c-0.6,0-1.2,0-1.8,0c-0.6,0-1.3,0-2.1,0v-0.5c0.4,0,0.7,0,0.8-0.1c0.1,0,0.1,0,0.2-0.1
		c0,0,0.1-0.1,0.1-0.2c0-0.1,0.1-0.6,0.1-1.3c0-0.7,0-1.4,0-1.9v-2.3c0-0.7,0-1.4,0-2c0-0.3,0-0.5-0.1-0.6c0,0,0-0.1-0.1-0.1
		c-0.1,0-0.1-0.1-0.3-0.1c-0.1,0-0.3,0-0.6,0v-0.5c0.6-0.1,1-0.1,1.4-0.2c0.3-0.1,0.8-0.2,1.4-0.4l0.1,0.1l-0.1,1.4
		c0,0.8,0,1.7,0,2.9V22c0,0.7,0,1.2,0,1.5c0,0.8,0,1.3,0,1.5c0,0.2,0,0.3,0,0.3c0,0,0,0.1,0.1,0.1c0,0,0.1,0.1,0.2,0.1
		C68.5,25.5,68.7,25.5,69.2,25.5z"/>
	<path fill="currentColor" d="M73.7,25.5v0.5c-0.6,0-1.2,0-1.8,0c-0.6,0-1.3,0-2.1,0v-0.5c0.4,0,0.7,0,0.8-0.1c0.1,0,0.1,0,0.2-0.1
		c0,0,0.1-0.1,0.1-0.2c0-0.1,0.1-0.6,0.1-1.3c0-0.7,0-1.4,0-1.9v-2.3c0-0.7,0-1.4,0-2c0-0.3,0-0.5-0.1-0.6c0,0,0-0.1-0.1-0.1
		c-0.1,0-0.1-0.1-0.3-0.1c-0.1,0-0.3,0-0.6,0v-0.5c0.6-0.1,1-0.1,1.4-0.2c0.3-0.1,0.8-0.2,1.4-0.4l0.1,0.1l-0.1,1.4
		c0,0.8,0,1.7,0,2.9V22c0,0.7,0,1.2,0,1.5c0,0.8,0,1.3,0,1.5c0,0.2,0,0.3,0,0.3c0,0,0,0.1,0.1,0.1c0,0,0.1,0.1,0.2,0.1
		C73,25.5,73.3,25.5,73.7,25.5z"/>
	<path fill="currentColor" d="M80.3,25L80,25.7c-0.4,0.2-0.8,0.4-1.2,0.5c-0.3,0.1-0.6,0.1-1,0.1c-0.5,0-0.8-0.1-1.2-0.2
		c-0.3-0.1-0.6-0.2-0.9-0.4c-0.2-0.2-0.5-0.4-0.6-0.7c-0.2-0.3-0.3-0.6-0.4-0.9c-0.1-0.3-0.1-0.7-0.1-1.1c0-0.6,0.1-1.1,0.2-1.6
		c0.1-0.3,0.2-0.6,0.4-0.7c0.1-0.1,0.3-0.3,0.7-0.5c0.4-0.3,0.7-0.4,0.8-0.5c0.3-0.1,0.7-0.2,1.1-0.2c0.6,0,1.1,0.1,1.5,0.4
		c0.4,0.3,0.7,0.6,0.8,1c0.2,0.4,0.2,0.9,0.2,1.4c0,0.1,0,0.3,0,0.4c-0.1,0-0.3,0.1-0.5,0.1c-0.3,0.1-0.5,0.1-0.6,0.1
		c-0.3,0-0.8,0-1.4,0c-0.6,0-0.9,0-0.9,0c-0.1,0-0.1,0-0.2,0h-0.5c0,0.7,0.3,1.3,0.7,1.7c0.4,0.4,0.9,0.6,1.5,0.6
		c0.3,0,0.5,0,0.7-0.1c0.2-0.1,0.5-0.2,0.9-0.4L80.3,25z M78.7,22.2c0-0.7-0.1-1.2-0.3-1.5c-0.2-0.3-0.5-0.4-0.8-0.4
		c-0.4,0-0.6,0.1-0.9,0.4c-0.2,0.3-0.3,0.8-0.3,1.5c0.3,0,0.7,0.1,1.3,0.1C78.1,22.2,78.4,22.2,78.7,22.2z"/>
	<path fill="currentColor" d="M82.2,24.5l1-0.7c-0.3-0.1-0.6-0.3-0.8-0.4c-0.2-0.2-0.4-0.4-0.5-0.6c-0.1-0.3-0.2-0.6-0.2-0.9
		c0-0.4,0.1-0.8,0.3-1.2c0.2-0.4,0.6-0.7,1-0.9c0.5-0.2,1-0.3,1.7-0.3c0.4,0,0.8,0,1.2,0.1c0.4,0.1,0.7,0.2,0.9,0.4
		c0.3,0,0.4,0,0.5,0c0.1,0,0.5,0,1.1,0l-0.1,0.8h-1.1c0.1,0.2,0.1,0.4,0.1,0.7c0,0.5-0.1,0.9-0.4,1.3c-0.3,0.4-0.6,0.7-1.1,0.9
		c-0.5,0.2-1,0.3-1.5,0.3c-0.1,0-0.3,0-0.6,0c-0.1,0.1-0.2,0.2-0.3,0.3c-0.1,0.1-0.1,0.2-0.1,0.3c0,0.1,0,0.2,0.1,0.2
		c0.1,0.1,0.1,0.1,0.3,0.1c0.2,0,0.5,0,1.1,0l1.7,0c0.5,0,0.9,0.1,1.1,0.2c0.3,0.1,0.5,0.3,0.6,0.5c0.1,0.2,0.2,0.5,0.2,0.9
		c0,0.6-0.1,1.1-0.4,1.5c-0.3,0.5-0.7,0.8-1.2,1.1c-0.7,0.4-1.5,0.6-2.4,0.6c-0.7,0-1.3-0.1-1.8-0.3c-0.5-0.2-0.8-0.4-1-0.7
		c-0.2-0.3-0.3-0.6-0.3-0.9c0-0.2,0-0.4,0.1-0.5c0.1-0.2,0.1-0.3,0.2-0.3c0.1-0.1,0.2-0.2,0.5-0.3c0.4-0.2,0.7-0.4,0.7-0.4
		c-0.2,0-0.5-0.1-0.7-0.3c-0.2-0.2-0.3-0.4-0.3-0.6c0-0.1,0-0.2,0.1-0.4C82,24.8,82.1,24.6,82.2,24.5z M83.6,26.2
		c-0.4,0.2-0.6,0.5-0.7,0.7c-0.1,0.2-0.2,0.4-0.2,0.7c0,0.4,0.2,0.8,0.5,1c0.3,0.3,0.8,0.4,1.5,0.4c0.7,0,1.3-0.2,1.6-0.5
		c0.4-0.3,0.6-0.8,0.6-1.3c0-0.2,0-0.4-0.1-0.6c-0.1-0.1-0.2-0.2-0.3-0.3s-0.3-0.1-0.6-0.1c-0.2,0-0.8,0-1.7,0
		C84.1,26.2,83.8,26.2,83.6,26.2z M83.3,21.5c0,0.6,0.1,1.1,0.3,1.3c0.2,0.3,0.5,0.4,0.9,0.4c0.4,0,0.7-0.2,0.9-0.5
		c0.1-0.2,0.2-0.6,0.2-1c0-0.6-0.1-1.1-0.3-1.3c-0.2-0.3-0.5-0.4-0.9-0.4c-0.3,0-0.6,0.1-0.8,0.3C83.4,20.6,83.3,21,83.3,21.5z"/>
	<path fill="currentColor" d="M94.8,25l-0.3,0.7c-0.4,0.2-0.8,0.4-1.2,0.5c-0.3,0.1-0.6,0.1-1,0.1c-0.5,0-0.8-0.1-1.2-0.2
		c-0.3-0.1-0.6-0.2-0.9-0.4c-0.2-0.2-0.5-0.4-0.6-0.7c-0.2-0.3-0.3-0.6-0.4-0.9c-0.1-0.3-0.1-0.7-0.1-1.1c0-0.6,0.1-1.1,0.2-1.6
		c0.1-0.3,0.2-0.6,0.4-0.7c0.1-0.1,0.3-0.3,0.7-0.5c0.4-0.3,0.7-0.4,0.8-0.5c0.3-0.1,0.7-0.2,1.1-0.2c0.6,0,1.1,0.1,1.5,0.4
		c0.4,0.3,0.7,0.6,0.8,1c0.2,0.4,0.2,0.9,0.2,1.4c0,0.1,0,0.3,0,0.4c-0.1,0-0.3,0.1-0.5,0.1c-0.3,0.1-0.5,0.1-0.6,0.1
		c-0.3,0-0.8,0-1.4,0c-0.6,0-0.9,0-0.9,0c-0.1,0-0.1,0-0.2,0h-0.5c0,0.7,0.3,1.3,0.7,1.7c0.4,0.4,0.9,0.6,1.5,0.6
		c0.3,0,0.5,0,0.7-0.1c0.2-0.1,0.5-0.2,0.9-0.4L94.8,25z M93.2,22.2c0-0.7-0.1-1.2-0.3-1.5c-0.2-0.3-0.5-0.4-0.8-0.4
		c-0.4,0-0.6,0.1-0.9,0.4c-0.2,0.3-0.3,0.8-0.3,1.5c0.3,0,0.7,0.1,1.3,0.1C92.6,22.2,92.9,22.2,93.2,22.2z"/>
	<path fill="currentColor" d="M99.3,22.8c0-0.8,0.1-1.4,0.4-1.9c0.3-0.5,0.7-0.9,1.2-1.1c0.5-0.3,1.1-0.4,1.8-0.4c1.1,0,1.9,0.3,2.4,0.8
		c0.5,0.6,0.8,1.4,0.8,2.4c0,0.6-0.1,1.1-0.2,1.6c-0.2,0.5-0.4,0.8-0.6,1.1c-0.3,0.3-0.6,0.5-0.8,0.6c-0.5,0.2-1.1,0.4-1.7,0.4
		c-1,0-1.8-0.3-2.4-0.9C99.5,24.8,99.3,24,99.3,22.8z M101.2,22.5c0,1.2,0.2,2.1,0.5,2.6c0.2,0.3,0.6,0.5,1,0.5
		c0.4,0,0.7-0.1,0.9-0.4c0.3-0.3,0.4-1,0.4-2c0-0.7-0.1-1.3-0.2-1.8c-0.1-0.5-0.3-0.8-0.5-1c-0.2-0.2-0.5-0.3-0.8-0.3
		c-0.3,0-0.5,0.1-0.7,0.2c-0.2,0.1-0.4,0.4-0.5,0.7C101.2,21.4,101.2,21.9,101.2,22.5z"/>
	<path fill="currentColor" d="M106.8,26.1v-0.5c0.5,0,0.9-0.1,1-0.2c0.1-0.1,0.1-0.1,0.1-0.3c0-0.2,0.1-1,0.1-2.2v-2.1l-0.2,0l-0.9,0
		v-0.3c0.6-0.3,0.9-0.5,0.9-0.5c0.1,0,0.1-0.1,0.1-0.2c0-0.2,0-0.5,0-0.8c0-0.3,0.1-0.5,0.1-0.7c0-0.1,0.1-0.3,0.2-0.4
		c0.2-0.2,0.5-0.5,1-1l0.8-0.7c0.1-0.1,0.3-0.2,0.5-0.3c0.2-0.1,0.4-0.1,0.6-0.1c0.2,0,0.5,0,0.7,0.1c-0.1,0.5-0.1,0.9-0.1,1.4
		l-0.3,0.1c-0.1-0.1-0.3-0.2-0.4-0.3c-0.1,0-0.3-0.1-0.5-0.1c-0.3,0-0.5,0.1-0.6,0.1c-0.1,0.1-0.2,0.2-0.2,0.3
		c-0.1,0.2-0.1,0.6-0.1,1.4V20l0.8,0c0.4,0,0.7,0,1,0l0.1,0.1c0,0.1,0,0.2-0.1,0.2l-0.1,0.6l-0.7,0c-0.2,0-0.3,0-0.3,0
		c-0.1,0-0.3,0-0.7,0V23c0,0.5,0,1,0,1.4c0,0.4,0,0.7,0.1,0.8c0,0.1,0.1,0.1,0.1,0.2c0,0,0.1,0.1,0.2,0.1c0,0,0.3,0,0.9,0.1v0.5
		l-2.3,0C108.4,26,107.8,26,106.8,26.1z"/>
	<path fill="currentColor" d="M115.8,26.1v-0.4c0.3-0.1,0.5-0.3,0.7-0.4c0-0.2,0-0.5,0.1-0.9c0-0.8,0.1-1.4,0.1-1.7v-3.1
		c0-0.1,0-0.6,0-1.3c0-0.5,0-0.8-0.1-0.9c0,0-0.1-0.1-0.1-0.1c-0.1-0.1-0.5-0.1-1-0.1v-0.5l1.6,0c0.3,0,0.6,0,0.9,0
		c0.6,0,1.3,0,2.1,0l1.4,0c0.2,0,0.5,0,1,0c0,0,0.1,0,0.2,0l0,0.1l-0.1,1c0,0.1,0,0.4-0.1,1h-0.5c0-0.5,0-0.9-0.1-1
		c0-0.1,0-0.1-0.1-0.1c-0.1,0-0.2-0.1-0.5-0.1c-0.5-0.1-0.9-0.1-1.3-0.1c-0.4,0-0.8,0-1.2,0c-0.1,0.5-0.1,1.2-0.1,2v1.4
		c0.3,0,0.6,0,1,0c0.1,0,0.5,0,1.1,0c0.2,0,0.4,0,0.4,0c0,0,0.1-0.1,0.1-0.1c0.1-0.2,0.1-0.5,0.1-0.9h0.6l0,1.5l0,1.5h-0.6
		c0-0.5,0-0.9-0.1-1c-0.1-0.1-0.2-0.1-0.3-0.2c-0.3-0.1-0.7-0.1-1.2-0.1c-0.4,0-0.8,0-1.1,0v2.9c0,0.3,0,0.6,0,0.8
		c0.4,0,0.8,0,1.3,0c0.5,0,0.9,0,1.4,0c0.4,0,0.7-0.1,0.8-0.1c0,0,0.1-0.1,0.1-0.1c0.1-0.2,0.2-0.6,0.3-1.2h0.6
		c-0.1,0.9-0.2,1.6-0.2,2.2l-0.1,0.1c-0.3,0-0.7,0-1.2,0l-1.1,0c-1.1,0-1.8,0-2.2,0C118,26,117.2,26,115.8,26.1z"/>
	<path fill="currentColor" d="M131.7,25.6v0.5c-0.6,0-1.1,0-1.5,0c-0.5,0-0.8,0-1.2,0l-0.1-0.1c0-0.1,0-0.5,0.1-1.2l0-1.1v-0.5
		c0-0.8,0-1.3-0.1-1.6c-0.1-0.3-0.2-0.5-0.4-0.6c-0.2-0.2-0.4-0.2-0.8-0.2c-0.3,0-0.6,0.1-0.8,0.2c-0.2,0.2-0.3,0.3-0.4,0.5
		c0,0.1,0,0.5,0,1.1v1.1c0,0.3,0,0.7,0,1.2c0,0.2,0,0.4,0.1,0.4c0,0,0.1,0.1,0.1,0.1c0.1,0,0.2,0.1,0.3,0.1c0.1,0,0.2,0,0.6,0.1v0.5
		c-0.5,0-1.1,0-1.8,0c-0.8,0-1.5,0-1.9,0v-0.5c0.4,0,0.6,0,0.7-0.1c0.1,0,0.1-0.1,0.1-0.1c0-0.1,0.1-0.2,0.1-0.5l0-0.6
		c0-0.1,0-0.3,0-0.6v-0.9c0-0.4,0-0.9,0-1.5c0-0.3,0-0.5-0.1-0.5c0,0-0.1-0.1-0.1-0.1c-0.1,0-0.3-0.1-0.8-0.1v-0.5
		c0.8-0.1,1.4-0.2,1.6-0.3c0.3-0.1,0.6-0.2,0.9-0.3l0.2,0.1v1.1l1.2-1c0.2-0.1,0.3-0.1,0.4-0.1c0.1,0,0.2,0,0.4,0
		c0.5,0,0.9,0.1,1.1,0.2c0.2,0.1,0.4,0.3,0.6,0.5c0.2,0.2,0.3,0.4,0.4,0.6c0.1,0.2,0.1,0.6,0.1,1c0,0.5,0,0.9,0,1c0,0.1,0,0.1,0,0.2
		l0,0.7c0,0.8,0,1.3,0,1.4c0,0.2,0.1,0.3,0.1,0.4c0.1,0.1,0.2,0.1,0.4,0.1C131.4,25.5,131.5,25.5,131.7,25.6z"/>
	<path fill="currentColor" d="M133.2,24.5l1-0.7c-0.3-0.1-0.6-0.3-0.8-0.4c-0.2-0.2-0.4-0.4-0.5-0.6c-0.1-0.3-0.2-0.6-0.2-0.9
		c0-0.4,0.1-0.8,0.3-1.2c0.2-0.4,0.6-0.7,1-0.9c0.5-0.2,1-0.3,1.7-0.3c0.4,0,0.8,0,1.2,0.1c0.4,0.1,0.7,0.2,0.9,0.4
		c0.3,0,0.4,0,0.5,0c0.1,0,0.5,0,1.1,0l-0.1,0.8h-1.1c0.1,0.2,0.1,0.4,0.1,0.7c0,0.5-0.1,0.9-0.4,1.3c-0.3,0.4-0.6,0.7-1.1,0.9
		c-0.5,0.2-1,0.3-1.5,0.3c-0.1,0-0.3,0-0.6,0c-0.1,0.1-0.2,0.2-0.3,0.3c-0.1,0.1-0.1,0.2-0.1,0.3c0,0.1,0,0.2,0.1,0.2
		c0.1,0.1,0.1,0.1,0.3,0.1c0.2,0,0.5,0,1.1,0l1.7,0c0.5,0,0.9,0.1,1.1,0.2c0.3,0.1,0.5,0.3,0.6,0.5c0.1,0.2,0.2,0.5,0.2,0.9
		c0,0.6-0.1,1.1-0.4,1.5c-0.3,0.5-0.7,0.8-1.2,1.1c-0.7,0.4-1.5,0.6-2.4,0.6c-0.7,0-1.3-0.1-1.8-0.3c-0.5-0.2-0.8-0.4-1-0.7
		c-0.2-0.3-0.3-0.6-0.3-0.9c0-0.2,0-0.4,0.1-0.5c0.1-0.2,0.1-0.3,0.2-0.3c0.1-0.1,0.2-0.2,0.5-0.3c0.4-0.2,0.7-0.4,0.7-0.4
		c-0.2,0-0.5-0.1-0.7-0.3c-0.2-0.2-0.3-0.4-0.3-0.6c0-0.1,0-0.2,0.1-0.4C133,24.8,133.1,24.6,133.2,24.5z M134.6,26.2
		c-0.4,0.2-0.6,0.5-0.7,0.7c-0.1,0.2-0.2,0.4-0.2,0.7c0,0.4,0.2,0.8,0.5,1c0.3,0.3,0.8,0.4,1.5,0.4c0.7,0,1.3-0.2,1.6-0.5
		c0.4-0.3,0.6-0.8,0.6-1.3c0-0.2,0-0.4-0.1-0.6c-0.1-0.1-0.2-0.2-0.3-0.3c-0.1-0.1-0.3-0.1-0.6-0.1c-0.2,0-0.8,0-1.7,0
		C135.1,26.2,134.8,26.2,134.6,26.2z M134.3,21.5c0,0.6,0.1,1.1,0.3,1.3c0.2,0.3,0.5,0.4,0.9,0.4c0.4,0,0.7-0.2,0.9-0.5
		c0.1-0.2,0.2-0.6,0.2-1c0-0.6-0.1-1.1-0.3-1.3c-0.2-0.3-0.5-0.4-0.9-0.4c-0.3,0-0.6,0.1-0.8,0.3C134.4,20.6,134.3,21,134.3,21.5z"
		/>
	<path fill="currentColor" d="M139.9,26.1v-0.5c0.5,0,0.8-0.1,0.9-0.1c0.1,0,0.1-0.1,0.1-0.2c0-0.3,0.1-0.9,0.1-1.9c0-1.4,0-2.2-0.1-2.4
		c0-0.1,0-0.2-0.1-0.2c-0.1-0.1-0.4-0.1-0.9-0.1V20c0.7-0.1,1.2-0.1,1.6-0.2c0.4-0.1,0.7-0.2,1.1-0.4l0.2,0.1
		c-0.1,0.7-0.1,1.4-0.1,2v2.3c0,0.8,0,1.3,0.1,1.4c0,0.1,0.1,0.1,0.1,0.2c0.1,0.1,0.4,0.1,0.9,0.1v0.5c-0.6,0-1.4,0-2.1,0
		C141,26,140.4,26.1,139.9,26.1z M141.8,16.2c0.3,0,0.5,0.1,0.7,0.3c0.2,0.2,0.3,0.5,0.3,0.7c0,0.3-0.1,0.5-0.3,0.7
		c-0.2,0.2-0.4,0.3-0.7,0.3c-0.3,0-0.5-0.1-0.7-0.3c-0.2-0.2-0.3-0.5-0.3-0.7c0-0.3,0.1-0.5,0.3-0.7
		C141.3,16.3,141.5,16.2,141.8,16.2z"/>
	<path fill="currentColor" d="M152.3,25.6v0.5c-0.6,0-1.1,0-1.5,0c-0.5,0-0.8,0-1.2,0l-0.1-0.1c0-0.1,0-0.5,0.1-1.2l0-1.1v-0.5
		c0-0.8,0-1.3-0.1-1.6c-0.1-0.3-0.2-0.5-0.4-0.6c-0.2-0.2-0.4-0.2-0.8-0.2c-0.3,0-0.6,0.1-0.8,0.2c-0.2,0.2-0.3,0.3-0.4,0.5
		c0,0.1,0,0.5,0,1.1v1.1c0,0.3,0,0.7,0,1.2c0,0.2,0,0.4,0.1,0.4c0,0,0.1,0.1,0.1,0.1c0.1,0,0.2,0.1,0.3,0.1c0.1,0,0.2,0,0.6,0.1v0.5
		c-0.5,0-1.1,0-1.8,0c-0.8,0-1.5,0-1.9,0v-0.5c0.4,0,0.6,0,0.7-0.1c0.1,0,0.1-0.1,0.1-0.1c0-0.1,0.1-0.2,0.1-0.5l0-0.6
		c0-0.1,0-0.3,0-0.6v-0.9c0-0.4,0-0.9,0-1.5c0-0.3,0-0.5-0.1-0.5c0,0-0.1-0.1-0.1-0.1c-0.1,0-0.3-0.1-0.8-0.1v-0.5
		c0.8-0.1,1.4-0.2,1.6-0.3c0.3-0.1,0.6-0.2,0.9-0.3l0.2,0.1v1.1l1.2-1c0.2-0.1,0.3-0.1,0.4-0.1c0.1,0,0.2,0,0.4,0
		c0.5,0,0.9,0.1,1.1,0.2c0.2,0.1,0.4,0.3,0.6,0.5c0.2,0.2,0.3,0.4,0.4,0.6c0.1,0.2,0.1,0.6,0.1,1c0,0.5,0,0.9,0,1c0,0.1,0,0.1,0,0.2
		l0,0.7c0,0.8,0,1.3,0,1.4c0,0.2,0.1,0.3,0.1,0.4c0.1,0.1,0.2,0.1,0.4,0.1C151.9,25.5,152.1,25.5,152.3,25.6z"/>
	<path fill="currentColor" d="M158.7,25l-0.3,0.7c-0.4,0.2-0.8,0.4-1.2,0.5c-0.3,0.1-0.6,0.1-1,0.1c-0.5,0-0.8-0.1-1.2-0.2
		c-0.3-0.1-0.6-0.2-0.9-0.4c-0.2-0.2-0.5-0.4-0.6-0.7c-0.2-0.3-0.3-0.6-0.4-0.9c-0.1-0.3-0.1-0.7-0.1-1.1c0-0.6,0.1-1.1,0.2-1.6
		c0.1-0.3,0.2-0.6,0.4-0.7c0.1-0.1,0.3-0.3,0.7-0.5c0.4-0.3,0.7-0.4,0.8-0.5c0.3-0.1,0.7-0.2,1.1-0.2c0.6,0,1.1,0.1,1.5,0.4
		c0.4,0.3,0.7,0.6,0.8,1c0.2,0.4,0.2,0.9,0.2,1.4c0,0.1,0,0.3,0,0.4c-0.1,0-0.3,0.1-0.5,0.1c-0.3,0.1-0.5,0.1-0.6,0.1
		c-0.3,0-0.8,0-1.4,0c-0.6,0-0.9,0-0.9,0c-0.1,0-0.1,0-0.2,0h-0.5c0,0.7,0.3,1.3,0.7,1.7c0.4,0.4,0.9,0.6,1.5,0.6
		c0.3,0,0.5,0,0.7-0.1c0.2-0.1,0.5-0.2,0.9-0.4L158.7,25z M157.1,22.2c0-0.7-0.1-1.2-0.3-1.5c-0.2-0.3-0.5-0.4-0.8-0.4
		c-0.4,0-0.6,0.1-0.9,0.4c-0.2,0.3-0.3,0.8-0.3,1.5c0.3,0,0.7,0.1,1.3,0.1C156.5,22.2,156.8,22.2,157.1,22.2z"/>
	<path fill="currentColor" d="M165.6,25l-0.3,0.7c-0.4,0.2-0.8,0.4-1.2,0.5c-0.3,0.1-0.6,0.1-1,0.1c-0.5,0-0.8-0.1-1.2-0.2
		c-0.3-0.1-0.6-0.2-0.9-0.4c-0.2-0.2-0.5-0.4-0.6-0.7c-0.2-0.3-0.3-0.6-0.4-0.9c-0.1-0.3-0.1-0.7-0.1-1.1c0-0.6,0.1-1.1,0.2-1.6
		c0.1-0.3,0.2-0.6,0.4-0.7c0.1-0.1,0.3-0.3,0.7-0.5c0.4-0.3,0.7-0.4,0.8-0.5c0.3-0.1,0.7-0.2,1.1-0.2c0.6,0,1.1,0.1,1.5,0.4
		c0.4,0.3,0.7,0.6,0.8,1c0.2,0.4,0.2,0.9,0.2,1.4c0,0.1,0,0.3,0,0.4c-0.1,0-0.3,0.1-0.5,0.1c-0.3,0.1-0.5,0.1-0.6,0.1
		c-0.3,0-0.8,0-1.4,0c-0.6,0-0.9,0-0.9,0c-0.1,0-0.1,0-0.2,0h-0.5c0,0.7,0.3,1.3,0.7,1.7c0.4,0.4,0.9,0.6,1.5,0.6
		c0.3,0,0.5,0,0.7-0.1c0.2-0.1,0.5-0.2,0.9-0.4L165.6,25z M164,22.2c0-0.7-0.1-1.2-0.3-1.5c-0.2-0.3-0.5-0.4-0.8-0.4
		c-0.4,0-0.6,0.1-0.9,0.4c-0.2,0.3-0.3,0.8-0.3,1.5c0.3,0,0.7,0.1,1.3,0.1C163.4,22.2,163.7,22.2,164,22.2z"/>
	<path fill="currentColor" d="M170.5,25.5v0.5c-0.5,0-1.1,0-1.7,0c-0.7,0-1.4,0-2.2,0v-0.5c0.4,0,0.6,0,0.7-0.1c0.1,0,0.1-0.1,0.1-0.1
		c0-0.1,0.1-0.2,0.1-0.5l0-0.6c0-0.1,0-0.3,0-0.6v-0.9c0-0.4,0-0.9,0-1.5c0-0.3,0-0.5-0.1-0.5c0,0-0.1-0.1-0.1-0.1
		c-0.1,0-0.3-0.1-0.8-0.1v-0.5c0.8-0.1,1.4-0.2,1.6-0.3c0.3-0.1,0.6-0.2,0.9-0.3l0.2,0.1l0,1.4c0.3-0.3,0.5-0.6,0.7-0.8
		c0.2-0.3,0.4-0.5,0.5-0.5c0.2-0.1,0.4-0.2,0.6-0.2c0.2,0,0.3,0,0.5,0.1l0,1c0,0.5,0,0.8,0,0.9l-0.3,0.1c-0.1-0.2-0.2-0.3-0.3-0.3
		c-0.2-0.1-0.4-0.1-0.6-0.1c-0.3,0-0.5,0.1-0.7,0.2c-0.2,0.2-0.3,0.3-0.3,0.5c0,0.1,0,0.5,0,1.2v0.7l0,0.9c0,0.3,0,0.6,0,0.6
		c0,0.1,0.1,0.1,0.1,0.2c0.1,0,0.2,0.1,0.5,0.1L170.5,25.5z"/>
	<path fill="currentColor" d="M171.9,26.1v-0.5c0.5,0,0.8-0.1,0.9-0.1c0.1,0,0.1-0.1,0.1-0.2c0-0.3,0.1-0.9,0.1-1.9c0-1.4,0-2.2-0.1-2.4
		c0-0.1,0-0.2-0.1-0.2c-0.1-0.1-0.4-0.1-0.9-0.1V20c0.7-0.1,1.2-0.1,1.6-0.2c0.4-0.1,0.7-0.2,1.1-0.4l0.2,0.1
		c-0.1,0.7-0.1,1.4-0.1,2v2.3c0,0.8,0,1.3,0.1,1.4c0,0.1,0.1,0.1,0.1,0.2c0.1,0.1,0.4,0.1,0.9,0.1v0.5c-0.6,0-1.4,0-2.1,0
		C173,26,172.4,26.1,171.9,26.1z M173.8,16.2c0.3,0,0.5,0.1,0.7,0.3c0.2,0.2,0.3,0.5,0.3,0.7c0,0.3-0.1,0.5-0.3,0.7
		c-0.2,0.2-0.4,0.3-0.7,0.3c-0.3,0-0.5-0.1-0.7-0.3c-0.2-0.2-0.3-0.5-0.3-0.7c0-0.3,0.1-0.5,0.3-0.7
		C173.2,16.3,173.5,16.2,173.8,16.2z"/>
	<path fill="currentColor" d="M184.2,25.6v0.5c-0.6,0-1.1,0-1.5,0c-0.5,0-0.8,0-1.2,0l-0.1-0.1c0-0.1,0-0.5,0.1-1.2l0-1.1v-0.5
		c0-0.8,0-1.3-0.1-1.6c-0.1-0.3-0.2-0.5-0.4-0.6c-0.2-0.2-0.4-0.2-0.8-0.2c-0.3,0-0.6,0.1-0.8,0.2c-0.2,0.2-0.3,0.3-0.4,0.5
		c0,0.1,0,0.5,0,1.1v1.1c0,0.3,0,0.7,0,1.2c0,0.2,0,0.4,0.1,0.4c0,0,0.1,0.1,0.1,0.1c0.1,0,0.2,0.1,0.3,0.1c0.1,0,0.2,0,0.6,0.1v0.5
		c-0.5,0-1.1,0-1.8,0c-0.8,0-1.5,0-1.9,0v-0.5c0.4,0,0.6,0,0.7-0.1c0.1,0,0.1-0.1,0.1-0.1c0-0.1,0.1-0.2,0.1-0.5l0-0.6
		c0-0.1,0-0.3,0-0.6v-0.9c0-0.4,0-0.9,0-1.5c0-0.3,0-0.5-0.1-0.5c0,0-0.1-0.1-0.1-0.1c-0.1,0-0.3-0.1-0.8-0.1v-0.5
		c0.8-0.1,1.4-0.2,1.6-0.3c0.3-0.1,0.6-0.2,0.9-0.3l0.2,0.1v1.1l1.2-1c0.2-0.1,0.3-0.1,0.4-0.1c0.1,0,0.2,0,0.4,0
		c0.5,0,0.9,0.1,1.1,0.2c0.2,0.1,0.4,0.3,0.6,0.5c0.2,0.2,0.3,0.4,0.4,0.6c0.1,0.2,0.1,0.6,0.1,1c0,0.5,0,0.9,0,1c0,0.1,0,0.1,0,0.2
		l0,0.7c0,0.8,0,1.3,0,1.4c0,0.2,0.1,0.3,0.1,0.4c0.1,0.1,0.2,0.1,0.4,0.1C183.9,25.5,184,25.5,184.2,25.6z"/>
	<path fill="currentColor" d="M185.7,24.5l1-0.7c-0.3-0.1-0.6-0.3-0.8-0.4c-0.2-0.2-0.4-0.4-0.5-0.6c-0.1-0.3-0.2-0.6-0.2-0.9
		c0-0.4,0.1-0.8,0.3-1.2c0.2-0.4,0.6-0.7,1-0.9c0.5-0.2,1-0.3,1.7-0.3c0.4,0,0.8,0,1.2,0.1c0.4,0.1,0.7,0.2,0.9,0.4
		c0.3,0,0.4,0,0.5,0c0.1,0,0.5,0,1.1,0l-0.1,0.8h-1.1c0.1,0.2,0.1,0.4,0.1,0.7c0,0.5-0.1,0.9-0.4,1.3c-0.3,0.4-0.6,0.7-1.1,0.9
		c-0.5,0.2-1,0.3-1.5,0.3c-0.1,0-0.3,0-0.6,0c-0.1,0.1-0.2,0.2-0.3,0.3c-0.1,0.1-0.1,0.2-0.1,0.3c0,0.1,0,0.2,0.1,0.2
		c0.1,0.1,0.1,0.1,0.3,0.1c0.2,0,0.5,0,1.1,0l1.7,0c0.5,0,0.9,0.1,1.1,0.2c0.3,0.1,0.5,0.3,0.6,0.5c0.1,0.2,0.2,0.5,0.2,0.9
		c0,0.6-0.1,1.1-0.4,1.5c-0.3,0.5-0.7,0.8-1.2,1.1c-0.7,0.4-1.5,0.6-2.4,0.6c-0.7,0-1.3-0.1-1.8-0.3c-0.5-0.2-0.8-0.4-1-0.7
		c-0.2-0.3-0.3-0.6-0.3-0.9c0-0.2,0-0.4,0.1-0.5c0.1-0.2,0.1-0.3,0.2-0.3c0.1-0.1,0.2-0.2,0.5-0.3c0.4-0.2,0.7-0.4,0.7-0.4
		c-0.2,0-0.5-0.1-0.7-0.3c-0.2-0.2-0.3-0.4-0.3-0.6c0-0.1,0-0.2,0.1-0.4C185.6,24.8,185.6,24.6,185.7,24.5z M187.1,26.2
		c-0.4,0.2-0.6,0.5-0.7,0.7c-0.1,0.2-0.2,0.4-0.2,0.7c0,0.4,0.2,0.8,0.5,1c0.3,0.3,0.8,0.4,1.5,0.4c0.7,0,1.3-0.2,1.6-0.5
		c0.4-0.3,0.6-0.8,0.6-1.3c0-0.2,0-0.4-0.1-0.6c-0.1-0.1-0.2-0.2-0.3-0.3s-0.3-0.1-0.6-0.1c-0.2,0-0.8,0-1.7,0
		C187.6,26.2,187.4,26.2,187.1,26.2z M186.9,21.5c0,0.6,0.1,1.1,0.3,1.3c0.2,0.3,0.5,0.4,0.9,0.4c0.4,0,0.7-0.2,0.9-0.5
		c0.1-0.2,0.2-0.6,0.2-1c0-0.6-0.1-1.1-0.3-1.3c-0.2-0.3-0.5-0.4-0.9-0.4c-0.3,0-0.6,0.1-0.8,0.3C187,20.6,186.9,21,186.9,21.5z"/>
	<path fill="currentColor" d="M47.6,36.2v-0.4l1.7,0l0.7,0l0.7,0l0.2,0v0.4c-0.4,0-0.6,0-0.7,0.1c-0.1,0-0.1,0.1-0.1,0.2
		c-0.1,0.2-0.1,0.7-0.1,1.5v1.2l0,0.6c0,0.7,0,1.1,0,1.2c0,0.3,0.1,0.6,0.3,0.8c0.1,0.2,0.3,0.4,0.6,0.5c0.3,0.1,0.6,0.2,1.1,0.2
		c0.5,0,0.9-0.1,1.2-0.3c0.3-0.2,0.5-0.4,0.6-0.7c0.1-0.3,0.2-0.8,0.2-1.6V39c0-0.9,0-1.5,0-1.7c0-0.5,0-0.7-0.1-0.8
		c0-0.1-0.1-0.1-0.1-0.1c-0.1-0.1-0.4-0.1-0.8-0.1v-0.4c0.6,0,1,0,1.2,0c0,0,0.1,0,0.1,0l1.2,0v0.4c-0.3,0-0.5,0-0.6,0.1
		c0,0-0.1,0.1-0.1,0.2c0,0.1-0.1,0.4-0.1,1.1c0,0.6,0,1.2,0,1.5v1.3c0,0.3,0,0.7-0.1,1c0,0.3-0.1,0.6-0.3,0.9
		c-0.1,0.2-0.3,0.5-0.6,0.7c-0.3,0.2-0.6,0.3-0.9,0.4c-0.4,0.1-0.8,0.2-1.2,0.2c-0.5,0-1.1-0.1-1.5-0.2c-0.3-0.1-0.6-0.3-0.8-0.4
		c-0.2-0.2-0.4-0.4-0.5-0.6c-0.1-0.2-0.2-0.4-0.2-0.6c0-0.1,0-0.5,0-1l0-1v-1.4c0-0.5,0-1,0-1.4c0-0.2,0-0.3-0.1-0.3
		c0,0-0.1-0.1-0.1-0.1L47.6,36.2z"/>
	<path fill="currentColor" d="M56.3,42.8c0.4,0,0.7,0,0.7-0.1c0,0,0.1,0,0.1-0.1c0,0,0-0.1,0.1-0.2c0-0.1,0-0.5,0.1-1c0-0.3,0-0.7,0-1.2
		v-1.7l0-1.6c0-0.3,0-0.4,0-0.5c0-0.1,0-0.1-0.1-0.2c0,0-0.1-0.1-0.2-0.1c-0.1,0-0.3,0-0.7-0.1v-0.5c0.5,0,0.8,0,1,0l0.8,0l0.5,0
		c0.7,1,1.6,2.1,2.7,3.3c0.8,0.9,1.4,1.6,1.9,2.1V40c0-1.9,0-3.1-0.1-3.4c0-0.1,0-0.2-0.1-0.3c-0.1-0.1-0.4-0.1-0.8-0.1v-0.5
		c0.4,0,0.8,0,1.2,0c0.4,0,0.8,0,1.4,0v0.5c-0.4,0-0.7,0-0.8,0.1c0,0,0,0-0.1,0.1c-0.1,0.2-0.1,0.6-0.1,1.2c0,0.6,0,1.1,0,1.4
		c0,2.4,0,3.8,0.1,4.3l-0.1,0c-0.3-0.1-0.6-0.1-0.9-0.1C61.6,42,60,40,57.9,37.4v2.7c0,0.6,0,1.1,0,1.7c0,0.4,0,0.7,0.1,0.8
		c0,0,0,0.1,0.1,0.1c0,0,0.1,0,0.2,0.1c0.2,0,0.4,0,0.5,0c0,0,0.1,0,0.1,0v0.4c-0.7,0-1.1,0-1.2,0c-0.3,0-0.8,0-1.4,0V42.8z"/>
	<path fill="currentColor" d="M68.9,35.8v0.5c-0.4,0-0.6,0-0.6,0c-0.1,0-0.1,0-0.1,0.1c0,0,0,0.1-0.1,0.1c0,0.1,0,0.2-0.1,0.3
		c0,0.1,0,0.3,0,0.5c0,0.9,0,1.4,0,1.4v2.2l0,1c0,0.4,0,0.6,0.1,0.7c0,0.1,0,0.1,0.1,0.1c0,0,0.1,0,0.2,0.1c0.1,0,0.3,0,0.6,0v0.5
		c-0.6,0-1.2,0-1.9,0c-0.6,0-1.1,0-1.5,0v-0.5c0.4,0,0.6,0,0.6,0c0.1,0,0.1,0,0.2-0.1c0,0,0-0.1,0.1-0.1c0,0,0-0.2,0-0.5
		c0-0.4,0-0.8,0-1.2v-2.2c0-0.7,0-1.2,0-1.4c0-0.5,0-0.7-0.1-0.9c0,0,0-0.1-0.1-0.1c0,0-0.1,0-0.1-0.1c-0.1,0-0.3,0-0.7,0v-0.5
		c0.5,0,1,0,1.6,0C67.7,35.8,68.4,35.8,68.9,35.8z"/>
	<path fill="currentColor" d="M73.3,43.3c-0.3-0.8-0.6-1.5-0.9-2.1l-0.8-1.8c-0.6-1.4-1-2.3-1.1-2.6c-0.1-0.3-0.2-0.4-0.3-0.5
		c-0.1-0.1-0.3-0.1-0.7-0.1v-0.5c0.9,0,1.4,0,1.6,0l1.9,0v0.5c-0.3,0-0.5,0-0.7,0.1c-0.1,0-0.1,0-0.2,0.1c0,0,0,0.1,0,0.1
		c0,0.1,0.1,0.4,0.4,1c0.1,0.3,0.2,0.5,0.2,0.5c0,0,0,0.1,0,0.1l1.4,3.3l1.2-3c0-0.1,0.2-0.4,0.4-1c0.2-0.4,0.3-0.7,0.3-0.9
		c0,0,0-0.1,0-0.1c0-0.1,0-0.1,0-0.1c0,0,0-0.1-0.1-0.1c0,0-0.1,0-0.2,0c-0.2,0-0.4,0-0.6,0v-0.5l1.4,0l1.2,0v0.5
		c-0.3,0-0.5,0.1-0.6,0.1c-0.1,0.1-0.3,0.5-0.6,1.2l-0.4,0.9l-0.7,1.7c-0.6,1.5-1,2.5-1.3,3.1H73.3z"/>
	<path fill="currentColor" d="M78.5,43.3V43c0.2-0.1,0.4-0.2,0.5-0.3c0-0.2,0-0.4,0.1-0.7c0-0.6,0-1.1,0-1.3v-2.4c0-0.1,0-0.4,0-1
		c0-0.4,0-0.7-0.1-0.7c0,0,0-0.1-0.1-0.1c-0.1,0-0.4-0.1-0.8-0.1v-0.4l1.2,0c0.2,0,0.5,0,0.7,0c0.5,0,1,0,1.6,0l1.1,0
		c0.1,0,0.4,0,0.8,0c0,0,0.1,0,0.2,0l0,0.1l-0.1,0.8c0,0.1,0,0.3-0.1,0.8h-0.4c0-0.4,0-0.7,0-0.8c0-0.1,0-0.1-0.1-0.1
		c0,0-0.2-0.1-0.4-0.1c-0.4,0-0.7-0.1-1-0.1c-0.3,0-0.6,0-1,0c0,0.4-0.1,0.9-0.1,1.6v1.1c0.2,0,0.5,0,0.8,0c0.1,0,0.4,0,0.9,0
		c0.2,0,0.3,0,0.3,0c0,0,0.1-0.1,0.1-0.1c0-0.1,0.1-0.4,0.1-0.7h0.4l0,1.2l0,1.2h-0.4c0-0.4,0-0.7-0.1-0.8c0-0.1-0.1-0.1-0.2-0.1
		c-0.2,0-0.6-0.1-1-0.1c-0.3,0-0.6,0-0.9,0v2.3c0,0.3,0,0.5,0,0.6c0.3,0,0.6,0,1,0c0.4,0,0.7,0,1.1,0c0.3,0,0.5-0.1,0.6-0.1
		c0,0,0,0,0.1-0.1c0.1-0.2,0.1-0.5,0.2-1h0.4C84,42.1,84,42.7,84,43.2l-0.1,0.1c-0.2,0-0.6,0-1,0l-0.9,0c-0.9,0-1.4,0-1.8,0
		C80.2,43.2,79.6,43.2,78.5,43.3z"/>
	<path fill="currentColor" d="M85,36.2v-0.4c0.1,0,0.4,0,0.9,0c0.2,0,0.6,0,1,0c0.4,0,0.7,0,1,0c0.4,0,0.8,0,1.1,0c0.6,0,1,0,1.3,0.1
		c0.3,0.1,0.5,0.2,0.7,0.5c0.2,0.3,0.3,0.6,0.3,0.9c0,0.4-0.1,0.8-0.4,1.2c-0.3,0.4-0.7,0.6-1.2,0.8c0.1,0.2,0.2,0.3,0.3,0.5
		c0.1,0.2,0.2,0.3,0.2,0.3c0,0,0,0.1,0.1,0.1l0.8,1.2c0.2,0.3,0.3,0.5,0.4,0.5c0.3,0.4,0.4,0.6,0.5,0.6c0.1,0.1,0.1,0.1,0.2,0.1
		c0.1,0,0.2,0,0.3,0v0.5c-0.6,0-1,0-1.2,0c-0.3,0-0.6,0-0.9,0c0-0.1-0.1-0.2-0.1-0.3L89,41.1c-0.3-0.5-0.6-1-0.8-1.3
		c-0.1-0.2-0.2-0.3-0.3-0.4l0.1-0.2c0.4,0,0.8,0,1-0.1c0.2-0.1,0.4-0.3,0.6-0.5s0.2-0.6,0.2-0.9c0-0.3-0.1-0.6-0.2-0.8
		c-0.2-0.2-0.4-0.4-0.6-0.5c-0.2-0.1-0.4-0.1-0.8-0.1c-0.2,0-0.3,0-0.5,0c0,0.1,0,0.4,0,0.9c0,1,0,1.7,0,2c0,0.5,0,1.1,0,1.7
		c0,0.7,0,1.2,0,1.3c0,0.2,0,0.3,0.1,0.4c0,0,0,0.1,0.1,0.1c0,0,0.1,0,0.2,0.1c0.1,0,0.3,0,0.6,0v0.5c-0.6,0-1.2,0-1.9,0
		c-0.6,0-1.1,0-1.6,0v-0.5c0.4,0,0.6,0,0.7-0.1c0,0,0.1,0,0.1-0.1c0,0,0-0.1,0-0.2c0-0.1,0-0.4,0.1-0.6l0-1.6v-2l0-1.1
		c0-0.4,0-0.7-0.1-0.8c0,0,0-0.1-0.1-0.1C85.7,36.3,85.4,36.2,85,36.2z"/>
	<path fill="currentColor" d="M98,37.7h-0.5c0-0.4,0-0.7-0.1-0.9c-0.1-0.2-0.3-0.3-0.6-0.4c-0.3-0.1-0.6-0.2-0.9-0.2
		c-0.5,0-0.9,0.1-1.1,0.4c-0.3,0.2-0.4,0.5-0.4,0.9c0,0.2,0,0.4,0.1,0.6c0.1,0.1,0.2,0.3,0.3,0.3c0.1,0.1,0.3,0.2,0.6,0.2
		c0.2,0,0.5,0.1,0.9,0.2c0.4,0.1,0.6,0.1,0.7,0.1c0.3,0.1,0.5,0.2,0.7,0.3c0.2,0.1,0.3,0.2,0.4,0.4c0.1,0.1,0.2,0.3,0.3,0.5
		c0.1,0.2,0.1,0.4,0.1,0.7c0,0.5-0.1,0.9-0.3,1.2c-0.1,0.3-0.3,0.5-0.6,0.7c-0.3,0.2-0.5,0.4-0.8,0.5c-0.4,0.2-0.9,0.3-1.5,0.3
		c-0.4,0-0.8,0-1.2-0.1c-0.3-0.1-0.7-0.2-1.1-0.4c0.1-0.4,0.2-1,0.2-1.9h0.5c0,0.3,0,0.6,0.1,1c0.1,0.2,0.4,0.4,0.7,0.6
		c0.3,0.2,0.7,0.3,1.1,0.3c0.3,0,0.6-0.1,0.9-0.2c0.3-0.1,0.5-0.3,0.6-0.5c0.1-0.2,0.2-0.5,0.2-0.7c0-0.2,0-0.4-0.1-0.6
		c-0.1-0.2-0.2-0.3-0.4-0.4c-0.2-0.1-0.5-0.2-0.9-0.3c-0.6-0.1-1.1-0.2-1.3-0.3c-0.3-0.1-0.6-0.2-0.7-0.4c-0.2-0.2-0.3-0.4-0.4-0.6
		c-0.1-0.2-0.1-0.5-0.1-0.8c0-0.4,0.1-0.8,0.3-1.1c0.2-0.3,0.4-0.6,0.7-0.8c0.3-0.2,0.6-0.3,0.9-0.4c0.3-0.1,0.7-0.1,1.1-0.1
		c0.4,0,0.7,0,1.1,0.1c0.4,0.1,0.7,0.2,0.9,0.3l0,0.1c-0.1,0.2-0.1,0.5-0.1,0.7C98.1,37.1,98.1,37.4,98,37.7z"/>
	<path fill="currentColor" d="M102.9,35.8v0.5c-0.4,0-0.6,0-0.6,0c-0.1,0-0.1,0-0.1,0.1c0,0,0,0.1-0.1,0.1c0,0.1,0,0.2-0.1,0.3
		c0,0.1,0,0.3,0,0.5c0,0.9,0,1.4,0,1.4v2.2l0,1c0,0.4,0,0.6,0.1,0.7c0,0.1,0,0.1,0.1,0.1c0,0,0.1,0,0.2,0.1c0.1,0,0.3,0,0.6,0v0.5
		c-0.6,0-1.2,0-1.9,0c-0.6,0-1.1,0-1.5,0v-0.5c0.4,0,0.6,0,0.6,0c0.1,0,0.1,0,0.2-0.1c0,0,0-0.1,0.1-0.1c0,0,0-0.2,0-0.5
		c0-0.4,0-0.8,0-1.2v-2.2c0-0.7,0-1.2,0-1.4c0-0.5,0-0.7-0.1-0.9c0,0,0-0.1-0.1-0.1c0,0-0.1,0-0.1-0.1c-0.1,0-0.3,0-0.7,0v-0.5
		c0.5,0,1,0,1.6,0C101.7,35.8,102.4,35.8,102.9,35.8z"/>
	<path fill="currentColor" d="M105.2,43.3v-0.4c0.4,0,0.7,0,0.8-0.1c0.1,0,0.1-0.1,0.2-0.2c0-0.2,0.1-0.6,0.1-1.4v-3.2c0-0.9,0-1.4,0-1.5
		h-0.8c-0.4,0-0.7,0-1,0c-0.1,0-0.2,0-0.2,0c0,0,0,0.1-0.1,0.2c0,0.3-0.1,0.5-0.1,0.8h-0.4c0-0.7,0-1.1,0-1.2c0-0.2,0-0.3-0.1-0.5
		l0-0.1c0.2,0,0.3,0,0.5,0c0.3,0,0.9,0,1.8,0h2.2c0.9,0,1.5,0,1.8,0c0.2,0,0.3,0,0.5,0l0.1,0.1c0,0.2-0.1,0.4-0.1,0.6
		c0,0,0,0.4,0,1.2h-0.4c0-0.3,0-0.5-0.1-0.8c0-0.1,0-0.2-0.1-0.2c0,0-0.1,0-0.2,0c-0.3,0-0.6,0-1.1,0h-0.8c0,0.1,0,0.6,0,1.5v3.2
		c0,0.8,0,1.2,0.1,1.4c0,0.1,0.1,0.2,0.2,0.2c0.1,0,0.3,0.1,0.8,0.1v0.4c-0.7,0-1.3,0-1.8,0C106.5,43.2,105.9,43.2,105.2,43.3z"/>
	<path fill="currentColor" d="M115,39.3l0.7-1.1c0.1-0.2,0.5-0.8,1-1.8c0.2-0.3,0.3-0.6,0.4-0.7h0.9V36c-0.4,0.6-0.9,1.3-1.4,2.1
		c-0.5,0.8-0.8,1.3-0.9,1.5c-0.1,0.2-0.1,0.3-0.2,0.4c0,0.1,0,0.2,0,0.4v0.9c0,0.5,0,0.8,0,1c0,0.2,0.1,0.3,0.1,0.4
		c0,0,0.1,0.1,0.2,0.1c0.1,0,0.3,0,0.7,0v0.5c-0.7,0-1.3,0-1.9,0c-0.5,0-1.1,0-1.6,0v-0.5c0.4,0,0.6,0,0.7,0c0.1,0,0.1,0,0.1-0.1
		c0,0,0-0.1,0.1-0.3c0-0.4,0-0.8,0-1v-1c0-0.1-0.1-0.3-0.2-0.5c-0.3-0.6-0.7-1.2-1.1-1.8c-0.3-0.5-0.6-0.9-0.9-1.2
		c-0.2-0.2-0.3-0.3-0.4-0.3c0,0-0.2,0-0.5,0V36l1.1-0.2c0.2,0,0.4-0.1,0.6-0.1c0.2,0.1,0.4,0.2,0.5,0.3c0.1,0.1,0.2,0.3,0.4,0.5
		c0.3,0.4,0.5,0.8,0.8,1.3C114.6,38.6,114.9,39.1,115,39.3z"/>
	<path fill="currentColor" d="M120.8,41.7c0-0.4,0.1-0.9,0.2-1.4c0.1-0.5,0.3-0.8,0.5-1c0.1-0.1,0.3-0.3,0.6-0.5c0.3-0.2,0.6-0.4,0.9-0.5
		c0.3-0.1,0.7-0.2,1-0.2c0.3,0,0.6,0,0.8,0.1c0.3,0.1,0.4,0.2,0.6,0.4c0.1,0.1,0.2,0.3,0.3,0.5c0.1,0.2,0.1,0.4,0.1,0.7
		c0,0.5-0.1,0.9-0.2,1.4c-0.2,0.5-0.3,0.8-0.5,1.1c-0.1,0.2-0.4,0.4-0.7,0.6c-0.3,0.2-0.6,0.4-0.9,0.5c-0.3,0.1-0.6,0.2-1,0.2
		c-0.4,0-0.8-0.1-1-0.2c-0.2-0.2-0.4-0.4-0.5-0.6C120.9,42.3,120.8,42.1,120.8,41.7z M122.1,41.7c0,0.4,0.1,0.8,0.2,0.9
		c0.2,0.2,0.4,0.3,0.7,0.3c0.2,0,0.4,0,0.5-0.1c0.1-0.1,0.3-0.3,0.4-0.5c0.1-0.2,0.2-0.5,0.3-0.9c0.2-0.6,0.2-1.1,0.2-1.6
		c0-0.4-0.1-0.8-0.3-0.9c-0.2-0.2-0.4-0.3-0.7-0.3c-0.3,0-0.5,0.1-0.7,0.3c-0.2,0.2-0.4,0.6-0.5,1.2
		C122.2,40.7,122.1,41.2,122.1,41.7z"/>
	<path fill="currentColor" d="M126.9,38.8l0-0.3c0.1,0,0.3-0.1,0.5-0.2c0.2-0.1,0.4-0.1,0.6-0.2c0-0.1,0-0.1,0.1-0.3
		c0.1-0.3,0.1-0.5,0.2-0.6c0.1-0.2,0.2-0.4,0.4-0.6c0.3-0.3,0.7-0.6,1-0.8c0.4-0.3,0.6-0.4,0.8-0.5c0.1-0.1,0.3-0.1,0.5-0.1
		c0.1,0,0.3,0,0.4,0.1c-0.1,0.5-0.2,0.9-0.3,1.4l-0.2,0c-0.2-0.2-0.3-0.4-0.4-0.5c-0.1-0.1-0.3-0.1-0.4-0.1c-0.1,0-0.2,0-0.3,0.1
		c-0.1,0.1-0.1,0.1-0.2,0.2c0,0.1-0.1,0.2-0.1,0.4c-0.1,0.5-0.2,1-0.3,1.4h0.1c0.1,0,0.3,0,0.7,0c0.2,0,0.4,0,0.5-0.1l0.1,0.1
		c-0.1,0.2-0.1,0.4-0.2,0.6c-0.2,0-0.4,0-0.8,0c-0.2,0-0.4,0-0.5,0l-0.6,2.6c-0.3,1.2-0.5,2-0.7,2.5c-0.2,0.5-0.5,1-0.8,1.4
		c-0.3,0.4-0.7,0.7-1,0.9c-0.2,0.1-0.4,0.1-0.5,0.1c-0.1,0-0.3,0-0.4-0.1c0.1-0.3,0.2-0.5,0.2-0.6c0-0.2,0.1-0.3,0.1-0.5l0.2,0
		c0.1,0.2,0.2,0.3,0.2,0.4c0.1,0.1,0.2,0.1,0.3,0.1c0.1,0,0.2,0,0.3-0.1c0.1-0.1,0.2-0.2,0.2-0.4c0.1-0.3,0.3-1.1,0.5-2.2l0.8-4
		c-0.2,0-0.5,0-0.7,0C127.1,38.8,127,38.8,126.9,38.8z"/>
	<path fill="currentColor" d="M138.7,40.7h-0.5c0-0.4,0-0.7-0.1-0.8c0,0-0.1-0.1-0.2-0.1c-0.3,0-0.7-0.1-1.3-0.1c-0.1,0-0.2,0-0.4,0v0.6
		c0,0.8,0,1.4,0,1.8s0,0.5,0.1,0.6c0,0,0.1,0.1,0.1,0.1c0.1,0,0.3,0.1,0.8,0.1v0.4l-2.1,0c-0.3,0-0.8,0-1.4,0v-0.4
		c0.4,0,0.7,0,0.7,0c0,0,0.1,0,0.1-0.1c0,0,0.1-0.1,0.1-0.3c0-0.1,0-0.3,0-0.8c0-0.4,0-0.7,0-0.9v-2.2c0,0,0-0.6,0-1.5
		c0-0.3,0-0.5-0.1-0.6c0,0,0-0.1-0.1-0.1c0,0-0.1,0-0.2-0.1c-0.1,0-0.3,0-0.6-0.1v-0.5l1.9,0l2.6,0c0.4,0,0.7,0,1,0.1l0,0.1
		c0,0.2-0.1,0.5-0.1,0.8c0,0.3,0,0.6,0,0.8h-0.4c0-0.1,0-0.3,0-0.6c0-0.2,0-0.3,0-0.3c0,0,0,0,0-0.1c-0.1,0-0.2-0.1-0.4-0.1
		c-0.2,0-0.5-0.1-0.8-0.1c-0.1,0-0.2,0-0.5,0c-0.3,0-0.5,0-0.6,0c0,0.4-0.1,1-0.1,1.9v0.7c0.5,0,0.8,0,0.9,0c0.5,0,0.8,0,0.9-0.1
		c0,0,0.1-0.1,0.1-0.1c0-0.1,0.1-0.3,0.1-0.6h0.5C138.7,38.9,138.7,39.7,138.7,40.7z"/>
	<path fill="currentColor" d="M140.3,43.3V43c0.1,0,0.2-0.1,0.4-0.2c0.1,0,0.1-0.1,0.1-0.1c0,0,0,0,0-0.1c0-0.1,0-0.4,0-1
		c0-0.5,0-1.2,0-2c0-1.1,0-1.8,0-2.1c0-0.7,0-1.1-0.1-1.2c0,0,0-0.1-0.1-0.1c-0.1-0.1-0.4-0.1-0.8-0.1v-0.5c0.5,0,1,0,1.6,0
		c0.7,0,1.3,0,1.9,0v0.5c-0.4,0-0.7,0.1-0.7,0.1c0,0-0.1,0.1-0.1,0.1c0,0,0,0.3-0.1,0.7c0,0.4,0,0.9,0,1.5c0,0.1,0,0.6,0,1.6
		c0,0.5,0,1,0,1.5c0,0.5,0,0.8,0,0.9c0.5,0,0.8,0,1,0c0.5,0,1,0,1.4-0.1c0.1,0,0.2,0,0.3-0.1c0,0,0.1-0.1,0.1-0.2
		c0.1-0.3,0.1-0.6,0.2-0.9h0.4c0,0.1,0,0.2,0,0.2l-0.1,1.1c0,0.3,0,0.5,0,0.6c-0.1,0-0.2,0-0.3,0.1c-0.2,0-0.6,0-1,0
		c-0.1,0-0.5,0-1.3,0c-0.6,0-1,0-1.2,0C141.6,43.2,141,43.2,140.3,43.3z"/>
	<path fill="currentColor" d="M146.4,39.6c0-0.7,0.1-1.2,0.3-1.7c0.2-0.5,0.5-0.9,0.9-1.2c0.4-0.3,0.8-0.6,1.2-0.7
		c0.6-0.2,1.2-0.3,1.8-0.3c0.7,0,1.2,0.1,1.8,0.3c0.4,0.1,0.7,0.3,1,0.6c0.3,0.3,0.5,0.5,0.7,0.8c0.2,0.3,0.3,0.6,0.4,0.9
		c0.1,0.3,0.1,0.7,0.1,1.1c0,0.7-0.1,1.3-0.3,1.9c-0.2,0.4-0.4,0.8-0.8,1.1c-0.3,0.3-0.7,0.6-1.1,0.8c-0.6,0.2-1.2,0.4-2,0.4
		c-0.8,0-1.5-0.1-2.1-0.4c-0.6-0.3-1-0.7-1.4-1.3C146.6,41.2,146.4,40.4,146.4,39.6z M148.1,39.3c0,0.8,0.1,1.5,0.3,2.1
		c0.2,0.5,0.5,0.9,0.9,1.2c0.4,0.2,0.8,0.3,1.3,0.3c0.5,0,0.9-0.1,1.2-0.3c0.4-0.2,0.6-0.6,0.8-1.1c0.2-0.5,0.3-1.1,0.3-1.9
		c0-0.5-0.1-1-0.2-1.4c-0.1-0.4-0.3-0.8-0.5-1.1c-0.2-0.3-0.4-0.5-0.7-0.7c-0.3-0.2-0.6-0.2-1.1-0.2c-0.5,0-1,0.1-1.3,0.4
		c-0.4,0.2-0.6,0.6-0.8,1.1C148.2,38.2,148.1,38.7,148.1,39.3z"/>
	<path fill="currentColor" d="M154.8,36.2v-0.4c0.1,0,0.4,0,0.9,0c0.2,0,0.6,0,1,0c0.4,0,0.7,0,1,0c0.4,0,0.8,0,1.1,0c0.6,0,1,0,1.3,0.1
		c0.3,0.1,0.5,0.2,0.7,0.5c0.2,0.3,0.3,0.6,0.3,0.9c0,0.4-0.1,0.8-0.4,1.2c-0.3,0.4-0.7,0.6-1.2,0.8c0.1,0.2,0.2,0.3,0.3,0.5
		c0.1,0.2,0.2,0.3,0.2,0.3c0,0,0,0.1,0.1,0.1l0.8,1.2c0.2,0.3,0.3,0.5,0.4,0.5c0.3,0.4,0.4,0.6,0.5,0.6c0.1,0.1,0.1,0.1,0.2,0.1
		c0.1,0,0.2,0,0.3,0v0.5c-0.6,0-1,0-1.2,0c-0.3,0-0.6,0-0.9,0c0-0.1-0.1-0.2-0.1-0.3l-1.1-1.9c-0.3-0.5-0.6-1-0.8-1.3
		c-0.1-0.2-0.2-0.3-0.3-0.4l0.1-0.2c0.4,0,0.8,0,1-0.1c0.2-0.1,0.4-0.3,0.6-0.5c0.2-0.3,0.2-0.6,0.2-0.9c0-0.3-0.1-0.6-0.2-0.8
		c-0.2-0.2-0.4-0.4-0.6-0.5c-0.2-0.1-0.4-0.1-0.8-0.1c-0.2,0-0.3,0-0.5,0c0,0.1,0,0.4,0,0.9c0,1,0,1.7,0,2c0,0.5,0,1.1,0,1.7
		c0,0.7,0,1.2,0,1.3c0,0.2,0,0.3,0.1,0.4c0,0,0,0.1,0.1,0.1c0,0,0.1,0,0.2,0.1c0.1,0,0.3,0,0.6,0v0.5c-0.6,0-1.2,0-1.9,0
		c-0.6,0-1.1,0-1.6,0v-0.5c0.4,0,0.6,0,0.7-0.1c0,0,0.1,0,0.1-0.1c0,0,0-0.1,0-0.2c0-0.1,0-0.4,0.1-0.6l0-1.6v-2l0-1.1
		c0-0.4,0-0.7-0.1-0.8c0,0,0-0.1-0.1-0.1C155.5,36.3,155.2,36.2,154.8,36.2z"/>
	<path fill="currentColor" d="M166.2,35.8v0.5c-0.4,0-0.6,0-0.6,0c-0.1,0-0.1,0-0.1,0.1c0,0,0,0.1-0.1,0.1c0,0.1,0,0.2-0.1,0.3
		c0,0.1,0,0.3,0,0.5c0,0.9,0,1.4,0,1.4v2.2l0,1c0,0.4,0,0.6,0.1,0.7c0,0.1,0,0.1,0.1,0.1c0,0,0.1,0,0.2,0.1c0.1,0,0.3,0,0.6,0v0.5
		c-0.6,0-1.2,0-1.9,0c-0.6,0-1.1,0-1.5,0v-0.5c0.4,0,0.6,0,0.6,0c0.1,0,0.1,0,0.2-0.1c0,0,0-0.1,0.1-0.1c0,0,0-0.2,0-0.5
		c0-0.4,0-0.8,0-1.2v-2.2c0-0.7,0-1.2,0-1.4c0-0.5,0-0.7-0.1-0.9c0,0,0-0.1-0.1-0.1c0,0-0.1,0-0.1-0.1c-0.1,0-0.3,0-0.7,0v-0.5
		c0.5,0,1,0,1.6,0C165,35.8,165.7,35.8,166.2,35.8z"/>
	<path fill="currentColor" d="M167.3,43.3V43c0,0,0.1,0,0.1-0.1c0.1-0.1,0.3-0.2,0.4-0.2c0-0.5,0.1-1.3,0.1-2.3v-0.9c0-0.5,0-1.2,0-2.1
		c0-0.5,0-0.8-0.1-1c0,0,0-0.1,0-0.1c0,0-0.1,0-0.1-0.1c-0.1,0-0.3,0-0.7-0.1v-0.4l1.9,0c0.2,0,0.7,0,1.3,0c0.5,0,0.8,0,1.1,0
		c0.6,0,1.1,0,1.5,0.1c0.4,0.1,0.7,0.2,1,0.4c0.3,0.2,0.5,0.4,0.7,0.6c0.2,0.2,0.3,0.5,0.4,0.8c0.2,0.5,0.3,0.9,0.3,1.5
		c0,0.7-0.1,1.3-0.4,1.8c-0.2,0.5-0.6,1-1,1.3c-0.4,0.4-0.9,0.6-1.4,0.8c-0.5,0.2-1.1,0.2-1.9,0.2l-1.6,0L167.3,43.3z M169.4,42.6
		c0.3,0.1,0.7,0.1,1,0.1c0.5,0,0.9,0,1.3-0.2c0.3-0.1,0.5-0.2,0.7-0.3c0.2-0.1,0.4-0.4,0.6-0.6c0.2-0.3,0.3-0.6,0.4-1
		c0.1-0.4,0.2-0.8,0.2-1.3c0-0.4-0.1-0.8-0.2-1.2c-0.1-0.4-0.3-0.7-0.5-1c-0.2-0.3-0.5-0.5-0.9-0.6c-0.4-0.1-0.9-0.2-1.6-0.2
		c-0.3,0-0.6,0-0.9,0.1c0,0.5-0.1,1.5-0.1,2.9v1.2C169.4,41.6,169.4,42.3,169.4,42.6z"/>
	<path fill="currentColor" d="M174.7,43.3v-0.4c0.3,0,0.5,0,0.5-0.1c0.1,0,0.1,0,0.1-0.1c0,0,0.1-0.1,0.1-0.2c0-0.1,0.2-0.3,0.4-0.8
		c0.1-0.2,0.3-0.7,0.5-1.3l1.4-3.5l0.5-1.2h0.8l2.4,5.6l0.3,0.7l0.2,0.5c0,0.1,0.1,0.1,0.1,0.1c0,0,0.1,0.1,0.1,0.1c0,0,0.1,0,0.3,0
		c0.1,0,0.1,0,0.2,0v0.4l-1.5,0l-1.9,0v-0.4c0.4,0,0.7,0,0.7-0.1c0.1,0,0.1-0.1,0.1-0.2c0-0.1,0-0.2-0.1-0.4l-0.5-1.2h-2.8l-0.2,0.6
		c-0.2,0.5-0.3,0.8-0.3,0.9c0,0.1,0,0.1,0.1,0.2c0.1,0,0.3,0.1,0.8,0.1v0.4l-1.2,0L174.7,43.3z M177.1,40.4c0.3,0,0.7,0,1.1,0
		c0.4,0,0.8,0,1.1,0l-1.1-2.8L177.1,40.4z"/>
</g>
</svg>
