<?xml version="1.0" encoding="utf-8"?>
<!-- Generator: Adobe Illustrator 19.0.0, SVG Export Plug-In . SVG Version: 6.00 Build 0)  -->
<!DOCTYPE svg PUBLIC "-//W3C//DTD SVG 1.1//EN" "http://www.w3.org/Graphics/SVG/1.1/DTD/svg11.dtd">
<svg version="1.1" id="Layer_3" xmlns="http://www.w3.org/2000/svg" xmlns:xlink="http://www.w3.org/1999/xlink" x="0px" y="0px"
	 viewBox="0 0 61 42.9" enable-background="new 0 0 61 42.9" xml:space="preserve">
<g id="Lozenge_4_">
	<g>
		<path fill="currentColor" d="M60.4,9.3c0,0-0.6-4.2-2.4-6.1c-2.3-2.4-4.9-2.4-6.1-2.6C43.3,0,30.5,0,30.5,0h0c0,0-12.8,0-21.3,0.6
			C7.9,0.8,5.4,0.8,3,3.2C1.2,5,0.6,9.3,0.6,9.3S0,14.2,0,19.1v4.6c0,4.9,0.6,9.9,0.6,9.9s0.6,4.2,2.4,6.1c2.3,2.4,5.4,2.4,6.7,2.6
			c4.9,0.5,20.7,0.6,20.7,0.6s12.8,0,21.3-0.6c1.2-0.1,3.8-0.2,6.1-2.6c1.8-1.9,2.4-6.1,2.4-6.1s0.6-4.9,0.6-9.9v-4.6
			C61,14.2,60.4,9.3,60.4,9.3z M24.2,29.3l0-17.1l16.5,8.6L24.2,29.3z"/>
	</g>
</g>
</svg>
