<?xml version="1.0" encoding="utf-8"?>
<!-- Generator: Adobe Illustrator 19.0.0, SVG Export Plug-In . SVG Version: 6.00 Build 0)  -->
<!DOCTYPE svg PUBLIC "-//W3C//DTD SVG 1.1//EN" "http://www.w3.org/Graphics/SVG/1.1/DTD/svg11.dtd">
<svg version="1.1" id="Layer_1" xmlns="http://www.w3.org/2000/svg" xmlns:xlink="http://www.w3.org/1999/xlink" x="0px" y="0px"
	 viewBox="0 0 1401.1 80" enable-background="new 0 0 1401.1 80" xml:space="preserve">
	<path fill="#00529b" d="M1,56C1,38.7,1.1,21.3,0.9,4c0-2.5,0.6-3.5,3.1-3c0.5,0.1,1,0,1.5,0c463.7,0,927.3,0,1391-0.1c3.7,0,4.6,0.8,4.6,4.6
		c-0.2,18.8-0.1,37.7-0.1,56.5c-7.3-0.9-14.5-1.5-21.9-1.1c-7.5,0.4-15.1,1.1-22.4-0.7c-8.5-2-17.2-0.9-25.5-0.8
		c-10.2,0.1-20.5,0.1-30.8-0.1c-22.6-0.5-45.3,0-67.9-1c-19.1-0.9-38.3-1.4-57.4-1.4c-13.9,0-27.8-0.8-41.7-0.9
		c-9.5-0.1-19,0.1-28.4,0.1c-27.1-0.2-54.3-1.3-81.4-0.2c-1.6,0.1-3.6-0.3-4.7,1.2c-1.4,2.1-3.2,1.7-5.2,1.7
		c-15.8-0.6-31.5-2.6-47.3-1.7c-6.1,0.4-11.9-1.7-17.8-1.1c-8.1,0.8-16.2,1.7-24.4,0.9c-4.4-0.4-8.7-1.6-13.3-1.5
		c-13.4,0.3-26.9,2.8-40.2-0.8c-0.5-0.1-1-0.1-1.5,0c-8.2,2.1-16.5,1.5-24.8,1c-4.2-0.2-8.7,0-12.8,1.2c-8.6,2.5-17.1,0.3-25.5,0
		c-8.5-0.2-17.2-2.2-25.6-1.1c-10.6,1.3-21,0.2-31.4-0.1c-16.3-0.5-32.4,1.2-48.6,2.3c-5.6,0.4-11.1,0.6-16.8-1
		c-6.4-1.8-13.8-2.4-19.7,0.1c-6.6,2.9-13.1,0.1-19.4,2.1c-1.7,0.5-3.2-2.1-5.1-1.4c-8.7,3.4-17.5,3.4-26.4,0.8
		c-1.8-0.5-3.8-0.6-5.4,0.4c-3.6,2.3-7.6,2-11.6,2c-12.1,0-24-3.7-36.2-1.7c-6.3,1-12.5,0.1-18.8,0.2c-14.1,0.2-28.3-0.9-42.4,0.7
		c-7.1,0.8-14.1,2.3-21.3,2c-5.9-0.2-11.9-0.5-17.8-1c-6.4-0.6-13.2-0.2-20,0.8c-8.1,1.3-16.6-0.1-24.9,0.1
		c-16,0.4-31.9-1.9-47.8-0.9c-5.5,0.3-11.1,0.6-16.4-0.8c-8.4-2.2-17.2-0.9-25.5-0.8c-10.1,0.1-20.2,0.1-30.3-0.1
		c-22.6-0.5-45.3-0.4-67.9-0.9c-19.3-0.4-38.6-2-57.9-1.6c-12.8,0.2-25.5-0.9-38.2-0.8c-21.3,0.2-42.6,0-63.9-0.4
		C44.9,55.2,23,55.9,1,56z"/>
</svg>
