<?xml version="1.0" encoding="utf-8"?>
<!-- Generator: Adobe Illustrator 19.0.0, SVG Export Plug-In . SVG Version: 6.00 Build 0)  -->
<!DOCTYPE svg PUBLIC "-//W3C//DTD SVG 1.1//EN" "http://www.w3.org/Graphics/SVG/1.1/DTD/svg11.dtd">
<svg version="1.1" id="Layer_1" xmlns="http://www.w3.org/2000/svg" xmlns:xlink="http://www.w3.org/1999/xlink" x="0px" y="0px"
	 viewBox="0 0 1401.1 81.1" enable-background="new 0 0 1401.1 81.1" xml:space="preserve">
	<path fill="#faf8f1" d="M1401,27c0,17-0.1,34,0.1,51c0,2.5-0.5,3.5-3,3c-0.6-0.1-1.3,0-2,0C932.7,81,469.3,81,6,81.1c-4.3,0-5.2-0.9-5.1-5.1
		C1.2,58.3,1,40.7,1,23c12.5,0,25-0.6,37.4,0.2C52.3,24.1,66.2,24,80.1,24c25.6,0,51.3,0.5,76.9,0.9c24,0.4,48,1.7,71.9,1.4
		c16.6-0.2,33.2,0.8,49.8,0.6c31.3-0.4,62.6-0.2,93.9,0.2c5.8,0.1,10.8-2.5,16.4-2.3c23.6,0.5,47.2,2.5,70.8,1.3
		c13.8-0.7,27.5,2.1,41.3,0.9c10.9-0.9,21.9,0.2,32.9,0.3c16.7,0.2,33.5-0.2,50.1-1.1c8.3-0.4,16.5,0.6,24.8,1
		c10.3,0.5,20.6-0.8,30.9-0.3c20.9,0.9,41.9,0.6,62.7-1.7c4-0.4,8-0.5,12,0.3c9.4,1.9,18.7,2.5,28-0.6c1.9-0.7,3.9-0.2,5.9,0
		c4.7,0.4,9.7,0.9,14,0.2c7.5-1.1,14.8-1.1,22.2-1.1c3.1,0,6.2,1.7,9.3,0.6c4.2-1.5,8.5-1.7,12.8-1.3c15.7,1.4,31.5,1.5,47.2,1.2
		c19.6-0.3,39.2,0.6,58.8-1.4c10.4-1.1,20.8-1.1,31.3,0.2c10.5,1.3,21.1-0.8,31.6-0.8c21.6-0.1,43.2,0.7,64.8,0.8
		c16,0.1,32.1,1,48.2,0.7c12.8-0.2,25.6,0.5,38.5,0.7c22,0.2,44-0.2,66,0.7c27.6,1,55.2,1.1,82.7,1.4
		C1317.7,27.3,1359.4,27,1401,27z"/>
</svg>
