<?xml version="1.0" encoding="utf-8"?>
<!-- Generator: Adobe Illustrator 19.0.0, SVG Export Plug-In . SVG Version: 6.00 Build 0)  -->
<!DOCTYPE svg PUBLIC "-//W3C//DTD SVG 1.1//EN" "http://www.w3.org/Graphics/SVG/1.1/DTD/svg11.dtd">
<svg version="1.1" id="Layer_1" xmlns="http://www.w3.org/2000/svg" xmlns:xlink="http://www.w3.org/1999/xlink" x="0px" y="0px"
	 viewBox="0 0 43.5 29.4" enable-background="new 0 0 43.5 29.4" xml:space="preserve">
<g>
	<polygon fill="#FFFFFF" points="31.1,24.2 31.1,16.7 37.9,16.7 37.9,11.8 31.1,11.8 31.1,4.9 38.6,4.9 38.6,7.6 43.5,7.6 43.5,0 
		23.7,0 23.7,4.9 25.5,4.9 25.5,24.2 23.7,24.2 23.7,29.1 32.8,29.1 32.8,24.2 31.1,24.2 	"/>
	<path fill="#FFFFFF" d="M21.1,18.1V4.9h1.8V0h-9.2v4.9h1.8v11.6c0,4.9-0.6,7.2-4,7.2s-4-2.3-4-7.2V4.9h1.8V0H0v4.9h1.8v13.2
		c0,2.9,0,5.3,1.4,7.4c1.5,2.4,4.3,3.9,8.3,3.9C18.6,29.4,21.1,25.7,21.1,18.1L21.1,18.1z"/>
</g>
</svg>
