<?xml version="1.0" encoding="utf-8"?><!DOCTYPE svg PUBLIC "-//W3C//DTD SVG 1.1//EN" "http://www.w3.org/Graphics/SVG/1.1/DTD/svg11.dtd"><svg xmlns="http://www.w3.org/2000/svg" xmlns:xlink="http://www.w3.org/1999/xlink"><symbol viewBox="-88 423.5 512 449.5" id="alert"><g fill="currentColor"><path d="M419.7 836.7L187.9 435c-4.1-7.1-11.7-11.5-19.9-11.5s-15.8 4.4-19.9 11.5l-233 403.5c-4.1 7.1-4.1 15.9 0 23S-73.2 873-65 873h466c12.7 0 23-10.3 23-23 0-5-1.6-9.6-4.3-13.3zM-25.1 827L168 492.6 361 827H-25.1z"/><path d="M144.9 595.4V698c0 12.7 10.3 23 23 23s23-10.3 23-23V595.4c0-12.7-10.3-23-23-23s-23 10.3-23 23zM167.9 741.3c-7.5 0-15 3-20.3 8.4-5.3 5.4-8.5 12.8-8.5 20.4 0 7.5 3.1 15 8.5 20.3 5.4 5.4 12.8 8.5 20.3 8.5 7.6 0 15-3.1 20.4-8.5 5.3-5.4 8.5-12.8 8.5-20.3 0-7.6-3.1-15-8.5-20.4-5.4-5.3-12.8-8.4-20.4-8.4z"/></g></symbol><symbol viewBox="-268.7 366.2 53.5 64.2" id="arw-down"><path fill="currentColor" d="M-216.7 397.8c-2-1.9-5.1-1.9-7.1 0l-13.1 13.3v-40c0-2.8-2.2-5-5-5s-5 2.2-5 5v40l-13.3-13.3c-1.9-2-5.1-2-7.1 0-2 1.9-2 5.1 0 7.1l25.4 25.5 25.2-25.5c2-1.9 2-5.1 0-7.1z"/></symbol><symbol viewBox="0 0 64.2 53.5" id="arw-right"><path fill="none" stroke="currentColor" stroke-width="10" stroke-linecap="round" stroke-miterlimit="10" d="M35.2 5l21.9 21.7-21.9 21.8M57 26.7H5"/></symbol><symbol viewBox="-268.7 366.2 53.5 64.2" id="arw-up"><path fill="currentColor" d="M-267.2 398.7c2 1.9 5.1 1.9 7.1 0l13.1-13.3v40c0 2.8 2.2 5 5 5s5-2.2 5-5v-40l13.3 13.3c1.9 2 5.1 2 7.1 0 2-1.9 2-5.1 0-7.1l-25.4-25.5-25.2 25.5c-2 2-2 5.2 0 7.1z"/></symbol><symbol viewBox="0 0 34 53.5" id="caret"><path fill="none" stroke="currentColor" stroke-width="10" stroke-linecap="round" stroke-miterlimit="10" d="M5 5l21.9 21.7L5 48.5"/></symbol><symbol viewBox="0 0 14 14" id="close"><title/><path d="M14 1.4L12.6 0 7 5.6 1.4 0 0 1.4 5.6 7 0 12.6 1.4 14 7 8.4l5.6 5.6 1.4-1.4L8.4 7 14 1.4z" fill="currentColor" fill-rule="evenodd"/></symbol><symbol viewBox="0 0 50 90" id="facebook"><path fill="currentColor" d="M50 15.6H35.7c-1.7 0-3.6 2.2-3.6 5.2v10.3H50v14.7H32.1V90H15.3V45.9H0V31.2h15.3v-8.7C15.3 10.1 23.9 0 35.7 0H50v15.6z"/></symbol><symbol viewBox="0 0 322.7 59.2" id="florida-logo"><path fill="#8C8C8C" d="M60 48.7V34.3h13.2v-9.5H60V11.4h14.5v5.2h9.6V2H45.7v9.4h3.6v37.3h-3.6v9.4h17.7v-9.4M92.9 2h2.5v56.1h-2.5zM294.3 8h1.6l-1.8 9.1c-.5 2.5-.8 4.1-1.1 4.9-.1.4-.3.7-.5.8-.2.1-.4.2-.6.2-.2 0-.5-.1-.7-.3-.2-.2-.4-.4-.6-.8l-.4.1-.3 1.2c-.1.4-.3.9-.5 1.5.3.1.6.2.9.2.4 0 .8-.1 1.2-.3.8-.4 1.6-1.1 2.3-1.9.8-.9 1.4-1.9 1.8-3.1.5-1.2 1-3 1.7-5.7l1.3-5.8H301.7c.1-.4.2-.8.4-1.3l-.1-.3c-.3 0-.7.1-1.2.1-.9.1-1.4.1-1.6.1h-.3c.2-1.1.4-2.1.7-3.2.1-.4.2-.7.3-.9.1-.2.3-.3.4-.5.3-.1.5-.1.7-.1.3 0 .6.1.9.3.3.2.7.6 1 1.1l.4-.1c.1-1 .4-2 .7-3.1-.3-.1-.7-.2-1-.2-.5 0-.9.1-1.1.2-.3.1-.8.5-1.7 1.1-.9.6-1.6 1.3-2.4 1.9-.5.4-.8.8-1 1.2-.1.3-.3.7-.4 1.4-.1.3-.1.5-.2.6-.3.2-.8.3-1.3.5-.5.1-.9.3-1.2.4l-.2.7h.8m-11.2 2.8c.4-1.4.8-2.3 1.2-2.7.5-.5 1-.7 1.7-.7.6 0 1.1.2 1.5.7.4.4.6 1.2.6 2.1 0 1.2-.2 2.4-.5 3.7-.2.9-.5 1.6-.8 2.1-.3.5-.6.9-.9 1.1-.3.2-.7.3-1.2.3-.7 0-1.2-.2-1.6-.6-.4-.4-.6-1.1-.6-2.1.1-1.3.3-2.5.6-3.9m-3.1 5.8c.2.6.6 1.1 1.2 1.4.6.3 1.3.5 2.3.5.8 0 1.6-.1 2.2-.4.7-.2 1.3-.6 2-1.1.7-.5 1.2-.9 1.6-1.3.5-.6.9-1.4 1.2-2.4.4-1.1.5-2.1.5-3.2 0-.6-.1-1.1-.2-1.5-.1-.5-.4-.9-.6-1.2-.3-.3-.7-.6-1.3-.8-.6-.2-1.2-.3-1.9-.3-.8 0-1.6.2-2.4.5-.7.3-1.4.7-2 1.2-.6.5-1.1.9-1.3 1.2-.4.5-.8 1.3-1.1 2.3-.3 1.1-.5 2.1-.5 3.1 0 .7.1 1.4.3 2M301.4 31.8l5.4 13c-1.5.1-3.2.1-5.2.1s-3.8 0-5.4-.1l5.2-13zm-10.5 26.4l5.8.2v-2.1c-2-.1-3.2-.2-3.6-.4-.3-.2-.4-.4-.4-.8 0-.6.4-2 1.2-4.3l1.1-3h13l2.1 5.5c.4 1 .6 1.6.6 2 0 .3-.1.6-.4.7-.3.1-1.4.3-3.4.3v2.1l8.8-.2 7 .2v-2.1c-.5 0-.9-.1-1.1-.1-.8-.1-1.3-.1-1.5-.2-.2-.1-.4-.2-.5-.3-.2-.1-.3-.3-.5-.7l-1-2.3-1.6-3.4-11.2-26.2h-3.6l-2.2 5.7-6.5 16.1c-1.2 3.1-2.1 5.1-2.5 6.1-1 2.2-1.5 3.5-1.7 3.8-.2.3-.4.6-.6.8-.2.2-.4.3-.7.4-.3.1-1.1.2-2.4.3v2.1l5.8-.2zm-28.4-12.8v-5.8c0-6.6.1-11 .3-13.4 1.6-.2 3-.3 4.3-.3 3.4 0 6 .3 7.7.9 1.7.6 3.1 1.6 4.2 2.9s1.9 2.9 2.4 4.7c.5 1.8.7 3.6.7 5.5 0 2.1-.2 4-.7 5.8-.5 1.8-1.2 3.4-2 4.7-.9 1.3-1.8 2.3-2.7 3-1 .7-2.1 1.2-3.3 1.5-1.7.5-3.7.7-5.9.7-1.4 0-2.9-.1-4.5-.4-.4-1.6-.5-4.8-.5-9.8m-2.2 12.8l7.4.2c3.4 0 6.3-.4 8.6-1.1 2.4-.7 4.6-2 6.7-3.7 2-1.7 3.7-3.8 4.8-6.3 1.2-2.5 1.8-5.4 1.8-8.6 0-2.5-.4-4.8-1.2-6.9-.5-1.3-1.2-2.4-2.1-3.5-.9-1.1-2-2-3.3-2.8-1.3-.8-2.9-1.4-4.6-1.7-1.8-.4-4.1-.5-7.1-.5-1.3 0-3 0-5.1.1-3 .1-5 .1-6 .1l-9.1-.2v2c1.8.2 2.9.4 3.1.5.3.1.5.2.6.3.1.1.2.2.2.4.2.7.3 2.2.3 4.5.1 4.3.1 7.5.1 9.7v4.1c0 5-.1 8.7-.3 10.9-.5.4-1.1.8-1.7 1.1-.3.2-.6.3-.7.4v1.2l7.6-.2zm-19.4-34.8c-2.7 0-5.1-.1-7.3-.2v2.2c1.8.1 2.9.1 3.2.2.3.1.5.2.6.3.1.1.2.3.2.5.1.5.2 1.9.3 4 0 1 .1 3.1.1 6.4v10.5c0 1.7-.1 3.6-.2 5.6-.1 1.4-.2 2.2-.2 2.4 0 .2-.1.3-.2.4-.1.1-.4.2-.7.3-.3.1-1.3.1-3 .2v2.2c2.1-.1 4.5-.2 7.2-.2 3.1 0 6 .1 8.7.2v-2.2c-1.6 0-2.6-.1-3-.2-.3-.1-.6-.2-.8-.3-.2-.1-.3-.3-.3-.5-.2-.5-.3-1.6-.3-3.4l-.1-4.6V37.1c0-.3 0-2.5.1-6.7 0-1.2 0-2 .1-2.5 0-.8.1-1.3.3-1.6.1-.2.1-.3.3-.4.1-.1.4-.2.7-.3.3-.1 1.3-.1 3-.2v-2.2c-2.7.2-5.6.2-8.7.2m-40 2.4c.2.1.3.2.4.4.2.4.3 1.7.3 3.8l.1 5.3v9.3l-.2 7.3c-.1 1.3-.1 2.3-.2 3-.1.4-.1.6-.2.7-.1.1-.2.2-.4.3-.3.1-1.5.2-3.4.3v2.2c2.2-.1 4.6-.2 7.2-.2 2.9 0 5.8.1 8.7.2v-2.2c-1.6 0-2.6-.1-2.9-.2-.3-.1-.6-.2-.7-.3-.2-.1-.3-.2-.3-.4-.1-.3-.2-.9-.3-1.8 0-.5-.1-2.4-.2-5.9-.1-2.8-.1-5.5-.1-8 0-1.6.1-4.7.2-9.5.1-2.1.1-3.5.2-4.1.8-.1 1.6-.2 2.4-.2 1.8 0 3.1.1 3.8.4 1.1.4 2 1.1 2.7 2.1.7 1 1.1 2.3 1.1 3.8s-.4 2.9-1.1 4.1c-.7 1.2-1.6 2.1-2.6 2.6s-2.5.7-4.5.6l-.3.8c.5.4 1 .9 1.6 1.7 1.1 1.5 2.4 3.4 3.9 6l5.4 8.8c.3.6.5 1.1.6 1.4 1.3-.1 2.6-.1 4-.1 1.2 0 3 0 5.6.1v-2.2c-.8 0-1.3-.1-1.6-.2-.3-.1-.5-.3-.8-.6-.3-.3-1.1-1.3-2.3-2.9-.1-.1-.6-.9-1.7-2.5l-3.9-5.8c-.1-.2-.2-.3-.3-.5-.1-.2-.4-.6-.9-1.4-.5-.8-1-1.5-1.4-2.3 2.6-1 4.5-2.3 5.8-3.9 1.3-1.7 1.9-3.5 1.9-5.5 0-1.7-.5-3.2-1.4-4.3-.9-1.2-2-2-3.3-2.3-1.3-.4-3.3-.6-5.9-.6-1.4 0-3.1 0-5.1.1-1.3.1-2.8.1-4.5.1-2.1 0-3.6 0-4.8-.1-2.3-.1-3.6-.1-4-.1v2c1.8.4 3 .5 3.4.7m-32.8 6.5c.8-2.2 2-3.9 3.7-5.1 1.7-1.1 3.8-1.7 6.2-1.7 2.1 0 3.9.4 5.2 1.1 1.3.7 2.4 1.8 3.4 3.1 1 1.4 1.7 3 2.2 5 .5 1.9.8 4.1.8 6.4 0 3.4-.5 6.3-1.4 8.7-.9 2.4-2.2 4.1-3.9 5.1-1.7 1-3.5 1.5-5.7 1.5-2.3 0-4.2-.5-5.9-1.6-1.7-1.1-3-2.9-4.1-5.4-1.1-2.6-1.6-5.8-1.6-9.7 0-2.7.4-5.2 1.1-7.4m-6.5 18.8c1.5 2.7 3.7 4.7 6.4 6 2.7 1.4 5.9 2 9.7 2 3.5 0 6.6-.6 9.3-1.7 2-.8 3.7-2 5.3-3.6 1.5-1.6 2.7-3.3 3.5-5.3 1.1-2.7 1.6-5.6 1.6-8.8 0-1.9-.2-3.6-.6-5.1-.4-1.5-.9-2.9-1.7-4.2-.7-1.3-1.8-2.5-3.2-3.8-1.4-1.2-3-2.2-4.9-2.8-2.5-.9-5.2-1.3-8.3-1.3-3.1 0-5.9.4-8.5 1.3-2 .7-3.9 1.8-5.6 3.4-1.7 1.6-3 3.5-4 5.8-.9 2.3-1.4 4.9-1.4 8 .1 4.2.8 7.5 2.4 10.1m-21.7 7c1.1 0 3 0 5.8.1 3.6.1 5.6.1 5.9.1 2.1 0 3.7 0 4.7-.1.5-.1 1-.1 1.5-.3 0-.3.1-1.3.2-2.9l.6-5.1c0-.1 0-.4.1-.8h-2.1c-.3 1.6-.6 3.1-1 4.4-.2.5-.3.8-.4.9-.1.1-.5.2-1.2.3-1.9.3-4.1.4-6.6.4-.8 0-2.4-.1-4.7-.2v-4.3-7.1-7.2c0-2.8 0-5.1.1-7 .1-1.8.2-2.9.2-3.1.1-.2.2-.4.4-.5.4-.2 1.6-.4 3.5-.5V23c-2.7.1-5.6.2-8.6.2-2.7 0-5.1-.1-7.3-.2v2.2c2.2.1 3.5.3 3.8.5.2.1.3.3.4.5.2.5.3 2.2.3 5.4v9.8c0 3.6 0 6.7-.1 9.2-.1 2.6-.1 4.1-.2 4.5 0 .1-.1.2-.1.3-.1.1-.3.3-.7.5-.8.5-1.4.8-1.8 1v1.3c3.2 0 5.7-.1 7.3-.1M126 35.3h-2.2c0 1.5-.1 2.4-.3 2.9-.1.3-.3.5-.5.6-.6.2-1.9.3-4.1.3-.8 0-2.2-.1-4.3-.2v-3.5c0-4.3.1-7.3.3-9 .5 0 1.3-.1 2.6-.1s2.1-.1 2.4-.1c1.5 0 2.7.1 3.8.3 1.1.2 1.8.4 2.1.6.1.1.2.1.2.2.1.1.1.6.2 1.3.1 1.4.1 2.3.1 2.7h2c0-1.1.1-2.4.2-3.9s.3-2.7.5-3.6l-.2-.4c-1.5-.2-3.1-.3-4.8-.3l-12 .3-8.9-.2v2.1c1.6.1 2.6.2 3 .3.4.1.6.2.7.3.1.1.2.2.2.4.2.5.2 1.4.3 2.7.2 4.5.2 6.8.2 7v10.4c0 .9 0 2.3-.1 4.4-.1 2-.2 3.2-.2 3.6-.1.7-.2 1.1-.4 1.3-.1.1-.2.2-.4.3-.3.1-1.4.2-3.4.2v2.1c3.1-.1 5.3-.2 6.8-.2l9.9.2v-2c-2.3-.2-3.6-.3-3.9-.4-.3-.1-.5-.3-.6-.4-.2-.3-.3-1.2-.4-2.8-.1-1.6-.1-4.4-.1-8.3v-2.8h2c2.7 0 4.6.1 5.8.3.5.1.8.3.9.5.2.4.4 1.7.4 3.8h2.2V35.3zM261.5 6c-.5-1-1-1.9-1.5-2.6-.3-.5-.6-.9-.8-1-.2-.2-.5-.4-.9-.6l-1.2.3-2.2.4v.8c.5 0 .8 0 .9.1.1.1.4.3.7.7.5.6 1.1 1.3 1.7 2.3.8 1.2 1.5 2.4 2.1 3.6.3.5.4.8.4 1v2c0 .6 0 1.2-.1 2 0 .3-.1.6-.1.6s-.1.1-.3.2c-.1 0-.6.1-1.4.1v.9c1.1-.1 2.1-.1 3.2-.1s2.3 0 3.6.1v-.9c-.8 0-1.2 0-1.4-.1-.1 0-.3-.1-.3-.2-.1-.1-.1-.3-.2-.7 0-.4-.1-1.1-.1-1.9v-2-.8c.1-.2.2-.5.3-.8.2-.4.8-1.4 1.8-3 1-1.5 1.9-2.9 2.7-4V2H267c-.1.2-.3.6-.7 1.3-1.1 2-1.8 3.1-2 3.5L263 9l-1.5-3m-17.2 10.6c.9 0 2.1 0 3.4.1v-.9c-.8 0-1.3-.1-1.5-.2-.2-.1-.3-.2-.3-.4-.1-.3-.1-1.2-.1-2.7V6.2 3.3h1.5c.8 0 1.5 0 2.1.1.2 0 .3 0 .3.1.1 0 .1.2.1.5.1.5.1 1 .1 1.6h.9V3.3c0-.3.1-.7.1-1.1V2c-.3 0-.7.1-1 .1h-11.2c-.4 0-.7 0-1-.1l-.1.1c0 .4.1.7.1 1 0 .2 0 1 .1 2.4h.9c0-.6.1-1.2.2-1.6 0-.2.1-.3.1-.4 0 0 .2-.1.4-.1.6 0 1.2-.1 2-.1h1.5v9.2c0 1.5 0 2.4-.1 2.7-.1.2-.2.3-.3.4-.2.1-.7.1-1.5.2v.9c1.2-.1 2.3-.1 3.3-.1M229.7 2.1c-1.1 0-2.2 0-3-.1v.9c.8 0 1.2.1 1.3.1.1 0 .2.1.3.1 0 0 .1.1.1.2.1.2.1.8.1 1.7V12.1c0 .7 0 1.5-.1 2.3 0 .6-.1.9-.1 1 0 .1 0 .1-.1.2-.1 0-.2.1-.3.1-.1 0-.5 0-1.3.1v.9c.9-.1 1.9-.1 3-.1 1.3 0 2.5 0 3.7.1v-.9c-.7 0-1.1 0-1.3-.1-.1 0-.2-.1-.3-.1-.1-.1-.1-.1-.1-.2-.1-.2-.1-.7-.1-1.4V7.8 5 4c0-.3.1-.6.1-.7 0-.1.1-.1.1-.2.1 0 .2-.1.3-.1.1 0 .6-.1 1.3-.1V2c-1.1 0-2.3.1-3.6.1m-9.3 2c0-.4.1-.9.2-1.3l-.1-.3c-.5-.3-1.1-.4-1.8-.6-.7-.1-1.4-.2-2.2-.2-.7 0-1.4.1-2.1.2-.7.2-1.3.4-1.8.8s-1 .9-1.3 1.5c-.3.7-.5 1.4-.5 2.2 0 .6.1 1.1.3 1.6.2.5.5.9.8 1.2.4.3.9.6 1.5.8.4.1 1.2.3 2.5.6.9.2 1.5.4 1.9.6s.6.4.8.8c.2.3.2.7.2 1.1 0 .5-.1 1-.4 1.4-.2.4-.6.7-1.1 1-.5.2-1.1.4-1.8.4-.8 0-1.5-.2-2.1-.5-.6-.3-1.1-.7-1.4-1.1-.1-.8-.1-1.4-.1-1.9h-.9c0 1.6-.1 2.9-.3 3.7.8.4 1.5.7 2.2.8.7.2 1.4.2 2.3.2 1.2 0 2.2-.2 3-.5.5-.2 1-.5 1.5-1 .5-.4.9-.9 1.2-1.4.4-.7.6-1.5.6-2.4 0-.5-.1-1-.2-1.4-.1-.4-.3-.8-.5-1-.2-.3-.5-.5-.8-.7-.3-.2-.8-.4-1.4-.5-.2 0-.7-.1-1.4-.3-.7-.1-1.3-.2-1.7-.3-.5-.1-.9-.3-1.2-.5-.3-.2-.5-.4-.6-.7-.1-.3-.2-.7-.2-1.1 0-.6.3-1.2.8-1.7s1.3-.7 2.2-.7c.7 0 1.3.1 1.8.4.5.2.9.5 1.1.8.1.3.1.9.1 1.7h.9c-.1-.7-.1-1.3 0-1.7m-27.2-1c.1 0 .1.1.2.2.1.2.1.7.1 1.6l.1 2.2V11l-.1 3.1c0 .6-.1 1-.1 1.2 0 .1-.1.2-.1.3 0 0-.1.1-.2.1s-.6.1-1.4.1v.9c.9-.1 1.9-.1 3-.1 1.2 0 2.4 0 3.6.1v-.9c-.7 0-1.1 0-1.2-.1-.1 0-.2-.1-.3-.1-.1 0-.1-.1-.1-.2-.1-.1-.1-.4-.1-.8 0-.2 0-1-.1-2.5V8.8c0-.7 0-2 .1-4 0-.9 0-1.5.1-1.7.3-.1.7-.1 1-.1.8 0 1.3.1 1.6.2.5.2.8.5 1.1.9.3.4.5 1 .5 1.6 0 .6-.1 1.2-.4 1.7-.3.5-.7.9-1.1 1.1-.4.2-1.1.3-1.9.3l-.1.3.7.7c.4.6 1 1.4 1.6 2.5l2.2 3.7.3.6h4v-.9c-.3 0-.6 0-.7-.1-.1 0-.2-.1-.3-.3-.1-.1-.4-.5-1-1.2 0 0-.3-.4-.7-1l-1.6-2.4c0-.1-.1-.1-.1-.2s-.2-.3-.4-.6-.4-.6-.6-1c1.1-.4 1.9-1 2.4-1.7s.8-1.5.8-2.3c0-.7-.2-1.3-.6-1.8-.4-.5-.9-.8-1.4-1-.7-.1-1.5-.1-2.6-.1-.6 0-1.3 0-2.2.1h-3.9c-1 0-1.5-.1-1.7-.1v.9c.9 0 1.5.1 1.6.2m-13.8 13.5h5.1c.8 0 1.5 0 1.9-.1l.1-.1c0-.9.1-2 .2-3.4h-.9c-.1.9-.3 1.6-.4 1.9 0 .1-.1.2-.1.2-.1.1-.5.2-1.2.2-.6 0-1.3.1-2.1.1s-1.4 0-2-.1V9.7c.4-.1 1-.1 1.7-.1.8 0 1.4 0 1.9.1.2 0 .4.1.5.3.1.2.2.7.2 1.5h.9l-.1-2.3.1-2.3h-.9c0 .6-.1 1.1-.1 1.3 0 .1-.1.2-.2.2s-.3.1-.7.1h-1.7c-.5 0-1 0-1.5-.1V6.3c0-1.2 0-2.2.1-3 .6-.1 1.3-.1 1.9-.1.7 0 1.3 0 2 .1.5 0 .7.1.8.2.1 0 .1.1.1.2 0 .2.1.7.1 1.5h.8c.1-.9.1-1.4.1-1.5l.2-1.5-.1-.1c0-.1-.1-.1-.2-.1H175.3v.8c.8 0 1.3.1 1.5.2.1 0 .1.1.2.2.1.2.1.7.1 1.4v6.7c0 .5 0 1.4-.1 2.6 0 .7-.1 1.1-.1 1.4-.3.2-.6.4-1 .6v.6c2.2.1 3.3.1 3.5.1m-15.2.2c.4-1.2 1.2-3.2 2.4-6.1l1.4-3.4.7-1.7c.6-1.4 1-2.2 1.2-2.4.1-.1.5-.2 1.2-.2V2l-2.3.1-2.6-.1v.9c.3 0 .7 0 1.2.1.2 0 .3 0 .4.1.1 0 .1.1.2.1 0 .1.1.1.1.3v.3c-.1.3-.3.8-.6 1.7-.4 1.2-.7 1.9-.7 2l-2.3 5.8-2.7-6.5c0-.1-.1-.1-.1-.2s-.2-.4-.4-1c-.5-1.1-.7-1.8-.7-2 0-.1 0-.2.1-.3.1-.1.2-.1.3-.2.3-.1.7-.1 1.3-.1V2l-3.8.1c-.4 0-1.4 0-3.1-.1v.9c.7 0 1.1.1 1.3.2.1.1.3.4.6.9s1 2.2 2.2 5l1.5 3.6c.5 1.3 1.1 2.7 1.7 4.2h1.5zM147.4 2.1c-1.1 0-2.2 0-3-.1v.9c.8 0 1.2.1 1.3.1.1 0 .2.1.2.1s.1.1.1.2c0 .2.1.8.1 1.7V12.1c0 .7 0 1.5-.1 2.3 0 .6-.1.9-.1 1 0 .1 0 .1-.1.2-.1 0-.2.1-.3.1-.1 0-.5 0-1.3.1v.9c.9-.1 1.9-.1 3-.1 1.3 0 2.5 0 3.7.1v-.9c-.7 0-1.1 0-1.3-.1-.1 0-.2-.1-.3-.1-.1-.1-.1-.1-.1-.2-.1-.2-.1-.7-.1-1.4V7.8 5 4c0-.3.1-.6.1-.7 0-.1.1-.1.1-.2.1 0 .2-.1.3-.1.1 0 .6-.1 1.3-.1V2c-1 0-2.2.1-3.5.1m-24.2 14.6c1.2-.1 2.1-.1 2.8-.1h2.3v-.9h-.2c-.2 0-.5 0-1-.1-.2 0-.3-.1-.4-.1-.1-.1-.1-.1-.1-.2-.1-.2-.1-.7-.1-1.5 0-1.2-.1-2.3-.1-3.4V5.3c4.2 5.1 7.4 8.9 9.6 11.4l1.8.3.1-.1c-.1-1-.1-3.8-.1-8.5V5.6c0-1.3.1-2.1.2-2.4 0-.1.1-.1.1-.2.2-.1.7-.2 1.5-.2V2c-1.1.1-2 .1-2.7.1-.7 0-1.5 0-2.4-.1v.9c.9 0 1.5.1 1.6.2.1.1.2.2.2.5.1.7.1 2.9.1 6.7v2.4c-1-1-2.2-2.4-3.7-4.2-2.1-2.5-3.8-4.6-5.2-6.5H125c-.4 0-1.1 0-2-.1v.9c.7 0 1.2.1 1.3.1.2 0 .3.1.3.2.1.1.1.2.2.3 0 .2.1.5.1 1l.1 3.1v5.8c-.1 1-.1 1.7-.2 1.9 0 .2-.1.3-.1.4s-.1.1-.2.1-.6.1-1.4.1v.9zM104.5 3l.3.3c.1.1.1.4.1.7 0 .8.1 1.7.1 2.6v4.7c0 1.1 0 1.8.1 2 0 .4.2.8.4 1.3.2.4.6.8 1 1.2.4.4 1 .6 1.7.8.9.3 1.9.4 3 .4.9 0 1.7-.1 2.4-.3.7-.2 1.3-.5 1.8-.9s.9-.8 1.2-1.3c.3-.5.5-1.1.6-1.7.1-.7.1-1.3.1-2V8.4c0-.7 0-1.7.1-3 0-1.3.1-2 .1-2.1.1-.2.1-.3.2-.3.2-.1.6-.2 1.2-.2V2h-2.8c-.2 0-1 0-2.3-.1v.9c.8 0 1.3.1 1.5.2.1.1.2.1.2.3.1.2.1.7.1 1.6v5.5c0 1.5-.1 2.5-.4 3-.2.5-.7 1-1.2 1.3-.6.3-1.4.5-2.3.5-.8 0-1.5-.1-2.1-.4s-1-.6-1.2-1c-.3-.4-.4-.9-.5-1.6V6.3c0-1.5 0-2.4.1-2.9 0-.2.1-.3.2-.4.2-.1.7-.2 1.4-.2V2h-6.5v.9l1.4.1z"/><path fill="#8C8C8C" d="M60 48.7V34.3h13.2v-9.5H60V11.4h14.5v5.2h9.6V2H45.7v9.4h3.6v37.3h-3.6v9.4h17.7v-9.4M40.7 36.9V11.4h3.5V2H26.5v9.4H30v22.3c0 9.4-1.1 13.9-7.8 13.9s-7.8-4.5-7.8-13.9V11.4h3.4V2H0v9.4h3.5v25.5c0 5.6 0 10.1 2.6 14.2 2.9 4.6 8.3 7.6 16 7.6 13.7.1 18.6-7.1 18.6-21.8"/></symbol><symbol viewBox="0 0 194.8 35.8" id="florida-logo-full"><path fill="#F37123" d="M56.1 1.2v33.9h1.5V1.2h-1.5"/><path fill="#005596" d="M169.1 10c.1.4.4.6.7.8.3.2.8.3 1.4.3.5 0 .9-.1 1.3-.2s.8-.4 1.2-.7c.4-.3.7-.5.9-.8.3-.3.5-.8.7-1.5.2-.6.3-1.3.3-1.9 0-.3 0-.6-.1-.9-.1-.3-.2-.5-.4-.7-.2-.2-.4-.4-.8-.5-.3-.1-.7-.2-1.2-.2s-1 .1-1.4.3c-.4.2-.9.4-1.2.7-.4.3-.6.5-.8.7-.2.3-.5.8-.7 1.4-.2.7-.3 1.3-.3 1.9.2.5.3.9.4 1.3zm1.8-3.5c.2-.8.5-1.4.7-1.7.3-.3.6-.4 1-.4s.7.1.9.4c.2.3.4.7.4 1.3 0 .7-.1 1.4-.3 2.2-.1.5-.3.9-.5 1.2-.2.3-.4.5-.6.7-.2.1-.4.2-.7.2-.4 0-.7-.1-1-.4-.2-.3-.3-.7-.3-1.3.1-.6.2-1.4.4-2.2zm6.8-1.7h1l-1.1 5.5c-.3 1.5-.5 2.5-.7 3-.1.2-.2.4-.3.5-.1.1-.2.1-.4.1-.1 0-.3-.1-.4-.2-.1-.1-.2-.3-.3-.5h-.2c-.1.3-.1.5-.2.7-.1.2-.2.5-.3.9.2.1.4.1.6.1.2 0 .5-.1.7-.2.5-.2.9-.6 1.4-1.2.5-.5.8-1.2 1.1-1.9.3-.7.6-1.8 1-3.4l.8-3.5h1.8c0-.2.1-.5.2-.8l-.1-.1c-.1.2-.3.2-.7.2h-1.2c.1-.6.3-1.3.4-1.9.1-.2.1-.4.2-.5l.3-.3c.1-.1.2-.1.4-.1s.3.1.5.2.4.3.6.7h.2c.1-.6.2-1.2.4-1.9-.1-.2-.3-.2-.5-.2-.3 0-.5 0-.7.1-.2.1-.5.3-1 .7-.5.4-1 .8-1.4 1.2-.3.3-.5.5-.6.8-.1.2-.2.4-.3.9 0 .2-.1.3-.1.4-.2.1-.5.2-.8.3-.3.1-.6.2-.7.2l-.1.4c.1-.2.3-.2.5-.2zM76.1 21.3h-1.3c0 .9-.1 1.5-.2 1.7-.1.2-.2.3-.3.3-.3.1-1.2.2-2.5.2-.5 0-1.3 0-2.6-.1v-2.1c0-2.6.1-4.4.2-5.4.3 0 .8 0 1.6-.1h1.4c.9 0 1.7.1 2.3.2.7.1 1.1.2 1.3.4.1 0 .1.1.1.1 0 .1.1.4.1.8.1.8.1 1.4.1 1.6h1.2c0-.7.1-1.4.1-2.3.1-.9.2-1.6.3-2.2l-.1-.2c-.9-.1-1.9-.2-2.9-.2l-7.3.1-5.4-.1v1.3c1 .1 1.6.1 1.8.2.2.1.4.1.4.2.1.1.1.1.1.2.1.3.1.9.2 1.7.1 2.7.1 4.1.1 4.2V28c0 .5 0 1.4-.1 2.6-.1 1.2-.1 2-.1 2.2-.1.4-.1.7-.2.8l-.2.2c-.2.1-.9.1-2 .1v1.2c1.9-.1 3.2-.1 4.1-.1l5.9.1V34c-1.4-.1-2.2-.2-2.4-.2-.2-.1-.3-.2-.4-.3-.1-.2-.2-.7-.2-1.7-.1-1-.1-2.6-.1-5v-1.7h1.2c1.6 0 2.8.1 3.5.2.3.1.5.2.5.3.1.3.2 1 .3 2.3h1.3c.2-2.7.2-4.9.2-6.6zm8.4 13.8c.7 0 1.8 0 3.5.1 2.2.1 3.4.1 3.6.1 1.3 0 2.2 0 2.9-.1.3 0 .6-.1.9-.2 0-.2.1-.8.1-1.7l.4-3.1v-.5h-1.2c-.2 1-.4 1.9-.6 2.6-.1.3-.2.5-.3.6-.2.1-.4.1-.8.2-1.1.2-2.5.3-4 .3-.5 0-1.5 0-2.8-.1v-2.6-4.3V22c0-1.7 0-3.1.1-4.2 0-1.1.1-1.7.1-1.9 0-.1.1-.2.2-.3.3-.1.9-.2 2.1-.3V14c-1.6.1-3.4.1-5.2.1-1.6 0-3.1 0-4.4-.1v1.3c1.3.1 2.1.2 2.3.3.1.1.2.2.2.3.1.3.2 1.4.2 3.3v5.9c0 2.2 0 4-.1 5.6 0 1.6-.1 2.5-.1 2.7 0 .1 0 .1-.1.2s-.2.2-.4.3c-.5.3-.8.5-1.1.6v.8c2-.2 3.5-.2 4.5-.2zm13-4.2c.9 1.6 2.2 2.8 3.8 3.6 1.6.8 3.6 1.2 5.8 1.2 2.1 0 4-.3 5.6-1 1.2-.5 2.3-1.2 3.2-2.2.9-.9 1.6-2 2.1-3.2.7-1.6 1-3.4 1-5.3 0-1.1-.1-2.1-.3-3.1-.2-.9-.6-1.8-1-2.6s-1.1-1.5-1.9-2.3c-.9-.7-1.8-1.3-2.9-1.7-1.5-.5-3.2-.8-5-.8-1.8 0-3.5.3-5.1.8-1.2.4-2.3 1.1-3.4 2.1-1 1-1.8 2.1-2.4 3.5-.6 1.4-.8 3-.8 4.8 0 2.6.4 4.6 1.3 6.2zm4-11.4c.5-1.4 1.2-2.4 2.3-3.1 1-.7 2.3-1 3.8-1 1.3 0 2.3.2 3.1.7.8.4 1.5 1.1 2 1.9.6.8 1 1.8 1.3 3 .3 1.2.5 2.5.5 3.9 0 2.1-.3 3.8-.9 5.3-.6 1.4-1.4 2.5-2.4 3.1-1 .6-2.1.9-3.4.9-1.4 0-2.6-.3-3.6-1-1-.6-1.8-1.7-2.5-3.3-.6-1.5-1-3.5-1-5.8.1-1.8.3-3.3.8-4.6zm19.8-3.9c.1.1.2.1.2.3.1.3.2 1 .2 2.3l.1 3.2V27l-.1 4.4c0 .8-.1 1.4-.2 1.8 0 .2-.1.4-.1.4-.1.1-.1.1-.3.2-.2.1-.9.1-2 .2v1.3c1.3-.1 2.8-.1 4.4-.1 1.8 0 3.5 0 5.2.1V34c-1 0-1.6 0-1.8-.1-.2 0-.3-.1-.4-.2-.1-.1-.2-.1-.2-.2-.1-.2-.1-.5-.2-1.1 0-.3-.1-1.5-.1-3.5v-4.8c0-1 0-2.9.1-5.7 0-1.3.1-2.1.1-2.5.5-.1 1-.1 1.4-.1 1.1 0 1.8.1 2.3.2.7.2 1.2.7 1.7 1.3.4.6.7 1.4.7 2.3 0 .9-.2 1.7-.6 2.5-.4.7-.9 1.3-1.6 1.5-.6.3-1.5.4-2.7.4l-.2.5c.3.2.6.6.9 1l2.4 3.6 3.2 5.3c.2.4.3.6.4.9.8 0 1.6-.1 2.4-.1.7 0 1.8 0 3.4.1V34c-.5 0-.8 0-1-.1-.2-.1-.3-.2-.5-.4s-.6-.8-1.4-1.8c-.1-.1-.4-.6-1-1.5l-2.3-3.5c-.1-.1-.1-.2-.2-.3-.1-.1-.2-.4-.6-.9-.3-.5-.6-.9-.9-1.4 1.6-.6 2.7-1.4 3.5-2.4.8-1 1.1-2.1 1.1-3.3 0-1-.3-1.9-.8-2.6-.6-.7-1.2-1.2-2-1.4-.8-.2-2-.3-3.6-.3-.8 0-1.9 0-3.1.1-.8 0-1.7.1-2.7.1h-2.9c-1.4 0-2.2-.1-2.4-.1v1.2c1.2 0 2 .1 2.2.2zm24.2-1.5c-1.6 0-3.1 0-4.4-.1v1.3c1.1 0 1.7.1 1.9.1.2 0 .3.1.4.2.1.1.1.2.1.3.1.3.1 1.1.2 2.4v10.2c0 1 0 2.2-.1 3.4-.1.8-.1 1.3-.1 1.4 0 .1-.1.2-.1.2-.1.1-.2.1-.4.2-.2 0-.8.1-1.8.1v1.3c1.3-.1 2.7-.1 4.4-.1 1.9 0 3.6 0 5.3.1v-1.3c-1 0-1.6-.1-1.8-.1-.2 0-.4-.1-.5-.2-.1-.1-.2-.2-.2-.3-.1-.3-.2-1-.2-2V22.3c0-.2 0-1.5.1-4v-1.5c0-.5.1-.8.2-1 0-.1.1-.2.2-.2.1-.1.2-.1.4-.2.2 0 .8-.1 1.8-.1V14c-1.8.1-3.6.1-5.4.1zm11.7 21l4.5.1c2 0 3.8-.2 5.2-.7 1.4-.5 2.8-1.2 4-2.2 1.2-1 2.2-2.3 2.9-3.8.7-1.5 1.1-3.2 1.1-5.2 0-1.5-.2-2.9-.7-4.2-.3-.8-.7-1.5-1.2-2.1-.5-.7-1.2-1.2-2-1.7s-1.7-.8-2.8-1c-1.1-.2-2.5-.3-4.3-.3-.8 0-1.8 0-3.1.1-1.8.1-3 .1-3.6.1l-5.5-.1v1.2c1.1.1 1.7.2 1.9.3s.3.1.4.2c.1.1.1.1.1.2.1.4.2 1.3.2 2.7.1 2.6.1 4.5.1 5.9V27c0 3-.1 5.2-.2 6.6-.3.2-.7.5-1 .7-.2.1-.3.2-.4.2v.7l4.4-.1zm1.3-7.7v-3.5c0-4 .1-6.7.2-8.1.9-.1 1.8-.2 2.6-.2 2.1 0 3.6.2 4.6.5 1 .4 1.9.9 2.5 1.8.7.8 1.1 1.7 1.4 2.8.3 1.1.4 2.2.4 3.3 0 1.3-.1 2.4-.4 3.5-.3 1.1-.7 2-1.2 2.8-.5.8-1.1 1.4-1.7 1.8-.6.4-1.2.7-2 .9-1 .3-2.2.4-3.6.4-.9 0-1.8-.1-2.7-.2-.1-.8-.1-2.8-.1-5.8zm17.2 7.7l3.5.1V34c-1.2 0-1.9-.1-2.2-.3-.2-.1-.2-.3-.2-.5 0-.3.3-1.2.8-2.6l.7-1.8h7.8l1.3 3.3c.2.6.3 1 .3 1.2 0 .2-.1.3-.2.4-.2.1-.8.2-2.1.2v1.2l5.3-.1 4.2.1V34c-.3 0-.5-.1-.7-.1-.5 0-.8-.1-.9-.1-.1 0-.2-.1-.3-.2-.1-.1-.2-.2-.3-.4l-.6-1.4-.9-2.1-6.8-15.8h-2.2l-1.3 3.4-3.9 9.8c-.7 1.8-1.3 3.1-1.5 3.7-.6 1.3-.9 2.1-1 2.3-.1.2-.2.4-.3.5-.1.1-.2.2-.4.2s-.6.1-1.5.2v1.2l3.4-.1zm6.3-15.9l3.2 7.8H178.9l3.1-7.8zM63.1 1.8l.2.2c0 .1.1.2.1.4V8c0 .2.1.5.2.8.1.3.3.5.6.7.3.2.6.4 1 .5.6.2 1.2.3 1.8.3.6 0 1-.1 1.5-.2.4-.1.8-.3 1.1-.5.3-.2.5-.5.7-.8.2-.3.3-.6.3-1 .1-.4.1-.8.1-1.2V5.1 3.3c0-.8.1-1.2.1-1.3 0-.1.1-.2.1-.2.1-.1.3-.1.7-.1v-.5h-3v.5c.5 0 .8.1.9.1.1 0 .1.1.1.2s.1.4.1 1v3.3c0 .9-.1 1.5-.2 1.8-.1.3-.4.6-.7.8-.3.2-.8.3-1.4.3-.5 0-.9-.1-1.3-.2-.3-.2-.6-.3-.7-.6-.2-.2-.3-.6-.3-1V3.8c0-.9 0-1.5.1-1.7 0-.1.1-.2.1-.2.1-.1.4-.1.9-.1v-.6h-4.1v.5l1 .1zm11.3 8.3H77.5v-.6h-.1c-.1 0-.3 0-.6-.1-.1 0-.2 0-.2-.1l-.1-.1c0-.1-.1-.4-.1-.9V3.2c2.5 3.1 4.4 5.4 5.8 6.9.4.1.7.1 1.1.2l.1-.1c-.1-.6-.1-2.3-.1-5.1V3.4c0-.8.1-1.2.1-1.5 0 0 0-.1.1-.1.1-.1.4-.1.9-.1v-.5h-3v.5c.6 0 .9.1 1 .1.1 0 .1.1.1.3.1.4.1 1.7.1 4v1.5c-.6-.6-1.3-1.4-2.2-2.5-1.2-1.5-2.3-2.8-3.2-3.9h-2.7v.5c.4 0 .7.1.8.1.1 0 .2.1.2.1s.1.1.1.2V7.9c0 .6-.1 1-.1 1.2 0 .1 0 .2-.1.2l-.1.1c-.1 0-.4 0-.9.1v.6zM89 1.2h-1.8v.6c.5 0 .7 0 .8.1.1 0 .1 0 .2.1 0 0 0 .1.1.1 0 .1.1.5.1 1V7.4c0 .4 0 .9-.1 1.4v.6s0 .1-.1.1c0 0-.1.1-.2.1h-.8v.6h4v-.7h-.8c-.1 0-.2 0-.2-.1l-.1-.1c0-.1-.1-.4-.1-.9V4.7 3v-.6c0-.2 0-.3.1-.4 0 0 0-.1.1-.1 0 0 .1-.1.2-.1h.8v-.6H89zm10.1 8.9c.3-.7.8-2 1.5-3.7l.9-2 .5-1.1c.4-.9.6-1.4.7-1.4.1-.1.3-.1.7-.1v-.6h-3v.6H101.3s.1 0 .1.1v.4c0 .2-.2.5-.3 1-.3.7-.4 1.1-.5 1.2L99.2 8l-1.6-4v-.1l-.3-.6c-.3-.7-.4-1.1-.4-1.2 0-.1 0-.1.1-.2 0 0 .1-.1.2-.1.2 0 .4-.1.8-.1v-.5H93.8v.6c.4 0 .7 0 .8.1.1 0 .2.2.4.6.2.3.6 1.3 1.3 3l.9 2.2c.3.8.7 1.6 1 2.5h.9v-.1zm9.2-.1h4.3l.1-.1c0-.5 0-1.2.1-2.1h-.5c-.1.6-.2.9-.2 1.2 0 .1-.1.1-.1.1-.1.1-.3.1-.7.1h-2.5V5.8h1c.5 0 .8 0 1.1.1.1 0 .2.1.3.2.1.1.1.4.1.9h.5V4.2h-.5c0 .4 0 .6-.1.8 0 .1-.1.1-.1.1h-2.3V3.8c0-.7 0-1.4.1-1.8h1.2c.4 0 .8 0 1.2.1.3 0 .5.1.5.1l.1.1c0 .1 0 .4.1.9h.5c0-.5.1-.9.1-.9l.1-.9v-.1H106.1v.5c.5 0 .8.1.9.1l.1.1c0 .1.1.4.1.9V7c0 .3 0 .9-.1 1.6 0 .4 0 .7-.1.9-.2.1-.4.2-.6.4v.3c1.1-.2 1.8-.2 1.9-.2zm8.4-8.2l.1.1c0 .1.1.4.1 1v3.7l-.1 1.9c0 .3 0 .6-.1.7 0 .1 0 .1-.1.2l-.1.1c-.1 0-.4.1-.9.1v.6h4v-.7h-.7c-.1 0-.1 0-.2-.1l-.1-.1c0-.1-.1-.2-.1-.5V7.3v-2-2.4-1c.2 0 .4-.1.6-.1.5 0 .8 0 1 .1.3.1.5.3.7.5.2.3.3.6.3 1s-.1.7-.3 1c-.2.3-.4.5-.7.6-.3.1-.6.2-1.1.2l-.1.2c.1.1.3.2.4.4.3.4.6.9 1 1.5l1.4 2.2c.1.1.1.3.2.4h2.4v-.4c-.2 0-.3 0-.4-.1-.1 0-.1-.1-.2-.2s-.3-.3-.6-.7c0 0-.2-.2-.4-.6l-1-1.5s0-.1-.1-.1l-.2-.4c-.1-.2-.3-.4-.4-.6.7-.2 1.1-.6 1.5-1 .3-.4.5-.9.5-1.4 0-.4-.1-.8-.3-1.1-.2-.3-.5-.5-.8-.6-.3-.1-.8-.1-1.5-.1H115.8v.5c.5.2.8.2.9.2zm16.4.7c0-.3.1-.5.1-.8l-.1-.2c-.3-.2-.7-.3-1.1-.3-.4-.1-.9-.1-1.3-.1s-.9 0-1.3.1-.8.3-1.1.5c-.3.2-.6.5-.8.9-.2.4-.3.8-.3 1.3 0 .3.1.7.2.9.1.3.3.5.5.8.2.2.5.4.9.5.2.1.7.2 1.5.3.5.1.9.2 1.1.4.2.1.4.3.5.5.1.2.1.4.1.7 0 .3-.1.6-.2.9s-.4.4-.7.6c-.3.1-.7.2-1.1.2-.5 0-.9-.1-1.3-.3-.4-.2-.7-.4-.8-.7-.1-.5-.1-.8-.1-1.1h-.5c0 1-.1 1.7-.2 2.2.5.2.9.4 1.3.5.4.1.9.1 1.4.1.7 0 1.3-.1 1.8-.3.3-.1.6-.3.9-.6.3-.3.5-.5.7-.8.2-.4.3-.9.3-1.4 0-.3 0-.6-.1-.8-.1-.2-.2-.5-.3-.6-.1-.2-.3-.3-.5-.4-.2-.1-.5-.2-.8-.3-.1 0-.4-.1-.9-.2-.4-.1-.8-.1-1-.2-.3-.1-.6-.2-.7-.3-.2-.1-.3-.2-.4-.4-.1-.2-.1-.4-.1-.7 0-.4.2-.7.5-1 .3-.3.8-.4 1.3-.4.4 0 .8.1 1.1.2.3.1.6.3.7.5 0 .2.1.5.1 1h.5c.1-.6.1-1 .2-1.2zm5.6-1.3h-1.8v.6c.5 0 .7 0 .8.1.1 0 .1 0 .2.1 0 0 0 .1.1.1 0 .1.1.5.1 1V7.4c0 .4 0 .9-.1 1.4v.6s0 .1-.1.1c0 0-.1.1-.2.1h-.8v.6h4v-.7h-.8c-.1 0-.2 0-.2-.1l-.1-.1c0-.1-.1-.4-.1-.9V4.7 3v-.6c0-.2 0-.3.1-.4 0 0 0-.1.1-.1 0 0 .1-.1.2-.1h.8v-.6h-2.2zm8.8 8.8c.6 0 1.3 0 2.1.1v-.5c-.5 0-.8-.1-.9-.1-.1-.1-.2-.1-.2-.2 0-.2-.1-.7-.1-1.6V3.8 2.1h.9c.5 0 .9 0 1.3.1h.2s.1.1.1.3c0 .3.1.6.1.9h.5V2c0-.2 0-.4.1-.7l-.1-.1h-8l-.1.1c0 .2 0 .4.1.6v1.5h.5c0-.4 0-.7.1-1 0-.1 0-.2.1-.2 0 0 .1 0 .2-.1h2.1v5.5c0 .9 0 1.5-.1 1.6 0 .1-.1.2-.2.3-.1.1-.4.1-.9.1v.5c.9-.1 1.6-.1 2.2-.1zm10.4-6.4c-.3-.6-.6-1.1-.9-1.6-.2-.3-.4-.5-.5-.6-.1-.1-.3-.2-.6-.4-.2.1-.5.1-.7.2l-1.3.3V2h.6c.1 0 .2.2.5.4.3.3.7.8 1 1.4.5.7.9 1.4 1.3 2.2.2.3.2.5.2.6V9c0 .2 0 .3-.1.4 0 0-.1.1-.2.1s-.4 0-.8.1v.6h4.1v-.7c-.5 0-.8 0-.8-.1-.1 0-.2-.1-.2-.1 0-.1-.1-.2-.1-.4V6.7v-.5c0-.1.1-.3.2-.5.1-.3.5-.9 1.1-1.8.6-.9 1.1-1.7 1.7-2.4v-.3h-1c-.1.1-.2.4-.4.8-.7 1.2-1.1 1.9-1.2 2.1l-.8 1.3c-.3-.2-.6-.8-1.1-1.8z"/><g fill="#005596"><path d="M36.2 29.4v-8.7h8V15h-8V6.9H45V10h5.8V1.2H27.6v5.7h2.2v22.5h-2.2v5.7h10.7v-5.7h-2.1M24.6 22.3V6.9h2.1V1.2H16v5.7h2.1v13.5c0 5.7-.7 8.4-4.7 8.4S8.7 26 8.7 20.4V6.9h2.1V1.2H0v5.7h2.1v15.4c0 3.4 0 6.1 1.6 8.6 1.8 2.8 5 4.6 9.7 4.6 8.2 0 11.2-4.3 11.2-13.2z"/></g><path fill="#005596" d="M169.1 10c.1.4.4.6.7.8.3.2.8.3 1.4.3.5 0 .9-.1 1.3-.2s.8-.4 1.2-.7c.4-.3.7-.5.9-.8.3-.3.5-.8.7-1.5.2-.6.3-1.3.3-1.9 0-.3 0-.6-.1-.9-.1-.3-.2-.5-.4-.7-.2-.2-.4-.4-.8-.5-.3-.1-.7-.2-1.2-.2s-1 .1-1.4.3c-.4.2-.9.4-1.2.7-.4.3-.6.5-.8.7-.2.3-.5.8-.7 1.4-.2.7-.3 1.3-.3 1.9.2.5.3.9.4 1.3zm1.8-3.5c.2-.8.5-1.4.7-1.7.3-.3.6-.4 1-.4s.7.1.9.4c.2.3.4.7.4 1.3 0 .7-.1 1.4-.3 2.2-.1.5-.3.9-.5 1.2-.2.3-.4.5-.6.7-.2.1-.4.2-.7.2-.4 0-.7-.1-1-.4-.2-.3-.3-.7-.3-1.3.1-.6.2-1.4.4-2.2zm6.8-1.7h1l-1.1 5.5c-.3 1.5-.5 2.5-.7 3-.1.2-.2.4-.3.5-.1.1-.2.1-.4.1-.1 0-.3-.1-.4-.2-.1-.1-.2-.3-.3-.5h-.2c-.1.3-.1.5-.2.7-.1.2-.2.5-.3.9.2.1.4.1.6.1.2 0 .5-.1.7-.2.5-.2.9-.6 1.4-1.2.5-.5.8-1.2 1.1-1.9.3-.7.6-1.8 1-3.4l.8-3.5h1.8c0-.2.1-.5.2-.8l-.1-.1c-.1.2-.3.2-.7.2h-1.2c.1-.6.3-1.3.4-1.9.1-.2.1-.4.2-.5l.3-.3c.1-.1.2-.1.4-.1s.3.1.5.2.4.3.6.7h.2c.1-.6.2-1.2.4-1.9-.1-.2-.3-.2-.5-.2-.3 0-.5 0-.7.1-.2.1-.5.3-1 .7-.5.4-1 .8-1.4 1.2-.3.3-.5.5-.6.8-.1.2-.2.4-.3.9 0 .2-.1.3-.1.4-.2.1-.5.2-.8.3-.3.1-.6.2-.7.2l-.1.4c.1-.2.3-.2.5-.2z"/></symbol><symbol viewBox="0 0 149 149" id="icon-pencil"><g fill="none" stroke="currentColor" stroke-width="2" stroke-miterlimit="10"><path d="M25.6 107.4L20.7 132l25.3-4.2M125.8 47.7l-79.7 79.7-2.3-8-7.9-2.2-1.4-7-8.8-3.2 79.7-79.7"/><path d="M112.778 20l20.577 20.576-7 7L105.777 27z" stroke-width="1.99998"/><path d="M113.3 19.8l5.3-5.3c2.1-2.1 5.6-1.9 7.9.4L138.6 27c2.3 2.3 2.5 5.8.4 7.9l-5.3 5.3M110.9 33.3l-77 77M119.4 41.7l-77.1 77.1M22.8 124.2l6.4 6.3"/></g><path fill="none" stroke="currentColor" stroke-width="2" stroke-linecap="round" stroke-miterlimit="10" d="M7.3 104.2C3.2 95.2 1 85.1 1 74.5 1 33.9 33.9 1 74.5 1c7.6 0 15 1.2 21.9 3.3M146.7 60.9c.8 4.4 1.3 9 1.3 13.6 0 40.6-32.9 73.5-73.5 73.5-6.4 0-12.7-.8-18.7-2.4"/></symbol><symbol viewBox="0 0 86 86" id="instagram"><path fill="currentColor" d="M69 43c0 14.4-11.6 26-26 26S17 57.4 17 43c0-1.7.2-3.4.5-5H0v34.6C0 80 6 86 13.4 86h59.1C80 86 86 80 86 72.6V38H68.5c.3 1.6.5 3.3.5 5zm3.6-43H13.4C6 0 0 6 0 13.4V28h21.8c4.7-6.7 12.5-11 21.2-11 8.8 0 16.5 4.3 21.2 11H86V13.4C86 6 80 0 72.6 0zm6.5 16.6c0 1.3-1.1 2.4-2.4 2.4h-7.2c-1.3 0-2.4-1.1-2.4-2.4V9.4c0-1.3 1.1-2.4 2.4-2.4h7.2c1.3 0 2.4 1.1 2.4 2.4v7.2zM59 43c0-8.8-7.2-16-16-16s-16 7.2-16 16 7.2 16 16 16 16-7.2 16-16z"/></symbol><symbol viewBox="0 0 22.5 18" id="menu"><path fill="none" stroke="currentColor" stroke-width="2" d="M0 1h22.5M0 9h22.5M0 17h22.5"/></symbol><symbol viewBox="0 0 17 18" id="search"><circle fill="none" stroke="#FFF" stroke-width="2.292" cx="7" cy="7" r="5.8"/><path fill="none" stroke="#FFF" stroke-width="2.292" d="M10.5 11.4l5.7 5.8"/></symbol><symbol viewBox="0 0 92 74.8" id="twitter"><path fill="currentColor" d="M92 8.8c-3.4 1.5-7 2.5-10.8 3 3.9-2.3 6.9-6 8.3-10.4-3.6 2.2-7.7 3.7-12 4.6-3.5-3.7-8.4-6-13.8-6-10.4 0-18.9 8.5-18.9 18.9 0 1.5.2 2.9.5 4.3-15.7-.8-29.6-8.3-38.9-19.7-1.6 2.8-2.6 6-2.6 9.5 0 6.5 3.3 12.3 8.4 15.7-3.1-.1-6-.9-8.5-2.4v.2c0 9.1 6.5 16.8 15.1 18.5-1.6.4-3.2.7-5 .7-1.2 0-2.4-.1-3.6-.3 2.4 7.5 9.4 13 17.6 13.1-6.5 5.1-14.6 8.1-23.4 8.1-1.5 0-3-.1-4.5-.3 8.4 5.4 18.3 8.5 28.9 8.5 34.7 0 53.7-28.8 53.7-53.7 0-.8 0-1.6-.1-2.4 3.9-2.7 7.1-6.1 9.6-9.9z"/></symbol><symbol viewBox="0 0 61 42.9" id="youtube"><path fill="currentColor" d="M60.4 9.3s-.6-4.2-2.4-6.1C55.7.8 53.1.8 51.9.6 43.3 0 30.5 0 30.5 0S17.7 0 9.2.6C7.9.8 5.4.8 3 3.2 1.2 5 .6 9.3.6 9.3S0 14.2 0 19.1v4.6c0 4.9.6 9.9.6 9.9s.6 4.2 2.4 6.1c2.3 2.4 5.4 2.4 6.7 2.6 4.9.5 20.7.6 20.7.6s12.8 0 21.3-.6c1.2-.1 3.8-.2 6.1-2.6 1.8-1.9 2.4-6.1 2.4-6.1s.6-4.9.6-9.9v-4.6c.2-4.9-.4-9.8-.4-9.8zm-36.2 20V12.2l16.5 8.6-16.5 8.5z"/></symbol></svg>